#Wavefront OBJ file created by Hexagon 2 
mtllib aquacisi.mtl
g aquacisi_0
# 28 
v 0.296213 0.304229 0.088366 
v 0.296317 0.304229 -0.088178 
v -0.296573 0.304226 -0.087585 
v -0.296544 0.304226 0.088721 
v -0.349643 0.245488 -0.115778 
v -0.349652 0.245488 0.117448 
v -0.302412 0.245488 0.160958 
v -0.30259 0.232991 -0.161721 
v -0.30259 0.245488 -0.161721 
v 0.304039 0.245488 -0.161768 
v 0.304039 0.232991 -0.161768 
v 0.303764 0.245488 0.160809 
v 0.347847 0.245488 0.117364 
v 0.347848 0.245488 -0.11622 
v 0.000299 0.274857 -0.134101 
v 0.303298 0.025358 -9e-005 
v 0 0 0 
v -0.295081 0.025115 9e-005 
v 1e-006 1e-006 0 
v -0.349643 0.232991 -0.115778 
v -0.349652 0.232991 0.117448 
v -0.302412 0.232991 0.160958 
v 0.303764 0.232991 0.160809 
v 0.347847 0.232991 0.117364 
v 0.347847 0.232991 -0.11622 
v -0.000124 0.177087 -0.139693 
v -0.000334 0.274857 0.137246 
v -0.000145 0.176663 0.138277 
# 119 1 
vt 0 1 
vt 0 1 
vt 0 1 
vt 0 1 
vt 0 1 
vt 0 1 
vt 0 1 
vt 0 1 
vt 0 1 
vt 0 1 
vt 0 1 
vt 0 1 
vt 0 1 
vt 0 1 
vt 0 1 
vt 0 1 
vt 0 1 
vt 0 1 
vt 0 1 
vt 0 1 
vt 0 1 
vt 0 1 
vt 0 1 
vt 0 1 
vt 0 1 
vt 0 1 
vt 0 1 
vt 0 1 
vt 0 1 
vt 0 1 
vt 0 1 
vt 0 1 
vt 0 1 
vt 0 1 
vt 0 1 
vt 0 1 
vt 0 1 
vt 0 1 
vt 0 1 
vt 0 1 
vt 0 1 
vt 0 1 
vt 0 1 
vt 0 1 
vt 0 1 
vt 0 1 
vt 0 1 
vt 0 1 
vt 0 1 
vt 0 1 
vt 0 1 
vt 0 1 
vt 0 1 
vt 0 1 
vt 0 1 
vt 0 1 
vt 0 1 
vt 0 1 
vt 0 1 
vt 0 1 
vt 0 1 
vt 0 1 
vt 0 1 
vt 0 1 
vt 0 1 
vt 0 1 
vt 0 1 
vt 0 1 
vt 0 1 
vt 0 1 
vt 0 1 
vt 0 1 
vt 0 1 
vt 0 1 
vt 0 1 
vt 0 1 
vt 0 1 
vt 0 1 
vt 0 1 
vt 0 1 
vt 0 1 
vt 0 1 
vt 0 1 
vt 0 1 
vt 0 1 
vt 0 1 
vt 0 1 
vt 0 1 
vt 0 1 
vt 0 1 
vt 0 1 
vt 0 1 
vt 0 1 
vt 0 1 
vt 0 1 
vt 0 1 
vt 0 1 
vt 0 1 
vt 0 1 
vt 0 1 
vt 0 1 
vt 0 1 
vt 0 1 
vt 0 1 
vt 0 1 
vt 0 1 
vt 0 1 
vt 0 1 
vt 0 1 
vt 0 1 
vt 0 1 
vt 0 1 
vt 0 1 
vt 0 1 
vt 0 1 
vt 0 1 
vt 0 1 
vt 0 1 
vt 0 1 
# 34 
vn 0.284582 0.8854 0.367532 
vn 0.286423 0.884432 -0.368431 
vn -0.279792 0.885956 -0.369862 
vn -0.277677 0.88628 0.37068 
vn -0.847919 0.394577 -0.354036 
vn -0.841969 0.396375 0.366027 
vn -0.27058 0.478118 0.835577 
vn -0.300123 -0.328685 -0.895485 
vn -0.27977 0.497692 -0.820994 
vn 0.290205 0.498369 -0.816951 
vn 0.31275 -0.324236 -0.892781 
vn 0.282021 0.480444 0.830445 
vn 0.850838 0.389969 0.352136 
vn 0.856353 0.387489 -0.341338 
vn -0.000296975 0.777184 -0.629274 
vn -0.000300833 4.89755e-005 -1 
vn 0.000300833 -4.89656e-005 1 
vn 0.696937 -0.717118 0.00468552 
vn -0.000300833 4.89755e-005 -1 
vn -0.000127067 -0.614496 0.78892 
vn -0.000300833 4.89755e-005 -1 
vn 0.000300833 -4.89656e-005 1 
vn -0.671333 -0.74114 0.00485116 
vn 0.000300833 -4.89656e-005 1 
vn -0.000513609 -0.616999 -0.786964 
vn -0.905339 -0.209615 -0.369354 
vn -0.899574 -0.212957 0.381336 
vn -0.289069 -0.329354 0.898869 
vn 0.302927 -0.325092 0.895852 
vn 0.909551 -0.191666 0.368755 
vn 0.914672 -0.188477 -0.357564 
vn -0.00036971 -0.538559 -0.842588 
vn 0.000215959 0.765577 0.643344 
vn -8.62812e-006 -0.538426 0.842673 
f 1/1/1 2/2/2 3/4/3 4/3/4 
f 3/5/3 5/6/5 6/8/6 4/7/4 
f 4/9/4 6/10/6 7/11/7 
f 8/12/8 9/13/9 10/15/10 11/14/11 
f 12/16/12 13/17/13 1/1/1 
f 1/1/1 13/18/13 14/20/14 2/19/2 
f 2/21/2 14/22/14 10/23/10 
f 2/25/2 15/70/15 3/71/3 
f 9/26/9 5/27/5 3/28/3 
f 16/29/16 17/30/19 18/31/21 
f 19/32/24 16/33/17 18/34/22 
f 20/35/26 18/36/23 21/37/27 
f 18/38/23 22/39/28 21/40/27 
f 22/41/28 18/42/23 17/104/20 28/105/34 
f 23/43/29 16/44/18 24/45/30 
f 24/46/30 16/47/18 25/48/31 
f 16/49/18 11/50/11 25/51/31 
f 19/52/25 26/53/32 11/111/11 16/112/18 
f 8/54/8 18/55/23 20/56/26 
f 1/1/1 4/57/4 27/62/33 
f 12/58/12 27/59/33 7/60/7 
f 4/63/4 7/64/7 27/65/33 
f 13/66/13 24/67/30 25/69/31 14/68/14 
f 3/72/3 15/73/15 9/74/9 
f 9/75/9 15/76/15 10/77/10 
f 14/78/14 25/79/31 11/81/11 10/80/10 
f 12/82/12 23/83/29 24/85/30 13/84/13 
f 23/86/29 12/87/12 7/89/7 22/88/28 
f 6/90/6 21/91/27 22/93/28 7/92/7 
f 5/94/5 20/95/26 21/97/27 6/96/6 
f 9/98/9 8/99/8 20/101/26 5/100/5 
f 19/102/25 18/103/23 8/109/8 26/110/32 
f 8/106/8 11/107/11 26/108/32 
f 17/113/20 16/114/18 23/115/29 28/116/34 
f 23/117/29 22/118/28 28/119/34 
f 1/1/1 27/62/33 12/61/12 
f 2/25/2 10/24/10 15/70/15 
