#Wavefront OBJ file created by Hexagon 2 
mtllib archaic1.mtl
g archaic1_0
# 12 
v -0.257688 0.676344 0.257688 
v 0.257688 0.676344 0.257688 
v 0.257688 0.676344 -0.257688 
v -0.257688 0.676344 -0.257688 
v -0.026387 0 -0.026387 
v -0.026387 0 0.026387 
v -0.34875 0.474242 0.34875 
v -0.34875 0.474242 -0.34875 
v 0.026387 0 0.026387 
v 0.34875 0.474242 0.34875 
v 0.026387 0 -0.026387 
v 0.34875 0.474242 -0.34875 
# 38 1 
vt 0 1 
vt 0 1 
vt 0 1 
vt 0 1 
vt 0 1 
vt 0 1 
vt 0 1 
vt 0 1 
vt 0 1 
vt 0 1 
vt 0 1 
vt 0 1 
vt 0 1 
vt 0 1 
vt 0 1 
vt 0 1 
vt 0 1 
vt 0 1 
vt 0 1 
vt 0 1 
vt 0 1 
vt 0 1 
vt 0 1 
vt 0 1 
vt 0 1 
vt 0 1 
vt 0 1 
vt 0 1 
vt 0 1 
vt 0 1 
vt 0 1 
vt 0 1 
vt 0 1 
vt 0 1 
vt 0 1 
vt 0 1 
vt 0 1 
vt 0 1 
# 40 
vn 0 1 -5.59918e-008 
vn -9.38568e-009 0.4108 0.911725 
vn -0.911725 0.4108 -8.80575e-009 
vn 0 1 -5.59918e-008 
vn 0.911725 0.4108 8.80575e-009 
vn -9.38568e-009 0.4108 0.911725 
vn 0 1 -5.59918e-008 
vn 0.911725 0.4108 8.80575e-009 
vn 9.38568e-009 0.4108 -0.911725 
vn 0 1 -5.59918e-008 
vn -0.911725 0.4108 -8.80575e-009 
vn 9.38568e-009 0.4108 -0.911725 
vn -0.827025 -0.562165 9.06192e-009 
vn 8.55064e-009 -0.562165 -0.827025 
vn 0 -1 0 
vn -0.827025 -0.562165 9.06192e-009 
vn -8.55064e-009 -0.562165 0.827025 
vn 0 -1 0 
vn -0.827025 -0.562165 9.06192e-009 
vn -8.55064e-009 -0.562165 0.827025 
vn -9.38568e-009 0.4108 0.911725 
vn -0.911725 0.4108 -8.80575e-009 
vn -0.827025 -0.562165 9.06192e-009 
vn 8.55064e-009 -0.562165 -0.827025 
vn -0.911725 0.4108 -8.80575e-009 
vn 9.38568e-009 0.4108 -0.911725 
vn -8.55064e-009 -0.562165 0.827025 
vn 0.827025 -0.562165 -9.06192e-009 
vn 0 -1 0 
vn -8.55064e-009 -0.562165 0.827025 
vn 0.827025 -0.562165 -9.06192e-009 
vn 0.911725 0.4108 8.80575e-009 
vn -9.38568e-009 0.4108 0.911725 
vn 0.827025 -0.562165 -9.06192e-009 
vn 8.55064e-009 -0.562165 -0.827025 
vn 0 -1 0 
vn 0.827025 -0.562165 -9.06192e-009 
vn 8.55064e-009 -0.562165 -0.827025 
vn 0.911725 0.4108 8.80575e-009 
vn 9.38568e-009 0.4108 -0.911725 
f 1/1/1 2/2/4 3/4/7 4/3/10 
f 5/5/13 6/6/16 7/8/19 8/7/23 
f 6/9/17 9/10/27 10/12/30 7/11/20 
f 9/13/28 11/14/34 12/16/37 10/15/31 
f 11/17/35 5/18/14 8/20/24 12/19/38 
f 9/21/29 6/22/18 5/24/15 11/23/36 
f 3/25/8 2/26/5 10/28/32 12/27/39 
f 2/29/6 1/1/2 7/31/21 10/30/33 
f 1/1/3 4/32/11 8/34/25 7/33/22 
f 4/35/12 3/36/9 12/38/40 8/37/26 
