#Wavefront OBJ file created by Hexagon 2 
mtllib archaic2.mtl
g archaic2_0
# 12 
v -0.21182 0.676344 7.9e-005 
v 8e-005 0.676344 0.211821 
v 0.211821 0.676344 -7.9e-005 
v -7.9e-005 0.676344 -0.21182 
v -0.34875 0.474242 0.34875 
v -0.34875 0.474242 -0.34875 
v -0.034353 0 0.000591 
v 0.003551 0 0.037313 
v 0.040273 0 -0.000591 
v 0.34875 0.474242 0.34875 
v 0.002369 0 -0.037313 
v 0.34875 0.474242 -0.34875 
# 53 1 
vt 0 1 
vt 0 1 
vt 0 1 
vt 0 1 
vt 0 1 
vt 0 1 
vt 0 1 
vt 0 1 
vt 0 1 
vt 0 1 
vt 0 1 
vt 0 1 
vt 0 1 
vt 0 1 
vt 0 1 
vt 0 1 
vt 0 1 
vt 0 1 
vt 0 1 
vt 0 1 
vt 0 1 
vt 0 1 
vt 0 1 
vt 0 1 
vt 0 1 
vt 0 1 
vt 0 1 
vt 0 1 
vt 0 1 
vt 0 1 
vt 0 1 
vt 0 1 
vt 0 1 
vt 0 1 
vt 0 1 
vt 0 1 
vt 0 1 
vt 0 1 
vt 0 1 
vt 0 1 
vt 0 1 
vt 0 1 
vt 0 1 
vt 0 1 
vt 0 1 
vt 0 1 
vt 0 1 
vt 0 1 
vt 0 1 
vt 0 1 
vt 0 1 
vt 0 1 
vt 0 1 
# 16 
vn -0.425672 0.904877 7.37591e-005 
vn 7.41472e-005 0.904877 0.425673 
vn 0.425673 0.904877 -7.3983e-005 
vn -7.38792e-005 0.904877 -0.425673 
vn -0.508115 -0.690266 0.515124 
vn -0.456618 0.763482 0.456722 
vn -0.514197 -0.690289 -0.509021 
vn -0.456721 0.763483 -0.456618 
vn -0.527905 -0.849291 0.00458205 
vn 0.00522556 -0.848141 0.529745 
vn 0.53158 -0.846995 -0.00459093 
vn 0.517395 -0.686908 0.510353 
vn 0.456723 0.763481 0.456619 
vn -0.00394749 -0.848154 -0.529735 
vn 0.511259 -0.686932 -0.516468 
vn 0.456619 0.763482 -0.456722 
f 1/1/1 2/2/2 3/4/3 4/3/4 
f 5/5/5 6/6/7 7/7/9 
f 8/8/10 9/9/11 10/10/12 
f 9/11/11 11/12/14 12/13/15 
f 6/14/7 12/15/15 11/16/14 
f 11/17/14 9/18/11 8/20/10 7/19/9 
f 3/21/3 10/22/13 12/23/16 
f 2/24/2 5/25/6 10/26/13 
f 5/27/6 2/28/2 1/1/1 
f 6/29/8 1/1/1 4/30/4 
f 12/31/15 10/32/12 9/33/11 
f 11/34/14 7/35/9 6/36/7 
f 10/37/12 5/38/5 8/39/10 
f 7/40/9 8/41/10 5/42/5 
f 12/43/16 4/44/4 3/45/3 
f 4/46/4 12/47/16 6/48/8 
f 1/1/1 6/49/8 5/50/6 
f 10/51/13 3/52/3 2/53/2 
