#Wavefront OBJ file created by Hexagon 2 
mtllib arrow.mtl
g arrow_dx_0
# 61 
v 0.171736 0.314028 0.32614 
v 0 0.314028 0.34875 
v 0.021995 0.019804 0.021995 
v -0.021995 0.019804 0.021995 
v -0.171736 0.314028 0.32614 
v -0.021995 0.019804 -0.021995 
v -0.34875 0.314028 0 
v -0.326141 0.314028 -0.171735 
v 0 0.314028 -0.34875 
v 0.021995 0.019804 -0.021995 
v 0 0 0 
v 0.32614 0.314028 -0.171736 
v 0.34875 0.314028 0 
v -0.147925 0.156265 -0.147924 
v -0.171736 0.314028 -0.32614 
v 0.171735 0.314028 -0.326141 
v 0.147924 0.156265 -0.147924 
v 0.326141 0.314028 0.171735 
v 0.147924 0.156265 0.147924 
v -0.147924 0.156265 0.147924 
v -0.32614 0.314028 0.171736 
v -0.34875 0.321522 0 
v -0.326141 0.321522 -0.171735 
v -0.171736 0.321522 -0.32614 
v 0 0.321522 -0.34875 
v -0.269624 0.314025 -0.269623 
v 0.171735 0.321522 -0.326141 
v 0.269623 0.314025 -0.269624 
v -0.269624 0.321479 -0.269623 
v 0.32614 0.321522 -0.171736 
v 0.34875 0.321522 0 
v 0.269623 0.321479 -0.269624 
v 0.269624 0.314025 0.269623 
v -0.269623 0.314025 0.269624 
v 0 0.391632 -0.235583 
v 0.326141 0.321522 0.171735 
v 0.171736 0.321522 0.32614 
v 0 0.321522 0.34875 
v -0.171736 0.321522 0.32614 
v -0.32614 0.321522 0.171736 
v 0.269624 0.321478 0.269623 
v -0.269623 0.321479 0.269624 
v -0.235584 0.391631 0 
v -0.155438 0.390646 -0.195868 
v 0.155438 0.390646 -0.195869 
v 0.235584 0.391631 0 
v 0 0.391631 0.235584 
v 0.195868 0.390646 0.155438 
v -0.195869 0.390646 0.155438 
v -0.195868 0.390647 -0.155438 
v -0.202784 0.402231 0 
v -0.159911 0.402236 -0.15991 
v 0 0.402231 -0.202785 
v 0.195869 0.390646 -0.155438 
v 0.15991 0.402236 -0.15991 
v 0.202784 0.402231 0 
v 0.155438 0.390646 0.195869 
v -0.155438 0.390646 0.195869 
v 0.159911 0.402236 0.15991 
v -0.15991 0.402236 0.159911 
v 0 0.402231 0.202784 
# 269 1 
vt 0 1 
vt 0 1 
vt 0 1 
vt 0 1 
vt 0 1 
vt 0 1 
vt 0 1 
vt 0 1 
vt 0 1 
vt 0 1 
vt 0 1 
vt 0 1 
vt 0 1 
vt 0 1 
vt 0 1 
vt 0 1 
vt 0 1 
vt 0 1 
vt 0 1 
vt 0 1 
vt 0 1 
vt 0 1 
vt 0 1 
vt 0 1 
vt 0 1 
vt 0 1 
vt 0 1 
vt 0 1 
vt 0 1 
vt 0 1 
vt 0 1 
vt 0 1 
vt 0 1 
vt 0 1 
vt 0 1 
vt 0 1 
vt 0 1 
vt 0 1 
vt 0 1 
vt 0 1 
vt 0 1 
vt 0 1 
vt 0 1 
vt 0 1 
vt 0 1 
vt 0 1 
vt 0 1 
vt 0 1 
vt 0 1 
vt 0 1 
vt 0 1 
vt 0 1 
vt 0 1 
vt 0 1 
vt 0 1 
vt 0 1 
vt 0 1 
vt 0 1 
vt 0 1 
vt 0 1 
vt 0 1 
vt 0 1 
vt 0 1 
vt 0 1 
vt 0 1 
vt 0 1 
vt 0 1 
vt 0 1 
vt 0 1 
vt 0 1 
vt 0 1 
vt 0 1 
vt 0 1 
vt 0 1 
vt 0 1 
vt 0 1 
vt 0 1 
vt 0 1 
vt 0 1 
vt 0 1 
vt 0 1 
vt 0 1 
vt 0 1 
vt 0 1 
vt 0 1 
vt 0 1 
vt 0 1 
vt 0 1 
vt 0 1 
vt 0 1 
vt 0 1 
vt 0 1 
vt 0 1 
vt 0 1 
vt 0 1 
vt 0 1 
vt 0 1 
vt 0 1 
vt 0 1 
vt 0 1 
vt 0 1 
vt 0 1 
vt 0 1 
vt 0 1 
vt 0 1 
vt 0 1 
vt 0 1 
vt 0 1 
vt 0 1 
vt 0 1 
vt 0 1 
vt 0 1 
vt 0 1 
vt 0 1 
vt 0 1 
vt 0 1 
vt 0 1 
vt 0 1 
vt 0 1 
vt 0 1 
vt 0 1 
vt 0 1 
vt 0 1 
vt 0 1 
vt 0 1 
vt 0 1 
vt 0 1 
vt 0 1 
vt 0 1 
vt 0 1 
vt 0 1 
vt 0 1 
vt 0 1 
vt 0 1 
vt 0 1 
vt 0 1 
vt 0 1 
vt 0 1 
vt 0 1 
vt 0 1 
vt 0 1 
vt 0 1 
vt 0 1 
vt 0 1 
vt 0 1 
vt 0 1 
vt 0 1 
vt 0 1 
vt 0 1 
vt 0 1 
vt 0 1 
vt 0 1 
vt 0 1 
vt 0 1 
vt 0 1 
vt 0 1 
vt 0 1 
vt 0 1 
vt 0 1 
vt 0 1 
vt 0 1 
vt 0 1 
vt 0 1 
vt 0 1 
vt 0 1 
vt 0 1 
vt 0 1 
vt 0 1 
vt 0 1 
vt 0 1 
vt 0 1 
vt 0 1 
vt 0 1 
vt 0 1 
vt 0 1 
vt 0 1 
vt 0 1 
vt 0 1 
vt 0 1 
vt 0 1 
vt 0 1 
vt 0 1 
vt 0 1 
vt 0 1 
vt 0 1 
vt 0 1 
vt 0 1 
vt 0 1 
vt 0 1 
vt 0 1 
vt 0 1 
vt 0 1 
vt 0 1 
vt 0 1 
vt 0 1 
vt 0 1 
vt 0 1 
vt 0 1 
vt 0 1 
vt 0 1 
vt 0 1 
vt 0 1 
vt 0 1 
vt 0 1 
vt 0 1 
vt 0 1 
vt 0 1 
vt 0 1 
vt 0 1 
vt 0 1 
vt 0 1 
vt 0 1 
vt 0 1 
vt 0 1 
vt 0 1 
vt 0 1 
vt 0 1 
vt 0 1 
vt 0 1 
vt 0 1 
vt 0 1 
vt 0 1 
vt 0 1 
vt 0 1 
vt 0 1 
vt 0 1 
vt 0 1 
vt 0 1 
vt 0 1 
vt 0 1 
vt 0 1 
vt 0 1 
vt 0 1 
vt 0 1 
vt 0 1 
vt 0 1 
vt 0 1 
vt 0 1 
vt 0 1 
vt 0 1 
vt 0 1 
vt 0 1 
vt 0 1 
vt 0 1 
vt 0 1 
vt 0 1 
vt 0 1 
vt 0 1 
vt 0 1 
vt 0 1 
vt 0 1 
vt 0 1 
vt 0 1 
vt 0 1 
vt 0 1 
vt 0 1 
vt 0 1 
vt 0 1 
vt 0 1 
vt 0 1 
vt 0 1 
vt 0 1 
vt 0 1 
vt 0 1 
vt 0 1 
vt 0 1 
vt 0 1 
vt 0 1 
vt 0 1 
# 80 
vn 0.300307 -0.406075 0.863087 
vn -2.94272e-008 -0.488172 0.872747 
vn 0.400339 -0.824292 0.400339 
vn -0.400339 -0.824292 0.400339 
vn -0.300306 -0.406075 0.863087 
vn -0.400339 -0.824292 -0.400338 
vn -0.872747 -0.488172 2.06971e-006 
vn -0.863087 -0.406076 -0.300305 
vn -1.31114e-006 -0.488172 -0.872747 
vn 0.400339 -0.824292 -0.400339 
vn -2.19884e-008 -0.743132 -0.669145 
vn -0.669145 -0.743132 1.7827e-007 
vn 0.669145 -0.743132 1.78473e-007 
vn -2.15418e-008 -0.743132 0.669145 
vn 0.863086 -0.406076 -0.300308 
vn 0.872747 -0.488172 -1.38962e-006 
vn -0.450297 -0.771016 -0.450296 
vn -0.300308 -0.406075 -0.863086 
vn 0.300306 -0.406076 -0.863087 
vn 0.450296 -0.771016 -0.450296 
vn 0.863087 -0.406076 0.300306 
vn 0.450296 -0.771016 0.450296 
vn -0.450296 -0.771016 0.450297 
vn -0.863086 -0.406076 0.300308 
vn -1 -4.69351e-007 2.58512e-006 
vn -0.526647 0.850084 1.2323e-006 
vn -0.946929 -7.37147e-007 -0.321443 
vn -0.471223 0.869697 -0.14689 
vn -0.321446 1.45243e-007 -0.946928 
vn -0.146893 0.869698 -0.471221 
vn -2.53251e-006 -1.4975e-008 -1 
vn -1.34432e-006 0.850083 -0.526649 
vn -0.64608 -0.4064 -0.64608 
vn 0.321443 8.89335e-008 -0.946929 
vn 0.146891 0.869697 -0.471221 
vn 0.64608 -0.406401 -0.64608 
vn -0.707107 -3.01496e-007 -0.707107 
vn -0.33669 0.87936 -0.336697 
vn 0.946928 -4.5368e-007 -0.321446 
vn 0.471222 0.869697 -0.146891 
vn 1 -4.69351e-007 -2.58512e-006 
vn 0.526647 0.850084 -1.2323e-006 
vn 0.707107 -1.72747e-007 -0.707107 
vn 0.336694 0.879361 -0.336693 
vn 0.646079 -0.406401 0.64608 
vn -0.646079 -0.406401 0.646081 
vn -1.23586e-006 0.900942 -0.433941 
vn 0.946929 -7.37176e-007 0.321443 
vn 0.471219 0.869699 0.146893 
vn 0.321445 1.45252e-007 0.946928 
vn 0.146894 0.869697 0.471221 
vn -6.0119e-008 5.1345e-010 1 
vn 0 0.850084 0.526647 
vn -0.321444 2.13516e-007 0.946929 
vn -0.146891 0.869697 0.471222 
vn -0.946928 -4.5368e-007 0.321446 
vn -0.471222 0.869697 0.146891 
vn 0.707106 -3.01516e-007 0.707107 
vn 0.336699 0.879357 0.336697 
vn -0.707105 -6.21456e-008 0.707108 
vn -0.336696 0.879359 0.336696 
vn -0.433941 0.900941 1.46899e-006 
vn -0.223071 0.900985 -0.372111 
vn 0.223073 0.900986 -0.372105 
vn 0.433942 0.900941 2.61961e-007 
vn -1.62942e-008 0.900941 0.433942 
vn 0.382833 0.902661 0.196578 
vn -0.382832 0.902661 0.196576 
vn -0.372103 0.900986 -0.223077 
vn -0.157757 0.987478 1.02361e-006 
vn -0.184353 0.965415 -0.184358 
vn -6.92336e-007 0.977664 -0.210173 
vn 0.372106 0.900986 -0.223072 
vn 0.147682 0.977947 -0.14768 
vn 0.15776 0.987478 6.82379e-007 
vn 0.19658 0.902661 0.382831 
vn -0.196576 0.902661 0.382833 
vn 0.184349 0.965418 0.184345 
vn -0.147674 0.977949 0.147675 
vn -2.26582e-008 0.977664 0.210175 
f 1/1/1 2/2/2 3/35/3 19/36/22 
f 4/3/4 2/4/2 5/38/5 20/37/23 
f 6/5/6 7/6/7 8/26/8 14/25/17 
f 6/7/6 9/8/9 10/10/10 11/9/11 
f 12/11/15 13/12/16 10/31/10 17/32/20 
f 7/13/7 6/14/6 11/16/12 4/15/4 
f 10/17/10 13/18/16 3/20/3 11/19/13 
f 2/21/2 4/22/4 11/24/14 3/23/3 
f 15/27/18 9/28/9 6/52/6 14/53/17 
f 10/29/10 9/30/9 16/55/19 17/54/20 
f 3/33/3 13/34/16 18/70/21 19/69/22 
f 21/39/24 7/40/7 4/71/4 20/72/23 
f 22/41/25 23/42/27 8/44/8 7/43/7 
f 24/45/29 25/46/31 9/48/9 15/47/18 
f 14/49/17 8/50/8 26/51/33 
f 14/56/17 26/57/33 15/58/18 
f 25/59/31 27/60/34 16/62/19 9/61/9 
f 17/63/20 16/64/19 28/65/36 
f 17/66/20 28/67/36 12/68/15 
f 23/73/27 29/74/37 26/76/33 8/75/8 
f 30/77/39 31/78/41 13/80/16 12/79/15 
f 29/81/37 24/82/29 15/84/18 26/83/33 
f 27/85/34 32/86/43 28/88/36 16/87/19 
f 19/89/22 18/90/21 33/91/45 
f 32/92/43 30/93/39 12/95/15 28/94/36 
f 19/96/22 33/97/45 1/1/1 
f 20/98/23 5/99/5 34/100/46 
f 20/101/23 34/102/46 21/103/24 
f 25/104/32 24/105/30 35/106/47 
f 25/107/32 35/108/47 27/109/35 
f 31/110/41 36/111/48 18/113/21 13/112/16 
f 37/114/50 38/115/52 2/116/2 1/1/1 
f 38/117/52 39/118/54 5/120/5 2/119/2 
f 40/121/56 22/122/25 7/124/7 21/123/24 
f 36/125/48 41/126/58 33/128/45 18/127/21 
f 41/129/58 37/130/50 1/1/1 33/131/45 
f 39/132/54 42/133/60 34/135/46 5/134/5 
f 42/136/60 40/137/56 21/139/24 34/138/46 
f 22/140/26 43/141/62 23/142/28 
f 22/143/26 40/144/57 43/145/62 
f 29/146/38 44/147/63 24/148/30 
f 44/149/63 35/150/47 24/151/30 
f 45/152/64 32/153/44 27/154/35 
f 45/155/64 27/156/35 35/157/47 
f 31/158/42 30/159/40 46/160/65 
f 31/161/42 46/162/65 36/163/49 
f 38/164/53 37/165/51 47/166/66 
f 38/167/53 47/168/66 39/169/55 
f 48/170/67 41/171/59 36/172/49 
f 48/173/67 36/174/49 46/175/65 
f 49/176/68 43/177/62 40/178/57 
f 42/179/61 49/180/68 40/181/57 
f 50/182/69 29/183/38 23/184/28 
f 50/185/69 43/186/62 51/188/70 52/187/71 
f 50/189/69 23/190/28 43/191/62 
f 35/192/47 44/193/63 52/195/71 53/194/72 
f 46/196/65 54/197/73 55/199/74 56/198/75 
f 50/200/69 52/201/71 44/202/63 
f 50/203/69 44/204/63 29/205/38 
f 45/206/64 35/207/47 53/209/72 55/208/74 
f 54/210/73 46/211/65 30/212/40 
f 32/213/44 54/214/73 30/215/40 
f 57/216/76 47/217/66 37/218/51 
f 45/220/64 55/219/74 54/221/73 
f 45/222/64 54/223/73 32/224/44 
f 41/225/59 57/226/76 37/227/51 
f 58/228/77 39/229/55 47/230/66 
f 59/232/78 57/231/76 41/233/59 48/234/67 
f 58/235/77 42/236/61 39/237/55 
f 42/238/61 58/239/77 60/240/79 49/241/68 
f 58/242/77 47/243/66 61/245/80 60/244/79 
f 43/246/62 49/247/68 60/249/79 51/248/70 
f 48/250/67 46/251/65 56/253/75 59/252/78 
f 47/254/66 57/255/76 59/257/78 61/256/80 
f 60/258/79 61/259/80 59/260/78 56/261/75 
f 51/263/70 60/262/79 56/264/75 55/265/74 
f 52/267/71 51/266/70 55/268/74 53/269/72 
