#Wavefront OBJ file created by Hexagon 2 
mtllib button.mtl
g button_d_0
# 65 
v -0.34875 0.299144 0 
v -0.322203 0.299144 -0.133461 
v -0.322203 0.285454 -0.133461 
v -0.34875 0.285454 0 
v -0.246603 0.299144 -0.246603 
v -0.246603 0.285454 -0.246603 
v -0.133461 0.299144 -0.322203 
v -0.133461 0.285454 -0.322203 
v 0 0.299144 -0.34875 
v 0 0.285454 -0.34875 
v 0.133461 0.299144 -0.322203 
v 0.133461 0.285454 -0.322203 
v 0.246604 0.299144 -0.246604 
v 0.246604 0.285453 -0.246604 
v 0.322203 0.299144 -0.133461 
v 0.322203 0.285453 -0.133461 
v 0.34875 0.299144 0 
v 0.34875 0.285454 0 
v 0.322203 0.285454 0.133461 
v 0.07578 0.062026 0.031389 
v 0.133461 0.285454 0.322203 
v 0.031389 0.062026 0.07578 
v 0.246604 0.285453 0.246603 
v 0 0.285454 0.34875 
v -0.133461 0.285453 0.322203 
v -0.03139 0.062026 0.075781 
v -0.075782 0.062027 -0.03139 
v -0.322203 0.285454 0.133461 
v -0.075782 0.062027 0.03139 
v 0.075782 0.062027 -0.03139 
v -0.03139 0.062027 -0.075782 
v 0 0 0 
v 0.03139 0.062027 -0.075782 
v -0.246603 0.285453 0.246604 
v -0.215651 0.373505 -0.215651 
v 0 0.373505 -0.304976 
v 0.215651 0.373505 -0.215651 
v 0.322203 0.299144 0.133461 
v 0.246604 0.299144 0.246603 
v 0.133461 0.299144 0.322203 
v 0 0.299144 0.34875 
v -0.133461 0.299144 0.322203 
v -0.246603 0.299144 0.246604 
v -0.322203 0.299144 0.133461 
v -0.304976 0.373505 0 
v -0.087917 0.43148 -0.212058 
v 0.087781 0.43148 -0.212115 
v 0.304977 0.373505 0 
v 0.215651 0.373505 0.215651 
v 0 0.373505 0.304976 
v -0.215651 0.373505 0.215651 
v -0.212115 0.43148 0.087781 
v -0.212115 0.43148 -0.08778 
v -0.100568 0.475162 -0.100493 
v -5.3e-005 0.475162 -0.142172 
v 0.212058 0.43148 -0.087917 
v 0.100495 0.475161 -0.10057 
v 0.212115 0.43148 0.087781 
v 0.087917 0.43148 0.212058 
v -0.08778 0.43148 0.212115 
v -0.142231 0.475138 -5.3e-005 
v 0.142179 0.475159 -5.3e-005 
v 0.100575 0.475158 0.1005 
v 5.3e-005 0.475158 0.142182 
v -0.100513 0.475161 0.100528 
# 291 1 
vt 0 1 
vt 0 1 
vt 0 1 
vt 0 1 
vt 0 1 
vt 0 1 
vt 0 1 
vt 0 1 
vt 0 1 
vt 0 1 
vt 0 1 
vt 0 1 
vt 0 1 
vt 0 1 
vt 0 1 
vt 0 1 
vt 0 1 
vt 0 1 
vt 0 1 
vt 0 1 
vt 0 1 
vt 0 1 
vt 0 1 
vt 0 1 
vt 0 1 
vt 0 1 
vt 0 1 
vt 0 1 
vt 0 1 
vt 0 1 
vt 0 1 
vt 0 1 
vt 0 1 
vt 0 1 
vt 0 1 
vt 0 1 
vt 0 1 
vt 0 1 
vt 0 1 
vt 0 1 
vt 0 1 
vt 0 1 
vt 0 1 
vt 0 1 
vt 0 1 
vt 0 1 
vt 0 1 
vt 0 1 
vt 0 1 
vt 0 1 
vt 0 1 
vt 0 1 
vt 0 1 
vt 0 1 
vt 0 1 
vt 0 1 
vt 0 1 
vt 0 1 
vt 0 1 
vt 0 1 
vt 0 1 
vt 0 1 
vt 0 1 
vt 0 1 
vt 0 1 
vt 0 1 
vt 0 1 
vt 0 1 
vt 0 1 
vt 0 1 
vt 0 1 
vt 0 1 
vt 0 1 
vt 0 1 
vt 0 1 
vt 0 1 
vt 0 1 
vt 0 1 
vt 0 1 
vt 0 1 
vt 0 1 
vt 0 1 
vt 0 1 
vt 0 1 
vt 0 1 
vt 0 1 
vt 0 1 
vt 0 1 
vt 0 1 
vt 0 1 
vt 0 1 
vt 0 1 
vt 0 1 
vt 0 1 
vt 0 1 
vt 0 1 
vt 0 1 
vt 0 1 
vt 0 1 
vt 0 1 
vt 0 1 
vt 0 1 
vt 0 1 
vt 0 1 
vt 0 1 
vt 0 1 
vt 0 1 
vt 0 1 
vt 0 1 
vt 0 1 
vt 0 1 
vt 0 1 
vt 0 1 
vt 0 1 
vt 0 1 
vt 0 1 
vt 0 1 
vt 0 1 
vt 0 1 
vt 0 1 
vt 0 1 
vt 0 1 
vt 0 1 
vt 0 1 
vt 0 1 
vt 0 1 
vt 0 1 
vt 0 1 
vt 0 1 
vt 0 1 
vt 0 1 
vt 0 1 
vt 0 1 
vt 0 1 
vt 0 1 
vt 0 1 
vt 0 1 
vt 0 1 
vt 0 1 
vt 0 1 
vt 0 1 
vt 0 1 
vt 0 1 
vt 0 1 
vt 0 1 
vt 0 1 
vt 0 1 
vt 0 1 
vt 0 1 
vt 0 1 
vt 0 1 
vt 0 1 
vt 0 1 
vt 0 1 
vt 0 1 
vt 0 1 
vt 0 1 
vt 0 1 
vt 0 1 
vt 0 1 
vt 0 1 
vt 0 1 
vt 0 1 
vt 0 1 
vt 0 1 
vt 0 1 
vt 0 1 
vt 0 1 
vt 0 1 
vt 0 1 
vt 0 1 
vt 0 1 
vt 0 1 
vt 0 1 
vt 0 1 
vt 0 1 
vt 0 1 
vt 0 1 
vt 0 1 
vt 0 1 
vt 0 1 
vt 0 1 
vt 0 1 
vt 0 1 
vt 0 1 
vt 0 1 
vt 0 1 
vt 0 1 
vt 0 1 
vt 0 1 
vt 0 1 
vt 0 1 
vt 0 1 
vt 0 1 
vt 0 1 
vt 0 1 
vt 0 1 
vt 0 1 
vt 0 1 
vt 0 1 
vt 0 1 
vt 0 1 
vt 0 1 
vt 0 1 
vt 0 1 
vt 0 1 
vt 0 1 
vt 0 1 
vt 0 1 
vt 0 1 
vt 0 1 
vt 0 1 
vt 0 1 
vt 0 1 
vt 0 1 
vt 0 1 
vt 0 1 
vt 0 1 
vt 0 1 
vt 0 1 
vt 0 1 
vt 0 1 
vt 0 1 
vt 0 1 
vt 0 1 
vt 0 1 
vt 0 1 
vt 0 1 
vt 0 1 
vt 0 1 
vt 0 1 
vt 0 1 
vt 0 1 
vt 0 1 
vt 0 1 
vt 0 1 
vt 0 1 
vt 0 1 
vt 0 1 
vt 0 1 
vt 0 1 
vt 0 1 
vt 0 1 
vt 0 1 
vt 0 1 
vt 0 1 
vt 0 1 
vt 0 1 
vt 0 1 
vt 0 1 
vt 0 1 
vt 0 1 
vt 0 1 
vt 0 1 
vt 0 1 
vt 0 1 
vt 0 1 
vt 0 1 
vt 0 1 
vt 0 1 
vt 0 1 
vt 0 1 
vt 0 1 
vt 0 1 
vt 0 1 
vt 0 1 
vt 0 1 
vt 0 1 
vt 0 1 
vt 0 1 
vt 0 1 
vt 0 1 
vt 0 1 
vt 0 1 
vt 0 1 
vt 0 1 
vt 0 1 
vt 0 1 
vt 0 1 
vt 0 1 
vt 0 1 
vt 0 1 
vt 0 1 
vt 0 1 
vt 0 1 
vt 0 1 
vt 0 1 
vt 0 1 
vt 0 1 
vt 0 1 
vt 0 1 
# 65 
vn -0.964647 0.263544 1.57083e-008 
vn -0.86389 0.354466 -0.357837 
vn -0.83612 -0.425389 -0.346335 
vn -0.8601 -0.510125 9.93809e-009 
vn -0.68211 0.263537 -0.68211 
vn -0.608183 -0.510125 -0.608183 
vn -0.357837 0.354466 -0.86389 
vn -0.346335 -0.425389 -0.83612 
vn 1.96353e-008 0.263543 -0.964648 
vn 5.33931e-009 -0.510126 -0.8601 
vn 0.357833 0.354467 -0.863891 
vn 0.346329 -0.425389 -0.836122 
vn 0.682109 0.263544 -0.682109 
vn 0.608181 -0.510127 -0.608183 
vn 0.863892 0.354466 -0.357834 
vn 0.836122 -0.42539 -0.346329 
vn 0.964649 0.263539 -1.57082e-008 
vn 0.8601 -0.510126 3.02449e-006 
vn 0.836121 -0.42539 0.34633 
vn 0.575634 -0.782173 0.238436 
vn 0.346331 -0.42539 0.836121 
vn 0.238436 -0.782173 0.575634 
vn 0.608182 -0.510127 0.608181 
vn 3.42202e-006 -0.510126 0.8601 
vn -0.346331 -0.42539 0.836121 
vn -0.238432 -0.782174 0.575634 
vn -0.575634 -0.782172 -0.238437 
vn -0.836121 -0.425389 0.346332 
vn -0.575635 -0.782172 0.238433 
vn 0.575634 -0.782174 -0.238431 
vn -0.238437 -0.782172 -0.575634 
vn 6.78783e-007 -1 5.29547e-007 
vn 0.238433 -0.782173 -0.575635 
vn -0.608183 -0.510127 0.608181 
vn -0.529585 0.662671 -0.529535 
vn -3.56014e-005 0.662674 -0.748908 
vn 0.529532 0.662675 -0.529583 
vn 0.863892 0.354465 0.357835 
vn 0.68211 0.263541 0.682109 
vn 0.357835 0.354466 0.863891 
vn -2.35624e-008 0.263543 0.964648 
vn -0.357835 0.354467 0.863891 
vn -0.682109 0.263541 0.68211 
vn -0.863891 0.354466 0.357836 
vn -0.748916 0.662665 7.79711e-008 
vn -0.208427 0.838853 -0.502876 
vn 0.208206 0.838853 -0.502967 
vn 0.748911 0.662671 -3.55905e-005 
vn 0.529584 0.662671 0.529535 
vn 3.56871e-005 0.662673 0.748909 
vn -0.529554 0.662679 0.529555 
vn -0.502912 0.838862 0.208304 
vn -0.502975 0.838827 -0.208291 
vn -0.186858 0.964478 -0.186724 
vn -0.000115263 0.944332 -0.328994 
vn 0.502877 0.838852 -0.208427 
vn 0.186712 0.964488 -0.186821 
vn 0.502969 0.838852 0.208208 
vn 0.208428 0.83885 0.50288 
vn -0.208255 0.838873 0.502913 
vn -0.264178 0.964474 -7.54899e-006 
vn 0.264137 0.964485 -8.9091e-005 
vn 0.186846 0.964484 0.186705 
vn 9.72326e-005 0.944336 0.328984 
vn -0.186758 0.964493 0.186749 
f 1/1/1 2/2/2 3/4/3 4/3/4 
f 2/5/2 5/6/5 6/8/6 3/7/3 
f 5/9/5 7/10/7 8/12/8 6/11/6 
f 7/13/7 9/14/9 10/16/10 8/15/8 
f 9/17/9 11/18/11 12/20/12 10/19/10 
f 11/21/11 13/22/13 14/24/14 12/23/12 
f 13/25/13 15/26/15 16/28/16 14/27/14 
f 15/29/15 17/30/17 18/32/18 16/31/16 
f 19/33/19 20/34/20 18/35/18 
f 21/36/21 22/37/22 23/38/23 
f 21/39/21 24/40/24 22/41/22 
f 25/42/25 26/43/26 24/44/24 
f 3/45/3 27/46/27 4/47/4 
f 28/48/28 4/49/4 29/50/29 
f 3/51/3 6/52/6 27/53/27 
f 16/54/16 30/55/30 14/56/14 
f 8/57/8 31/58/31 6/59/6 
f 31/60/31 32/61/32 27/63/27 6/62/6 
f 8/64/8 10/65/10 31/66/31 
f 12/67/12 33/68/33 10/69/10 
f 33/70/33 32/71/32 31/73/31 10/72/10 
f 12/74/12 14/75/14 33/76/33 
f 16/77/16 18/78/18 30/79/30 
f 30/80/30 32/81/32 33/83/33 14/82/14 
f 19/84/19 23/85/23 20/86/20 
f 20/87/20 32/88/32 30/90/30 18/89/18 
f 25/91/25 34/92/34 26/93/26 
f 22/94/22 32/95/32 20/97/20 23/96/23 
f 28/98/28 29/99/29 34/100/34 
f 26/101/26 32/102/32 22/104/22 24/103/24 
f 32/105/32 29/106/29 4/108/4 27/107/27 
f 29/109/29 32/110/32 26/112/26 34/111/34 
f 5/113/5 2/114/2 35/115/35 
f 5/116/5 35/117/35 7/118/7 
f 9/119/9 7/120/7 36/121/36 
f 9/122/9 36/123/36 11/124/11 
f 13/125/13 11/126/11 37/127/37 
f 17/128/17 38/129/38 19/131/19 18/130/18 
f 38/132/38 39/133/39 23/135/23 19/134/19 
f 39/136/39 40/137/40 21/139/21 23/138/23 
f 40/140/40 41/141/41 24/143/24 21/142/21 
f 41/144/41 42/145/42 25/147/25 24/146/24 
f 42/148/42 43/149/43 34/151/34 25/150/25 
f 43/152/43 44/153/44 28/155/28 34/154/34 
f 44/156/44 1/1/1 4/158/4 28/157/28 
f 1/1/1 45/159/45 2/160/2 
f 1/1/1 44/161/44 45/162/45 
f 46/163/46 36/164/36 7/166/7 35/165/35 
f 13/167/13 37/168/37 15/169/15 
f 47/170/47 37/171/37 11/173/11 36/172/36 
f 17/174/17 15/175/15 48/176/48 
f 17/177/17 48/178/48 38/179/38 
f 39/180/39 38/181/38 49/182/49 
f 39/183/39 49/184/49 40/185/40 
f 41/186/41 40/187/40 50/188/50 
f 41/189/41 50/190/50 42/191/42 
f 43/192/43 42/193/42 51/194/51 
f 43/195/43 51/196/51 44/197/44 
f 51/198/51 52/199/52 45/201/45 44/200/44 
f 53/202/53 35/203/35 2/205/2 45/204/45 
f 46/206/46 35/207/35 53/209/53 54/208/54 
f 47/210/47 36/211/36 46/213/46 55/212/55 
f 56/214/56 48/215/48 15/217/15 37/216/37 
f 56/218/56 37/219/37 47/221/47 57/220/57 
f 58/222/58 49/223/49 38/225/38 48/224/48 
f 59/226/59 50/227/50 40/229/40 49/228/49 
f 60/230/60 51/231/51 42/233/42 50/232/50 
f 61/234/61 53/235/53 45/237/45 52/236/52 
f 55/238/55 46/239/46 54/240/54 
f 54/241/54 53/242/53 61/243/61 
f 57/244/57 47/245/47 55/246/55 
f 58/247/58 48/248/48 56/250/56 62/249/62 
f 62/251/62 56/252/56 57/253/57 
f 59/254/59 49/255/49 58/257/58 63/256/63 
f 60/258/60 50/259/50 59/261/59 64/260/64 
f 52/262/52 51/263/51 60/265/60 65/264/65 
f 61/266/61 52/267/52 65/268/65 
f 65/269/65 60/270/60 64/271/64 
f 63/272/63 58/273/58 62/274/62 
f 64/275/64 59/276/59 63/277/63 
f 65/278/65 64/279/64 63/280/63 
f 65/281/65 63/282/63 62/283/62 61/284/61 
f 54/286/54 61/285/61 62/287/62 57/288/57 
f 54/289/54 57/290/57 55/291/55 
