#Wavefront OBJ file created by Hexagon 2 
mtllib cascade.mtl
g cascade__0
# 55 
v -0.045702 0.145988 0.144134 
v 0.0186 0.131319 0.14992 
v 0.201351 0.323416 0.34875 
v -0.101974 0.145987 -0.111644 
v -0.402702 0.323416 0 
v -0.240313 0.323417 -0.142411 
v -0.139135 0.131319 0.058852 
v -0.101973 0.145989 0.111646 
v 0.120534 0.131319 -0.091068 
v 0 0 0 
v 0.201351 0.323417 -0.34875 
v 0.120534 0.131319 0.091069 
v -0.139134 0.131318 -0.058852 
v 0.0186 0.131318 -0.149919 
v -0.0457 0.145987 -0.144134 
v 0.147674 0.145988 -0.032492 
v 0.147674 0.145988 0.032492 
v 0.243488 0.323416 0.136913 
v 0.243488 0.323417 -0.136914 
v -0.003174 0.329486 -0.279323 
v 0.201351 0.329486 -0.34875 
v -0.003174 0.323417 -0.279323 
v 0.252462 0.323417 0 
v 0.251599 0.321926 0 
v -0.003173 0.323416 0.279323 
v -0.240314 0.323416 0.14241 
v -0.126231 0.323417 -0.218638 
v -0.125804 0.32194 -0.217899 
v -0.125806 0.321948 0.217903 
v 0.243488 0.329487 -0.136914 
v -0.126231 0.329487 -0.218638 
v 0.252462 0.329486 0 
v 0.243488 0.329487 0.136913 
v 0.201351 0.329487 0.34875 
v -0.126231 0.323416 0.218638 
v -0.003173 0.329486 0.279323 
v -0.240314 0.329486 0.14241 
v -0.402702 0.329486 0 
v -0.240313 0.329486 -0.142411 
v -0.009572 0.394555 -0.217417 
v -0.009572 0.394556 0.217417 
v 0.193076 0.394554 -0.10042 
v 0.193076 0.394554 0.100421 
v -0.183503 0.394556 0.116999 
v -0.126231 0.329487 0.218638 
v -0.183503 0.394555 -0.116998 
v 0.123988 0.434693 -0.186022 
v 0.148564 0.434633 1e-006 
v -0.074282 0.434634 -0.12866 
v 0.123989 0.434692 0.186023 
v -0.074282 0.434633 0.128661 
v -0.223094 0.434693 -0.014366 
v 0.099105 0.434693 -0.200387 
v 0.099106 0.434692 0.200389 
v -0.223094 0.434693 0.014366 
# 232 1 
vt 0 1 
vt 0 1 
vt 0 1 
vt 0 1 
vt 0 1 
vt 0 1 
vt 0 1 
vt 0 1 
vt 0 1 
vt 0 1 
vt 0 1 
vt 0 1 
vt 0 1 
vt 0 1 
vt 0 1 
vt 0 1 
vt 0 1 
vt 0 1 
vt 0 1 
vt 0 1 
vt 0 1 
vt 0 1 
vt 0 1 
vt 0 1 
vt 0 1 
vt 0 1 
vt 0 1 
vt 0 1 
vt 0 1 
vt 0 1 
vt 0 1 
vt 0 1 
vt 0 1 
vt 0 1 
vt 0 1 
vt 0 1 
vt 0 1 
vt 0 1 
vt 0 1 
vt 0 1 
vt 0 1 
vt 0 1 
vt 0 1 
vt 0 1 
vt 0 1 
vt 0 1 
vt 0 1 
vt 0 1 
vt 0 1 
vt 0 1 
vt 0 1 
vt 0 1 
vt 0 1 
vt 0 1 
vt 0 1 
vt 0 1 
vt 0 1 
vt 0 1 
vt 0 1 
vt 0 1 
vt 0 1 
vt 0 1 
vt 0 1 
vt 0 1 
vt 0 1 
vt 0 1 
vt 0 1 
vt 0 1 
vt 0 1 
vt 0 1 
vt 0 1 
vt 0 1 
vt 0 1 
vt 0 1 
vt 0 1 
vt 0 1 
vt 0 1 
vt 0 1 
vt 0 1 
vt 0 1 
vt 0 1 
vt 0 1 
vt 0 1 
vt 0 1 
vt 0 1 
vt 0 1 
vt 0 1 
vt 0 1 
vt 0 1 
vt 0 1 
vt 0 1 
vt 0 1 
vt 0 1 
vt 0 1 
vt 0 1 
vt 0 1 
vt 0 1 
vt 0 1 
vt 0 1 
vt 0 1 
vt 0 1 
vt 0 1 
vt 0 1 
vt 0 1 
vt 0 1 
vt 0 1 
vt 0 1 
vt 0 1 
vt 0 1 
vt 0 1 
vt 0 1 
vt 0 1 
vt 0 1 
vt 0 1 
vt 0 1 
vt 0 1 
vt 0 1 
vt 0 1 
vt 0 1 
vt 0 1 
vt 0 1 
vt 0 1 
vt 0 1 
vt 0 1 
vt 0 1 
vt 0 1 
vt 0 1 
vt 0 1 
vt 0 1 
vt 0 1 
vt 0 1 
vt 0 1 
vt 0 1 
vt 0 1 
vt 0 1 
vt 0 1 
vt 0 1 
vt 0 1 
vt 0 1 
vt 0 1 
vt 0 1 
vt 0 1 
vt 0 1 
vt 0 1 
vt 0 1 
vt 0 1 
vt 0 1 
vt 0 1 
vt 0 1 
vt 0 1 
vt 0 1 
vt 0 1 
vt 0 1 
vt 0 1 
vt 0 1 
vt 0 1 
vt 0 1 
vt 0 1 
vt 0 1 
vt 0 1 
vt 0 1 
vt 0 1 
vt 0 1 
vt 0 1 
vt 0 1 
vt 0 1 
vt 0 1 
vt 0 1 
vt 0 1 
vt 0 1 
vt 0 1 
vt 0 1 
vt 0 1 
vt 0 1 
vt 0 1 
vt 0 1 
vt 0 1 
vt 0 1 
vt 0 1 
vt 0 1 
vt 0 1 
vt 0 1 
vt 0 1 
vt 0 1 
vt 0 1 
vt 0 1 
vt 0 1 
vt 0 1 
vt 0 1 
vt 0 1 
vt 0 1 
vt 0 1 
vt 0 1 
vt 0 1 
vt 0 1 
vt 0 1 
vt 0 1 
vt 0 1 
vt 0 1 
vt 0 1 
vt 0 1 
vt 0 1 
vt 0 1 
vt 0 1 
vt 0 1 
vt 0 1 
vt 0 1 
vt 0 1 
vt 0 1 
vt 0 1 
vt 0 1 
vt 0 1 
vt 0 1 
vt 0 1 
vt 0 1 
vt 0 1 
vt 0 1 
vt 0 1 
vt 0 1 
vt 0 1 
vt 0 1 
vt 0 1 
vt 0 1 
vt 0 1 
vt 0 1 
vt 0 1 
vt 0 1 
vt 0 1 
vt 0 1 
vt 0 1 
vt 0 1 
vt 0 1 
# 55 
vn -0.331357 -0.606085 0.723093 
vn -0.131986 -0.690103 0.711575 
vn 0.405543 -0.584924 0.702423 
vn -0.460541 -0.606085 -0.648509 
vn -0.811088 -0.584924 5.96581e-007 
vn -0.587751 -0.276464 -0.76034 
vn -0.550246 -0.690102 0.470093 
vn -0.460541 -0.606085 0.648509 
vn 0.682233 -0.690103 -0.241488 
vn 7.57426e-007 -1 5.59246e-007 
vn 0.405545 -0.584923 -0.702423 
vn 0.682233 -0.690103 0.241487 
vn -0.550248 -0.690103 -0.47009 
vn -0.131982 -0.690103 -0.711575 
vn -0.331354 -0.606086 -0.723094 
vn 0.791894 -0.606086 -0.0745869 
vn 0.791894 -0.606086 0.0745855 
vn 0.952349 -0.276466 0.128837 
vn 0.952348 -0.276466 -0.128838 
vn -0.35221 0.358813 -0.864408 
vn 0.387635 0.631617 -0.671416 
vn -0.364596 -0.276465 -0.889178 
vn 0.965787 -0.259337 -7.12986e-007 
vn 0.86405 -0.503407 -1.14421e-006 
vn -0.364597 -0.276465 0.889177 
vn -0.58775 -0.276465 0.76034 
vn -0.482893 -0.259335 -0.836397 
vn -0.432026 -0.503405 -0.748289 
vn -0.432026 -0.503406 0.748288 
vn 0.924704 0.358815 -0.12718 
vn -0.45413 0.418405 -0.786577 
vn 0.90826 0.418406 1.75715e-007 
vn 0.924704 0.358814 0.127179 
vn 0.387638 0.631618 0.671413 
vn -0.482893 -0.259336 0.836397 
vn -0.35221 0.35881 0.864409 
vn -0.572496 0.358808 0.737228 
vn -0.775282 0.631615 1.9319e-008 
vn -0.572494 0.358813 -0.737228 
vn -0.282632 0.719416 -0.634476 
vn -0.282632 0.719416 0.634476 
vn 0.690787 0.719418 -0.0724683 
vn 0.690787 0.719418 0.0724682 
vn -0.408156 0.719416 0.562005 
vn -0.45413 0.4184 0.786579 
vn -0.408156 0.719415 -0.562006 
vn 0.400445 0.898694 -0.178867 
vn 0.391794 0.920053 1.19631e-005 
vn -0.195906 0.920053 -0.339299 
vn 0.322028 0.935744 0.143813 
vn -0.242305 0.874729 0.419688 
vn -0.285561 0.935743 -0.206979 
vn -0.0453257 0.898691 -0.436234 
vn -0.0366472 0.93559 0.35118 
vn -0.285807 0.935591 0.207327 
f 1/1/1 2/2/2 3/63/3 25/64/25 
f 5/3/5 6/4/6 4/13/4 13/14/13 
f 5/6/5 7/5/7 8/66/8 26/65/26 
f 9/7/9 10/8/10 11/9/11 
f 10/10/10 12/11/12 3/12/3 
f 13/15/13 10/16/10 5/17/5 
f 11/19/11 14/18/14 15/58/15 22/57/22 
f 10/20/10 14/21/14 11/22/11 
f 16/23/16 9/24/9 11/47/11 19/48/19 
f 3/26/3 12/25/12 17/46/17 18/45/18 
f 17/27/17 12/28/12 10/49/10 
f 2/29/2 10/30/10 3/31/3 
f 10/32/10 7/33/7 5/34/5 
f 8/35/8 10/80/10 1/1/1 
f 10/37/10 13/38/13 4/71/4 
f 10/39/10 15/40/15 14/41/14 
f 16/42/16 10/43/10 9/44/9 
f 1/1/1 10/51/10 2/52/2 
f 20/53/20 21/54/21 11/56/11 22/55/22 
f 23/59/23 18/60/18 17/62/17 24/61/24 
f 27/67/27 22/68/22 15/70/15 28/69/28 
f 28/73/28 15/74/15 4/75/4 
f 19/76/19 23/77/23 24/79/24 16/78/16 
f 17/81/17 16/82/16 24/83/24 
f 8/84/8 1/1/1 29/85/29 
f 21/86/21 30/87/30 19/89/19 11/88/11 
f 20/90/20 22/91/22 27/93/27 31/92/31 
f 32/94/32 23/95/23 19/97/19 30/96/30 
f 33/98/33 34/99/34 3/101/3 18/100/18 
f 33/102/33 18/103/18 23/105/23 32/104/32 
f 25/106/25 35/107/35 29/108/29 1/1/1 
f 35/109/35 26/110/26 8/112/8 29/111/29 
f 6/113/6 27/114/27 28/116/28 4/115/4 
f 34/117/34 36/118/36 25/120/25 3/119/3 
f 37/121/37 38/122/38 5/124/5 26/123/26 
f 38/125/38 39/126/39 6/128/6 5/127/5 
f 21/130/21 20/129/20 40/195/40 53/196/53 
f 41/131/41 36/132/36 34/204/34 54/203/54 
f 42/133/42 30/134/30 21/166/21 47/165/47 
f 31/135/31 40/136/40 20/137/20 
f 34/139/34 33/138/33 43/183/43 50/184/50 
f 42/140/42 32/141/32 30/142/30 
f 38/144/38 37/143/37 44/205/44 55/206/55 
f 32/145/32 43/146/43 33/147/33 
f 45/148/45 35/149/35 25/151/25 36/150/36 
f 37/152/37 26/153/26 35/155/35 45/154/45 
f 31/156/31 27/157/27 6/159/6 39/158/39 
f 46/160/46 39/161/39 38/194/38 52/193/52 
f 46/162/46 31/163/31 39/164/39 
f 41/167/41 45/168/45 36/169/36 
f 43/170/43 32/171/32 42/179/42 48/180/48 
f 45/172/45 44/173/44 37/174/37 
f 44/175/44 45/176/45 41/191/41 51/192/51 
f 40/177/40 31/178/31 46/182/46 49/181/49 
f 48/185/48 42/186/42 47/187/47 
f 50/188/50 43/189/43 48/190/48 
f 53/197/53 40/198/40 49/199/49 
f 47/200/47 21/201/21 53/202/53 
f 49/207/49 46/208/46 52/209/52 
f 52/210/52 38/211/38 55/212/55 
f 55/213/55 44/214/44 51/215/51 
f 54/216/54 34/217/34 50/218/50 
f 51/219/51 41/220/41 54/221/54 
f 50/227/50 52/222/52 55/223/55 54/226/54 
f 53/230/53 49/229/49 48/231/48 47/232/47 
f 8/35/8 7/36/7 10/80/10 
f 17/27/17 10/49/10 16/50/16 
f 10/37/10 4/71/4 15/72/15 
f 49/225/49 52/222/52 50/227/50 48/228/48 
f 54/226/54 55/223/55 51/224/51 
