#Wavefront OBJ file created by Hexagon 2 
mtllib cornered.mtl
g cornered_0
# 46 
v -0.246878 0.272505 -0.246878 
v -0.349025 0.272505 -0.000275 
v -0.246878 0.28595 -0.246878 
v -0.349025 0.28632 -0.000275 
v -0.000275 0.286321 -0.349024 
v -0.000275 0.272505 -0.349024 
v 0.246329 0.28595 -0.246878 
v 0.246329 0.272505 -0.246878 
v 0.348475 0.272505 -0.000275 
v 0.348475 0.286321 -0.000275 
v 0.246328 0.272505 0.246328 
v -0.000275 0.272505 0.348475 
v 0.042238 0.08877 0.101927 
v -0.246879 0.272505 0.246329 
v -0.042482 0.08877 0.102054 
v -0.102606 0.088772 -0.042482 
v -0.042788 0.088771 -0.102478 
v 0 0 0 
v 0.041932 0.088771 -0.102605 
v 0.101929 0.088772 -0.042788 
v 0.102054 0.088771 0.041932 
v -0.102544 0.08882 0.042227 
v -0.000275 0.337373 -0.295662 
v -0.116387 0.337374 -0.247566 
v -0.247566 0.337374 -0.116387 
v -0.295662 0.337374 -0.000275 
v 0.115837 0.337374 -0.247566 
v 0.295112 0.337373 -0.000275 
v 0.247017 0.337374 -0.116387 
v 0.246328 0.28595 0.246328 
v -0.000275 0.286321 0.348475 
v -0.246879 0.28595 0.246329 
v -0.115622 0.389948 -0.115622 
v -0.000275 0.408784 -0.116013 
v 0.115072 0.389948 -0.115622 
v -0.116013 0.408784 -0.000275 
v 0.115837 0.337374 0.247017 
v 0.247016 0.337373 0.115837 
v 0.115072 0.389948 0.115073 
v 0.115463 0.408784 -0.000275 
v -0.000275 0.337373 0.295112 
v -0.116387 0.337374 0.247017 
v -0.247567 0.337374 0.115838 
v -0.115622 0.389948 0.115072 
v -0.000275 0.427723 -0.000275 
v -0.000275 0.408784 0.115463 
# 180 1 
vt 0 0 
vt 0 1 
vt 0 1 
vt 0 1 
vt 0 1 
vt 0 1 
vt 0 1 
vt 0 1 
vt 0 1 
vt 0 1 
vt 0 1 
vt 0 1 
vt 0 1 
vt 0 1 
vt 0 1 
vt 0 1 
vt 0 1 
vt 0 1 
vt 0 1 
vt 0 1 
vt 0 1 
vt 0 1 
vt 0 1 
vt 0 1 
vt 0 1 
vt 0 1 
vt 0 1 
vt 0 1 
vt 0 1 
vt 0 1 
vt 0 1 
vt 0 1 
vt 0 1 
vt 0 1 
vt 0 1 
vt 0 1 
vt 0 1 
vt 0 1 
vt 0 1 
vt 0 1 
vt 0 1 
vt 0 1 
vt 0 1 
vt 0 1 
vt 0 1 
vt 0 1 
vt 0 1 
vt 0 1 
vt 0 1 
vt 0 1 
vt 0 1 
vt 0 1 
vt 0 1 
vt 0 1 
vt 0 1 
vt 0 1 
vt 0 1 
vt 0 1 
vt 0 1 
vt 0 1 
vt 0 1 
vt 0 1 
vt 0 1 
vt 0 1 
vt 0 1 
vt 0 1 
vt 0 1 
vt 0 1 
vt 0 1 
vt 0 1 
vt 0 1 
vt 0 1 
vt 0 1 
vt 0 1 
vt 0 1 
vt 0 1 
vt 0 1 
vt 0 1 
vt 0 1 
vt 0 1 
vt 0 1 
vt 0 1 
vt 0 1 
vt 0 1 
vt 0 1 
vt 0 1 
vt 0 1 
vt 0 1 
vt 0 1 
vt 0 1 
vt 0 1 
vt 0 1 
vt 0 1 
vt 0 1 
vt 0 1 
vt 0 1 
vt 0 1 
vt 0 1 
vt 0 1 
vt 0 1 
vt 0 1 
vt 0 1 
vt 0 1 
vt 0 1 
vt 0 1 
vt 0 1 
vt 0 1 
vt 0 1 
vt 0 1 
vt 0 1 
vt 0 1 
vt 0 1 
vt 0 1 
vt 0 1 
vt 0 1 
vt 0 1 
vt 0 1 
vt 0 1 
vt 0 1 
vt 0 1 
vt 0 1 
vt 0 1 
vt 0 1 
vt 0 1 
vt 0 1 
vt 0 1 
vt 0 1 
vt 0 1 
vt 0 1 
vt 0 1 
vt 0 1 
vt 0 1 
vt 0 1 
vt 0 1 
vt 0 1 
vt 0 1 
vt 0 1 
vt 0 1 
vt 0 1 
vt 0 1 
vt 0 1 
vt 0 1 
vt 0 1 
vt 0 1 
vt 0 1 
vt 0 1 
vt 0 1 
vt 0 1 
vt 0 1 
vt 0 1 
vt 0 1 
vt 0 1 
vt 0 1 
vt 0 1 
vt 0 1 
vt 0 1 
vt 0 1 
vt 0 1 
vt 0 1 
vt 0 1 
vt 0 1 
vt 0 1 
vt 0 1 
vt 0 1 
vt 0 1 
vt 0 1 
vt 0 1 
vt 0 1 
vt 0 1 
vt 0 1 
vt 0 1 
vt 0 1 
vt 0 1 
vt 0 1 
vt 0 1 
vt 0 1 
vt 0 1 
vt 0 1 
vt 0 1 
vt 0 1 
# 46 
vn -0.59967 -0.530237 -0.59937 
vn -0.847867 -0.530209 0.000205246 
vn -0.602024 0.524532 -0.602025 
vn -0.916484 0.400071 -2.3118e-006 
vn -8.50812e-007 0.400075 -0.916483 
vn -0.000213504 -0.530208 -0.847868 
vn 0.602023 0.524534 -0.602024 
vn 0.599414 -0.530139 -0.599713 
vn 0.847955 -0.530069 -0.000210624 
vn 0.916481 0.400078 1.64147e-006 
vn 0.59976 -0.530038 0.599456 
vn 0.000214914 -0.530068 0.847955 
vn 0.23401 -0.792362 0.563384 
vn -0.599442 -0.530139 0.599685 
vn -0.232877 -0.792481 0.563686 
vn -0.563402 -0.792725 -0.232733 
vn -0.233796 -0.792727 -0.56296 
vn 0.000172475 -1 0.000167778 
vn 0.23283 -0.792621 -0.563509 
vn 0.563279 -0.79247 -0.233899 
vn 0.563829 -0.792362 0.232936 
vn -0.563103 -0.792611 0.233844 
vn -2.72576e-007 0.84263 -0.538493 
vn -0.262641 0.844105 -0.467446 
vn -0.467446 0.844105 -0.262644 
vn -0.538494 0.842629 -1.61209e-006 
vn 0.26264 0.844106 -0.467446 
vn 0.53849 0.842632 2.06379e-006 
vn 0.467444 0.844107 -0.26264 
vn 0.602023 0.524534 0.602023 
vn 2.4665e-006 0.400075 0.916482 
vn -0.602024 0.524533 0.602023 
vn -0.258159 0.930971 -0.25816 
vn -3.79324e-009 0.963664 -0.267117 
vn 0.258159 0.930972 -0.258159 
vn -0.267115 0.963665 -6.97955e-007 
vn 0.262642 0.844106 0.467445 
vn 0.467445 0.844106 0.262641 
vn 0.258161 0.930971 0.258159 
vn 0.267117 0.963664 1.20246e-006 
vn 5.99667e-007 0.842631 0.538492 
vn -0.262638 0.844107 0.467445 
vn -0.467446 0.844105 0.262641 
vn -0.258157 0.930972 0.258159 
vn -1.79722e-007 1 -1.79722e-007 
vn -5.12087e-007 0.963664 0.267116 
f 3/2/3 1/1/1 2/3/2 4/4/4 
f 3/6/3 5/5/5 6/7/6 1/1/1 
f 5/9/5 7/8/7 8/10/8 6/11/6 
f 9/12/9 8/13/8 7/14/7 10/15/10 
f 11/16/11 12/17/12 13/18/13 
f 12/19/12 14/20/14 15/21/15 
f 16/22/16 2/23/2 1/1/1 
f 17/24/17 1/1/1 6/25/6 
f 18/26/18 17/27/17 6/32/6 19/33/19 
f 6/29/6 8/30/8 19/31/19 
f 18/35/18 19/34/19 8/39/8 20/40/20 
f 8/36/8 9/37/9 20/38/20 
f 18/42/18 20/41/20 9/43/9 21/44/21 
f 9/45/9 11/46/11 21/47/21 
f 18/49/18 21/48/21 11/50/11 13/51/13 
f 18/53/18 13/52/13 12/54/12 15/55/15 
f 14/56/14 2/57/2 22/58/22 
f 18/60/18 16/59/16 1/1/1 17/28/17 
f 18/62/18 15/61/15 14/63/14 22/64/22 
f 2/66/2 16/65/16 18/68/18 22/67/22 
f 23/69/23 5/70/5 3/72/3 24/71/24 
f 25/73/25 3/74/3 4/76/4 26/75/26 
f 27/77/27 7/78/7 5/80/5 23/79/23 
f 28/81/28 10/82/10 7/84/7 29/83/29 
f 12/86/12 11/85/11 30/87/30 31/88/31 
f 30/90/30 11/89/11 9/91/9 10/92/10 
f 12/93/12 31/94/31 32/95/32 14/96/14 
f 2/97/2 14/98/14 32/99/32 4/100/4 
f 3/102/3 25/101/25 33/103/33 24/104/24 
f 23/105/23 24/106/24 33/108/33 34/107/34 
f 35/109/35 29/110/29 7/111/7 27/112/27 
f 25/113/25 26/114/26 36/116/36 33/115/33 
f 27/117/27 23/118/23 34/120/34 35/119/35 
f 37/121/37 30/122/30 38/123/38 39/124/39 
f 28/125/28 29/126/29 35/128/35 40/127/40 
f 38/129/38 30/130/30 10/132/10 28/131/28 
f 41/133/41 31/134/31 30/136/30 37/135/37 
f 42/137/42 32/138/32 31/140/31 41/139/41 
f 26/141/26 4/142/4 32/144/32 43/143/43 
f 43/146/43 32/145/32 42/147/42 44/148/44 
f 34/149/34 33/150/33 36/152/36 45/151/45 
f 41/153/41 37/154/37 39/156/39 46/155/46 
f 35/157/35 34/158/34 45/160/45 40/159/40 
f 38/161/38 28/162/28 40/164/40 39/163/39 
f 26/165/26 43/166/43 44/168/44 36/167/36 
f 39/169/39 40/170/40 45/172/45 46/171/46 
f 42/173/42 41/174/41 46/176/46 44/175/44 
f 45/177/45 36/178/36 44/180/44 46/179/46 
