#Wavefront OBJ file created by Hexagon 2 
mtllib crystal1.mtl
g _001_dx_0
# 42 
v 0.05905 0.128644 0.008435 
v 0.110774 0.239419 -0.12809 
v -0.009102 0.204566 -0.041068 
v 0.090573 0.040069 -0.041068 
v 0.146293 0.093571 -0.154062 
v 0.146293 0.093571 0.071925 
v -0.0535 0.231649 0.095679 
v 0.044842 0.08358 0.125425 
v -0.068374 0.093571 0.141631 
v -0.136525 0.203456 -0.041068 
v -0.218884 0.132196 0.111219 
v -0.201347 0.093571 -0.041068 
v -0.031079 0.106001 -0.108776 
v 0.075477 0.140855 -0.301688 
v -0.068374 0.093571 -0.223769 
v -0.22621 0.137524 -0.198684 
v 0.237754 -0.017427 -0.121208 
v 0.34875 -0.017427 0.075256 
v 0.183144 -0.128201 -0.041068 
v 0.175818 -0.017427 0.213335 
v -0.009102 -0.017427 0.302354 
v 0.05017 -0.128201 0.141631 
v -0.035297 -0.017427 -0.004883 
v -0.295694 -0.017427 0.051946 
v -0.164496 -0.128201 0.071925 
v -0.009102 -0.017427 -0.059493 
v 0.06571 -0.017427 -0.144073 
v 0.05017 -0.128201 -0.223769 
v -0.34875 -0.017427 -0.151398 
v -0.049504 -0.017427 -0.096788 
v -0.164496 -0.128201 -0.154062 
v 0.16827 -0.143962 0.087687 
v -0.070816 -0.132641 0.148735 
v -0.326773 -0.200792 -0.041068 
v 0.130753 -0.117323 -0.142741 
v -0.093903 -0.176151 -0.302354 
v 0.109664 -0.222992 -0.041068 
v 0.026639 -0.218108 0.069039 
v -0.009102 -0.239419 -0.041068 
v -0.079695 -0.168825 0.010211 
v -0.086799 -0.183699 -0.097455 
v 0.017981 -0.169047 -0.124316 
# 235 1 
vt 0 1 
vt 0 1 
vt 0 1 
vt 0 1 
vt 0 1 
vt 0 1 
vt 0 1 
vt 0 1 
vt 0 1 
vt 0 1 
vt 0 1 
vt 0 1 
vt 0 1 
vt 0 1 
vt 0 1 
vt 0 1 
vt 0 1 
vt 0 1 
vt 0 1 
vt 0 1 
vt 0 1 
vt 0 1 
vt 0 1 
vt 0 1 
vt 0 1 
vt 0 1 
vt 0 1 
vt 0 1 
vt 0 1 
vt 0 1 
vt 0 1 
vt 0 1 
vt 0 1 
vt 0 1 
vt 0 1 
vt 0 1 
vt 0 1 
vt 0 1 
vt 0 1 
vt 0 1 
vt 0 1 
vt 0 1 
vt 0 1 
vt 0 1 
vt 0 1 
vt 0 1 
vt 0 1 
vt 0 1 
vt 0 1 
vt 0 1 
vt 0 1 
vt 0 1 
vt 0 1 
vt 0 1 
vt 0 1 
vt 0 1 
vt 0 1 
vt 0 1 
vt 0 1 
vt 0 1 
vt 0 1 
vt 0 1 
vt 0 1 
vt 0 1 
vt 0 1 
vt 0 1 
vt 0 1 
vt 0 1 
vt 0 1 
vt 0 1 
vt 0 1 
vt 0 1 
vt 0 1 
vt 0 1 
vt 0 1 
vt 0 1 
vt 0 1 
vt 0 1 
vt 0 1 
vt 0 1 
vt 0 1 
vt 0 1 
vt 0 1 
vt 0 1 
vt 0 1 
vt 0 1 
vt 0 1 
vt 0 1 
vt 0 1 
vt 0 1 
vt 0 1 
vt 0 1 
vt 0 1 
vt 0 1 
vt 0 1 
vt 0 1 
vt 0 1 
vt 0 1 
vt 0 1 
vt 0 1 
vt 0 1 
vt 0 1 
vt 0 1 
vt 0 1 
vt 0 1 
vt 0 1 
vt 0 1 
vt 0 1 
vt 0 1 
vt 0 1 
vt 0 1 
vt 0 1 
vt 0 1 
vt 0 1 
vt 0 1 
vt 0 1 
vt 0 1 
vt 0 1 
vt 0 1 
vt 0 1 
vt 0 1 
vt 0 1 
vt 0 1 
vt 0 1 
vt 0 1 
vt 0 1 
vt 0 1 
vt 0 1 
vt 0 1 
vt 0 1 
vt 0 1 
vt 0 1 
vt 0 1 
vt 0 1 
vt 0 1 
vt 0 1 
vt 0 1 
vt 0 1 
vt 0 1 
vt 0 1 
vt 0 1 
vt 0 1 
vt 0 1 
vt 0 1 
vt 0 1 
vt 0 1 
vt 0 1 
vt 0 1 
vt 0 1 
vt 0 1 
vt 0 1 
vt 0 1 
vt 0 1 
vt 0 1 
vt 0 1 
vt 0 1 
vt 0 1 
vt 0 1 
vt 0 1 
vt 0 1 
vt 0 1 
vt 0 1 
vt 0 1 
vt 0 1 
vt 0 1 
vt 0 1 
vt 0 1 
vt 0 1 
vt 0 1 
vt 0 1 
vt 0 1 
vt 0 1 
vt 0 1 
vt 0 1 
vt 0 1 
vt 0 1 
vt 0 1 
vt 0 1 
vt 0 1 
vt 0 1 
vt 0 1 
vt 0 1 
vt 0 1 
vt 0 1 
vt 0 1 
vt 0 1 
vt 0 1 
vt 0 1 
vt 0 1 
vt 0 1 
vt 0 1 
vt 0 1 
vt 0 1 
vt 0 1 
vt 0 1 
vt 0 1 
vt 0 1 
vt 0 1 
vt 0 1 
vt 0 1 
vt 0 1 
vt 0 1 
vt 0 1 
vt 0 1 
vt 0 1 
vt 0 1 
vt 0 1 
vt 0 1 
vt 0 1 
vt 0 1 
vt 0 1 
vt 0 1 
vt 0 1 
vt 0 1 
vt 0 1 
vt 0 1 
vt 0 1 
vt 0 1 
vt 0 1 
vt 0 1 
vt 0 1 
vt 0 1 
vt 0 1 
vt 0 1 
vt 0 1 
vt 0 1 
vt 0 1 
vt 0 1 
vt 0 1 
vt 0 1 
vt 0 1 
vt 0 1 
vt 0 1 
vt 0 1 
vt 0 1 
# 87 
vn 0.500059 0.774645 0.387126 
vn 0.905052 0.0897609 0.41572 
vn 0.626598 0.538084 -0.563774 
vn 0.283583 0.689267 0.666702 
vn 0.963017 0.178083 0.202202 
vn -0.648223 0.626568 -0.432688 
vn 0.108054 0.965133 -0.238418 
vn 0.765972 0.641581 0.0407611 
vn 0.880695 0.389449 0.269641 
vn 0.442529 -0.393774 -0.805674 
vn 0.523455 0.640819 -0.561557 
vn 0.24836 0.835314 0.490477 
vn 0.294418 0.950136 0.10276 
vn 0.0273483 0.312999 0.94936 
vn 0.297041 0.755972 0.583329 
vn 0.0720462 0.517182 0.852838 
vn -0.309648 -0.790255 0.528786 
vn -0.922214 -0.378603 0.0786278 
vn -0.383767 0.876556 -0.290469 
vn -0.75366 0.647825 -0.110987 
vn -0.106697 0.324296 0.939919 
vn -0.0633409 -0.659167 0.749324 
vn -0.802711 0.59341 0.0593319 
vn -0.191076 0.865987 -0.462122 
vn -0.514401 0.847483 -0.131015 
vn 0.897569 0.279329 -0.341094 
vn -0.353697 -0.721618 -0.595118 
vn 0.679617 -0.538246 -0.498409 
vn -0.0395108 0.994721 -0.0947085 
vn 0.275418 -0.747516 -0.604454 
vn -0.301586 -0.739603 -0.601692 
vn 0.309091 0.879208 -0.36257 
vn -0.771421 0.570965 0.280907 
vn -0.0725965 -0.604472 -0.793312 
vn 0.675109 -0.620963 -0.398288 
vn 0.457332 0.861112 0.222112 
vn 0.131543 -0.0551492 -0.989775 
vn 0.642567 -0.763176 0.0683421 
vn 0.355491 0.861164 -0.363349 
vn 0.407099 0.757837 0.509856 
vn 0.703879 -0.662945 -0.255065 
vn 0.335921 -0.690994 0.640066 
vn 0.297703 0.786034 0.541778 
vn 0.181042 -0.77731 0.602505 
vn 0.204151 0.822058 0.531548 
vn -0.996373 0.00485842 0.0849507 
vn 0.179979 -0.710535 0.680256 
vn -0.585336 -0.0137826 0.810674 
vn 0.213138 -0.0278983 0.976624 
vn -0.886917 0.456179 0.0726585 
vn -0.42393 -0.35155 0.834683 
vn -0.0964188 0.640643 0.761761 
vn -0.247804 -0.766446 0.592582 
vn -0.0322814 0.750086 -0.660552 
vn -0.0444953 -0.749361 -0.660666 
vn -0.647451 0.502839 -0.572678 
vn -0.638453 -0.522943 -0.564719 
vn 0.445272 -0.0713447 -0.892549 
vn -0.335985 0.72026 -0.606909 
vn 0.623569 0.39703 -0.673445 
vn 0.393531 -0.888132 -0.237391 
vn 0.179282 -0.0522631 -0.982409 
vn -0.830088 0.496088 0.254659 
vn -0.321793 -0.51616 -0.793743 
vn 0.0129873 -0.324811 -0.94569 
vn 0.549074 -0.587122 -0.594816 
vn 0.53953 0.606047 -0.584478 
vn -0.480697 0.741236 -0.468509 
vn 0.170873 0.306736 -0.936331 
vn -0.362656 -0.770364 -0.524424 
vn -0.480697 0.741236 -0.468509 
vn 0.487663 -0.765259 0.420195 
vn -0.703559 0.636978 0.315061 
vn -0.170852 -0.852167 0.494592 
vn -0.966982 0.0359128 0.252302 
vn -0.209541 -0.977494 0.0244699 
vn 0.400526 0.249028 -0.881796 
vn 0.511755 -0.724354 -0.461971 
vn 0.293859 0.749895 -0.592709 
vn -0.480697 0.741236 -0.468509 
vn -0.0116887 -0.994637 -0.102768 
vn 0.453036 -0.859568 -0.236432 
vn -0.0388455 -0.878934 0.475359 
vn -0.23856 -0.958391 -0.15677 
vn -0.327957 -0.898678 0.291241 
vn -0.2164 -0.955612 -0.199943 
vn 0.205119 -0.876851 -0.434809 
f 1/1/1 2/2/4 3/3/7 
f 2/4/5 1/1/2 4/5/8 
f 4/6/8 5/7/9 2/8/5 
f 6/9/11 4/10/8 1/1/3 
f 7/11/13 1/1/1 3/12/7 
f 1/1/1 7/13/13 8/14/15 
f 8/15/15 6/16/12 1/1/1 
f 9/17/16 8/18/15 7/19/14 
f 10/20/19 7/21/13 3/22/7 
f 7/23/13 10/24/19 11/25/20 
f 11/26/21 9/27/16 7/28/14 
f 12/29/23 11/30/20 10/31/19 
f 2/32/6 13/33/24 3/34/7 
f 13/35/24 2/36/6 14/37/25 
f 14/38/25 15/39/29 13/40/24 
f 5/41/9 14/42/26 2/43/5 
f 13/44/24 10/45/19 3/46/7 
f 10/47/19 13/48/24 16/49/32 
f 16/50/33 12/51/23 10/52/19 
f 15/53/29 16/54/32 13/55/24 
f 17/56/35 18/57/38 19/58/41 
f 18/59/39 17/60/36 4/61/8 
f 4/62/8 6/63/11 18/64/39 
f 5/65/9 4/66/8 17/67/36 
f 20/68/42 21/69/44 22/70/47 
f 21/71/45 20/72/43 8/73/15 
f 8/74/15 9/75/16 21/76/45 
f 6/77/12 8/78/15 20/79/43 
f 23/80/48 24/81/49 25/82/52 
f 24/83/49 23/84/48 11/85/22 
f 11/86/20 12/87/23 24/88/50 
f 9/89/17 11/90/22 23/91/48 
f 26/92/54 27/93/56 28/94/59 
f 27/95/57 26/96/55 14/97/27 
f 14/98/28 5/99/10 27/100/58 
f 15/101/30 14/102/27 26/103/55 
f 29/104/62 30/105/65 31/106/69 
f 30/107/65 29/108/62 16/109/34 
f 16/110/34 15/111/31 30/112/65 
f 12/113/23 16/114/33 29/115/63 
f 20/116/43 18/117/40 6/118/12 
f 18/119/38 20/120/42 32/121/72 
f 32/122/72 19/123/41 18/124/38 
f 22/125/47 32/126/72 20/127/42 
f 23/128/48 21/129/46 9/130/18 
f 21/131/46 23/132/48 33/133/73 
f 33/134/74 22/135/47 21/136/44 
f 25/137/52 33/138/73 23/139/48 
f 29/140/63 24/141/50 12/142/23 
f 24/143/50 29/144/63 34/145/75 
f 34/146/76 25/147/53 24/148/51 
f 31/149/70 34/150/76 29/151/64 
f 17/152/37 27/153/58 5/154/10 
f 27/155/58 17/156/37 35/157/77 
f 35/158/77 28/159/60 27/160/58 
f 19/161/41 35/162/78 17/163/35 
f 26/164/55 30/165/66 15/166/30 
f 30/167/67 26/168/54 36/169/79 
f 36/170/80 31/171/71 30/172/68 
f 28/173/59 36/174/79 26/175/54 
f 37/176/82 38/177/83 39/178/84 
f 38/179/83 37/180/82 32/181/72 
f 32/182/72 22/183/47 38/184/83 
f 19/185/41 32/186/72 37/187/82 
f 38/188/83 40/189/85 39/190/84 
f 40/191/85 38/192/83 33/193/74 
f 33/194/74 25/195/53 40/196/85 
f 22/197/47 33/198/74 38/199/83 
f 40/200/85 41/201/86 39/202/84 
f 41/203/86 40/204/85 34/205/76 
f 34/206/76 31/207/70 41/208/86 
f 25/209/53 34/210/76 40/211/85 
f 42/212/87 37/213/82 39/214/84 
f 37/215/82 42/216/87 35/217/78 
f 35/218/78 19/219/41 37/220/82 
f 28/221/61 35/222/78 42/223/87 
f 41/224/86 42/225/87 39/226/84 
f 42/227/87 41/228/86 36/229/81 
f 36/230/81 28/231/61 42/232/87 
f 31/233/70 36/234/81 41/235/86 
