#Wavefront OBJ file created by Hexagon 2 
mtllib cubeillusion.mtl
g Cubeill__0
# 44 
v -0.292581 0.302995 0 
v -0.267796 0.302977 -0.188265 
v -0.029966 0.03103 -0.051902 
v 0 0 0 
v -0.029966 0.03103 0.051902 
v 0.14629 0.302995 0.253383 
v 0.059931 0.03103 0 
v 0.29694 0.302977 0.137785 
v 0.14629 0.302995 -0.253383 
v -0.267805 0.312062 -0.188197 
v -0.292581 0.312098 0 
v -0.029146 0.302977 -0.326051 
v -0.201351 0.302958 -0.34875 
v 0.14629 0.312098 -0.253383 
v -0.029082 0.312062 -0.326024 
v 0.296941 0.302977 -0.137785 
v 0.296885 0.312062 -0.137828 
v 0.402701 0.302958 -1e-006 
v -0.029146 0.302977 0.32605 
v -0.267796 0.302977 0.188266 
v -0.201351 0.312031 -0.34875 
v 0.402701 0.312031 -1e-006 
v -0.201351 0.302958 0.34875 
v 0.012998 0.356991 -0.253401 
v 0.212952 0.356991 -0.137957 
v -0.225951 0.356991 -0.115443 
v -0.146569 0.37075 -0.253864 
v 0.296885 0.312062 0.137827 
v 0.14629 0.312098 0.253383 
v -0.029082 0.312062 0.326024 
v -0.201351 0.312031 0.34875 
v -0.267805 0.312062 0.188196 
v -0.22595 0.356991 0.115443 
v 0.079546 0.402034 -0.137782 
v 0.212951 0.356992 0.137956 
v 0.012998 0.356991 0.2534 
v -0.159096 0.402034 -2e-006 
v 0.293137 0.37075 0 
v -0.079342 0.416096 -0.137424 
v 0.158683 0.416096 0 
v 0.079549 0.402034 0.13778 
v -0.146569 0.37075 0.253864 
v -0.079342 0.416096 0.137424 
v 0 0.430086 -1e-006 
# 208 1 
vt 0 1 
vt 0 1 
vt 0 1 
vt 0 1 
vt 0 1 
vt 0 1 
vt 0 1 
vt 0 1 
vt 0 1 
vt 0 1 
vt 0 1 
vt 0 1 
vt 0 1 
vt 0 1 
vt 0 1 
vt 0 1 
vt 0 1 
vt 0 1 
vt 0 1 
vt 0 1 
vt 0 1 
vt 0 1 
vt 0 1 
vt 0 1 
vt 0 1 
vt 0 1 
vt 0 1 
vt 0 1 
vt 0 1 
vt 0 1 
vt 0 1 
vt 0 1 
vt 0 1 
vt 0 1 
vt 0 1 
vt 0 1 
vt 0 1 
vt 0 1 
vt 0 1 
vt 0 1 
vt 0 1 
vt 0 1 
vt 0 1 
vt 0 1 
vt 0 1 
vt 0 1 
vt 0 1 
vt 0 1 
vt 0 1 
vt 0 1 
vt 0 1 
vt 0 1 
vt 0 1 
vt 0 1 
vt 0 1 
vt 0 1 
vt 0 1 
vt 0 1 
vt 0 1 
vt 0 1 
vt 0 1 
vt 0 1 
vt 0 1 
vt 0 1 
vt 0 1 
vt 0 1 
vt 0 1 
vt 0 1 
vt 0 1 
vt 0 1 
vt 0 1 
vt 0 1 
vt 0 1 
vt 0 1 
vt 0 1 
vt 0 1 
vt 0 1 
vt 0 1 
vt 0 1 
vt 0 1 
vt 0 1 
vt 0 1 
vt 0 1 
vt 0 1 
vt 0 1 
vt 0 1 
vt 0 1 
vt 0 1 
vt 0 1 
vt 0 1 
vt 0 1 
vt 0 1 
vt 0 1 
vt 0 1 
vt 0 1 
vt 0 1 
vt 0 1 
vt 0 1 
vt 0 1 
vt 0 1 
vt 0 1 
vt 0 1 
vt 0 1 
vt 0 1 
vt 0 1 
vt 0 1 
vt 0 1 
vt 0 1 
vt 0 1 
vt 0 1 
vt 0 1 
vt 0 1 
vt 0 1 
vt 0 1 
vt 0 1 
vt 0 1 
vt 0 1 
vt 0 1 
vt 0 1 
vt 0 1 
vt 0 1 
vt 0 1 
vt 0 1 
vt 0 1 
vt 0 1 
vt 0 1 
vt 0 1 
vt 0 1 
vt 0 1 
vt 0 1 
vt 0 1 
vt 0 1 
vt 0 1 
vt 0 1 
vt 0 1 
vt 0 1 
vt 0 1 
vt 0 1 
vt 0 1 
vt 0 1 
vt 0 1 
vt 0 1 
vt 0 1 
vt 0 1 
vt 0 1 
vt 0 1 
vt 0 1 
vt 0 1 
vt 0 1 
vt 0 1 
vt 0 1 
vt 0 1 
vt 0 1 
vt 0 1 
vt 0 1 
vt 0 1 
vt 0 0 
vt 1 0 
vt 1 1 
vt 0 1 
vt 0 0 
vt 1 0 
vt 1 1 
vt 0 1 
vt 0 0 
vt 1 0 
vt 1 1 
vt 0 1 
vt 0 0 
vt 1 0 
vt 1 1 
vt 0 1 
vt 0 0 
vt 1 0 
vt 1 1 
vt 0 1 
vt 0 0 
vt 1 0 
vt 1 1 
vt 0 1 
vt 0 0 
vt 1 0 
vt 1 1 
vt 0 1 
vt 0 0 
vt 1 0 
vt 1 1 
vt 0 1 
vt 0 0 
vt 1 0 
vt 1 1 
vt 0 1 
vt 0 0 
vt 1 0 
vt 1 1 
vt 0 1 
vt 0 0 
vt 1 0 
vt 1 1 
vt 0 1 
vt 0 0 
vt 1 0 
vt 1 1 
vt 0 1 
vt 0 0 
vt 1 0 
vt 1 1 
vt 0 1 
# 65 
vn -0.895945 -0.444165 -1.09313e-007 
vn -0.89487 -0.377097 -0.23876 
vn -0.704139 -0.699365 -0.122792 
vn 0.245728 -0.699365 -0.671198 
vn -0.719361 -0.694636 1.06716e-008 
vn 0.35968 -0.694637 -0.622985 
vn 0.35968 -0.694637 0.622985 
vn -0.704138 -0.699365 0.122792 
vn 0.245728 -0.699365 0.671198 
vn 0.447971 -0.444169 0.77591 
vn 0.458411 -0.699365 0.548405 
vn 0.45841 -0.699366 -0.548405 
vn 0.654212 -0.37709 0.655599 
vn 0.447972 -0.444163 -0.775913 
vn -0.809061 0.540563 -0.230677 
vn -0.812973 0.582302 7.47006e-007 
vn 0.240663 -0.377082 -0.894366 
vn -0.853824 -0.382194 -0.353431 
vn 0.120833 -0.382176 -0.916155 
vn 0.406485 0.582304 -0.704054 
vn 0.204755 0.540573 -0.816 
vn 0.654209 -0.37709 -0.655601 
vn 0.6043 0.54057 -0.585326 
vn 0.732996 -0.382181 -0.56272 
vn 0.732996 -0.382185 0.562717 
vn 0.270502 -0.497596 0.824152 
vn 0.130739 0.00095975 0.991416 
vn 0.130739 0.00095975 0.991416 
vn -0.894875 -0.377084 0.238761 
vn -0.236184 0.881401 -0.409084 
vn -0.92396 0.000974548 -0.382489 
vn 0.130736 0.0010135 -0.991417 
vn 0.472372 0.8814 5.86443e-007 
vn 0.793225 0.00100413 -0.608928 
vn 0.793227 0.000993506 0.608926 
vn 0.0924956 -0.707046 0.701093 
vn -0.85383 -0.382176 0.353434 
vn 0.130739 0.00095975 0.991416 
vn 0.130739 0.00095975 0.991416 
vn 0.154481 0.854892 -0.495272 
vn 0.351675 0.854894 -0.381421 
vn -0.506159 0.854893 -0.113849 
vn -0.210968 0.906626 -0.365407 
vn 0.604303 0.540568 0.585325 
vn 0.406486 0.5823 0.704057 
vn 0.213511 0.657688 0.722399 
vn 0.130739 0.00095975 0.991416 
vn 0.130739 0.00095975 0.991416 
vn -0.236185 0.881401 0.409084 
vn 0.130739 0.00095975 0.991416 
vn -0.92396 0.00101526 0.382489 
vn 0.130739 0.00095975 0.991416 
vn -0.809055 0.540574 0.230675 
vn -0.506158 0.854893 0.113849 
vn 0.189979 0.925004 -0.329053 
vn 0.351676 0.854893 0.38142 
vn 0.154482 0.854893 0.495271 
vn -0.379958 0.925004 3.05848e-007 
vn 0.421936 0.906626 -3.68014e-008 
vn -0.121244 0.970155 -0.21 
vn 0.242486 0.970155 -1.01363e-006 
vn 0.189978 0.925004 0.329052 
vn -0.210968 0.906627 0.365405 
vn -0.121243 0.970155 0.209999 
vn 2.16878e-007 1 -4.96377e-007 
f 1/1/1 2/2/2 3/3/3 
f 4/4/5 5/5/8 1/1/1 3/6/3 
f 6/7/10 7/8/11 8/9/13 
f 7/10/12 4/11/6 3/13/4 9/12/14 
f 9/14/14 3/15/4 12/16/17 
f 7/17/11 6/18/10 5/20/9 4/19/7 
f 3/21/3 2/22/2 13/23/18 
f 9/24/14 16/25/22 7/26/12 
f 3/27/4 13/28/19 12/29/17 
f 7/30/12 16/31/22 18/32/24 
f 6/33/10 19/34/26 5/35/9 
f 1/1/1 5/36/8 20/37/29 
f 7/38/11 18/39/25 8/40/13 
f 5/41/9 19/42/26 23/43/36 
f 5/44/8 23/45/37 20/46/29 
f 15/47/21 24/48/40 14/49/20 
f 17/50/23 14/51/20 25/52/41 
f 10/53/15 11/54/16 26/55/42 
f 10/56/15 26/57/42 27/58/43 
f 10/59/15 27/60/43 21/61/30 
f 27/62/43 24/63/40 15/64/21 
f 27/65/43 15/66/21 21/67/30 
f 32/68/53 33/69/54 11/70/16 
f 34/73/55 14/72/20 24/74/40 
f 28/75/44 35/76/56 29/77/45 
f 30/78/46 29/79/45 36/80/57 
f 37/81/58 26/82/42 11/83/16 
f 33/84/54 37/85/58 11/86/16 
f 38/87/59 22/88/33 17/89/23 
f 38/90/59 17/91/23 25/92/41 
f 39/95/60 26/94/42 37/96/58 
f 24/97/40 27/98/43 39/99/60 
f 34/100/55 24/101/40 39/102/60 
f 38/106/59 28/104/44 22/105/33 
f 40/109/61 25/108/41 34/110/55 
f 41/113/62 29/112/45 35/114/56 
f 31/115/49 30/116/46 42/117/63 
f 42/118/63 30/119/46 36/120/57 
f 31/121/49 42/122/63 32/123/53 
f 32/124/53 42/125/63 33/126/54 
f 33/127/54 42/128/63 43/130/64 
f 39/131/60 37/132/58 44/133/65 
f 34/135/55 39/136/60 44/137/65 
f 40/138/61 34/139/55 44/140/65 
f 35/141/56 38/142/59 40/143/61 
f 41/144/62 35/145/56 40/146/61 
f 43/149/64 36/148/57 41/150/62 
f 44/151/65 43/152/64 41/153/62 
f 40/154/61 44/155/65 41/156/62 
f 44/133/65 37/132/58 43/134/64 
f 33/127/54 43/130/64 37/129/58 
f 42/147/63 36/148/57 43/149/64 
f 38/107/59 25/108/41 40/109/61 
f 36/111/57 29/112/45 41/113/62 
f 25/71/41 14/72/20 34/73/55 
f 27/93/43 26/94/42 39/95/60 
f 35/103/56 28/104/44 38/106/59 
f 11/157/16 10/158/15 2/159/2 1/160/1 
f 15/161/21 14/162/20 9/163/14 12/164/17 
f 14/165/20 17/166/23 16/167/22 9/168/14 
f 10/169/15 21/170/31 13/171/18 2/172/2 
f 21/173/32 15/174/21 12/175/17 13/176/19 
f 17/177/23 22/178/34 18/179/24 16/180/22 
f 28/181/44 29/182/45 6/183/10 8/184/13 
f 22/185/35 28/186/44 8/187/13 18/188/25 
f 29/189/45 30/190/46 19/191/26 6/192/10 
f 30/193/47 31/194/50 23/195/38 19/196/27 
f 32/197/53 11/198/16 1/199/1 20/200/29 
f 31/201/51 32/202/53 20/203/29 23/204/37 
f 30/205/48 31/206/52 23/207/39 19/208/28 
