#Wavefront OBJ file created by Hexagon 2 
mtllib dutchrose.mtl
g dutchros_0
# 38 
v 0.174376 0.292835 -0.302027 
v 0 0 0 
v 0 0.292835 -0.348751 
v 0.302027 0.292834 -0.174375 
v 0.174375 0.292834 0.302025 
v 0.302026 0.292834 0.174374 
v -0.174376 0.292835 -0.302027 
v 0.34875 0.292834 -1e-006 
v 0 0.2988 -0.348751 
v 0.174376 0.2988 -0.302027 
v 0.302027 0.2988 -0.174375 
v 0.34875 0.2988 -1e-006 
v 0.302026 0.2988 0.174374 
v 1e-006 0.292834 0.348749 
v 0.174375 0.2988 0.302025 
v -0.174374 0.292834 0.302025 
v -0.302026 0.292834 0.174375 
v -0.34875 0.292834 0 
v -0.302027 0.292834 -0.174376 
v -0.174376 0.2988 -0.302027 
v 0.15119 0.34359 -0.26187 
v 0.30238 0.34359 -1e-006 
v -0.15119 0.34359 -0.26187 
v 1e-006 0.2988 0.348749 
v -0.174374 0.2988 0.302025 
v -0.302026 0.2988 0.174375 
v -0.34875 0.2988 0 
v -0.302027 0.2988 -0.174376 
v 1e-006 0.414714 -0.175419 
v 0.151917 0.414714 -0.087711 
v 0.15119 0.34359 0.261867 
v 0.151916 0.414714 0.087707 
v -0.15119 0.34359 0.261868 
v -0.30238 0.34359 -1e-006 
v -0.151916 0.414714 -0.08771 
v 1e-006 0.414714 0.175415 
v -0.151915 0.414714 0.087707 
v 1e-006 0.447004 -3e-006 
# 189 1 
vt 0 1 
vt 0 1 
vt 0 1 
vt 0 1 
vt 0 1 
vt 0 1 
vt 0 1 
vt 0 1 
vt 0 1 
vt 0 1 
vt 0 1 
vt 0 1 
vt 0 1 
vt 0 1 
vt 0 1 
vt 0 1 
vt 0 1 
vt 0 1 
vt 0 1 
vt 0 1 
vt 0 1 
vt 0 1 
vt 0 1 
vt 0 1 
vt 0 1 
vt 0 1 
vt 0 1 
vt 0 1 
vt 0 1 
vt 0 1 
vt 0 1 
vt 0 1 
vt 0 1 
vt 0 1 
vt 0 1 
vt 0 1 
vt 0 1 
vt 0 1 
vt 0 1 
vt 0 1 
vt 0 1 
vt 0 1 
vt 0 1 
vt 0 1 
vt 0 1 
vt 0 1 
vt 0 1 
vt 0 1 
vt 0 1 
vt 0 1 
vt 0 1 
vt 0 1 
vt 0 1 
vt 0 1 
vt 0 1 
vt 0 1 
vt 0 1 
vt 0 1 
vt 0 1 
vt 0 1 
vt 0 1 
vt 0 1 
vt 0 1 
vt 0 1 
vt 0 1 
vt 0 1 
vt 0 1 
vt 0 1 
vt 0 1 
vt 0 1 
vt 0 1 
vt 0 1 
vt 0 1 
vt 0 1 
vt 0 1 
vt 0 1 
vt 0 1 
vt 0 1 
vt 0 1 
vt 0 1 
vt 0 1 
vt 0 1 
vt 0 1 
vt 0 1 
vt 0 1 
vt 0 1 
vt 0 1 
vt 0 1 
vt 0 1 
vt 0 1 
vt 0 1 
vt 0 1 
vt 0 1 
vt 0 1 
vt 0 1 
vt 0 1 
vt 0 1 
vt 0 1 
vt 0 1 
vt 0 1 
vt 0 1 
vt 0 1 
vt 0 1 
vt 0 1 
vt 0 1 
vt 0 1 
vt 0 1 
vt 0 1 
vt 0 1 
vt 0 1 
vt 0 1 
vt 0 1 
vt 0 1 
vt 0 1 
vt 0 1 
vt 0 1 
vt 0 1 
vt 0 1 
vt 0 1 
vt 0 1 
vt 0 1 
vt 0 1 
vt 0 1 
vt 0 1 
vt 0 1 
vt 0 1 
vt 0 1 
vt 0 1 
vt 0 1 
vt 0 1 
vt 0 1 
vt 0 1 
vt 0 1 
vt 0 1 
vt 0 1 
vt 0 1 
vt 0 1 
vt 0 1 
vt 0 1 
vt 0 1 
vt 0 1 
vt 0 1 
vt 0 1 
vt 0 1 
vt 0 1 
vt 0 1 
vt 0 1 
vt 0 1 
vt 0 1 
vt 0 1 
vt 0 1 
vt 0 1 
vt 0 1 
vt 0 1 
vt 0 1 
vt 0 1 
vt 0 1 
vt 0 1 
vt 0 1 
vt 0 1 
vt 0 1 
vt 0 1 
vt 0 1 
vt 0 1 
vt 0 1 
vt 0 1 
vt 0 1 
vt 0 1 
vt 0 1 
vt 0 1 
vt 0 1 
vt 0 1 
vt 0 1 
vt 0 1 
vt 0 1 
vt 0 1 
vt 0 1 
vt 0 1 
vt 0 1 
vt 0 1 
vt 0 1 
vt 0 1 
vt 0 1 
vt 0 1 
vt 0 1 
vt 0 1 
vt 0 1 
vt 0 1 
vt 0 1 
# 38 
vn 0.452198 -0.426696 -0.783229 
vn 7.17374e-007 -1 1.11555e-006 
vn 0 -0.426696 -0.904395 
vn 0.78323 -0.426696 -0.452197 
vn 0.452199 -0.426695 0.783229 
vn 0.783229 -0.426695 0.452198 
vn -0.452197 -0.426696 -0.78323 
vn 0.904395 -0.426696 1.86188e-006 
vn 9.0151e-008 0.571911 -0.820316 
vn 0.459532 0.394116 -0.795929 
vn 0.710415 0.571912 -0.410156 
vn 0.91906 0.394117 1.89363e-006 
vn 0.710413 0.571913 0.410158 
vn 5.64461e-007 -0.426695 0.904396 
vn 0.459531 0.394118 0.795928 
vn -0.452196 -0.426694 0.783231 
vn -0.783227 -0.426695 0.452202 
vn -0.904395 -0.426696 3.11717e-006 
vn -0.783229 -0.426697 -0.452197 
vn -0.45953 0.394116 -0.79593 
vn 0.289694 0.815051 -0.501765 
vn 0.579388 0.815052 1.53599e-006 
vn -0.289693 0.815053 -0.501764 
vn 7.73913e-007 0.571913 0.820314 
vn -0.459529 0.394111 0.795933 
vn -0.710412 0.571912 0.410161 
vn -0.919061 0.394116 2.88612e-006 
vn -0.710414 0.571913 -0.410156 
vn 9.79792e-008 0.926095 -0.37729 
vn 0.326743 0.926095 -0.188645 
vn 0.289693 0.815054 0.501762 
vn 0.326742 0.926095 0.188645 
vn -0.289693 0.815052 0.501766 
vn -0.579386 0.815053 1.63887e-006 
vn -0.326741 0.926096 -0.188644 
vn 1.40607e-006 0.926096 0.377287 
vn -0.32674 0.926096 0.188644 
vn 2.5644e-007 1 -2.04439e-007 
f 1/1/1 2/2/2 3/3/3 
f 4/4/4 2/5/2 1/1/1 
f 5/6/5 2/7/2 6/8/6 
f 3/9/3 2/10/2 7/11/7 
f 6/12/6 2/13/2 8/14/8 
f 8/15/8 2/16/2 4/17/4 
f 1/1/1 3/18/3 9/20/9 10/19/10 
f 4/21/4 1/1/1 10/23/10 11/22/11 
f 8/24/8 4/25/4 11/27/11 12/26/12 
f 6/28/6 8/29/8 12/31/12 13/30/13 
f 14/32/14 2/33/2 5/34/5 
f 5/35/5 6/36/6 13/38/13 15/37/15 
f 16/39/16 2/40/2 14/41/14 
f 17/42/17 2/43/2 16/44/16 
f 18/45/18 2/46/2 17/47/17 
f 19/48/19 2/49/2 18/50/18 
f 3/51/3 7/52/7 20/54/20 9/53/9 
f 7/55/7 2/56/2 19/57/19 
f 21/58/21 10/59/10 9/60/9 
f 11/61/11 10/62/10 21/63/21 
f 22/64/22 12/65/12 11/66/11 
f 9/67/9 20/68/20 23/69/23 
f 13/70/13 12/71/12 22/72/22 
f 14/73/14 5/74/5 15/76/15 24/75/24 
f 16/77/16 14/78/14 24/80/24 25/79/25 
f 17/81/17 16/82/16 25/84/25 26/83/26 
f 18/85/18 17/86/17 26/88/26 27/87/27 
f 19/89/19 18/90/18 27/92/27 28/91/28 
f 7/93/7 19/94/19 28/96/28 20/95/20 
f 21/97/21 9/98/9 29/99/29 
f 30/100/30 11/101/11 21/102/21 
f 22/103/22 11/104/11 30/105/30 
f 31/106/31 15/107/15 13/108/13 
f 29/109/29 9/110/9 23/111/23 
f 32/112/32 13/113/13 22/114/22 
f 24/115/24 15/116/15 31/117/31 
f 33/118/33 25/119/25 24/120/24 
f 26/121/26 25/122/25 33/123/33 
f 34/124/34 27/125/27 26/126/26 
f 28/127/28 27/128/27 34/129/34 
f 23/130/23 20/131/20 28/132/28 
f 23/133/23 28/134/28 35/135/35 
f 30/136/30 21/137/21 29/138/29 
f 31/139/31 13/140/13 32/141/32 
f 32/142/32 22/143/22 30/144/30 
f 36/145/36 24/146/24 31/147/31 
f 37/148/37 26/149/26 33/150/33 
f 33/151/33 24/152/24 36/153/36 
f 35/154/35 28/155/28 34/156/34 
f 34/157/34 26/158/26 37/159/37 
f 29/160/29 23/161/23 35/162/35 
f 30/163/30 29/164/29 38/165/38 
f 38/166/38 29/167/29 35/168/35 
f 36/169/36 31/170/31 32/171/32 
f 32/172/32 30/173/30 38/174/38 
f 37/175/37 33/176/33 36/177/36 
f 36/178/36 32/179/32 38/180/38 
f 37/181/37 36/182/36 38/183/38 
f 35/184/35 34/185/34 37/186/37 
f 37/187/37 38/188/38 35/189/35 
