#Wavefront OBJ file created by Hexagon 2 
mtllib grampriince.mtl
g grmprinc_0
# 31 
v 0.279 0.321012 -0.34875 
v 0.279 0.332111 -0.34875 
v 0.279 0.332111 0.34875 
v 0.279 0.321012 0.34875 
v -0.279 0.321012 -0.34875 
v -0.279 0.332111 -0.34875 
v -0.279 0.321012 0.34875 
v -1e-006 0.232615 0.28175 
v 0.212572 0.168237 0 
v 0.109138 0.082735 0 
v -0.212572 0.168237 0 
v -0.109137 0.082735 0 
v -1e-006 0.232616 -0.28175 
v -1e-006 0.101824 0.12827 
v 0 0 0 
v -1e-006 0.101826 -0.128272 
v -0.279 0.332111 0.34875 
v -0.252933 0.355582 -0.322684 
v 0.252934 0.355581 -0.322684 
v -0.252933 0.355582 0.322684 
v 0.252934 0.355581 0.322684 
v 1e-006 0.41729 -0.223929 
v -0.16839 0.417006 0 
v 0.16839 0.417006 0 
v -0.167804 0.417289 0 
v -0.139527 0.41729 -0.214785 
v 0.139526 0.41729 -0.214784 
v 0.167803 0.41729 0 
v -1e-006 0.41729 0.22393 
v -0.139527 0.417289 0.214785 
v 0.139527 0.41729 0.214784 
# 121 1 
vt 0 1 
vt 0 1 
vt 0 1 
vt 0 1 
vt 0 1 
vt 0 1 
vt 0 1 
vt 0 1 
vt 0 1 
vt 0 1 
vt 0 1 
vt 0 1 
vt 0 1 
vt 0 1 
vt 0 1 
vt 0 1 
vt 0 1 
vt 0 1 
vt 0 1 
vt 0 1 
vt 0 1 
vt 0 1 
vt 0 1 
vt 0 1 
vt 0 1 
vt 0 1 
vt 0 1 
vt 0 1 
vt 0 1 
vt 0 1 
vt 0 1 
vt 0 1 
vt 0 1 
vt 0 1 
vt 0 1 
vt 0 1 
vt 0 1 
vt 0 1 
vt 0 1 
vt 0 1 
vt 0 1 
vt 0 1 
vt 0 1 
vt 0 1 
vt 0 1 
vt 0 1 
vt 0 1 
vt 0 1 
vt 0 1 
vt 0 1 
vt 0 1 
vt 0 1 
vt 0 1 
vt 0 1 
vt 0 1 
vt 0 1 
vt 0 1 
vt 0 1 
vt 0 1 
vt 0 1 
vt 0 1 
vt 0 1 
vt 0 1 
vt 0 1 
vt 0 1 
vt 0 1 
vt 0 1 
vt 0 1 
vt 0 1 
vt 0 1 
vt 0 1 
vt 0 1 
vt 0 1 
vt 0 1 
vt 0 1 
vt 0 1 
vt 0 1 
vt 0 1 
vt 0 1 
vt 0 1 
vt 0 1 
vt 0 1 
vt 0 1 
vt 0 1 
vt 0 1 
vt 0 1 
vt 0 1 
vt 0 1 
vt 0 1 
vt 0 1 
vt 0 1 
vt 0 1 
vt 0 1 
vt 0 1 
vt 0 1 
vt 0 1 
vt 0 1 
vt 0 1 
vt 0 1 
vt 0 1 
vt 0 1 
vt 0 1 
vt 0 1 
vt 0 1 
vt 0 1 
vt 0 1 
vt 0 1 
vt 0 1 
vt 0 1 
vt 0 1 
vt 0 1 
vt 0 1 
vt 0 1 
vt 0 1 
vt 0 1 
vt 0 1 
vt 0 1 
vt 0 1 
vt 0 1 
vt 0 1 
vt 0 1 
# 35 
vn 0.581368 -0.561411 -0.588921 
vn 0.913546 0.406736 -7.02796e-009 
vn 3.73149e-007 0.406731 -0.913548 
vn 0.913546 0.406736 -7.02796e-009 
vn 3.98908e-007 0.406731 0.913548 
vn 0.581369 -0.56141 0.588922 
vn -0.581369 -0.561411 -0.588921 
vn 3.73149e-007 0.406731 -0.913548 
vn -0.913546 0.406735 8.61611e-010 
vn -0.581369 -0.561411 0.588921 
vn -4.162e-007 -0.719555 0.694435 
vn 0.741075 -0.671422 -5.19485e-009 
vn 0.620592 -0.784134 -7.65096e-009 
vn -0.741075 -0.671422 -5.19485e-009 
vn -0.620592 -0.784134 -7.65096e-009 
vn -4.56315e-007 -0.719556 -0.694435 
vn -6.32886e-007 -0.771143 0.636662 
vn -5.04995e-007 -1 -6.0356e-007 
vn -6.85314e-007 -0.771142 -0.636663 
vn -0.913546 0.406735 8.61611e-010 
vn 3.98908e-007 0.406731 0.913548 
vn -0.313469 0.896024 -0.314447 
vn 0.313471 0.896024 -0.314447 
vn -0.313469 0.896025 0.314446 
vn 0.313472 0.896023 0.314448 
vn 1.48303e-006 0.925914 -0.377734 
vn -0.48792 0.872888 9.76798e-007 
vn 0.487926 0.872885 -4.29142e-007 
vn -0.223123 0.97479 1.35019e-006 
vn -0.121068 0.983074 -0.13751 
vn 0.121068 0.983073 -0.137511 
vn 0.223124 0.97479 2.56263e-007 
vn -1.17045e-006 0.92592 0.377719 
vn -0.121069 0.983076 0.137494 
vn 0.121069 0.983075 0.137497 
f 1/1/1 2/2/2 3/4/4 4/3/6 
f 5/5/7 6/6/8 2/7/3 1/1/1 
f 4/8/6 7/9/10 8/10/11 
f 1/1/1 4/11/6 9/12/12 
f 1/1/1 9/13/12 10/25/13 15/26/18 
f 5/14/7 11/15/14 7/16/10 
f 12/17/15 11/18/14 5/32/7 15/31/18 
f 5/19/7 1/1/1 13/20/16 
f 4/21/6 8/22/11 14/43/17 15/42/18 
f 14/23/17 8/24/11 7/51/10 15/50/18 
f 10/27/13 9/28/12 4/40/6 15/39/18 
f 7/29/10 11/30/14 12/44/15 15/45/18 
f 5/33/7 13/34/16 16/36/19 15/35/18 
f 16/37/19 13/38/16 1/1/1 15/41/18 
f 7/46/10 17/47/20 6/49/9 5/48/7 
f 18/52/22 19/53/23 2/55/3 6/54/8 
f 4/56/6 3/57/5 17/59/21 7/58/10 
f 20/60/24 18/61/22 6/63/9 17/62/20 
f 19/64/23 21/65/25 3/67/4 2/66/2 
f 22/69/26 18/84/22 26/85/30 
f 21/70/25 20/71/24 17/73/21 3/72/5 
f 20/74/24 23/75/27 18/76/22 
f 24/77/28 21/78/25 19/79/23 
f 18/80/22 23/81/27 25/83/29 26/82/30 
f 24/86/28 19/87/23 27/89/31 28/88/32 
f 27/90/31 19/91/23 22/92/26 
f 29/94/33 21/106/25 31/107/35 
f 23/95/27 20/96/24 30/98/34 25/97/29 
f 30/99/34 20/100/24 29/101/33 
f 21/102/25 24/103/28 28/105/32 31/104/35 
f 30/108/34 29/109/33 31/110/35 
f 25/112/29 30/111/34 31/113/35 28/114/32 
f 25/115/29 28/116/32 27/117/31 26/118/30 
f 26/119/30 27/120/31 22/121/26 
f 29/94/33 20/93/24 21/106/25 
f 22/69/26 19/68/23 18/84/22 
