#Wavefront OBJ file created by Hexagon 2 
mtllib gramprincess.mtl
g grmprincess_grmprinc_0
# 33 
v 0 0.232268 0.267373 
v 0.34875 0.332082 0.34875 
v -0.34875 0.332082 0.348749 
v -0.34875 0.338857 -0.34875 
v 0.34875 0.338857 -0.34875 
v 0.34875 0.332082 -0.34875 
v -0.34875 0.332082 -0.34875 
v 0.34875 0.338857 0.34875 
v 1e-006 0.232268 -0.267372 
v 0.267372 0.232268 0 
v 0.179682 0.148297 0 
v 0 0.148298 0.179683 
v -0.267373 0.232269 -3e-006 
v -0.179683 0.148298 -2e-006 
v 1e-006 0.148296 -0.179681 
v 0.087564 0.069545 0 
v 1e-006 0.06955 0.087569 
v -0.087548 0.069534 0 
v 1e-006 0.069531 -0.087546 
v 0 0 0 
v -0.34875 0.338857 0.348749 
v 0.315182 0.361498 -0.315182 
v -0.315181 0.361499 -0.315181 
v -0.315179 0.3615 0.315179 
v 0.315184 0.361497 0.315184 
v 0 0.429831 -0.198431 
v -0.198431 0.429831 -1e-006 
v -0.186226 0.429831 -0.186226 
v 0.198432 0.429831 0 
v 0.186224 0.429831 -0.186226 
v 1e-006 0.429831 0.198432 
v -0.186226 0.429831 0.186224 
v 0.186224 0.429831 0.186223 
# 140 1 
vt 0 1 
vt 0 1 
vt 0 1 
vt 0 1 
vt 0 1 
vt 0 1 
vt 0 1 
vt 0 1 
vt 0 1 
vt 0 1 
vt 0 1 
vt 0 1 
vt 0 1 
vt 0 1 
vt 0 1 
vt 0 1 
vt 0 1 
vt 0 1 
vt 0 1 
vt 0 1 
vt 0 1 
vt 0 1 
vt 0 1 
vt 0 1 
vt 0 1 
vt 0 1 
vt 0 1 
vt 0 1 
vt 0 1 
vt 0 1 
vt 0 1 
vt 0 1 
vt 0 1 
vt 0 1 
vt 0 1 
vt 0 1 
vt 0 1 
vt 0 1 
vt 0 1 
vt 0 1 
vt 0 1 
vt 0 1 
vt 0 1 
vt 0 1 
vt 0 1 
vt 0 1 
vt 0 1 
vt 0 1 
vt 0 1 
vt 0 1 
vt 0 1 
vt 0 1 
vt 0 1 
vt 0 1 
vt 0 1 
vt 0 1 
vt 0 1 
vt 0 1 
vt 0 1 
vt 0 1 
vt 0 1 
vt 0 1 
vt 0 1 
vt 0 1 
vt 0 1 
vt 0 1 
vt 0 1 
vt 0 1 
vt 0 1 
vt 0 1 
vt 0 1 
vt 0 1 
vt 0 1 
vt 0 1 
vt 0 1 
vt 0 1 
vt 0 1 
vt 0 1 
vt 0 1 
vt 0 1 
vt 0 1 
vt 0 1 
vt 0 1 
vt 0 1 
vt 0 1 
vt 0 1 
vt 0 1 
vt 0 1 
vt 0 1 
vt 0 1 
vt 0 1 
vt 0 1 
vt 0 1 
vt 0 1 
vt 0 1 
vt 0 1 
vt 0 1 
vt 0 1 
vt 0 1 
vt 0 1 
vt 0 1 
vt 0 1 
vt 0 1 
vt 0 1 
vt 0 1 
vt 0 1 
vt 0 1 
vt 0 1 
vt 0 1 
vt 0 1 
vt 0 1 
vt 0 1 
vt 0 1 
vt 0 1 
vt 0 1 
vt 0 1 
vt 0 1 
vt 0 1 
vt 0 1 
vt 0 1 
vt 0 1 
vt 0 1 
vt 0 1 
vt 0 1 
vt 0 1 
vt 0 1 
vt 0 1 
vt 0 1 
vt 0 1 
vt 0 1 
vt 0 1 
vt 0 1 
vt 0 1 
vt 0 1 
vt 0 1 
vt 0 1 
vt 0 1 
vt 0 1 
vt 0 1 
vt 0 1 
# 41 
vn -1.10707e-006 -0.706679 0.707534 
vn 0.516477 -0.683009 0.516479 
vn -0.516478 -0.683009 0.516478 
vn -1.47196e-008 0 -1 
vn -1 1.32219e-006 0 
vn -0.304396 0.9026 -0.304396 
vn -1.47196e-008 0 -1 
vn 1 1.37737e-006 0 
vn 0.304396 0.9026 -0.304396 
vn 0.516478 -0.68301 -0.516477 
vn -0.516478 -0.68301 -0.516476 
vn 1 1.37737e-006 0 
vn -1.41412e-006 0 1 
vn 0.304396 0.902599 0.304399 
vn 1.34644e-007 -0.706683 -0.70753 
vn 0.707534 -0.70668 0 
vn 0.671003 -0.741455 0 
vn -1.10504e-006 -0.741457 0.671 
vn -0.707529 -0.706684 -5.7099e-007 
vn -0.670995 -0.741462 -8.51183e-007 
vn 2.12796e-007 -0.741459 -0.670998 
vn 0.646869 -0.762601 -2.05996e-008 
vn -2.17232e-007 -0.7626 0.64687 
vn -0.646869 -0.762601 -3.53939e-007 
vn 8.4833e-007 -0.762603 -0.646867 
vn -2.65563e-006 -1 1.47522e-006 
vn -1 1.32219e-006 0 
vn -1.41412e-006 0 1 
vn -0.304396 0.902599 0.304399 
vn 0.274103 0.92181 -0.274105 
vn -0.274103 0.921811 -0.274103 
vn -0.274104 0.92181 0.274103 
vn 0.274104 0.92181 0.274104 
vn 2.42736e-007 0.934176 -0.356812 
vn -0.287231 0.957861 3.65934e-008 
vn -0.123219 0.9847 -0.123218 
vn 0.287228 0.957862 4.63436e-008 
vn 0.123217 0.9847 -0.12322 
vn 7.31711e-007 0.934178 0.356807 
vn -0.12322 0.9847 0.123216 
vn 0.123218 0.9847 0.123217 
f 1/1/1 2/2/2 3/3/3 
f 4/4/4 5/5/7 6/7/10 7/6/11 
f 5/8/8 8/9/12 2/11/2 6/10/10 
f 9/12/15 7/13/11 6/14/10 
f 10/15/16 6/16/10 2/17/2 
f 6/18/10 10/19/16 11/31/17 16/32/22 
f 2/20/2 1/1/1 12/35/18 17/36/23 
f 3/21/3 7/22/11 13/23/19 
f 12/24/18 1/1/1 3/39/3 17/40/23 
f 14/25/20 13/26/19 7/41/11 18/42/24 
f 7/27/11 9/28/15 15/43/21 19/44/25 
f 15/29/21 9/30/15 6/48/10 19/49/25 
f 11/33/17 10/34/16 2/53/2 16/54/22 
f 3/37/3 13/38/19 14/64/20 18/65/24 
f 7/45/11 19/46/25 20/47/26 
f 19/50/25 6/51/10 20/52/26 
f 6/55/10 16/56/22 20/57/26 
f 16/58/22 2/59/2 20/60/26 
f 2/61/2 17/62/23 20/63/26 
f 17/66/23 3/67/3 20/68/26 
f 7/69/11 20/70/26 18/71/24 
f 21/72/27 4/73/5 7/75/11 3/74/3 
f 3/76/3 18/77/24 20/78/26 
f 22/79/30 5/80/9 4/82/6 23/81/31 
f 8/83/13 21/84/28 3/86/3 2/85/2 
f 24/87/32 21/88/29 8/90/14 25/89/33 
f 23/91/31 4/92/6 21/94/29 24/93/32 
f 25/95/33 8/96/14 5/98/9 22/97/30 
f 22/99/30 26/112/34 30/111/38 
f 27/101/35 24/117/32 32/118/40 
f 26/103/34 23/104/31 28/105/36 
f 28/106/36 23/107/31 27/108/35 
f 29/110/37 22/113/30 30/114/38 
f 24/115/32 31/123/39 32/122/40 
f 31/119/39 25/120/33 33/121/41 
f 33/124/41 25/125/33 29/126/37 
f 32/127/40 31/128/39 33/129/41 
f 32/130/40 33/131/41 29/132/37 27/133/35 
f 28/135/36 27/134/35 29/136/37 30/137/38 
f 28/138/36 30/139/38 26/140/34 
f 29/110/37 25/109/33 22/113/30 
f 22/99/30 23/100/31 26/112/34 
f 27/101/35 23/102/31 24/117/32 
f 24/115/32 25/116/33 31/123/39 
