#Wavefront OBJ file created by Hexagon 2 
mtllib hexactly.mtl
g hexactly_0
# 49 
v 0.174375 0.303164 -0.302027 
v -0.174375 0.303163 -0.302027 
v -0.174375 0.311248 -0.302027 
v 0.174375 0.311248 -0.302027 
v 0.34875 0.303163 0 
v 0.34875 0.311248 0 
v 0 0.198355 0.253153 
v 0.174375 0.303163 0.302026 
v -0.174375 0.303163 0.302026 
v -0.219237 0.198355 0.126576 
v -0.34875 0.303163 0 
v 0 0.198355 -0.253154 
v 0.219237 0.198355 -0.126577 
v 0.219237 0.198355 0.126576 
v 0.162726 0.174677 0.138078 
v 0.038218 0.174678 0.209964 
v -0.038216 0.174676 0.209964 
v -0.162726 0.174678 0.138079 
v 0 0 0 
v -0.219237 0.198355 -0.126577 
v -0.162725 0.174677 -0.13808 
v -0.200942 0.174676 -0.071886 
v -0.038218 0.174678 -0.209965 
v 0.038217 0.174677 -0.209965 
v 0.162726 0.174677 -0.13808 
v 0.200943 0.174677 -0.071886 
v 0.200944 0.174678 0.071885 
v -0.200943 0.174677 0.071885 
v -0.34875 0.311248 0 
v 2e-006 0.385685 -0.249905 
v 0.174375 0.311248 0.302026 
v 0.216425 0.385685 -0.124951 
v -0.174375 0.311248 0.302026 
v -0.216425 0.385684 -0.124952 
v 2e-006 0.4375 -0.197643 
v 0.171165 0.4375 -0.09882 
v 0.216423 0.385685 0.124954 
v -2e-006 0.385685 0.249905 
v -0.216425 0.385684 0.124951 
v -0.171164 0.4375 -0.098821 
v -0.123279 0.386649 -0.213526 
v 0.123279 0.38665 -0.213525 
v 0.246559 0.386648 0 
v 0.171164 0.437499 0.098823 
v -1e-006 0.437498 0.197644 
v -0.171165 0.437498 0.098822 
v -0.24656 0.386648 0 
v 0.12328 0.386647 0.213528 
v -0.12328 0.386648 0.213526 
# 250 1 
vt 0 1 
vt 0 1 
vt 0 1 
vt 0 1 
vt 0 1 
vt 0 1 
vt 0 1 
vt 0 1 
vt 0 1 
vt 0 1 
vt 0 1 
vt 0 1 
vt 0 1 
vt 0 1 
vt 0 1 
vt 0 1 
vt 0 1 
vt 0 1 
vt 0 1 
vt 0 1 
vt 0 1 
vt 0 1 
vt 0 1 
vt 0 1 
vt 0 1 
vt 0 1 
vt 0 1 
vt 0 1 
vt 0 1 
vt 0 1 
vt 0 1 
vt 0 1 
vt 0 1 
vt 0 1 
vt 0 1 
vt 0 1 
vt 0 1 
vt 0 1 
vt 0 1 
vt 0 1 
vt 0 1 
vt 0 1 
vt 0 1 
vt 0 1 
vt 0 1 
vt 0 1 
vt 0 1 
vt 0 1 
vt 0 1 
vt 0 1 
vt 0 1 
vt 0 1 
vt 0 1 
vt 0 1 
vt 0 1 
vt 0 1 
vt 0 1 
vt 0 1 
vt 0 1 
vt 0 1 
vt 0 1 
vt 0 1 
vt 0 1 
vt 0 1 
vt 0 1 
vt 0 1 
vt 0 1 
vt 0 1 
vt 0 1 
vt 0 1 
vt 0 1 
vt 0 1 
vt 0 1 
vt 0 1 
vt 0 1 
vt 0 1 
vt 0 1 
vt 0 1 
vt 0 1 
vt 0 1 
vt 0 1 
vt 0 1 
vt 0 1 
vt 0 1 
vt 0 1 
vt 0 1 
vt 0 1 
vt 0 1 
vt 0 1 
vt 0 1 
vt 0 1 
vt 0 1 
vt 0 1 
vt 0 1 
vt 0 1 
vt 0 1 
vt 0 1 
vt 0 1 
vt 0 1 
vt 0 1 
vt 0 1 
vt 0 1 
vt 0 1 
vt 0 1 
vt 0 1 
vt 0 1 
vt 0 1 
vt 0 1 
vt 0 1 
vt 0 1 
vt 0 1 
vt 0 1 
vt 0 1 
vt 0 1 
vt 0 1 
vt 0 1 
vt 0 1 
vt 0 1 
vt 0 1 
vt 0 1 
vt 0 1 
vt 0 1 
vt 0 1 
vt 0 1 
vt 0 1 
vt 0 1 
vt 0 1 
vt 0 1 
vt 0 1 
vt 0 1 
vt 0 1 
vt 0 1 
vt 0 1 
vt 0 1 
vt 0 1 
vt 0 1 
vt 0 1 
vt 0 1 
vt 0 1 
vt 0 1 
vt 0 1 
vt 0 1 
vt 0 1 
vt 0 1 
vt 0 1 
vt 0 1 
vt 0 1 
vt 0 1 
vt 0 1 
vt 0 1 
vt 0 1 
vt 0 1 
vt 0 1 
vt 0 1 
vt 0 1 
vt 0 1 
vt 0 1 
vt 0 1 
vt 0 1 
vt 0 1 
vt 0 1 
vt 0 1 
vt 0 1 
vt 0 1 
vt 0 1 
vt 0 1 
vt 0 1 
vt 0 1 
vt 0 1 
vt 0 1 
vt 0 1 
vt 0 1 
vt 0 1 
vt 0 1 
vt 0 1 
vt 0 1 
vt 0 1 
vt 0 1 
vt 0 1 
vt 0 1 
vt 0 1 
vt 0 1 
vt 0 1 
vt 0 1 
vt 0 1 
vt 0 1 
vt 0 1 
vt 0 1 
vt 0 1 
vt 0 1 
vt 0 1 
vt 0 1 
vt 0 1 
vt 0 1 
vt 0 1 
vt 0 1 
vt 0 1 
vt 0 1 
vt 0 1 
vt 0 1 
vt 0 1 
vt 0 1 
vt 0 1 
vt 0 1 
vt 0 1 
vt 0 1 
vt 0 1 
vt 0 1 
vt 0 1 
vt 0 1 
vt 0 1 
vt 0 1 
vt 0 1 
vt 0 1 
vt 0 1 
vt 0 1 
vt 0 1 
vt 0 1 
vt 0 1 
vt 0 1 
vt 0 1 
vt 0 1 
vt 0 1 
vt 0 1 
vt 0 1 
vt 0 1 
vt 0 1 
vt 0 1 
vt 0 1 
vt 0 1 
vt 0 1 
vt 0 1 
vt 0 1 
vt 0 1 
vt 0 1 
vt 0 1 
vt 0 1 
vt 0 1 
vt 0 1 
vt 0 1 
vt 0 1 
vt 0 1 
vt 0 1 
vt 0 1 
vt 0 1 
vt 0 1 
vt 0 1 
vt 0 1 
vt 0 1 
vt 0 1 
# 49 
vn 0.433303 -0.498997 -0.7505 
vn -0.433302 -0.499 -0.750499 
vn -0.402161 0.594195 -0.696562 
vn 0.402162 0.594195 -0.696562 
vn 0.866603 -0.498999 2.33309e-007 
vn 0.804321 0.594195 2.35397e-006 
vn 7.41268e-006 -0.711899 0.702282 
vn 0.433302 -0.499 0.750499 
vn -0.433301 -0.498999 0.7505 
vn -0.608191 -0.7119 0.351144 
vn -0.866603 -0.498999 3.2566e-007 
vn -2.97809e-006 -0.7119 -0.702281 
vn 0.608196 -0.711898 -0.351141 
vn 0.608193 -0.711899 0.351142 
vn 0.388871 -0.752971 0.530862 
vn 0.26531 -0.752971 0.602201 
vn -0.2653 -0.752971 0.602205 
vn -0.38887 -0.752971 0.530863 
vn 1.61846e-006 -1 1.05048e-006 
vn -0.608193 -0.711899 -0.351143 
vn -0.388871 -0.752971 -0.530861 
vn -0.654175 -0.752971 -0.0713457 
vn -0.265308 -0.752972 -0.6022 
vn 0.265304 -0.75297 -0.602204 
vn 0.388876 -0.75297 -0.53086 
vn 0.654175 -0.752971 -0.0713444 
vn 0.654175 -0.752971 0.0713436 
vn -0.654175 -0.752971 0.0713447 
vn -0.804321 0.594195 1.64205e-006 
vn 7.09858e-007 0.666859 -0.745184 
vn 0.402159 0.594195 0.696563 
vn 0.64535 0.666857 -0.372592 
vn -0.402162 0.594195 0.696561 
vn -0.645351 0.666857 -0.372592 
vn 2.1546e-006 0.855574 -0.517681 
vn 0.396206 0.889212 -0.228744 
vn 0.645348 0.666858 0.372594 
vn -1.12728e-006 0.666862 0.745182 
vn -0.645349 0.666858 0.372592 
vn -0.396204 0.889212 -0.228746 
vn -0.291153 0.812967 -0.504296 
vn 0.29116 0.812966 -0.504294 
vn 0.582311 0.812966 6.3894e-006 
vn 0.396202 0.889211 0.228752 
vn -3.11069e-006 0.855574 0.51768 
vn -0.396204 0.889211 0.228751 
vn -0.582311 0.812966 5.2553e-006 
vn 0.291149 0.812966 0.504299 
vn -0.291156 0.812967 0.504294 
f 1/1/1 2/2/2 3/4/3 4/3/4 
f 5/5/5 1/1/1 4/7/4 6/6/6 
f 7/8/7 8/9/8 9/10/9 
f 10/11/10 9/12/9 11/13/11 
f 12/14/12 2/15/2 1/1/1 
f 13/16/13 1/1/1 5/17/5 
f 14/18/14 5/19/5 8/20/8 
f 14/21/14 8/22/8 15/23/15 
f 16/24/16 8/25/8 7/26/7 
f 7/27/7 9/28/9 17/29/17 
f 17/30/17 9/31/9 18/33/18 19/32/19 
f 18/34/18 9/35/9 10/36/10 
f 11/37/11 2/38/2 20/39/20 
f 20/40/20 2/41/2 21/42/21 
f 22/43/22 11/44/11 20/45/20 
f 21/46/21 2/47/2 23/49/23 19/48/19 
f 23/50/23 2/51/2 12/52/12 
f 12/53/12 1/1/1 24/54/24 
f 19/55/19 23/56/23 12/57/12 
f 24/58/24 1/1/1 25/60/25 19/59/19 
f 19/61/19 12/62/12 24/63/24 
f 25/64/25 1/1/1 13/65/13 
f 19/66/19 25/67/25 13/68/13 
f 13/69/13 5/70/5 26/71/26 
f 26/72/26 19/73/19 13/74/13 
f 27/75/27 5/76/5 14/77/14 
f 26/78/26 5/79/5 27/81/27 19/80/19 
f 19/82/19 27/83/27 14/84/14 
f 14/85/14 15/86/15 19/87/19 
f 15/88/15 8/89/8 16/91/16 19/90/19 
f 19/92/19 16/93/16 7/94/7 
f 10/95/10 11/96/11 28/97/28 
f 7/98/7 17/99/17 19/100/19 
f 19/101/19 18/102/18 10/103/10 
f 28/104/28 11/105/11 22/107/22 19/106/19 
f 19/108/19 10/109/10 28/110/28 
f 20/111/20 21/112/21 19/113/19 
f 2/114/2 11/115/11 29/117/29 3/116/3 
f 19/118/19 22/119/22 20/120/20 
f 4/121/4 3/122/3 30/123/30 
f 8/124/8 5/125/5 6/127/6 31/126/31 
f 6/128/6 4/129/4 32/130/32 
f 9/131/9 8/132/8 31/134/31 33/133/33 
f 11/135/11 9/136/9 33/138/33 29/137/29 
f 34/139/34 3/140/3 29/141/29 
f 35/142/35 30/143/30 3/144/3 
f 4/145/4 30/146/30 35/147/35 
f 36/148/36 32/149/32 4/150/4 
f 31/151/31 6/152/6 37/153/37 
f 6/154/6 32/155/32 36/156/36 
f 33/157/33 31/158/31 38/159/38 
f 29/160/29 33/161/33 39/162/39 
f 3/163/3 34/164/34 40/165/40 
f 40/166/40 34/167/34 29/168/29 
f 35/169/35 3/170/3 41/171/41 
f 42/172/42 4/173/4 35/174/35 
f 36/175/36 4/176/4 42/177/42 
f 43/178/43 6/179/6 36/180/36 
f 31/181/31 37/182/37 44/183/44 
f 44/184/44 37/185/37 6/186/6 
f 45/187/45 38/188/38 31/189/31 
f 33/190/33 38/191/38 45/192/45 
f 46/193/46 39/194/39 33/195/33 
f 29/196/29 39/197/39 46/198/46 
f 40/199/40 29/200/29 47/201/47 
f 48/202/48 31/203/31 44/204/44 
f 41/205/41 3/206/3 40/207/40 
f 35/208/35 41/209/41 40/210/40 
f 46/211/46 45/212/45 44/213/44 
f 40/215/40 46/214/46 44/216/44 36/217/36 
f 40/218/40 36/219/36 35/220/35 
f 36/221/36 42/222/42 35/223/35 
f 44/224/44 6/225/6 43/226/43 
f 43/227/43 36/228/36 44/229/44 
f 45/230/45 31/231/31 48/232/48 
f 46/233/46 33/234/33 49/235/49 
f 48/236/48 44/237/44 45/238/45 
f 49/239/49 33/240/33 45/241/45 
f 45/242/45 46/243/46 49/244/49 
f 47/245/47 29/246/29 46/247/46 
f 46/248/46 40/249/40 47/250/47 
