#Wavefront OBJ file created by Hexagon 2 
mtllib litehouse.mtl
g litehous_0
# 19 
v 0 0 0 
v 0.348751 0.21437 0 
v 0 0.214369 0.348749 
v 0 0.21437 -0.34875 
v -0.348749 0.214369 0 
v -0.348749 0.22989 0 
v 0 0.22989 0.348749 
v 0.348751 0.229889 0 
v 0.210946 0.291244 0.041438 
v -0.210944 0.291244 0.041438 
v 0 0.229889 -0.34875 
v 0.11047 0.324046 0.040777 
v -0.110469 0.324046 0.040777 
v 0 0.348637 0.040778 
v 0.210946 0.291244 -0.041439 
v -0.210945 0.291244 -0.041439 
v -0.110469 0.324046 -0.040777 
v 0.11047 0.324046 -0.040777 
v 0 0.348637 -0.040778 
# 75 1 
vt 0 1 
vt 0 1 
vt 0 1 
vt 0 1 
vt 0 1 
vt 0 1 
vt 0 1 
vt 0 1 
vt 0 1 
vt 0 1 
vt 0 1 
vt 0 1 
vt 0 1 
vt 0 1 
vt 0 1 
vt 0 1 
vt 0 1 
vt 0 1 
vt 0 1 
vt 0 1 
vt 0 1 
vt 0 1 
vt 0 1 
vt 0 1 
vt 0 1 
vt 0 1 
vt 0 1 
vt 0 1 
vt 0 1 
vt 0 1 
vt 0 1 
vt 0 1 
vt 0 1 
vt 0 1 
vt 0 1 
vt 0 1 
vt 0 1 
vt 0 1 
vt 0 1 
vt 0 1 
vt 0 1 
vt 0 1 
vt 0 1 
vt 0 1 
vt 0 1 
vt 0 1 
vt 0 1 
vt 0 1 
vt 0 1 
vt 0 1 
vt 0 1 
vt 0 1 
vt 0 1 
vt 0 1 
vt 0 1 
vt 0 1 
vt 0 1 
vt 0 1 
vt 0 1 
vt 0 1 
vt 0 1 
vt 0 1 
vt 0 1 
vt 0 1 
vt 0 1 
vt 0 1 
vt 0 1 
vt 0 1 
vt 0 1 
vt 0 1 
vt 0 1 
vt 0 1 
vt 0 1 
vt 0 1 
vt 0 1 
# 26 
vn 0.463904 -0.754709 0.463904 
vn 0.463904 -0.754709 -0.463905 
vn -0.463904 -0.754709 0.463904 
vn -0.463904 -0.754709 -0.463905 
vn 0.643439 -0.414693 0.643441 
vn 0.643439 -0.414693 -0.643441 
vn 0.643439 -0.414693 0.643441 
vn -0.64344 -0.414693 0.64344 
vn 0.643439 -0.414693 -0.643441 
vn -0.64344 -0.414693 -0.64344 
vn -0.64344 -0.414693 0.64344 
vn -0.64344 -0.414693 -0.64344 
vn -0.755477 0.655175 -4.36696e-008 
vn 1.32246e-008 0.728963 0.684554 
vn 0.755479 0.655173 -5.53042e-007 
vn 0.369573 0.903899 0.215366 
vn -0.369571 0.9039 0.215367 
vn -3.47146e-007 0.72896 -0.684556 
vn 0.261265 0.957428 0.122772 
vn -0.261267 0.957427 0.122773 
vn -1.0491e-006 0.98184 0.189711 
vn 0.369573 0.903899 -0.215368 
vn -0.369572 0.903899 -0.215365 
vn -0.261266 0.957427 -0.122772 
vn 0.261264 0.957428 -0.122773 
vn -7.87799e-007 0.98184 -0.189711 
f 1/1/1 2/2/5 3/3/7 
f 1/1/2 4/4/9 2/5/6 
f 1/1/3 3/6/8 5/7/11 
f 1/1/4 5/8/12 4/9/10 
f 6/10/13 5/11/11 3/13/8 7/12/14 
f 7/14/14 3/15/7 2/17/5 8/16/15 
f 9/18/16 7/19/14 8/20/15 
f 7/21/14 10/22/17 6/23/13 
f 11/24/18 4/25/10 5/27/12 6/26/13 
f 8/28/15 2/29/6 4/31/9 11/30/18 
f 7/33/14 9/32/16 12/37/19 14/36/21 
f 13/34/20 10/35/17 7/38/14 14/39/21 
f 8/40/15 11/41/18 15/42/22 
f 15/43/22 9/44/16 8/45/15 
f 11/46/18 6/47/13 16/48/23 
f 10/49/17 16/50/23 6/51/13 
f 11/53/18 16/52/23 17/71/24 19/70/26 
f 18/54/25 15/55/22 11/60/18 19/61/26 
f 9/56/16 15/57/22 18/59/25 12/58/19 
f 16/62/23 10/63/17 13/65/20 17/64/24 
f 12/66/19 18/67/25 19/69/26 14/68/21 
f 13/72/20 14/73/21 19/75/26 17/74/24 
