#Wavefront OBJ file created by Hexagon 2 
mtllib mulder.mtl
g mulder_d_0
# 29 
v 0.282588 0.253898 0 
v 0 0 0 
v 0.034196 0.032738 -0.034196 
v 0.292358 0.267852 -0.087879 
v 0.292358 0.267852 0.087878 
v 0.034195 0.032737 0.034195 
v 0.34875 0.348285 -0.34875 
v 0.34875 0.348285 0.34875 
v -0.08788 0.267852 0.292358 
v -0.0342 0.032742 0.0342 
v 0 0.253898 0.282588 
v -0.34875 0.348285 0.34875 
v 1e-006 0.253898 -0.282588 
v -0.034199 0.032741 -0.0342 
v -0.087878 0.267852 -0.292358 
v 0.34875 0.363109 -0.34875 
v -0.34875 0.348285 -0.34875 
v -0.34875 0.363109 -0.34875 
v 0.087878 0.267852 -0.292358 
v 0.34875 0.363109 0.34875 
v 0.087879 0.267852 0.292358 
v -0.292358 0.267852 -0.087879 
v -0.282588 0.253898 0 
v -0.292359 0.267852 0.087879 
v -0.10529 0.503671 -0.10529 
v 0.10529 0.503671 -0.10529 
v -0.34875 0.363109 0.34875 
v 0.10529 0.503671 0.10529 
v -0.10529 0.503671 0.10529 
# 113 1 
vt 0 1 
vt 0 1 
vt 0 1 
vt 0 1 
vt 0 1 
vt 0 1 
vt 0 1 
vt 0 1 
vt 0 1 
vt 0 1 
vt 0 1 
vt 0 1 
vt 0 1 
vt 0 1 
vt 0 1 
vt 0 1 
vt 0 1 
vt 0 1 
vt 0 1 
vt 0 1 
vt 0 1 
vt 0 1 
vt 0 1 
vt 0 1 
vt 0 1 
vt 0 1 
vt 0 1 
vt 0 1 
vt 0 1 
vt 0 1 
vt 0 1 
vt 0 1 
vt 0 1 
vt 0 1 
vt 0 1 
vt 0 1 
vt 0 1 
vt 0 1 
vt 0 1 
vt 0 1 
vt 0 1 
vt 0 1 
vt 0 1 
vt 0 1 
vt 0 1 
vt 0 1 
vt 0 1 
vt 0 1 
vt 0 1 
vt 0 1 
vt 0 1 
vt 0 1 
vt 0 1 
vt 0 1 
vt 0 1 
vt 0 1 
vt 0 1 
vt 0 1 
vt 0 1 
vt 0 1 
vt 0 1 
vt 0 1 
vt 0 1 
vt 0 1 
vt 0 1 
vt 0 1 
vt 0 1 
vt 0 1 
vt 0 1 
vt 0 1 
vt 0 1 
vt 0 1 
vt 0 1 
vt 0 1 
vt 0 1 
vt 0 1 
vt 0 1 
vt 0 1 
vt 0 1 
vt 0 1 
vt 0 1 
vt 0 1 
vt 0 1 
vt 0 1 
vt 0 1 
vt 0 1 
vt 0 1 
vt 0 1 
vt 0 1 
vt 0 1 
vt 0 1 
vt 0 1 
vt 0 1 
vt 0 1 
vt 0 1 
vt 0 1 
vt 0 1 
vt 0 1 
vt 0 1 
vt 0 1 
vt 0 1 
vt 0 1 
vt 0 1 
vt 0 1 
vt 0 1 
vt 0 1 
vt 0 1 
vt 0 1 
vt 0 1 
vt 0 1 
vt 0 1 
vt 0 1 
vt 0 1 
# 40 
vn 0.76322 -0.646139 -6.60327e-009 
vn 0.668338 -0.743858 -9.32216e-009 
vn -5.87296e-007 -0.743858 0.668338 
vn 3.08936e-006 -0.743858 -0.668338 
vn -0.668337 -0.743858 -2.14783e-006 
vn 0.402834 -0.821858 -0.402834 
vn 0.720326 -0.692242 -0.0439586 
vn 0.720326 -0.692242 0.0439585 
vn 0.402834 -0.821858 0.402833 
vn 0.554518 -0.620499 -0.554518 
vn 0.554518 -0.620499 0.554518 
vn -0.0439589 -0.692242 0.720326 
vn -0.402833 -0.821858 0.402833 
vn -5.34473e-008 -0.646139 0.76322 
vn -0.554526 -0.620493 0.554517 
vn 1.06372e-006 -0.646139 -0.76322 
vn -0.402832 -0.821858 -0.402835 
vn -0.0439566 -0.692241 -0.720327 
vn 1.65824e-008 0 -1 
vn 1 -6.29496e-007 0 
vn 0.267262 0.92582 -0.267262 
vn -0.554518 -0.620499 -0.554518 
vn 1.65824e-008 0 -1 
vn -0.267262 0.92582 -0.267262 
vn -1 -6.29496e-007 0 
vn 0.0439586 -0.692242 -0.720326 
vn 1 -6.29496e-007 0 
vn -1.65824e-008 0 1 
vn 0.267262 0.92582 0.267262 
vn 0.0439587 -0.692242 0.720326 
vn -0.720326 -0.692242 -0.0439587 
vn -0.763228 -0.646129 -5.24243e-006 
vn -0.720341 -0.692226 0.0439513 
vn -0.177175 0.9681 -0.177175 
vn 0.177175 0.9681 -0.177175 
vn -1.65824e-008 0 1 
vn -0.267262 0.92582 0.267262 
vn -1 -6.29496e-007 0 
vn 0.177175 0.9681 0.177175 
vn -0.177175 0.9681 0.177175 
f 1/1/1 2/2/2 3/4/6 4/3/7 
f 5/5/8 6/6/9 2/7/2 1/1/1 
f 7/8/10 4/9/7 3/10/6 
f 5/11/8 8/12/11 6/13/9 
f 9/14/12 10/15/13 2/17/3 11/16/14 
f 9/18/12 12/19/15 10/20/13 
f 13/21/16 2/22/4 14/24/17 15/23/18 
f 16/25/19 7/26/10 17/28/22 18/27/23 
f 19/29/26 3/30/6 2/32/4 13/31/16 
f 17/33/22 15/34/18 14/35/17 
f 19/36/26 7/37/10 3/38/6 
f 19/39/26 13/40/16 7/43/10 
f 20/44/27 8/45/11 7/47/10 16/46/20 
f 11/48/14 2/49/3 6/51/9 21/50/30 
f 8/52/11 5/53/8 1/1/1 
f 8/54/11 1/1/1 7/56/10 
f 8/57/11 21/58/30 6/59/9 
f 22/60/31 17/61/22 14/62/17 
f 23/63/32 2/64/5 10/66/13 24/65/33 
f 9/68/12 11/67/14 12/71/15 
f 22/72/31 14/73/17 2/75/5 23/74/32 
f 12/76/15 24/77/33 10/78/13 
f 24/79/33 12/80/15 23/81/32 
f 22/83/31 23/82/32 17/85/22 
f 16/86/21 18/87/24 25/89/34 26/88/35 
f 27/90/36 12/91/15 8/93/11 20/92/28 
f 20/94/29 16/95/21 26/97/35 28/96/39 
f 27/98/37 20/99/29 28/101/39 29/100/40 
f 18/102/25 17/103/22 12/105/15 27/104/38 
f 18/106/24 27/107/37 29/109/40 25/108/34 
f 28/110/39 26/111/35 25/113/34 29/112/40 
f 7/56/10 1/1/1 4/55/7 
f 17/85/22 23/82/32 12/84/15 
f 7/43/10 13/40/16 17/42/22 
f 17/42/22 13/40/16 15/41/18 
f 12/71/15 11/67/14 8/70/11 
f 8/70/11 11/67/14 21/69/30 
