#Wavefront OBJ file created by Hexagon 2 
mtllib nitemare.mtl
g nitemare_0
# 77 
v 0.017996 0.468485 -0.21818 
v -0.018216 0.468485 -0.218078 
v 0.053732 0.468485 -0.21232 
v -0.053918 0.468485 -0.212017 
v 0.088016 0.468485 -0.200658 
v -0.088135 0.468485 -0.200162 
v 0.119912 0.468485 -0.183513 
v -0.119935 0.468485 -0.182837 
v 0.148552 0.468485 -0.161351 
v -0.148449 0.468485 -0.160515 
v 0.173153 0.468485 -0.134778 
v -0.1729 0.468485 -0.133803 
v 0.193045 0.468485 -0.104518 
v -0.192621 0.468485 -0.103431 
v 0.207684 0.468485 -0.071396 
v -0.207074 0.468485 -0.070228 
v 0.216673 0.468485 -0.036317 
v -0.215865 0.468485 -0.035098 
v 0.219765 0.468485 -0.000236 
v -0.218754 0.468485 0.000999 
v 0.216876 0.468485 0.035861 
v -0.215662 0.468485 0.03708 
v 0.208086 0.468485 0.070991 
v -0.206673 0.468485 0.072159 
v 0.193633 0.468485 0.104194 
v -0.192033 0.468485 0.105281 
v 0.173912 0.468485 0.134566 
v -0.172142 0.468485 0.135541 
v 0.14946 0.468485 0.161278 
v -0.14754 0.468485 0.162114 
v 0.120946 0.468485 0.1836 
v -0.118901 0.468485 0.184276 
v 0.089147 0.468485 0.200926 
v -0.087004 0.468485 0.201422 
v 0.054929 0.468485 0.21278 
v -0.052721 0.468485 0.213083 
v 0.019227 0.468485 0.218841 
v -0.016985 0.468485 0.218943 
v -0.344505 0.368884 0.058953 
v 0 0 0 
v -0.306793 0.355589 0.167804 
v -0.344505 0.355589 0.058953 
v -0.306793 0.368884 0.167804 
v -0.235781 0.355589 0.258512 
v -0.235781 0.368884 0.258512 
v -0.139163 0.355589 0.321248 
v -0.139163 0.368884 0.321248 
v -0.02741 0.355589 0.349213 
v 0.087368 0.355589 0.339377 
v -0.02741 0.368884 0.349213 
v 0.087368 0.368884 0.339377 
v 0.192733 0.368884 0.292805 
v 0.277267 0.368884 0.214544 
v 0.33181 0.368884 0.113076 
v 0.350451 0.368884 -0.000604 
v 0.33117 0.368884 -0.114178 
v 0.276056 0.368884 -0.215337 
v 0.191082 0.368884 -0.29312 
v 0.085457 0.368884 -0.339097 
v -0.029375 0.368884 -0.348287 
v -0.140968 0.368884 -0.319693 
v -0.237231 0.355589 -0.256414 
v -0.140968 0.355589 -0.319693 
v -0.237231 0.368884 -0.256414 
v -0.307731 0.355589 -0.165307 
v -0.307731 0.368884 -0.165307 
v -0.344829 0.355589 -0.056245 
v -0.344829 0.368884 -0.056245 
v 0.192733 0.355589 0.292805 
v 0.277267 0.355589 0.214544 
v 0.33181 0.355589 0.113076 
v 0.350451 0.355589 -0.000604 
v 0.33117 0.355589 -0.114178 
v 0.276056 0.355589 -0.215337 
v 0.191082 0.355589 -0.29312 
v 0.085457 0.355589 -0.339097 
v -0.029375 0.355589 -0.348287 
# 338 1 
vt 0 1 
vt 0 1 
vt 0 1 
vt 0 1 
vt 0 1 
vt 0 1 
vt 0 1 
vt 0 1 
vt 0 1 
vt 0 1 
vt 0 1 
vt 0 1 
vt 0 1 
vt 0 1 
vt 0 1 
vt 0 1 
vt 0 1 
vt 0 1 
vt 0 1 
vt 0 1 
vt 0 1 
vt 0 1 
vt 0 1 
vt 0 1 
vt 0 1 
vt 0 1 
vt 0 1 
vt 0 1 
vt 0 1 
vt 0 1 
vt 0 1 
vt 0 1 
vt 0 1 
vt 0 1 
vt 0 1 
vt 0 1 
vt 0 1 
vt 0 1 
vt 0 1 
vt 0 1 
vt 0 1 
vt 0 1 
vt 0 1 
vt 0 1 
vt 0 1 
vt 0 1 
vt 0 1 
vt 0 1 
vt 0 1 
vt 0 1 
vt 0 1 
vt 0 1 
vt 0 1 
vt 0 1 
vt 0 1 
vt 0 1 
vt 0 1 
vt 0 1 
vt 0 1 
vt 0 1 
vt 0 1 
vt 0 1 
vt 0 1 
vt 0 1 
vt 0 1 
vt 0 1 
vt 0 1 
vt 0 1 
vt 0 1 
vt 0 1 
vt 0 1 
vt 0 1 
vt 0 1 
vt 0 1 
vt 0 1 
vt 0 1 
vt 0 1 
vt 0 1 
vt 0 1 
vt 0 1 
vt 0 1 
vt 0 1 
vt 0 1 
vt 0 1 
vt 0 1 
vt 0 1 
vt 0 1 
vt 0 1 
vt 0 1 
vt 0 1 
vt 0 1 
vt 0 1 
vt 0 1 
vt 0 1 
vt 0 1 
vt 0 1 
vt 0 1 
vt 0 1 
vt 0 1 
vt 0 1 
vt 0 1 
vt 0 1 
vt 0 1 
vt 0 1 
vt 0 1 
vt 0 1 
vt 0 1 
vt 0 1 
vt 0 1 
vt 0 1 
vt 0 1 
vt 0 1 
vt 0 1 
vt 0 1 
vt 0 1 
vt 0 1 
vt 0 1 
vt 0 1 
vt 0 1 
vt 0 1 
vt 0 1 
vt 0 1 
vt 0 1 
vt 0 1 
vt 0 1 
vt 0 1 
vt 0 1 
vt 0 1 
vt 0 1 
vt 0 1 
vt 0 1 
vt 0 1 
vt 0 1 
vt 0 1 
vt 0 1 
vt 0 1 
vt 0 1 
vt 0 1 
vt 0 1 
vt 0 1 
vt 0 1 
vt 0 1 
vt 0 1 
vt 0 1 
vt 0 1 
vt 0 1 
vt 0 1 
vt 0 1 
vt 0 1 
vt 0 1 
vt 0 1 
vt 0 1 
vt 0 1 
vt 0 1 
vt 0 1 
vt 0 1 
vt 0 1 
vt 0 1 
vt 0 1 
vt 0 1 
vt 0 1 
vt 0 1 
vt 0 1 
vt 0 1 
vt 0 1 
vt 0 1 
vt 0 1 
vt 0 1 
vt 0 1 
vt 0 1 
vt 0 1 
vt 0 1 
vt 0 1 
vt 0 1 
vt 0 1 
vt 0 1 
vt 0 1 
vt 0 1 
vt 0 1 
vt 0 1 
vt 0 1 
vt 0 1 
vt 0 1 
vt 0 1 
vt 0 1 
vt 0 1 
vt 0 1 
vt 0 1 
vt 0 1 
vt 0 1 
vt 0 1 
vt 0 1 
vt 0 1 
vt 0 1 
vt 0 1 
vt 0 1 
vt 0 1 
vt 0 1 
vt 0 1 
vt 0 1 
vt 0 1 
vt 0 1 
vt 0 1 
vt 0 1 
vt 0 1 
vt 0 1 
vt 0 1 
vt 0 1 
vt 0 1 
vt 0 1 
vt 0 1 
vt 0 1 
vt 0 1 
vt 0 1 
vt 0 1 
vt 0 1 
vt 0 1 
vt 0 1 
vt 0 1 
vt 0 1 
vt 0 1 
vt 0 1 
vt 0 1 
vt 0 1 
vt 0 1 
vt 0 1 
vt 0 1 
vt 0 1 
vt 0 1 
vt 0 1 
vt 0 1 
vt 0 1 
vt 0 1 
vt 0 1 
vt 0 1 
vt 0 1 
vt 0 1 
vt 0 1 
vt 0 1 
vt 0 1 
vt 0 1 
vt 0 1 
vt 0 1 
vt 0 1 
vt 0 1 
vt 0 1 
vt 0 1 
vt 0 1 
vt 0 1 
vt 0 1 
vt 0 1 
vt 0 1 
vt 0 1 
vt 0 1 
vt 0 1 
vt 0 1 
vt 0 1 
vt 0 1 
vt 0 1 
vt 0 1 
vt 0 1 
vt 0 1 
vt 0 1 
vt 0 1 
vt 0 1 
vt 0 1 
vt 0 1 
vt 0 1 
vt 0 1 
vt 0 1 
vt 0 1 
vt 0 1 
vt 0 1 
vt 0 1 
vt 0 1 
vt 0 1 
vt 0 1 
vt 0 1 
vt 0 1 
vt 0 1 
vt 0 1 
vt 0 1 
vt 0 1 
vt 0 1 
vt 0 1 
vt 0 1 
vt 0 1 
vt 0 1 
vt 0 1 
vt 0 1 
vt 0 1 
vt 0 1 
vt 0 1 
vt 0 1 
vt 0 1 
vt 0 1 
vt 0 1 
vt 0 1 
vt 0 1 
vt 0 1 
vt 0 1 
vt 0 1 
vt 0 1 
vt 0 1 
vt 0 1 
vt 0 1 
vt 0 1 
vt 0 1 
vt 0 1 
vt 0 1 
vt 0 1 
vt 0 1 
vt 0 1 
vt 0 1 
vt 0 1 
vt 0 1 
vt 0 1 
vt 0 1 
vt 0 1 
vt 0 1 
vt 0 1 
vt 0 1 
vt 0 1 
vt 0 1 
vt 0 1 
vt 0 1 
vt 0 1 
vt 0 1 
vt 0 1 
vt 0 1 
vt 0 1 
vt 0 1 
vt 0 1 
vt 0 1 
vt 0 1 
vt 0 1 
vt 0 1 
vt 0 1 
# 96 
vn 0.0208867 0.903712 -0.427632 
vn -0.0378147 0.946861 -0.319414 
vn 0.0679483 0.946861 -0.314385 
vn -0.0898932 0.946348 -0.310394 
vn 0.119712 0.946348 -0.300158 
vn -0.129242 0.947523 -0.292398 
vn 0.166345 0.946861 -0.275288 
vn -0.169035 0.946348 -0.275413 
vn 0.210686 0.946348 -0.245025 
vn -0.219634 0.946296 -0.237242 
vn 0.254569 0.946296 -0.199295 
vn -0.261586 0.946348 -0.189732 
vn 0.288431 0.946348 -0.145713 
vn -0.281584 0.947523 -0.151362 
vn 0.302072 0.947523 -0.104651 
vn -0.302555 0.946348 -0.113515 
vn 0.316756 0.946348 -0.0639542 
vn -0.315554 0.946861 -0.0622871 
vn 0.321444 0.946861 -0.0113073 
vn -0.32302 0.946348 -0.00912588 
vn 0.32036 0.946348 0.042364 
vn -0.318739 0.946297 0.0541117 
vn 0.307699 0.946861 0.0936766 
vn -0.301911 0.946348 0.115217 
vn 0.289247 0.946348 0.144091 
vn -0.277319 0.946861 0.162935 
vn 0.255689 0.946296 0.197856 
vn -0.24814 0.946348 0.207006 
vn 0.212061 0.946348 0.243834 
vn -0.215853 0.947523 0.235812 
vn 0.175607 0.947523 0.267136 
vn -0.184315 0.946348 0.265431 
vn 0.139758 0.946348 0.291364 
vn -0.129033 0.946296 0.296435 
vn 0.0898717 0.946861 0.308832 
vn -0.0686743 0.946347 0.315772 
vn 0.0375756 0.946347 0.32096 
vn -0.0202467 0.904571 0.425842 
vn -0.604318 0.790111 0.102594 
vn -0.985894 7.17529e-008 0.167371 
vn -0.000365762 -1 -0.000276727 
vn -0.812232 -0.380083 0.442512 
vn -0.911953 -0.379968 0.154812 
vn -0.547246 0.792269 0.269875 
vn -0.878129 -1.09501e-007 0.478424 
vn -0.624503 -0.380217 0.682225 
vn -0.410725 0.79371 0.448697 
vn -0.675206 -2.60508e-007 0.737629 
vn -0.369125 -0.380356 0.847983 
vn -0.244642 0.79011 0.562029 
vn -0.399114 -4.88216e-008 0.916901 
vn -0.0737815 -0.380484 0.92184 
vn 0.22953 -0.380588 0.895807 
vn -0.0733855 0.792269 0.605743 
vn -0.0797735 -1.61623e-008 0.996813 
vn 0.127274 0.792269 0.59675 
vn 0.248215 -2.44647e-008 0.968705 
vn 0.334141 0.79371 0.508304 
vn 0.549308 -2.94091e-007 0.83562 
vn 0.484776 0.790109 0.375127 
vn 0.790869 -4.22299e-007 0.611986 
vn 0.569194 0.792268 0.219841 
vn 0.946728 -7.44861e-007 0.322035 
vn 0.609734 0.792269 0.0231135 
vn 0.999996 -6.1618e-007 -0.00281566 
vn 0.574779 0.79371 -0.199132 
vn 0.944898 6.38121e-008 -0.327364 
vn 0.482653 0.790109 -0.377854 
vn 0.787406 -1.47016e-007 -0.616435 
vn 0.352842 0.792268 -0.497809 
vn 0.544587 -2.44086e-007 -0.838704 
vn 0.172087 0.792268 -0.585403 
vn 0.242755 -3.66313e-009 -0.970088 
vn -0.0273172 0.792269 -0.609561 
vn -0.085385 5.39633e-009 -0.996348 
vn -0.245918 0.79371 -0.556371 
vn -0.404272 1.25462e-007 -0.914639 
vn -0.628436 -0.379841 -0.678815 
vn -0.373969 -0.379888 -0.846069 
vn -0.416418 0.79011 -0.449802 
vn -0.679351 3.76593e-007 -0.733814 
vn -0.814796 -0.379839 -0.437984 
vn -0.535794 0.79371 -0.288009 
vn -0.880811 8.14719e-007 -0.473468 
vn -0.912843 -0.379883 -0.149692 
vn -0.60565 0.792269 -0.0741532 
vn -0.986821 5.10597e-007 -0.161818 
vn 0.507951 -0.380655 0.772714 
vn 0.731322 -0.380679 0.565908 
vn 0.875455 -0.380658 0.297788 
vn 0.924739 -0.380594 -0.00260949 
vn 0.873824 -0.380493 -0.302748 
vn 0.728216 -0.380366 -0.570108 
vn 0.503677 -0.380227 -0.775717 
vn 0.224527 -0.380092 -0.897283 
vn -0.0789879 -0.379975 -0.921618 
f 1/1/1 2/2/2 3/3/3 
f 3/4/3 2/5/2 4/6/4 5/7/5 
f 5/8/5 4/9/4 6/10/6 7/11/7 
f 7/12/7 6/13/6 8/14/8 9/15/9 
f 9/16/9 8/17/8 10/18/10 11/19/11 
f 11/20/11 10/21/10 12/22/12 13/23/13 
f 13/24/13 12/25/12 14/26/14 15/27/15 
f 15/28/15 14/29/14 16/30/16 17/31/17 
f 17/32/17 16/33/16 18/34/18 19/35/19 
f 19/36/19 18/37/18 20/38/20 21/39/21 
f 21/40/21 20/41/20 22/42/22 23/43/23 
f 23/44/23 22/45/22 24/46/24 25/47/25 
f 25/48/25 24/49/24 26/50/26 27/51/27 
f 27/52/27 26/53/26 28/54/28 29/55/29 
f 29/56/29 28/57/28 30/58/30 31/59/31 
f 31/60/31 30/61/30 32/62/32 33/63/33 
f 33/64/33 32/65/32 34/66/34 35/67/35 
f 35/68/35 34/69/34 36/70/36 37/71/37 
f 37/72/37 36/73/36 38/74/38 
f 39/75/39 22/76/22 20/181/20 68/182/86 
f 40/77/41 41/78/42 42/79/43 
f 43/80/44 26/81/26 24/82/24 
f 40/83/41 44/84/46 41/85/42 
f 45/86/47 30/87/30 28/88/28 
f 40/89/41 46/90/49 44/91/46 
f 47/92/50 34/93/34 32/97/32 45/98/47 
f 40/94/41 48/95/52 46/96/49 
f 40/99/41 49/100/53 48/101/52 
f 47/103/50 50/102/54 36/170/36 34/171/34 
f 33/104/33 35/105/35 51/112/56 52/111/58 
f 50/107/54 51/106/56 37/165/37 38/166/38 
f 29/108/29 31/109/31 52/110/58 
f 25/113/25 27/114/27 53/120/60 54/119/62 
f 29/115/29 52/116/58 53/213/60 27/214/27 
f 21/117/21 23/118/23 54/124/62 55/123/64 
f 17/121/17 19/122/19 55/129/64 56/128/66 
f 13/125/13 15/126/15 56/127/66 
f 9/130/9 11/131/11 57/137/68 58/136/70 
f 13/132/13 56/133/66 57/236/68 11/237/11 
f 5/134/5 7/135/7 58/254/70 59/253/72 
f 1/1/1 3/138/3 59/259/72 60/258/74 
f 60/139/74 2/140/2 1/1/1 
f 4/141/4 2/142/2 60/200/74 61/199/76 
f 61/143/76 6/144/6 4/145/4 
f 40/146/41 62/147/78 63/148/79 
f 64/149/80 10/150/10 8/195/8 61/196/76 
f 40/151/41 65/152/82 62/153/78 
f 66/154/83 14/155/14 12/156/12 
f 67/157/85 65/158/82 40/159/41 
f 68/160/86 18/161/18 16/185/16 66/186/83 
f 40/162/41 42/163/43 67/164/85 
f 50/167/54 38/168/38 36/169/36 
f 43/173/44 45/172/47 28/179/28 26/180/26 
f 32/174/32 30/175/30 45/176/47 
f 39/178/39 43/177/44 24/183/24 22/184/22 
f 20/187/20 18/188/18 68/189/86 
f 64/191/80 66/190/83 12/197/12 10/198/10 
f 16/192/16 14/193/14 66/194/83 
f 51/201/56 35/202/35 37/203/37 
f 40/204/41 69/205/88 49/206/53 
f 52/207/58 31/208/31 33/209/33 
f 40/210/41 70/211/89 69/212/88 
f 40/215/41 71/216/90 70/217/89 
f 54/218/62 23/219/23 25/220/25 
f 40/221/41 72/222/91 71/223/90 
f 55/224/64 19/225/19 21/226/21 
f 40/227/41 73/228/92 72/229/91 
f 56/230/66 15/231/15 17/232/17 
f 40/233/41 74/234/93 73/235/92 
f 40/238/41 75/239/94 74/240/93 
f 58/241/70 7/242/7 9/243/9 
f 40/244/41 76/245/95 75/246/94 
f 59/247/72 3/248/3 5/249/5 
f 40/250/41 77/251/96 76/252/95 
f 40/255/41 63/256/79 77/257/96 
f 8/260/8 6/261/6 61/262/76 
f 60/263/75 59/264/73 76/266/95 77/265/96 
f 59/267/73 58/268/71 75/270/94 76/269/95 
f 58/271/71 57/272/69 74/274/93 75/273/94 
f 57/275/69 56/276/67 73/278/92 74/277/93 
f 56/279/67 55/280/65 72/282/91 73/281/92 
f 55/283/65 54/284/63 71/286/90 72/285/91 
f 54/287/63 53/288/61 70/290/89 71/289/90 
f 53/291/61 52/292/59 69/294/88 70/293/89 
f 52/295/59 51/296/57 49/298/53 69/297/88 
f 51/299/57 50/300/55 48/302/52 49/301/53 
f 50/303/55 47/304/51 46/306/49 48/305/52 
f 47/307/51 45/308/48 44/310/46 46/309/49 
f 45/311/48 43/312/45 41/314/42 44/313/46 
f 43/315/45 39/316/40 42/318/43 41/317/42 
f 39/319/40 68/320/87 67/322/85 42/321/43 
f 68/323/87 66/324/84 65/326/82 67/325/85 
f 66/327/84 64/328/81 62/330/78 65/329/82 
f 64/331/81 61/332/77 63/334/79 62/333/78 
f 61/335/77 60/336/75 77/338/96 63/337/79 
