#Wavefront OBJ file created by Hexagon 2 
mtllib novice3.mtl
g novice3__0
# 37 
v -0.053929 0.174957 -0.201264 
v 0 0 0 
v -0.255303 0.303164 -0.255302 
v 0.093447 0.303164 -0.34875 
v 0.147335 0.174956 -0.147336 
v 0.34875 0.303164 -0.093447 
v 0.255302 0.303164 0.255303 
v 0.201264 0.174956 0.053929 
v -0.201265 0.174957 -0.053928 
v -0.34875 0.303164 0.093447 
v -0.34875 0.315096 0.093447 
v -0.255303 0.315096 -0.255302 
v 0.093447 0.315096 -0.34875 
v 0.34875 0.315096 -0.093447 
v -0.093447 0.303164 0.34875 
v 0.053928 0.174956 0.201264 
v -0.147335 0.174956 0.147335 
v -0.064494 0.378695 -0.239451 
v 0.255302 0.315096 0.255303 
v 0.175123 0.378695 -0.17558 
v -0.093447 0.315096 0.34875 
v -0.239451 0.378695 -0.064494 
v -0.047303 0.426367 -0.175534 
v 0.128172 0.426518 -0.128571 
v 0.239618 0.378695 0.063871 
v 0.064494 0.378695 0.239451 
v -0.175124 0.378695 0.17558 
v -0.175534 0.426366 -0.047303 
v -0.128481 0.426478 -0.128481 
v 0.047025 0.426478 -0.175508 
v 0.175505 0.426478 -0.047028 
v 0.175105 0.426728 0.046651 
v 0.047086 0.426785 0.174907 
v -0.128127 0.426631 0.128395 
v -0.175508 0.426478 0.047026 
v -0.047028 0.426478 0.175505 
v 0.128478 0.426478 0.128479 
# 162 1 
vt 0 1 
vt 0 1 
vt 0 1 
vt 0 1 
vt 0 1 
vt 0 1 
vt 0 1 
vt 0 1 
vt 0 1 
vt 0 1 
vt 0 1 
vt 0 1 
vt 0 1 
vt 0 1 
vt 0 1 
vt 0 1 
vt 0 1 
vt 0 1 
vt 0 1 
vt 0 1 
vt 0 1 
vt 0 1 
vt 0 1 
vt 0 1 
vt 0 1 
vt 0 1 
vt 0 1 
vt 0 1 
vt 0 1 
vt 0 1 
vt 0 1 
vt 0 1 
vt 0 1 
vt 0 1 
vt 0 1 
vt 0 1 
vt 0 1 
vt 0 1 
vt 0 1 
vt 0 1 
vt 0 1 
vt 0 1 
vt 0 1 
vt 0 1 
vt 0 1 
vt 0 1 
vt 0 1 
vt 0 1 
vt 0 1 
vt 0 1 
vt 0 1 
vt 0 1 
vt 0 1 
vt 0 1 
vt 0 1 
vt 0 1 
vt 0 1 
vt 0 1 
vt 0 1 
vt 0 1 
vt 0 1 
vt 0 1 
vt 0 1 
vt 0 1 
vt 0 1 
vt 0 1 
vt 0 1 
vt 0 1 
vt 0 1 
vt 0 1 
vt 0 1 
vt 0 1 
vt 0 1 
vt 0 1 
vt 0 1 
vt 0 1 
vt 0 1 
vt 0 1 
vt 0 1 
vt 0 1 
vt 0 1 
vt 0 1 
vt 0 1 
vt 0 1 
vt 0 1 
vt 0 1 
vt 0 1 
vt 0 1 
vt 0 1 
vt 0 1 
vt 0 1 
vt 0 1 
vt 0 1 
vt 0 1 
vt 0 1 
vt 0 1 
vt 0 1 
vt 0 1 
vt 0 1 
vt 0 1 
vt 0 1 
vt 0 1 
vt 0 1 
vt 0 1 
vt 0 1 
vt 0 1 
vt 0 1 
vt 0 1 
vt 0 1 
vt 0 1 
vt 0 1 
vt 0 1 
vt 0 1 
vt 0 1 
vt 0 1 
vt 0 1 
vt 0 1 
vt 0 1 
vt 0 1 
vt 0 1 
vt 0 1 
vt 0 1 
vt 0 1 
vt 0 1 
vt 0 1 
vt 0 1 
vt 0 1 
vt 0 1 
vt 0 1 
vt 0 1 
vt 0 1 
vt 0 1 
vt 0 1 
vt 0 1 
vt 0 1 
vt 0 1 
vt 0 1 
vt 0 1 
vt 0 1 
vt 0 1 
vt 0 1 
vt 0 1 
vt 0 1 
vt 0 1 
vt 0 1 
vt 0 1 
vt 0 1 
vt 0 1 
vt 0 1 
vt 0 1 
vt 0 1 
vt 0 1 
vt 0 1 
vt 0 1 
vt 0 1 
vt 0 1 
vt 0 1 
vt 0 1 
vt 0 1 
vt 0 1 
vt 0 1 
vt 0 1 
# 37 
vn -0.178702 -0.723383 -0.66692 
vn -1.37552e-006 -1 1.97442e-007 
vn -0.596063 -0.537977 -0.596062 
vn 0.218172 -0.537977 -0.814237 
vn 0.488219 -0.723384 -0.48822 
vn 0.814237 -0.537976 -0.218174 
vn 0.596062 -0.537976 0.596064 
vn 0.666919 -0.723384 0.178702 
vn -0.66692 -0.723384 -0.1787 
vn -0.814236 -0.537977 0.218174 
vn -0.765795 0.60947 0.205192 
vn -0.560597 0.609477 -0.560596 
vn 0.205084 0.60948 -0.765816 
vn 0.765747 0.609495 -0.205297 
vn -0.218175 -0.537977 0.814236 
vn 0.1787 -0.723384 0.66692 
vn -0.488219 -0.723384 0.488219 
vn -0.156706 0.796381 -0.584141 
vn 0.560664 0.609499 0.560505 
vn 0.42751 0.796398 -0.427769 
vn -0.205082 0.609489 0.76581 
vn -0.584139 0.796383 -0.156705 
vn -0.0749479 0.957736 -0.277713 
vn 0.202993 0.957824 -0.20339 
vn 0.584199 0.796408 0.156351 
vn 0.156687 0.796405 0.584114 
vn -0.427531 0.796388 0.427765 
vn -0.278109 0.957643 -0.0746643 
vn -0.1976 0.960107 -0.197861 
vn 0.0956113 0.92854 -0.35871 
vn 0.269577 0.960223 -0.0728064 
vn 0.277656 0.957807 0.0742525 
vn 0.0738752 0.957403 0.279144 
vn -0.203937 0.957316 0.204831 
vn -0.269806 0.960254 0.0715355 
vn -0.0970012 0.927247 0.361669 
vn 0.197564 0.960366 0.196635 
f 1/1/1 2/2/2 3/3/3 
f 4/4/4 2/5/2 1/1/1 
f 5/6/5 2/7/2 4/8/4 
f 6/9/6 2/10/2 5/11/5 
f 7/12/7 2/13/2 8/14/8 
f 9/15/9 2/16/2 10/17/10 
f 3/18/3 10/19/10 11/21/11 12/20/12 
f 3/22/3 2/23/2 9/24/9 
f 9/25/9 10/26/10 3/27/3 
f 4/28/4 3/29/3 12/31/12 13/30/13 
f 4/32/4 1/1/1 3/33/3 
f 6/34/6 4/35/4 13/37/13 14/36/14 
f 6/38/6 5/39/5 4/40/4 
f 8/41/8 2/42/2 6/43/6 
f 15/44/15 2/45/2 16/46/16 
f 6/47/6 7/48/7 8/49/8 
f 16/50/16 2/51/2 7/52/7 
f 10/53/10 2/54/2 17/55/17 
f 7/56/7 15/57/15 16/58/16 
f 17/59/17 2/60/2 15/61/15 
f 15/62/15 10/63/10 17/64/17 
f 13/65/13 12/66/12 18/67/18 
f 7/68/7 6/69/6 14/71/14 19/70/19 
f 14/72/14 13/73/13 20/74/20 
f 15/75/15 7/76/7 19/78/19 21/77/21 
f 10/79/10 15/80/15 21/82/21 11/81/11 
f 22/83/22 12/84/12 11/85/11 
f 23/86/23 18/87/18 12/105/12 29/106/29 
f 13/88/13 18/89/18 23/108/23 30/107/30 
f 24/90/24 20/91/20 13/113/13 30/114/30 
f 19/92/19 14/93/14 25/94/25 
f 21/95/21 19/96/19 26/97/26 
f 11/98/11 21/99/21 27/100/27 
f 12/101/12 22/102/22 28/112/28 29/111/29 
f 28/103/28 22/104/22 11/131/11 35/132/35 
f 14/109/14 20/110/20 24/116/24 31/115/31 
f 19/117/19 25/118/25 32/142/32 37/141/37 
f 32/119/32 25/120/25 14/121/14 31/122/31 
f 33/123/33 26/124/26 19/137/19 37/138/37 
f 21/125/21 26/126/26 33/140/33 36/139/36 
f 34/127/34 27/128/27 21/133/21 36/134/36 
f 11/129/11 27/130/27 34/136/34 35/135/35 
f 34/143/34 36/144/36 33/145/33 
f 35/147/35 34/146/34 33/148/33 37/149/37 
f 28/152/28 35/150/35 37/151/37 32/153/32 
f 23/157/23 29/156/29 31/158/31 24/159/24 
f 23/160/23 24/161/24 30/162/30 
f 28/152/28 32/153/32 31/154/31 29/155/29 
