#Wavefront OBJ file created by Hexagon 2 
mtllib novice7.mtl
g novice7__0
# 45 
v 0.036109 0.03691 -0.03611 
v 0 0.297351 -0.348751 
v 0.182682 0.297351 -0.273081 
v 0 0 0 
v 0.273081 0.297351 -0.182683 
v 0.34875 0.297351 -1e-006 
v 0.03611 0.036911 0.03611 
v 0.182682 0.297351 0.27308 
v 0 0.297351 0.348749 
v -0.036111 0.036912 0.03611 
v -0.03611 0.03691 -0.03611 
v -0.34875 0.297351 -1e-006 
v -0.27308 0.297351 -0.182683 
v -0.182682 0.297351 -0.273081 
v 0.273081 0.297351 0.182681 
v -0.182682 0.297351 0.27308 
v -0.273081 0.297351 0.182681 
v -0.182682 0.30411 -0.273081 
v 0 0.304096 -0.348751 
v 0.182682 0.30411 -0.273081 
v 0.27308 0.30411 -0.182683 
v 0.34875 0.304096 -1e-006 
v 0.273081 0.30411 0.182681 
v 0.182682 0.30411 0.27308 
v -0.27308 0.30411 -0.182683 
v 0.130942 0.400024 -0.13096 
v -0.182682 0.30411 0.27308 
v -0.273081 0.30411 0.182681 
v 0.049108 0.400405 -0.184934 
v 0.184933 0.400406 -0.049109 
v 0 0.304096 0.348749 
v -0.34875 0.304096 -1e-006 
v -0.130942 0.400024 -0.13096 
v 0.13048 0.400442 -0.130498 
v 0.130959 0.400024 0.130941 
v 0.049108 0.400406 0.184932 
v -0.130942 0.400024 0.130958 
v -0.184933 0.400406 -0.049109 
v -0.049108 0.400405 -0.184934 
v -0.13048 0.400442 -0.130498 
v 0.184933 0.400406 0.049108 
v 0.130497 0.400442 0.130479 
v -0.049108 0.400406 0.184932 
v -0.184933 0.400406 0.049107 
v -0.13048 0.400442 0.130497 
# 198 1 
vt 0 1 
vt 0 1 
vt 0 1 
vt 0 1 
vt 0 1 
vt 0 1 
vt 0 1 
vt 0 1 
vt 0 1 
vt 0 1 
vt 0 1 
vt 0 1 
vt 0 1 
vt 0 1 
vt 0 1 
vt 0 1 
vt 0 1 
vt 0 1 
vt 0 1 
vt 0 1 
vt 0 1 
vt 0 1 
vt 0 1 
vt 0 1 
vt 0 1 
vt 0 1 
vt 0 1 
vt 0 1 
vt 0 1 
vt 0 1 
vt 0 1 
vt 0 1 
vt 0 1 
vt 0 1 
vt 0 1 
vt 0 1 
vt 0 1 
vt 0 1 
vt 0 1 
vt 0 1 
vt 0 1 
vt 0 1 
vt 0 1 
vt 0 1 
vt 0 1 
vt 0 1 
vt 0 1 
vt 0 1 
vt 0 1 
vt 0 1 
vt 0 1 
vt 0 1 
vt 0 1 
vt 0 1 
vt 0 1 
vt 0 1 
vt 0 1 
vt 0 1 
vt 0 1 
vt 0 1 
vt 0 1 
vt 0 1 
vt 0 1 
vt 0 1 
vt 0 1 
vt 0 1 
vt 0 1 
vt 0 1 
vt 0 1 
vt 0 1 
vt 0 1 
vt 0 1 
vt 0 1 
vt 0 1 
vt 0 1 
vt 0 1 
vt 0 1 
vt 0 1 
vt 0 1 
vt 0 1 
vt 0 1 
vt 0 1 
vt 0 1 
vt 0 1 
vt 0 1 
vt 0 1 
vt 0 1 
vt 0 1 
vt 0 1 
vt 0 1 
vt 0 1 
vt 0 1 
vt 0 1 
vt 0 1 
vt 0 1 
vt 0 1 
vt 0 1 
vt 0 1 
vt 0 1 
vt 0 1 
vt 0 1 
vt 0 1 
vt 0 1 
vt 0 1 
vt 0 1 
vt 0 1 
vt 0 1 
vt 0 1 
vt 0 1 
vt 0 1 
vt 0 1 
vt 0 1 
vt 0 1 
vt 0 1 
vt 0 1 
vt 0 1 
vt 0 1 
vt 0 1 
vt 0 1 
vt 0 1 
vt 0 1 
vt 0 1 
vt 0 1 
vt 0 1 
vt 0 1 
vt 0 1 
vt 0 1 
vt 0 1 
vt 0 1 
vt 0 1 
vt 0 1 
vt 0 1 
vt 0 1 
vt 0 1 
vt 0 1 
vt 0 1 
vt 0 1 
vt 0 1 
vt 0 1 
vt 0 1 
vt 0 1 
vt 0 1 
vt 0 1 
vt 0 1 
vt 0 1 
vt 0 1 
vt 0 1 
vt 0 1 
vt 0 1 
vt 0 1 
vt 0 1 
vt 0 1 
vt 0 1 
vt 0 1 
vt 0 1 
vt 0 1 
vt 0 1 
vt 0 1 
vt 0 1 
vt 0 1 
vt 0 1 
vt 0 1 
vt 0 1 
vt 0 1 
vt 0 1 
vt 0 1 
vt 0 1 
vt 0 1 
vt 0 1 
vt 0 1 
vt 0 1 
vt 0 1 
vt 0 1 
vt 0 1 
vt 0 1 
vt 0 1 
vt 0 1 
vt 0 1 
vt 0 1 
vt 0 1 
vt 0 1 
vt 0 1 
vt 0 1 
vt 0 1 
vt 0 1 
vt 0 1 
vt 0 1 
vt 0 1 
vt 0 1 
vt 0 1 
vt 0 1 
vt 0 1 
vt 0 1 
vt 0 1 
vt 0 1 
vt 0 1 
vt 0 1 
vt 0 1 
# 60 
vn 0.434734 -0.788678 -0.434734 
vn -4.77484e-008 -0.506548 -0.862212 
vn 0.509392 -0.400094 -0.761869 
vn 4.67526e-008 -0.760956 -0.648804 
vn 0.648805 -0.760955 1.62902e-006 
vn -1.06113e-005 -0.760954 0.648806 
vn -0.648805 -0.760955 1.20412e-005 
vn 0.761873 -0.400079 -0.509397 
vn 0.862219 -0.506536 7.50337e-008 
vn 0.434733 -0.788678 0.434736 
vn 0.509389 -0.400107 0.761865 
vn -2.33285e-006 -0.506547 0.862213 
vn -0.434736 -0.788676 0.434736 
vn -0.434736 -0.788678 -0.434733 
vn -0.862212 -0.506547 1.00954e-006 
vn -0.761864 -0.400106 -0.50939 
vn -0.509391 -0.400106 -0.761864 
vn 0.761865 -0.400107 0.509389 
vn -0.509388 -0.400107 0.761865 
vn -0.761865 -0.400107 0.509389 
vn -0.555572 -1.28681e-008 -0.831469 
vn -0.312703 0.825569 -0.469738 
vn -1.61289e-008 1.23997e-007 -1 
vn 2.34144e-009 0.841404 -0.540407 
vn 0.55557 2.74603e-005 -0.83147 
vn 0.312703 0.825569 -0.469738 
vn 0.831469 6.25576e-005 -0.555572 
vn 0.469731 0.825569 -0.312712 
vn 1 3.70834e-005 -9.03218e-007 
vn 0.540411 0.841401 -8.82046e-007 
vn 0.83147 -1.41595e-009 0.55557 
vn 0.469737 0.825568 0.312705 
vn 0.55557 2.65217e-007 0.83147 
vn 0.31271 0.825571 0.46973 
vn -0.831469 -4.77375e-007 -0.555571 
vn -0.469731 0.825569 -0.312712 
vn 0.389418 0.834682 -0.389435 
vn -0.555569 2.65217e-007 0.83147 
vn -0.312704 0.825568 0.469737 
vn -0.83147 -1.41595e-009 0.55557 
vn -0.46973 0.82557 0.31271 
vn 0.11026 0.942884 -0.314345 
vn 0.314339 0.942885 -0.110268 
vn 3.22578e-008 9.08445e-008 1 
vn 3.94075e-008 0.841402 0.54041 
vn -1 -6.68753e-007 -2.19353e-006 
vn -0.540411 0.841401 -1.08449e-006 
vn -0.389418 0.834682 -0.389435 
vn 0.262712 0.928415 -0.262732 
vn 0.389432 0.834683 0.38942 
vn 0.110479 0.942761 0.314637 
vn -0.38942 0.834682 0.389433 
vn -0.314637 0.942761 -0.11048 
vn -0.110474 0.94276 -0.314642 
vn -0.198072 0.959963 -0.198087 
vn 0.314641 0.94276 0.110475 
vn 0.198084 0.959963 0.198073 
vn -0.110266 0.942882 0.314348 
vn -0.314343 0.942883 0.11027 
vn -0.262721 0.928412 0.262735 
f 1/1/1 2/2/2 3/3/3 
f 2/4/2 1/1/1 4/22/4 11/23/14 
f 5/5/8 6/6/9 1/1/1 
f 4/7/5 1/1/1 6/8/9 7/9/10 
f 8/10/11 9/11/12 7/12/10 
f 4/14/6 7/13/10 9/15/12 10/16/13 
f 11/17/14 12/18/15 13/19/16 
f 4/21/7 10/20/13 12/24/15 11/25/14 
f 14/26/17 2/27/2 11/28/14 
f 7/29/10 6/30/9 15/31/18 
f 5/32/8 1/1/1 3/33/3 
f 10/34/13 9/35/12 16/36/19 
f 8/37/11 7/38/10 15/39/18 
f 17/40/20 12/41/15 10/42/13 
f 17/43/20 10/44/13 16/45/19 
f 14/46/17 11/47/14 13/48/16 
f 2/49/2 14/50/17 18/52/21 19/51/23 
f 3/53/3 2/54/2 19/56/23 20/55/25 
f 6/57/9 5/58/8 21/60/27 22/59/29 
f 5/61/8 3/62/3 20/64/25 21/63/27 
f 15/65/18 6/66/9 22/68/29 23/67/31 
f 8/69/11 15/70/18 23/72/31 24/71/33 
f 14/73/17 13/74/16 25/76/35 18/75/21 
f 21/77/28 20/78/26 26/79/37 
f 17/80/20 16/81/19 27/83/38 28/82/40 
f 29/84/42 20/85/26 19/86/24 
f 22/87/30 21/88/28 30/89/43 
f 9/90/12 8/91/11 24/93/33 31/92/44 
f 16/94/19 9/95/12 31/97/44 27/96/38 
f 12/98/15 17/99/20 28/101/40 32/100/46 
f 13/102/16 12/103/15 32/105/46 25/104/35 
f 33/106/48 18/107/22 25/108/36 
f 26/109/37 20/110/26 29/112/42 34/111/49 
f 21/113/28 26/114/37 34/116/49 30/115/43 
f 24/117/34 23/118/32 35/119/50 
f 31/120/45 24/121/34 36/122/51 
f 28/123/41 27/124/39 37/125/52 
f 38/126/53 25/127/36 32/128/47 
f 19/129/24 18/130/22 39/131/54 
f 18/132/22 33/133/48 40/135/55 39/134/54 
f 29/136/42 19/137/24 39/138/54 
f 41/139/56 23/140/32 22/141/30 
f 35/142/50 23/143/32 41/145/56 42/144/57 
f 41/146/56 22/147/30 30/148/43 
f 43/149/58 27/150/39 31/151/45 
f 32/152/47 28/153/41 44/154/59 
f 33/155/48 25/156/36 38/158/53 40/157/55 
f 38/159/53 32/160/47 44/161/59 
f 37/162/52 27/163/39 43/165/58 45/164/60 
f 28/166/41 37/167/52 45/169/60 44/168/59 
f 43/170/58 31/171/45 36/172/51 
f 24/173/34 35/174/50 42/176/57 36/175/51 
f 44/177/59 45/178/60 43/179/58 
f 38/181/53 44/180/59 43/182/58 36/183/51 
f 38/184/53 36/185/51 42/186/57 40/187/55 
f 40/188/55 42/189/57 41/190/56 39/191/54 
f 39/192/54 41/193/56 30/194/43 29/195/42 
f 29/196/42 30/197/43 34/198/49 
