#Wavefront OBJ file created by Hexagon 2 
mtllib novice4.mtl
g novice4__0
# 45 
v 0.092585 0.194303 -0.223521 
v 0 0 0 
v -0.092585 0.194303 -0.223521 
v 0 0.249181 -0.28665 
v -0.223521 0.194303 -0.092585 
v -0.27505 0.338135 -0.275051 
v -0.27505 0.350923 -0.275051 
v -0.34875 0.338111 0 
v -0.34875 0.350923 0 
v 0 0.350923 -0.34875 
v 0 0.338111 -0.34875 
v 0.27505 0.350923 -0.275051 
v 0.27505 0.338135 -0.275051 
v 0.223521 0.194304 -0.092585 
v 0.34875 0.350923 0 
v 0.34875 0.338111 0 
v 0.28665 0.249181 0 
v 0.223521 0.194304 0.092586 
v 0.092585 0.194303 0.223521 
v 0.27505 0.338135 0.275051 
v -0.223521 0.194303 0.092586 
v -0.092585 0.194303 0.223521 
v -0.27505 0.338135 0.275051 
v 0 0.249181 0.28665 
v 0 0.338111 0.34875 
v -0.28665 0.249181 0 
v -0.131881 0.438331 -0.228465 
v 0.131882 0.438331 -0.228465 
v 0.27505 0.350923 0.275051 
v 0 0.350923 0.34875 
v -0.27505 0.350923 0.275051 
v -0.228465 0.438331 -0.131881 
v 0.228465 0.438331 -0.131882 
v -0.228465 0.438331 0.131882 
v 0.151023 0.465253 -0.150876 
v -0.150875 0.465254 -0.151022 
v 0.0002 0.465244 -0.191421 
v 0.228465 0.438331 0.131882 
v -0.131882 0.43833 0.228466 
v 0.131882 0.43833 0.228466 
v -0.19142 0.465244 0.000201 
v 0.191421 0.465244 0.0002 
v 0.150875 0.465253 0.151022 
v -0.0002 0.465244 0.191421 
v -0.151036 0.465249 0.150872 
# 188 1 
vt 0 1 
vt 0 1 
vt 0 1 
vt 0 1 
vt 0 1 
vt 0 1 
vt 0 1 
vt 0 1 
vt 0 1 
vt 0 1 
vt 0 1 
vt 0 1 
vt 0 1 
vt 0 1 
vt 0 1 
vt 0 1 
vt 0 1 
vt 0 1 
vt 0 1 
vt 0 1 
vt 0 1 
vt 0 1 
vt 0 1 
vt 0 1 
vt 0 1 
vt 0 1 
vt 0 1 
vt 0 1 
vt 0 1 
vt 0 1 
vt 0 1 
vt 0 1 
vt 0 1 
vt 0 1 
vt 0 1 
vt 0 1 
vt 0 1 
vt 0 1 
vt 0 1 
vt 0 1 
vt 0 1 
vt 0 1 
vt 0 1 
vt 0 1 
vt 0 1 
vt 0 1 
vt 0 1 
vt 0 1 
vt 0 1 
vt 0 1 
vt 0 1 
vt 0 1 
vt 0 1 
vt 0 1 
vt 0 1 
vt 0 1 
vt 0 1 
vt 0 1 
vt 0 1 
vt 0 1 
vt 0 1 
vt 0 1 
vt 0 1 
vt 0 1 
vt 0 1 
vt 0 1 
vt 0 1 
vt 0 1 
vt 0 1 
vt 0 1 
vt 0 1 
vt 0 1 
vt 0 1 
vt 0 1 
vt 0 1 
vt 0 1 
vt 0 1 
vt 0 1 
vt 0 1 
vt 0 1 
vt 0 1 
vt 0 1 
vt 0 1 
vt 0 1 
vt 0 1 
vt 0 1 
vt 0 1 
vt 0 1 
vt 0 1 
vt 0 1 
vt 0 1 
vt 0 1 
vt 0 1 
vt 0 1 
vt 0 1 
vt 0 1 
vt 0 1 
vt 0 1 
vt 0 1 
vt 0 1 
vt 0 1 
vt 0 1 
vt 0 1 
vt 0 1 
vt 0 1 
vt 0 1 
vt 0 1 
vt 0 1 
vt 0 1 
vt 0 1 
vt 0 1 
vt 0 1 
vt 0 1 
vt 0 1 
vt 0 1 
vt 0 1 
vt 0 1 
vt 0 1 
vt 0 1 
vt 0 1 
vt 0 1 
vt 0 1 
vt 0 1 
vt 0 1 
vt 0 1 
vt 0 1 
vt 0 1 
vt 0 1 
vt 0 1 
vt 0 1 
vt 0 1 
vt 0 1 
vt 0 1 
vt 0 1 
vt 0 1 
vt 0 1 
vt 0 1 
vt 0 1 
vt 0 1 
vt 0 1 
vt 0 1 
vt 0 1 
vt 0 1 
vt 0 1 
vt 0 1 
vt 0 1 
vt 0 1 
vt 0 1 
vt 0 1 
vt 0 1 
vt 0 1 
vt 0 1 
vt 0 1 
vt 0 1 
vt 0 1 
vt 0 1 
vt 0 1 
vt 0 1 
vt 0 1 
vt 0 1 
vt 0 1 
vt 0 1 
vt 0 1 
vt 0 1 
vt 0 1 
vt 0 1 
vt 0 1 
vt 0 1 
vt 0 1 
vt 0 1 
vt 0 1 
vt 0 1 
vt 0 1 
vt 0 1 
vt 0 1 
vt 0 1 
vt 0 1 
vt 0 1 
vt 0 1 
vt 0 1 
vt 0 1 
vt 0 1 
vt 0 1 
vt 0 1 
vt 0 1 
vt 0 1 
vt 0 1 
vt 0 1 
# 45 
vn 0.233711 -0.712513 -0.661592 
vn 9.67467e-007 -1 5.96828e-007 
vn -0.23371 -0.712513 -0.661593 
vn -1.52391e-008 -0.638508 -0.769615 
vn -0.661593 -0.712512 -0.233711 
vn -0.635025 -0.43987 -0.635026 
vn -0.600097 0.52893 -0.600098 
vn -0.953388 -0.301748 -8.04122e-008 
vn -0.874582 0.484877 8.14427e-008 
vn 3.86495e-008 0.484878 -0.874582 
vn -2.81443e-008 -0.301748 -0.953388 
vn 0.600097 0.528929 -0.600098 
vn 0.635025 -0.43987 -0.635025 
vn 0.661593 -0.712513 -0.23371 
vn 0.874583 0.484877 -2.8837e-008 
vn 0.953387 -0.301749 -5.62886e-008 
vn 0.769615 -0.638508 -6.09563e-008 
vn 0.661593 -0.712513 0.23371 
vn 0.233711 -0.712513 0.661593 
vn 0.635025 -0.43987 0.635026 
vn -0.661593 -0.712512 0.233711 
vn -0.233709 -0.712512 0.661593 
vn -0.635025 -0.43987 0.635026 
vn 1.52391e-008 -0.638508 0.769615 
vn 3.21649e-008 -0.301748 0.953388 
vn -0.769616 -0.638507 -1.16833e-007 
vn -0.171173 0.837217 -0.519391 
vn 0.171277 0.837249 -0.519305 
vn 0.600096 0.52893 0.600098 
vn 2.45834e-008 0.484877 0.874582 
vn -0.600097 0.528929 0.600099 
vn -0.519298 0.837267 -0.171211 
vn 0.51939 0.837218 -0.171174 
vn -0.519398 0.837199 0.171239 
vn 0.170472 0.970526 -0.170351 
vn -0.170306 0.970537 -0.170453 
vn 0.000103886 0.944206 -0.329357 
vn 0.519303 0.83725 0.171278 
vn -0.171281 0.837253 0.519297 
vn 0.171173 0.837218 0.51939 
vn -0.264406 0.964411 2.83573e-005 
vn 0.264402 0.964413 8.61654e-005 
vn 0.170311 0.970528 0.170498 
vn -0.000109352 0.944214 0.329333 
vn -0.170488 0.970516 0.170388 
f 1/1/1 2/2/2 3/4/3 4/3/4 
f 3/5/3 2/6/2 5/8/5 6/7/6 
f 7/9/7 6/10/6 8/12/8 9/11/9 
f 10/13/10 11/14/11 6/16/6 7/15/7 
f 4/17/4 3/18/3 6/20/6 11/19/11 
f 12/21/12 13/22/13 11/24/11 10/23/10 
f 14/25/14 2/26/2 1/1/1 13/27/13 
f 13/28/13 1/1/1 4/30/4 11/29/11 
f 15/31/15 16/32/16 13/34/13 12/33/12 
f 17/35/17 14/36/14 13/38/13 16/37/16 
f 18/39/18 2/40/2 14/42/14 17/41/17 
f 19/43/19 2/44/2 18/46/18 20/45/20 
f 16/47/16 20/48/20 18/50/18 17/49/17 
f 21/51/21 2/52/2 22/54/22 23/53/23 
f 24/55/24 19/56/19 20/58/20 25/57/25 
f 22/59/22 2/60/2 19/62/19 24/61/24 
f 8/63/8 6/64/6 5/66/5 26/65/26 
f 24/67/24 25/68/25 23/70/23 22/69/22 
f 26/71/26 5/72/5 2/74/2 21/73/21 
f 21/75/21 23/76/23 8/78/8 26/77/26 
f 27/79/27 10/80/10 7/81/7 
f 10/82/10 28/83/28 12/84/12 
f 29/85/29 20/86/20 16/88/16 15/87/15 
f 30/89/30 25/90/25 20/92/20 29/91/29 
f 31/93/31 23/94/23 25/96/25 30/95/30 
f 9/97/9 8/98/8 23/100/23 31/99/31 
f 9/101/9 32/102/32 7/103/7 
f 33/104/33 15/105/15 12/106/12 
f 34/107/34 9/108/9 31/109/31 
f 12/110/12 28/111/28 35/113/35 33/112/33 
f 7/114/7 32/115/32 36/117/36 27/116/27 
f 10/118/10 27/119/27 37/121/37 28/120/28 
f 15/122/15 38/123/38 29/124/29 
f 30/125/30 39/126/39 31/127/31 
f 40/128/40 30/129/30 29/130/29 
f 32/131/32 9/132/9 34/134/34 41/133/41 
f 37/135/37 27/136/27 36/137/36 
f 36/138/36 32/139/32 41/140/41 
f 35/141/35 28/142/28 37/143/37 
f 15/144/15 33/145/33 42/147/42 38/146/38 
f 42/148/42 33/149/33 35/150/35 
f 29/151/29 38/152/38 43/154/43 40/153/40 
f 30/155/30 40/156/40 44/158/44 39/157/39 
f 31/159/31 39/160/39 45/162/45 34/161/34 
f 41/163/41 34/164/34 45/165/45 
f 45/166/45 39/167/39 44/168/44 
f 44/169/44 40/170/40 43/171/43 
f 43/172/43 38/173/38 42/174/42 
f 44/175/44 43/176/43 45/177/45 
f 41/179/41 45/178/45 43/180/43 42/181/42 
f 41/182/41 42/183/42 35/184/35 36/185/36 
f 36/186/36 35/187/35 37/188/37 
