#Wavefront OBJ file created by Hexagon 2 
mtllib novice8.mtl
g novice8__0
# 36 
v 0.21554 0.303163 -0.296665 
v 0 0 0 
v 0 0.115805 -0.140075 
v 0.133219 0.115805 -0.043286 
v 0.34875 0.303163 0.113315 
v -0.215539 0.303163 -0.296665 
v -0.133219 0.115805 -0.043286 
v -0.34875 0.303163 0.113315 
v 0.21554 0.313543 -0.296665 
v 0.34875 0.313543 0.113315 
v 0 0.303163 0.366697 
v 0.082334 0.115805 0.113322 
v -0.082334 0.115805 0.113322 
v -0.215539 0.313543 -0.296665 
v -0.34875 0.313543 0.113315 
v 0 0.410326 -0.226631 
v 0 0.313543 0.366697 
v 0.215539 0.410326 -0.070034 
v -0.215539 0.410326 -0.070034 
v -0.133272 0.410254 -0.183434 
v 0.133272 0.410254 -0.183434 
v 0.133211 0.410326 0.183347 
v -0.13321 0.410326 0.183348 
v -0.116691 0.425743 -0.160612 
v 0 0.425743 -0.198551 
v 0.116691 0.425743 -0.160612 
v 0.215638 0.410254 0.070065 
v -0.188832 0.425743 -0.061356 
v 0.188832 0.425743 -0.061356 
v 0.18881 0.425743 0.061348 
v 0 0.410254 0.226735 
v -0.215639 0.410254 0.070065 
v -0.18881 0.425743 0.061348 
v -0.116705 0.425743 0.16063 
v 0 0.425743 0.198526 
v 0.116705 0.425743 0.16063 
# 161 1 
vt 0 1 
vt 0 1 
vt 0 1 
vt 0 1 
vt 0 1 
vt 0 1 
vt 0 1 
vt 0 1 
vt 0 1 
vt 0 1 
vt 0 1 
vt 0 1 
vt 0 1 
vt 0 1 
vt 0 1 
vt 0 1 
vt 0 1 
vt 0 1 
vt 0 1 
vt 0 1 
vt 0 1 
vt 0 1 
vt 0 1 
vt 0 1 
vt 0 1 
vt 0 1 
vt 0 1 
vt 0 1 
vt 0 1 
vt 0 1 
vt 0 1 
vt 0 1 
vt 0 1 
vt 0 1 
vt 0 1 
vt 0 1 
vt 0 1 
vt 0 1 
vt 0 1 
vt 0 1 
vt 0 1 
vt 0 1 
vt 0 1 
vt 0 1 
vt 0 1 
vt 0 1 
vt 0 1 
vt 0 1 
vt 0 1 
vt 0 1 
vt 0 1 
vt 0 1 
vt 0 1 
vt 0 1 
vt 0 1 
vt 0 1 
vt 0 1 
vt 0 1 
vt 0 1 
vt 0 1 
vt 0 1 
vt 0 1 
vt 0 1 
vt 0 1 
vt 0 1 
vt 0 1 
vt 0 1 
vt 0 1 
vt 0 1 
vt 0 1 
vt 0 1 
vt 0 1 
vt 0 1 
vt 0 1 
vt 0 1 
vt 0 1 
vt 0 1 
vt 0 1 
vt 0 1 
vt 0 1 
vt 0 1 
vt 0 1 
vt 0 1 
vt 0 1 
vt 0 1 
vt 0 1 
vt 0 1 
vt 0 1 
vt 0 1 
vt 0 1 
vt 0 1 
vt 0 1 
vt 0 1 
vt 0 1 
vt 0 1 
vt 0 1 
vt 0 1 
vt 0 1 
vt 0 1 
vt 0 1 
vt 0 1 
vt 0 1 
vt 0 1 
vt 0 1 
vt 0 1 
vt 0 1 
vt 0 1 
vt 0 1 
vt 0 1 
vt 0 1 
vt 0 1 
vt 0 1 
vt 0 1 
vt 0 1 
vt 0 1 
vt 0 1 
vt 0 1 
vt 0 1 
vt 0 1 
vt 0 1 
vt 0 1 
vt 0 1 
vt 0 1 
vt 0 1 
vt 0 1 
vt 0 1 
vt 0 1 
vt 0 1 
vt 0 1 
vt 0 1 
vt 0 1 
vt 0 1 
vt 0 1 
vt 0 1 
vt 0 1 
vt 0 1 
vt 0 1 
vt 0 1 
vt 0 1 
vt 0 1 
vt 0 1 
vt 0 1 
vt 0 1 
vt 0 1 
vt 0 1 
vt 0 1 
vt 0 1 
vt 0 1 
vt 0 1 
vt 0 1 
vt 0 1 
vt 0 1 
vt 0 1 
vt 0 1 
vt 0 1 
vt 0 1 
vt 0 1 
vt 0 1 
vt 0 1 
vt 0 1 
vt 0 1 
# 36 
vn 0.486113 -0.562165 -0.669077 
vn 5.92326e-008 -1 4.89656e-007 
vn -3.08759e-007 -0.729724 -0.683742 
vn 0.650277 -0.729724 -0.211287 
vn 0.786548 -0.562164 0.255566 
vn -0.486113 -0.562164 -0.669078 
vn -0.650277 -0.729724 -0.211289 
vn -0.786548 -0.562164 0.255565 
vn 0.483898 0.567668 -0.66603 
vn 0.782964 0.567668 0.254401 
vn 2.40026e-008 -0.562164 0.827026 
vn 0.401895 -0.729722 0.553159 
vn -0.401895 -0.729723 0.553159 
vn -0.483899 0.567667 -0.66603 
vn -0.782966 0.567666 0.254401 
vn -5.19427e-008 0.80714 -0.590361 
vn 4.48637e-007 0.567668 0.823257 
vn 0.561463 0.807142 -0.182429 
vn -0.561463 0.807142 -0.182431 
vn -0.308864 0.85081 -0.425119 
vn 0.308863 0.85081 -0.425118 
vn 0.347006 0.80714 0.477611 
vn -0.347004 0.807141 0.477612 
vn -0.145147 0.969031 -0.199779 
vn 0 0.944426 -0.328725 
vn 0.193236 0.944415 -0.26597 
vn 0.499756 0.850809 0.162381 
vn -0.234825 0.969038 -0.0762997 
vn 0.234827 0.969038 -0.0762991 
vn 0.234855 0.96903 0.0763097 
vn 1.33966e-006 0.850809 0.525476 
vn -0.499754 0.85081 0.162381 
vn -0.234852 0.969031 0.0763087 
vn -0.193218 0.944426 0.265943 
vn 8.75665e-007 0.944414 0.32876 
vn 0.145134 0.969037 0.199759 
f 1/1/1 2/2/2 3/3/3 
f 4/4/4 2/5/2 1/1/1 
f 5/6/5 2/7/2 4/8/4 
f 3/9/3 2/10/2 6/11/6 
f 7/12/7 2/13/2 8/14/8 
f 5/15/5 1/1/1 9/17/9 10/16/10 
f 6/18/6 2/19/2 7/20/7 
f 7/21/7 8/22/8 6/23/6 
f 1/1/1 3/24/3 6/25/6 
f 11/26/11 2/27/2 12/28/12 
f 5/29/5 4/30/4 1/1/1 
f 12/31/12 2/32/2 5/33/5 
f 8/34/8 2/35/2 13/36/13 
f 5/37/5 11/38/11 12/39/12 
f 13/40/13 2/41/2 11/42/11 
f 1/1/1 6/43/6 14/45/14 9/44/9 
f 11/46/11 8/47/8 13/48/13 
f 6/49/6 8/50/8 15/52/15 14/51/14 
f 9/53/9 14/54/14 16/55/16 
f 11/56/11 5/57/5 10/59/10 17/58/17 
f 10/60/10 9/61/9 18/62/18 
f 8/63/8 11/64/11 17/66/17 15/65/15 
f 19/67/19 14/68/14 15/69/15 
f 16/70/16 14/71/14 20/72/20 
f 21/73/21 9/74/9 16/75/16 
f 20/76/20 14/77/14 19/78/19 
f 18/79/18 9/80/9 21/81/21 
f 17/82/17 10/83/10 22/84/22 
f 15/85/15 17/86/17 23/87/23 
f 16/88/16 20/89/20 24/91/24 25/90/25 
f 21/92/21 16/93/16 25/95/25 26/94/26 
f 27/96/27 10/97/10 18/98/18 
f 20/99/20 19/100/19 28/102/28 24/101/24 
f 18/103/18 21/104/21 26/106/26 29/105/29 
f 27/107/27 18/108/18 29/110/29 30/109/30 
f 22/111/22 10/112/10 27/113/27 
f 31/114/31 17/115/17 22/116/22 
f 23/117/23 17/118/17 31/119/31 
f 32/120/32 15/121/15 23/122/23 
f 19/123/19 15/124/15 32/125/32 
f 19/126/19 32/127/32 33/129/33 28/128/28 
f 32/130/32 23/131/23 34/133/34 33/132/33 
f 23/134/23 31/135/31 35/137/35 34/136/34 
f 22/138/22 27/139/27 30/141/30 36/140/36 
f 31/142/31 22/143/22 36/145/36 35/144/35 
f 34/146/34 35/147/35 36/148/36 33/149/33 
f 33/150/33 36/151/36 30/152/30 28/153/28 
f 24/155/24 28/154/28 30/156/30 29/157/29 
f 24/158/24 29/159/29 26/160/26 25/161/25 
