#Wavefront OBJ file created by Hexagon 2 
mtllib novtri.mtl
g novtri_d_0
# 37 
v -0.328345 0.278434 -0.045707 
v -0.051074 0.028476 -0.029487 
v -0.249692 0.278427 0.14416 
v 0 0.028476 0.058976 
v 0 0 0 
v 0 0.278426 -0.288318 
v 0.051074 0.028476 -0.029487 
v 0.249702 0.278438 0.144165 
v -0.203757 0.278434 -0.261501 
v -0.34875 0.278355 -0.20135 
v 0.203756 0.278434 -0.261501 
v 0.34875 0.278355 -0.201351 
v -0.203752 0.288189 -0.261502 
v 0 0.288196 -0.288319 
v 0.203752 0.288189 -0.261502 
v 0.328345 0.278434 -0.045707 
v 0.124589 0.278433 0.307209 
v -0.249692 0.288195 0.14416 
v -0.328343 0.288189 -0.045703 
v -0.124588 0.278434 0.30721 
v -0.34875 0.288229 -0.20135 
v 0.34875 0.288229 -0.201351 
v 0 0.278355 0.402702 
v -0.064877 0.372595 -0.178326 
v 0.328343 0.288189 -0.045704 
v 0.249702 0.288186 0.144165 
v 0.064877 0.372595 -0.178327 
v 0.124591 0.288189 0.307206 
v -0.124591 0.288189 0.307206 
v -0.186874 0.372595 0.032978 
v -0.207197 0.37244 -0.119625 
v 0 0.288229 0.402702 
v -0.121997 0.372595 0.145347 
v 0.207197 0.37244 -0.119625 
v 0.186867 0.3726 0.032979 
v 0.121994 0.3726 0.145342 
v 0 0.37244 0.239251 
# 147 1 
vt 0 1 
vt 0 1 
vt 0 1 
vt 0 1 
vt 0 1 
vt 0 1 
vt 0 1 
vt 0 1 
vt 0 1 
vt 0 1 
vt 0 1 
vt 0 1 
vt 0 1 
vt 0 1 
vt 0 1 
vt 0 1 
vt 0 1 
vt 0 1 
vt 0 1 
vt 0 1 
vt 0 1 
vt 0 1 
vt 0 1 
vt 0 1 
vt 0 1 
vt 0 1 
vt 0 1 
vt 0 1 
vt 0 1 
vt 0 1 
vt 0 1 
vt 0 1 
vt 0 1 
vt 0 1 
vt 0 1 
vt 0 1 
vt 0 1 
vt 0 1 
vt 0 1 
vt 0 1 
vt 0 1 
vt 0 1 
vt 0 1 
vt 0 1 
vt 0 1 
vt 0 1 
vt 0 1 
vt 0 1 
vt 0 1 
vt 0 1 
vt 0 1 
vt 0 1 
vt 0 1 
vt 0 1 
vt 0 1 
vt 0 1 
vt 0 1 
vt 0 1 
vt 0 1 
vt 0 1 
vt 0 1 
vt 0 1 
vt 0 1 
vt 0 1 
vt 0 1 
vt 0 1 
vt 0 1 
vt 0 1 
vt 0 1 
vt 0 1 
vt 0 1 
vt 0 1 
vt 0 1 
vt 0 1 
vt 0 1 
vt 0 1 
vt 0 1 
vt 0 1 
vt 0 1 
vt 0 1 
vt 0 1 
vt 0 1 
vt 0 1 
vt 0 1 
vt 0 1 
vt 0 1 
vt 0 1 
vt 0 1 
vt 0 1 
vt 0 1 
vt 0 1 
vt 0 1 
vt 0 1 
vt 0 1 
vt 0 1 
vt 0 1 
vt 0 1 
vt 0 1 
vt 0 1 
vt 0 1 
vt 0 1 
vt 0 1 
vt 0 1 
vt 0 1 
vt 0 1 
vt 0 1 
vt 0 1 
vt 0 1 
vt 0 1 
vt 0 1 
vt 0 1 
vt 0 1 
vt 0 1 
vt 0 1 
vt 0 1 
vt 0 1 
vt 0 1 
vt 0 1 
vt 0 1 
vt 0 1 
vt 0 1 
vt 0 1 
vt 0 1 
vt 0 1 
vt 0 1 
vt 0 1 
vt 0 1 
vt 0 1 
vt 0 1 
vt 0 1 
vt 0 1 
vt 0 1 
vt 0 1 
vt 0 1 
vt 0 1 
vt 0 1 
vt 0 1 
vt 0 1 
vt 0 1 
vt 0 1 
vt 0 1 
vt 0 1 
vt 0 1 
vt 0 1 
vt 0 1 
vt 0 1 
vt 0 1 
# 48 
vn -0.886897 -0.395538 0.238669 
vn -0.449468 -0.854774 -0.2595 
vn -0.767418 -0.463421 0.443069 
vn -3.8852e-007 -0.854774 0.519 
vn -0.601592 -0.71934 0.347329 
vn -5.42859e-008 -0.719339 -0.694659 
vn 0.601592 -0.719339 0.347329 
vn 1.5212e-007 -0.463448 -0.886124 
vn 0.449468 -0.854774 -0.259501 
vn 0.767421 -0.463417 0.443069 
vn -0.236753 -0.395563 -0.887399 
vn -0.757403 -0.484896 -0.437284 
vn 0.23675 -0.395569 -0.887398 
vn 0.757399 -0.4849 -0.437286 
vn -0.259064 -7.50273e-006 -0.96586 
vn -0.130142 0.812714 -0.567943 
vn 0.00932024 0.429376 -0.903078 
vn 0.227425 0.452777 -0.862132 
vn 0.886904 -0.395532 0.238655 
vn 0.65013 -0.395543 0.64875 
vn -0.786734 0.429412 0.443459 
vn -0.860326 0.452806 0.234106 
vn -0.65014 -0.395543 0.64874 
vn -0.991515 7.44568e-005 0.129993 
vn -0.383186 5.16333e-005 -0.923671 
vn -0.396619 0.888965 -0.228987 
vn 0.38318 3.28796e-005 -0.923674 
vn 0.991515 8.00589e-005 0.129993 
vn 0.396619 0.888964 -0.228988 
vn -1.31335e-006 -0.484895 0.874572 
vn -0.0546856 0.969848 -0.237495 
vn 0.860328 0.452811 0.234089 
vn 0.786731 0.42942 0.443456 
vn 0.0514374 0.926166 -0.373591 
vn 0.706909 3.64701e-005 0.707305 
vn 0.426785 0.812712 0.396679 
vn -0.706928 3.56808e-005 0.707286 
vn -0.426784 0.812714 0.396676 
vn -0.349254 0.926169 0.142246 
vn -0.266468 0.951487 -0.153844 
vn 0.608333 5.98492e-005 0.793682 
vn -0.608333 6.84606e-005 0.793682 
vn -1.01082e-006 0.888965 0.457975 
vn -0.223514 0.95221 0.208178 
vn 0.266472 0.951484 -0.153856 
vn 0.349253 0.92617 0.142237 
vn 0.178325 0.96985 0.166103 
vn -7.91461e-006 0.951484 0.307698 
f 1/1/1 2/2/2 3/3/3 
f 4/4/4 3/5/3 2/7/2 5/6/5 
f 5/8/6 2/9/2 6/11/8 7/10/9 
f 8/12/10 4/13/4 5/15/7 7/14/9 
f 6/16/8 2/17/2 9/18/11 
f 10/19/12 2/20/2 1/1/1 
f 11/21/13 7/22/9 6/23/8 
f 9/24/11 2/25/2 10/26/12 
f 12/27/14 7/28/9 11/29/13 
f 6/30/8 9/31/11 13/33/15 14/32/17 
f 11/34/13 6/35/8 14/37/17 15/36/18 
f 8/38/10 7/39/9 16/40/19 
f 17/41/20 4/42/4 8/43/10 
f 1/1/1 3/44/3 18/46/21 19/45/22 
f 3/47/3 4/48/4 20/49/23 
f 10/50/12 1/1/1 19/52/22 21/51/24 
f 9/53/11 10/54/12 21/56/25 13/55/15 
f 12/57/14 11/58/13 15/60/18 22/59/27 
f 16/61/19 7/62/9 12/63/14 
f 23/64/30 4/65/4 17/66/20 
f 20/67/23 4/68/4 23/69/30 
f 14/70/17 13/71/16 24/117/31 27/116/34 
f 8/72/10 16/73/19 25/75/32 26/74/33 
f 27/76/34 15/77/18 14/78/17 
f 17/79/20 8/80/10 26/82/33 28/81/35 
f 3/83/3 20/84/23 29/86/37 18/85/21 
f 30/87/39 19/88/22 18/89/21 
f 21/90/26 19/91/22 30/93/39 31/92/40 
f 16/94/19 12/95/14 22/97/28 25/96/32 
f 23/98/30 17/99/20 28/101/35 32/100/41 
f 20/102/23 23/103/30 32/105/42 29/104/37 
f 18/106/21 29/107/38 33/124/44 30/123/39 
f 13/108/16 21/109/26 31/111/40 24/110/31 
f 22/112/29 15/113/18 27/115/34 34/114/45 
f 26/118/33 25/119/32 35/120/46 
f 36/121/47 28/122/36 26/129/33 35/130/46 
f 29/125/38 32/126/43 37/128/48 33/127/44 
f 32/131/43 28/132/36 36/134/47 37/133/48 
f 25/135/32 22/136/29 34/138/45 35/137/46 
f 27/145/34 35/142/46 34/144/45 
f 30/143/39 24/146/31 31/147/40 
f 36/140/47 33/141/44 37/139/48 
f 24/146/31 36/140/47 35/142/46 27/145/34 
f 30/143/39 33/141/44 36/140/47 24/146/31 
