#Wavefront OBJ file created by Hexagon 2 
mtllib octoburst.mtl
g octoburs_0
# 59 
v 0.143764 0.340584 -0.348659 
v 0.143764 0.33338 -0.348659 
v -0.14515 0.33338 -0.348659 
v -0.14515 0.340584 -0.348659 
v 0.348057 0.340584 -0.144366 
v 0.348057 0.33338 -0.144366 
v 0.348057 0.340584 0.144548 
v 0.348057 0.33338 0.144548 
v -0.14515 0.33338 0.348841 
v -0.000594 0.220291 0.272561 
v 0.143764 0.33338 0.348841 
v -0.349443 0.33338 0.144548 
v -0.193288 0.220291 0.192827 
v -0.349443 0.33338 -0.144366 
v -0.273163 0.220291 0.00019 
v -0.000792 0.220291 -0.272379 
v 0.191902 0.220291 -0.192645 
v 0.271777 0.220291 -8e-006 
v 0.192043 0.220291 0.192687 
v -0.033252 0.070174 0.078631 
v -0.193288 0.220291 -0.192645 
v -0.079252 0.070174 0.032604 
v -0.033247 0.070183 -0.078446 
v 0.031752 0.069969 -0.078208 
v 0.001695 0.002175 -0.002246 
v 0.077595 0.069977 0.032616 
v -0.000444 -0.000121 0.000301 
v 0.077529 0.069856 -0.032212 
v 0.031765 0.070054 0.078516 
v -0.078937 0.069906 -0.032339 
v -0.003142 0.002225 -0.002303 
v -0.349443 0.340584 -0.144366 
v -0.032514 0.426729 -0.245996 
v 0.031123 0.426729 -0.245996 
v 0.143764 0.340585 0.348841 
v 0.150815 0.426729 -0.196419 
v 0.195814 0.426729 -0.151421 
v -0.14515 0.340584 0.348841 
v -0.349443 0.340584 0.144548 
v 0.076874 0.460977 -0.187174 
v 0.245394 0.426729 -0.031731 
v 0.245394 0.426729 0.031908 
v 0.186569 0.460979 -0.077476 
v -0.078261 0.460978 -0.187174 
v -0.152201 0.426729 -0.196419 
v 0.195817 0.426729 0.151599 
v 0.150819 0.426729 0.196598 
v -0.1972 0.426729 -0.15142 
v -0.187957 0.460978 -0.077477 
v -0.24678 0.426729 -0.031726 
v 0.186566 0.460981 0.077656 
v 0.031129 0.426729 0.246178 
v 0.076871 0.460983 0.187347 
v -0.078258 0.460983 0.187347 
v -0.03251 0.426729 0.246178 
v -0.187952 0.460981 0.077655 
v -0.1972 0.426729 0.151603 
v -0.152201 0.426729 0.196602 
v -0.24678 0.426729 0.031913 
# 232 1 
vt 0 1 
vt 0 1 
vt 0 1 
vt 0 1 
vt 0 1 
vt 0 1 
vt 0 1 
vt 0 1 
vt 0 1 
vt 0 1 
vt 0 1 
vt 0 1 
vt 0 1 
vt 0 1 
vt 0 1 
vt 0 1 
vt 0 1 
vt 0 1 
vt 0 1 
vt 0 1 
vt 0 1 
vt 0 1 
vt 0 1 
vt 0 1 
vt 0 1 
vt 0 1 
vt 0 1 
vt 0 1 
vt 0 1 
vt 0 1 
vt 0 1 
vt 0 1 
vt 0 1 
vt 0 1 
vt 0 1 
vt 0 1 
vt 0 1 
vt 0 1 
vt 0 1 
vt 0 1 
vt 0 1 
vt 0 1 
vt 0 1 
vt 0 1 
vt 0 1 
vt 0 1 
vt 0 1 
vt 0 1 
vt 0 1 
vt 0 1 
vt 0 1 
vt 0 1 
vt 0 1 
vt 0 1 
vt 0 1 
vt 0 1 
vt 0 1 
vt 0 1 
vt 0 1 
vt 0 1 
vt 0 1 
vt 0 1 
vt 0 1 
vt 0 1 
vt 0 1 
vt 0 1 
vt 0 1 
vt 0 1 
vt 0 1 
vt 0 1 
vt 0 1 
vt 0 1 
vt 0 1 
vt 0 1 
vt 0 1 
vt 0 1 
vt 0 1 
vt 0 1 
vt 0 1 
vt 0 1 
vt 0 1 
vt 0 1 
vt 0 1 
vt 0 1 
vt 0 1 
vt 0 1 
vt 0 1 
vt 0 1 
vt 0 1 
vt 0 1 
vt 0 1 
vt 0 1 
vt 0 1 
vt 0 1 
vt 0 1 
vt 0 1 
vt 0 1 
vt 0 1 
vt 0 1 
vt 0 1 
vt 0 1 
vt 0 1 
vt 0 1 
vt 0 1 
vt 0 1 
vt 0 1 
vt 0 1 
vt 0 1 
vt 0 1 
vt 0 1 
vt 0 1 
vt 0 1 
vt 0 1 
vt 0 1 
vt 0 1 
vt 0 1 
vt 0 1 
vt 0 1 
vt 0 1 
vt 0 1 
vt 0 1 
vt 0 1 
vt 0 1 
vt 0 1 
vt 0 1 
vt 0 1 
vt 0 1 
vt 0 1 
vt 0 1 
vt 0 1 
vt 0 1 
vt 0 1 
vt 0 1 
vt 0 1 
vt 0 1 
vt 0 1 
vt 0 1 
vt 0 1 
vt 0 1 
vt 0 1 
vt 0 1 
vt 0 1 
vt 0 1 
vt 0 1 
vt 0 1 
vt 0 1 
vt 0 1 
vt 0 1 
vt 0 1 
vt 0 1 
vt 0 1 
vt 0 1 
vt 0 1 
vt 0 1 
vt 0 1 
vt 0 1 
vt 0 1 
vt 0 1 
vt 0 1 
vt 0 1 
vt 0 1 
vt 0 1 
vt 0 1 
vt 0 1 
vt 0 1 
vt 0 1 
vt 0 1 
vt 0 1 
vt 0 1 
vt 0 1 
vt 0 1 
vt 0 1 
vt 0 1 
vt 0 1 
vt 0 1 
vt 0 1 
vt 0 1 
vt 0 1 
vt 0 1 
vt 0 1 
vt 0 1 
vt 0 1 
vt 0 1 
vt 0 1 
vt 0 1 
vt 0 1 
vt 0 1 
vt 0 1 
vt 0 1 
vt 0 1 
vt 0 1 
vt 0 1 
vt 0 1 
vt 0 1 
vt 0 1 
vt 0 1 
vt 0 1 
vt 0 1 
vt 0 1 
vt 0 1 
vt 0 1 
vt 0 1 
vt 0 1 
vt 0 1 
vt 0 1 
vt 0 1 
vt 0 1 
vt 0 1 
vt 0 1 
vt 0 1 
vt 0 1 
vt 0 1 
vt 0 1 
vt 0 1 
vt 0 1 
vt 0 1 
vt 0 1 
vt 0 1 
vt 0 1 
vt 0 1 
vt 0 1 
vt 0 1 
vt 0 1 
vt 0 1 
vt 0 1 
vt 0 1 
vt 0 1 
vt 0 1 
vt 0 1 
vt 0 1 
vt 0 1 
vt 0 1 
# 59 
vn 0.320293 0.547251 -0.773259 
vn 0.347632 -0.417799 -0.839402 
vn -0.347684 -0.417791 -0.839385 
vn -0.320295 0.54725 -0.773259 
vn 0.773257 0.547251 -0.320296 
vn 0.83936 -0.417798 -0.347734 
vn 0.773259 0.547251 0.320292 
vn 0.839404 -0.417794 0.347633 
vn -0.347634 -0.417786 0.839407 
vn 3.09533e-005 -0.723411 0.690418 
vn 0.347735 -0.417789 0.839364 
vn -0.839366 -0.417786 0.347736 
vn -0.488097 -0.723483 0.488194 
vn -0.839383 -0.417794 -0.347684 
vn -0.690249 -0.723572 0.000101839 
vn -0.000126797 -0.723544 -0.690278 
vn 0.488573 -0.723399 -0.487842 
vn 0.690414 -0.723414 9.31478e-005 
vn 0.48822 -0.723382 0.48822 
vn -0.238527 -0.782045 0.57577 
vn -0.488708 -0.723456 -0.487622 
vn -0.575561 -0.782198 0.23853 
vn -0.182133 -0.778173 -0.601061 
vn 0.183206 -0.778163 -0.600748 
vn 0.238056 -0.786507 -0.569856 
vn 0.575829 -0.781898 0.238867 
vn 0.000660447 -0.985667 -0.168701 
vn 0.576394 -0.781826 -0.237736 
vn 0.238429 -0.781922 0.575977 
vn -0.576186 -0.782004 -0.237654 
vn -0.235578 -0.786702 -0.570616 
vn -0.773258 0.547251 -0.320295 
vn -0.0729405 0.824496 -0.561147 
vn 0.0729399 0.824497 -0.561146 
vn 0.320296 0.547253 0.773256 
vn 0.345211 0.824497 -0.448368 
vn 0.448363 0.824497 -0.345218 
vn -0.320293 0.547251 0.773259 
vn -0.773257 0.547251 0.320296 
vn 0.148623 0.921501 -0.358813 
vn 0.561145 0.824497 -0.0729439 
vn 0.561146 0.824497 0.0729388 
vn 0.358807 0.921502 -0.148632 
vn -0.119555 0.949946 -0.288633 
vn -0.345218 0.824494 -0.448368 
vn 0.448368 0.824497 0.345212 
vn 0.345218 0.824497 0.448362 
vn -0.448368 0.824495 -0.345217 
vn -0.288628 0.949947 -0.119562 
vn -0.561146 0.824497 -0.0729417 
vn 0.288627 0.949949 0.119547 
vn 0.0729421 0.824498 0.561144 
vn 0.119556 0.94995 0.288619 
vn -0.148624 0.921504 0.358805 
vn -0.0729385 0.824497 0.561147 
vn -0.358809 0.921503 0.148621 
vn -0.448366 0.824496 0.345216 
vn -0.345214 0.824497 0.448367 
vn -0.561144 0.824498 0.0729431 
f 1/1/1 2/2/2 3/4/3 4/3/4 
f 5/5/5 6/6/6 2/7/2 1/1/1 
f 7/8/7 8/9/8 6/11/6 5/10/5 
f 9/12/9 10/13/10 11/14/11 
f 12/15/12 13/16/13 9/17/9 
f 14/18/14 15/19/15 12/20/12 
f 2/21/2 16/22/16 3/23/3 
f 6/24/6 17/25/17 2/26/2 
f 8/27/8 18/28/18 6/29/6 
f 11/30/11 19/31/19 8/32/8 
f 20/33/20 10/34/10 9/36/9 13/35/13 
f 21/37/21 14/38/14 3/39/3 
f 22/40/22 13/41/13 12/43/12 15/42/15 
f 3/44/3 16/45/16 23/47/23 21/46/21 
f 2/48/2 17/49/17 24/51/24 16/50/16 
f 25/52/25 24/53/24 17/60/17 28/59/28 27/58/27 
f 26/54/26 18/55/18 8/57/8 19/56/19 
f 28/61/28 17/62/17 6/64/6 18/63/18 
f 27/66/27 28/65/28 18/73/18 26/72/26 
f 25/67/25 27/68/27 24/69/24 
f 16/71/16 24/70/24 27/101/27 23/102/23 
f 27/74/27 26/75/26 19/80/19 29/81/29 
f 29/76/29 19/77/19 11/79/11 10/78/10 
f 27/82/27 29/83/29 10/85/10 20/84/20 
f 27/86/27 20/87/20 13/89/13 22/88/22 
f 30/90/30 15/91/15 14/93/14 21/92/21 
f 27/94/27 22/95/22 15/97/15 30/96/30 
f 27/98/27 31/99/31 23/100/23 
f 21/103/21 23/104/23 31/111/31 27/109/27 30/110/30 
f 4/105/4 3/106/3 14/108/14 32/107/32 
f 1/1/1 4/112/4 33/114/33 34/113/34 
f 35/115/35 11/116/11 8/118/8 7/117/7 
f 5/119/5 1/1/1 36/121/36 37/120/37 
f 38/122/38 9/123/9 11/125/11 35/124/35 
f 39/126/39 12/127/12 9/129/9 38/128/38 
f 32/130/32 14/131/14 12/133/12 39/132/39 
f 1/1/1 34/134/34 40/136/40 36/135/36 
f 7/137/7 5/138/5 41/140/41 42/139/42 
f 5/141/5 37/142/37 43/144/43 41/143/41 
f 4/145/4 45/146/45 44/160/44 33/159/33 
f 35/147/35 7/148/7 46/150/46 47/149/47 
f 4/151/4 32/152/32 48/154/48 45/153/45 
f 49/156/49 48/155/48 32/157/32 50/158/50 
f 34/161/34 33/162/33 44/164/44 40/163/40 
f 37/165/37 36/166/36 40/168/40 43/167/43 
f 7/169/7 42/170/42 51/172/51 46/171/46 
f 42/173/42 41/174/41 43/176/43 51/175/51 
f 53/178/53 52/177/52 35/179/35 47/180/47 
f 38/181/38 55/182/55 54/190/54 58/189/58 
f 38/183/38 35/184/35 52/186/52 55/185/55 
f 39/187/39 57/188/57 56/196/56 59/195/59 
f 39/191/39 38/192/38 58/194/58 57/193/57 
f 32/197/32 39/198/39 59/200/59 50/199/50 
f 45/201/45 48/202/48 49/204/49 44/203/44 
f 57/205/57 58/206/58 54/208/54 56/207/56 
f 50/209/50 59/210/59 56/212/56 49/211/49 
f 47/213/47 46/214/46 51/216/51 53/215/53 
f 55/217/55 52/218/52 53/220/53 54/219/54 
f 49/222/49 56/221/56 54/223/54 53/224/53 
f 49/225/49 53/226/53 51/227/51 44/228/44 
f 44/229/44 51/230/51 43/231/43 40/232/40 
