#Wavefront OBJ file created by Hexagon 2 
mtllib pack.mtl
g pack_dx_0
# 37 
v -0.174375 0.311819 -0.302026 
v -0.34875 0.311819 0 
v -0.34875 0.320471 0 
v -0.174375 0.320471 -0.302026 
v 0.174375 0.311819 -0.302026 
v 0.174375 0.320471 -0.302026 
v 0.172145 0.153916 0.099389 
v 0.34875 0.311819 0 
v 0.174375 0.311819 0.302027 
v 0 0.153916 0.198777 
v -0.174375 0.311819 0.302027 
v -0.172146 0.153916 -0.099388 
v 0 0.153916 -0.198776 
v 0 0 0 
v 0.172145 0.153916 -0.099388 
v -0.172146 0.153916 0.099389 
v -0.174375 0.320471 0.302027 
v -0.237165 0.376173 -0.075878 
v -0.184295 0.376173 -0.16745 
v 0.34875 0.320471 0 
v 0 0.400409 -0.217789 
v 0.174375 0.320471 0.302027 
v -0.188611 0.400409 0.108895 
v -0.108895 0.400409 -0.188611 
v -0.093925 0.467146 -0.054227 
v -0.21779 0.400408 0 
v 0.184295 0.376173 -0.16745 
v 0.237163 0.376173 -0.075879 
v 0.188611 0.400409 0.108895 
v 0.108895 0.400408 -0.188612 
v 0.093926 0.467146 -0.054228 
v 0.217791 0.400408 0 
v -0.108895 0.400408 0.188613 
v -0.05287 0.376172 0.24333 
v 0 0.467146 0.108457 
v 0.108896 0.400408 0.188614 
v 0.05287 0.376172 0.24333 
# 158 1 
vt 0 1 
vt 0 1 
vt 0 1 
vt 0 1 
vt 0 1 
vt 0 1 
vt 0 1 
vt 0 1 
vt 0 1 
vt 0 1 
vt 0 1 
vt 0 1 
vt 0 1 
vt 0 1 
vt 0 1 
vt 0 1 
vt 0 1 
vt 0 1 
vt 0 1 
vt 0 1 
vt 0 1 
vt 0 1 
vt 0 1 
vt 0 1 
vt 0 1 
vt 0 1 
vt 0 1 
vt 0 1 
vt 0 1 
vt 0 1 
vt 0 1 
vt 0 1 
vt 0 1 
vt 0 1 
vt 0 1 
vt 0 1 
vt 0 1 
vt 0 1 
vt 0 1 
vt 0 1 
vt 0 1 
vt 0 1 
vt 0 1 
vt 0 1 
vt 0 1 
vt 0 1 
vt 0 1 
vt 0 1 
vt 0 1 
vt 0 1 
vt 0 1 
vt 0 1 
vt 0 1 
vt 0 1 
vt 0 1 
vt 0 1 
vt 0 1 
vt 0 1 
vt 0 1 
vt 0 1 
vt 0 1 
vt 0 1 
vt 0 1 
vt 0 1 
vt 0 1 
vt 0 1 
vt 0 1 
vt 0 1 
vt 0 1 
vt 0 1 
vt 0 1 
vt 0 1 
vt 0 1 
vt 0 1 
vt 0 1 
vt 0 1 
vt 0 1 
vt 0 1 
vt 0 1 
vt 0 1 
vt 0 1 
vt 0 1 
vt 0 1 
vt 0 1 
vt 0 1 
vt 0 1 
vt 0 1 
vt 0 1 
vt 0 1 
vt 0 1 
vt 0 1 
vt 0 1 
vt 0 1 
vt 0 1 
vt 0 1 
vt 0 1 
vt 0 1 
vt 0 1 
vt 0 1 
vt 0 1 
vt 0 1 
vt 0 1 
vt 0 1 
vt 0 1 
vt 0 1 
vt 0 1 
vt 0 1 
vt 0 1 
vt 0 1 
vt 0 1 
vt 0 1 
vt 0 1 
vt 0 1 
vt 0 1 
vt 0 1 
vt 0 1 
vt 0 1 
vt 0 1 
vt 0 1 
vt 0 1 
vt 0 1 
vt 0 1 
vt 0 1 
vt 0 1 
vt 0 1 
vt 0 1 
vt 0 1 
vt 0 1 
vt 0 1 
vt 0 1 
vt 0 1 
vt 0 1 
vt 0 1 
vt 0 1 
vt 0 1 
vt 0 1 
vt 0 1 
vt 0 1 
vt 0 1 
vt 0 1 
vt 0 1 
vt 0 1 
vt 0 1 
vt 0 1 
vt 0 1 
vt 0 1 
vt 0 1 
vt 0 1 
vt 0 1 
vt 0 1 
vt 0 1 
vt 0 1 
vt 0 1 
vt 0 1 
vt 0 1 
vt 0 1 
vt 0 1 
vt 0 1 
# 37 
vn -0.451087 -0.43137 -0.781307 
vn -0.902175 -0.43137 -4.40169e-007 
vn -0.783142 0.621843 1.18871e-006 
vn -0.391571 0.621842 -0.678222 
vn 0.451087 -0.431371 -0.781306 
vn 0.39157 0.621843 -0.678222 
vn 0.60522 -0.715271 0.349423 
vn 0.902175 -0.431371 -4.54143e-007 
vn 0.451088 -0.431371 0.781306 
vn 5.22924e-007 -0.715271 0.698848 
vn -0.451088 -0.431371 0.781306 
vn -0.60522 -0.71527 -0.349425 
vn 5.22924e-007 -0.71527 -0.698848 
vn 6.5963e-007 -1 -3.59798e-007 
vn 0.60522 -0.715271 -0.349424 
vn -0.60522 -0.71527 0.349424 
vn -0.391571 0.621843 0.678221 
vn -0.535475 0.804943 -0.255602 
vn -0.489098 0.804942 -0.335935 
vn 0.783143 0.621842 -3.3036e-007 
vn 1.02621e-006 0.86614 -0.499802 
vn 0.391571 0.621842 0.678221 
vn -0.432842 0.86614 0.2499 
vn -0.212438 0.869598 -0.445724 
vn -0.295625 0.939933 -0.170678 
vn -0.492228 0.869597 0.0388862 
vn 0.489098 0.804942 -0.335934 
vn 0.535478 0.804941 -0.255605 
vn 0.432843 0.866139 0.2499 
vn 0.212439 0.869597 -0.445726 
vn 0.295626 0.939933 -0.170681 
vn 0.49223 0.869597 0.0388836 
vn -0.279788 0.869597 0.406842 
vn -0.0463767 0.804941 0.59154 
vn -7.51067e-007 0.939932 0.341361 
vn 0.27979 0.869596 0.406841 
vn 0.0463746 0.80494 0.591541 
f 1/1/1 2/2/2 3/4/3 4/3/4 
f 5/5/5 1/1/1 4/7/4 6/6/6 
f 7/8/7 8/9/8 9/10/9 
f 10/11/10 9/12/9 11/13/11 
f 12/14/12 2/15/2 1/1/1 
f 12/16/12 1/1/1 13/18/13 14/17/14 
f 13/19/13 1/1/1 5/20/5 
f 13/21/13 5/22/5 15/24/15 14/23/14 
f 15/25/15 5/26/5 8/27/8 
f 15/28/15 8/29/8 7/31/7 14/30/14 
f 11/32/11 2/33/2 16/34/16 
f 7/35/7 9/36/9 10/38/10 14/37/14 
f 2/39/2 12/40/12 14/42/14 16/41/16 
f 2/43/2 11/44/11 17/46/17 3/45/3 
f 10/47/10 11/48/11 16/50/16 14/49/14 
f 4/51/4 3/52/3 18/54/18 19/53/19 
f 8/55/8 5/56/5 6/58/6 20/57/20 
f 6/59/6 4/60/4 21/61/21 
f 9/62/9 8/63/8 20/65/20 22/64/22 
f 11/66/11 9/67/9 22/69/22 17/68/17 
f 23/70/23 3/71/3 17/72/17 
f 24/73/24 4/74/4 19/76/19 25/75/25 
f 26/77/26 3/78/3 23/79/23 
f 21/80/21 4/81/4 24/82/24 
f 20/83/20 6/84/6 27/86/27 28/85/28 
f 22/87/22 20/88/20 29/89/29 
f 30/90/30 6/91/6 21/92/21 
f 25/93/25 26/94/26 23/95/23 
f 21/96/21 25/126/25 31/125/31 
f 6/98/6 30/99/30 31/101/31 27/100/27 
f 29/102/29 20/103/20 32/104/32 
f 33/105/33 17/106/17 34/108/34 35/107/35 
f 36/109/36 22/110/22 29/111/29 
f 23/112/23 17/113/17 33/114/33 
f 23/115/23 35/118/35 25/117/25 
f 31/119/31 30/120/30 21/121/21 
f 29/122/29 32/123/32 31/124/31 
f 3/127/3 26/128/26 25/130/25 18/129/18 
f 35/131/35 36/132/36 29/154/29 
f 25/133/25 19/134/19 18/135/18 
f 32/136/32 20/137/20 28/139/28 31/138/31 
f 17/140/17 22/141/22 37/143/37 34/142/34 
f 28/144/28 27/145/27 31/146/31 
f 22/147/22 36/148/36 35/150/35 37/149/37 
f 35/151/35 34/152/34 37/153/37 
f 31/156/31 25/157/25 35/158/35 
f 23/115/23 33/116/33 35/118/35 
f 21/96/21 24/97/24 25/126/25 
f 35/131/35 29/154/29 31/155/31 
