#Wavefront OBJ file created by Hexagon 2 
mtllib pear.mtl
g pear_dxf_7
# 57 
v 0.196077 0.180926 -0.129429 
v 0.151448 0.180975 -0.272889 
v 0.151448 0.192454 -0.272889 
v 0.196078 0.192406 -0.129429 
v -0.161458 0.250728 -0.106262 
v -0.081816 0.282398 -0.178266 
v -0.070771 0.250413 -0.331692 
v -0.150118 0.192406 -0.272881 
v -0.150118 0.180927 -0.272881 
v -0.194926 0.180927 -0.129472 
v -0.194926 0.192406 -0.129472 
v -0.212298 0.181095 0.000687 
v -0.194926 0.180608 0.081019 
v -0.194926 0.192087 0.081019 
v -0.212298 0.192575 0.000687 
v -0.109026 0.282398 0.000687 
v -0.077093 0.282398 0.076716 
v -0.147039 0.250941 0.060656 
v 1e-006 0.282398 0.107934 
v -0.061871 0.250089 0.143529 
v 0.077095 0.282398 0.076716 
v 0.063214 0.250186 0.143553 
v 0.2123 0.181095 0.000687 
v 0.100757 0.081347 0.042293 
v 0 0 0 
v 0.108359 0.080381 -0.073628 
v 0.109029 0.282398 0.000687 
v 0.074734 0.282398 -0.178447 
v 1e-006 0.282398 -0.257399 
v 0.160159 0.250643 -0.106285 
v 0.147228 0.250986 0.060647 
v 0.2123 0.192575 0.000687 
v 0.151477 0.180556 0.146393 
v 0.196072 0.180607 0.080845 
v 0.196072 0.192086 0.080845 
v 0.151477 0.192036 0.146393 
v 0.0718 0.250411 -0.33182 
v 0.085976 0.180934 -0.387207 
v 1e-006 0.181095 -0.492481 
v 1e-006 0.192575 -0.492481 
v 0.085976 0.192414 -0.387207 
v -0.08309 0.180926 -0.387234 
v -0.08309 0.192406 -0.387233 
v -0.150118 0.192086 0.146651 
v -0.150118 0.180607 0.146651 
v -0.083126 0.180768 0.19122 
v 1e-006 0.18077 0.205018 
v 1e-006 0.19225 0.205019 
v -0.083126 0.192248 0.19122 
v 0.041755 0.079345 0.097975 
v 0.086036 0.180818 0.191179 
v 0.086036 0.192298 0.191179 
v -0.042079 0.079688 0.098271 
v -0.100174 0.081251 0.042311 
v -0.108018 0.08043 -0.073599 
v -0.04925 0.080447 -0.238616 
v 0.048243 0.080562 -0.238518 
# 259 1 
vt 0 1 
vt 0 1 
vt 0 1 
vt 0 1 
vt 0 1 
vt 0 1 
vt 0 1 
vt 0 1 
vt 0 1 
vt 0 1 
vt 0 1 
vt 0 1 
vt 0 1 
vt 0 1 
vt 0 1 
vt 0 1 
vt 0 1 
vt 0 1 
vt 0 1 
vt 0 1 
vt 0 1 
vt 0 1 
vt 0 1 
vt 0 1 
vt 0 1 
vt 0 1 
vt 0 1 
vt 0 1 
vt 0 1 
vt 0 1 
vt 0 1 
vt 0 1 
vt 0 1 
vt 0 1 
vt 0 1 
vt 0 1 
vt 0 1 
vt 0 1 
vt 0 1 
vt 0 1 
vt 0 1 
vt 0 1 
vt 0 1 
vt 0 1 
vt 0 1 
vt 0 1 
vt 0 1 
vt 0 1 
vt 0 1 
vt 0 1 
vt 0 1 
vt 0 1 
vt 0 1 
vt 0 1 
vt 0 1 
vt 0 1 
vt 0 1 
vt 0 1 
vt 0 1 
vt 0 1 
vt 0 1 
vt 0 1 
vt 0 1 
vt 0 1 
vt 0 1 
vt 0 1 
vt 0 1 
vt 0 1 
vt 0 1 
vt 0 1 
vt 0 1 
vt 0 1 
vt 0 1 
vt 0 1 
vt 0 1 
vt 0 1 
vt 0 1 
vt 0 1 
vt 0 1 
vt 0 1 
vt 0 1 
vt 0 1 
vt 0 1 
vt 0 1 
vt 0 1 
vt 0 1 
vt 0 1 
vt 0 1 
vt 0 1 
vt 0 1 
vt 0 1 
vt 0 1 
vt 0 1 
vt 0 1 
vt 0 1 
vt 0 1 
vt 0 1 
vt 0 1 
vt 0 1 
vt 0 1 
vt 0 1 
vt 0 1 
vt 0 1 
vt 0 1 
vt 0 1 
vt 0 1 
vt 0 1 
vt 0 1 
vt 0 1 
vt 0 1 
vt 0 1 
vt 0 1 
vt 0 1 
vt 0 1 
vt 0 1 
vt 0 1 
vt 0 1 
vt 0 1 
vt 0 1 
vt 0 1 
vt 0 1 
vt 0 1 
vt 0 1 
vt 0 1 
vt 0 1 
vt 0 1 
vt 0 1 
vt 0 1 
vt 0 1 
vt 0 1 
vt 0 1 
vt 0 1 
vt 0 1 
vt 0 1 
vt 0 1 
vt 0 1 
vt 0 1 
vt 0 1 
vt 0 1 
vt 0 1 
vt 0 1 
vt 0 1 
vt 0 1 
vt 0 1 
vt 0 1 
vt 0 1 
vt 0 1 
vt 0 1 
vt 0 1 
vt 0 1 
vt 0 1 
vt 0 1 
vt 0 1 
vt 0 1 
vt 0 1 
vt 0 1 
vt 0 1 
vt 0 1 
vt 0 1 
vt 0 1 
vt 0 1 
vt 0 1 
vt 0 1 
vt 0 1 
vt 0 1 
vt 0 1 
vt 0 1 
vt 0 1 
vt 0 1 
vt 0 1 
vt 0 1 
vt 0 1 
vt 0 1 
vt 0 1 
vt 0 1 
vt 0 1 
vt 0 1 
vt 0 1 
vt 0 1 
vt 0 1 
vt 0 1 
vt 0 1 
vt 0 1 
vt 0 1 
vt 0 1 
vt 0 1 
vt 0 1 
vt 0 1 
vt 0 1 
vt 0 1 
vt 0 1 
vt 0 1 
vt 0 1 
vt 0 1 
vt 0 1 
vt 0 1 
vt 0 1 
vt 0 1 
vt 0 1 
vt 0 1 
vt 0 1 
vt 0 1 
vt 0 1 
vt 0 1 
vt 0 1 
vt 0 1 
vt 0 1 
vt 0 1 
vt 0 1 
vt 0 1 
vt 0 1 
vt 0 1 
vt 0 1 
vt 0 1 
vt 0 1 
vt 0 1 
vt 0 1 
vt 0 1 
vt 0 1 
vt 0 1 
vt 0 1 
vt 0 1 
vt 0 1 
vt 0 1 
vt 0 1 
vt 0 1 
vt 0 1 
vt 0 1 
vt 0 1 
vt 0 1 
vt 0 1 
vt 0 1 
vt 0 1 
vt 0 1 
vt 0 1 
vt 0 1 
vt 0 1 
vt 0 1 
vt 0 1 
vt 0 1 
vt 0 1 
vt 0 1 
vt 0 1 
vt 0 1 
vt 0 1 
vt 0 1 
vt 0 1 
vt 0 1 
vt 0 1 
vt 0 1 
vt 0 1 
vt 0 1 
vt 0 1 
vt 0 1 
vt 0 1 
vt 0 1 
vt 0 1 
vt 0 1 
vt 0 1 
# 58 
vn 0.905941 -0.375815 -0.195023 
vn 0.803354 -0.488417 -0.340693 
vn 0.838977 0.407882 -0.360209 
vn 0.933548 0.296486 -0.201457 
vn -0.685928 0.716349 -0.12785 
vn -0.260465 0.959145 -0.110445 
vn -0.462687 0.805868 -0.369456 
vn -0.842433 0.393965 -0.367557 
vn -0.803961 -0.484865 -0.344316 
vn -0.905509 -0.374449 -0.199604 
vn -0.936498 0.283052 -0.207011 
vn -0.881376 -0.470833 0.0386344 
vn -0.845853 -0.391312 0.362502 
vn -0.85822 0.35563 0.370115 
vn -0.907414 0.418336 0.0399503 
vn -0.315612 0.948176 0.0367748 
vn -0.228274 0.944325 0.236944 
vn -0.597142 0.755891 0.268422 
vn -0.0006353 0.908095 0.418763 
vn -0.243354 0.752007 0.612589 
vn 0.227821 0.945005 0.234656 
vn 0.243703 0.754668 0.609167 
vn 0.881371 -0.47098 0.0369103 
vn 0.605886 -0.7502 0.264768 
vn -0.00133524 -0.989555 0.14415 
vn 0.660595 -0.741719 -0.116049 
vn 0.312465 0.949376 0.0324125 
vn 0.25363 0.961313 -0.107464 
vn 0.00193895 0.980315 -0.197431 
vn 0.67142 0.73037 -0.125521 
vn 0.596053 0.75863 0.263063 
vn 0.90461 0.424606 0.0372976 
vn 0.621218 -0.47855 0.620547 
vn 0.848028 -0.392723 0.355834 
vn 0.859629 0.359192 0.363343 
vn 0.630475 0.452162 0.630913 
vn 0.453935 0.814583 -0.361107 
vn 0.750546 -0.41415 -0.514937 
vn 0.774528 -1.17228e-007 -0.63254 
vn -0.254766 -0.787537 -0.561141 
vn -0.00853172 0.639457 -0.76878 
vn 0.782963 0.31358 -0.537248 
vn -0.754692 -0.406864 -0.514686 
vn -0.786849 0.30518 -0.536409 
vn -0.626692 0.449471 0.636579 
vn -0.618452 -0.47674 0.624689 
vn -0.337881 -0.385855 0.858459 
vn -0.00195541 -0.468411 0.883508 
vn -0.00212033 0.443545 0.89625 
vn -0.34233 0.360495 0.867671 
vn 0.248248 -0.746582 0.617243 
vn 0.340582 -0.388451 0.856218 
vn 0.345412 0.362811 0.865482 
vn -0.249096 -0.744597 0.619296 
vn -0.606398 -0.748792 0.267567 
vn -0.662728 -0.739657 -0.117041 
vn -0.436348 -0.833825 -0.338137 
vn 0.429137 -0.838616 -0.335506 
f 1/1/1 2/2/2 3/4/3 4/3/4 
f 5/5/5 6/6/6 7/8/7 8/7/8 
f 9/9/9 10/10/10 11/12/11 8/11/8 
f 12/13/12 13/14/13 14/16/14 15/15/15 
f 5/18/5 16/17/16 6/66/6 
f 18/20/18 17/19/17 16/75/16 
f 20/22/20 19/21/19 17/96/17 
f 22/24/22 21/23/21 19/105/19 
f 23/25/23 24/26/24 25/28/25 26/27/26 
f 17/29/17 19/30/19 21/31/21 
f 16/33/16 17/32/17 21/34/21 27/35/27 
f 16/36/16 27/37/27 28/38/28 6/39/6 
f 6/40/6 28/41/28 29/42/29 
f 28/43/28 27/44/27 30/126/30 
f 31/45/31 32/46/32 30/48/30 27/47/27 
f 33/49/33 34/50/34 35/52/35 36/51/36 
f 21/53/21 22/54/22 36/56/36 31/55/31 
f 27/57/27 21/58/21 31/118/31 
f 37/59/37 28/60/28 30/62/30 3/61/3 
f 23/63/23 1/1/1 4/65/4 32/64/32 
f 38/67/38 39/68/39 40/70/41 41/69/42 
f 2/71/2 38/72/38 41/74/42 3/73/3 
f 42/76/43 9/77/9 8/79/8 43/78/44 
f 39/80/40 42/81/43 43/83/44 40/82/41 
f 20/84/20 17/85/17 18/87/18 44/86/45 
f 10/88/10 12/89/12 15/91/15 11/90/11 
f 18/92/18 16/93/16 5/95/5 15/94/15 
f 44/97/45 14/98/14 13/100/13 45/99/46 
f 46/101/47 47/102/48 48/104/49 49/103/50 
f 22/106/22 19/107/19 20/109/20 48/108/49 
f 33/110/33 50/111/51 25/113/25 24/112/24 
f 34/114/34 23/115/23 32/117/32 35/116/35 
f 7/119/7 29/120/29 37/122/37 40/121/41 
f 37/123/37 29/124/29 28/125/28 
f 6/127/6 29/128/29 7/129/7 
f 45/130/46 46/131/47 49/133/50 44/132/45 
f 47/134/48 51/135/52 52/137/53 48/136/49 
f 51/138/52 33/139/33 36/141/36 52/140/53 
f 52/142/53 36/143/36 22/144/22 
f 48/145/49 52/146/53 22/147/22 
f 49/148/50 48/149/49 20/150/20 
f 44/151/45 49/152/50 20/153/20 
f 14/154/14 44/155/45 18/156/18 
f 15/157/15 14/158/14 18/159/18 
f 11/160/11 15/161/15 5/162/5 
f 8/163/8 11/164/11 5/165/5 
f 43/166/44 8/167/8 7/168/7 
f 40/169/41 43/170/44 7/171/7 
f 41/172/42 40/173/41 37/174/37 
f 3/175/3 41/176/42 37/177/37 
f 4/178/4 3/179/3 30/180/30 
f 32/181/32 4/182/4 30/183/30 
f 35/184/35 32/185/32 31/186/31 
f 36/187/36 35/188/35 31/189/31 
f 53/190/54 47/191/48 46/192/47 
f 25/193/25 53/194/54 45/196/46 54/195/55 
f 25/197/25 54/198/55 12/200/12 55/199/56 
f 55/201/56 9/202/9 56/204/57 25/203/25 
f 56/205/57 42/206/43 39/207/40 
f 57/208/58 2/209/2 26/211/26 25/210/25 
f 24/212/24 23/213/23 34/214/34 
f 50/215/51 33/216/33 51/217/52 
f 26/218/26 2/219/2 1/1/1 
f 26/220/26 1/1/1 23/221/23 
f 56/222/57 39/223/40 57/225/58 25/224/25 
f 57/226/58 38/227/38 2/228/2 
f 55/229/56 10/230/10 9/231/9 
f 57/232/58 39/233/40 38/234/38 
f 54/235/55 13/236/13 12/237/12 
f 56/238/57 9/239/9 42/240/43 
f 53/241/54 46/242/47 45/243/46 
f 55/244/56 12/245/12 10/246/10 
f 50/247/51 51/248/52 47/249/48 
f 54/250/55 45/251/46 13/252/13 
f 24/253/24 34/254/34 33/255/33 
f 25/256/25 50/257/51 47/259/48 53/258/54 
