#Wavefront OBJ file created by Hexagon 2 
mtllib pinwheel.mtl
g pinwheel_0
# 61 
v 0.302027 0.333496 -0.174375 
v 0.336712 0.306397 0 
v 0.336712 0.280901 0 
v 0.302027 0.325296 -0.174375 
v 0.168356 0.306397 -0.291601 
v 0.168356 0.280901 -0.291601 
v 1e-006 0.333496 -0.34875 
v 1e-006 0.325296 -0.34875 
v 0.302027 0.333496 0.174375 
v 0.302027 0.325297 0.174375 
v 0.168356 0.306397 0.291601 
v 0.168356 0.280901 0.291601 
v 0 0.280901 0.313765 
v 0 0.325296 0.34875 
v -0.271729 0.280901 0.156883 
v -0.168356 0.280901 0.291601 
v -0.302027 0.325297 0.174375 
v -0.336712 0.280901 0 
v -0.281559 0.225924 0.020909 
v -0.168356 0.306397 -0.291601 
v -0.168356 0.280901 -0.291601 
v 1e-006 0.280901 -0.313765 
v 0.271729 0.280901 -0.156883 
v 0.271729 0.280901 0.156883 
v -0.271728 0.280901 -0.156883 
v -0.302026 0.325297 -0.174375 
v -0.122672 0.225924 0.254292 
v -0.158887 0.225924 -0.233382 
v 0.122672 0.225925 -0.254292 
v 0.28156 0.225925 -0.020909 
v 0.158887 0.225924 0.233384 
v 0 0.108851 0.127672 
v -0.110565 0.108848 0.063835 
v -0.073448 0.056376 0.01461 
v 0 0.108851 -0.127672 
v 0.024072 0.056378 -0.070914 
v 0.110568 0.108852 0.063836 
v 0.110569 0.108853 -0.063837 
v 0 0 0 
v 0.073449 0.056378 -0.01461 
v 0.049377 0.056378 0.056304 
v -0.024072 0.056377 0.070913 
v -0.110565 0.108849 -0.063835 
v -0.049377 0.056377 -0.056303 
v -0.302026 0.333496 -0.174375 
v 0.016389 0.393876 -0.25005 
v 0.224743 0.393877 -0.110831 
v 0 0.333496 0.34875 
v -0.168356 0.306397 0.291601 
v -0.302027 0.333496 0.174375 
v -0.336712 0.306397 0 
v -0.208353 0.393878 -0.139217 
v 0.20835 0.393879 0.139216 
v 0.172936 0.417782 -0.099845 
v 0.172935 0.417782 0.099845 
v -0.016389 0.39388 0.250043 
v -0.224741 0.393878 0.11083 
v 0 0.417782 -0.19969 
v 0 0.417782 0.199689 
v -0.172936 0.417782 -0.099845 
v -0.172936 0.417782 0.099845 
# 240 1 
vt 0 1 
vt 0 1 
vt 0 1 
vt 0 1 
vt 0 1 
vt 0 1 
vt 0 1 
vt 0 1 
vt 0 1 
vt 0 1 
vt 0 1 
vt 0 1 
vt 0 1 
vt 0 1 
vt 0 1 
vt 0 1 
vt 0 1 
vt 0 1 
vt 0 1 
vt 0 1 
vt 0 1 
vt 0 1 
vt 0 1 
vt 0 1 
vt 0 1 
vt 0 1 
vt 0 1 
vt 0 1 
vt 0 1 
vt 0 1 
vt 0 1 
vt 0 1 
vt 0 1 
vt 0 1 
vt 0 1 
vt 0 1 
vt 0 1 
vt 0 1 
vt 0 1 
vt 0 1 
vt 0 1 
vt 0 1 
vt 0 1 
vt 0 1 
vt 0 1 
vt 0 1 
vt 0 1 
vt 0 1 
vt 0 1 
vt 0 1 
vt 0 1 
vt 0 1 
vt 0 1 
vt 0 1 
vt 0 1 
vt 0 1 
vt 0 1 
vt 0 1 
vt 0 1 
vt 0 1 
vt 0 1 
vt 0 1 
vt 0 1 
vt 0 1 
vt 0 1 
vt 0 1 
vt 0 1 
vt 0 1 
vt 0 1 
vt 0 1 
vt 0 1 
vt 0 1 
vt 0 1 
vt 0 1 
vt 0 1 
vt 0 1 
vt 0 1 
vt 0 1 
vt 0 1 
vt 0 1 
vt 0 1 
vt 0 1 
vt 0 1 
vt 0 1 
vt 0 1 
vt 0 1 
vt 0 1 
vt 0 1 
vt 0 1 
vt 0 1 
vt 0 1 
vt 0 1 
vt 0 1 
vt 0 1 
vt 0 1 
vt 0 1 
vt 0 1 
vt 0 1 
vt 0 1 
vt 0 1 
vt 0 1 
vt 0 1 
vt 0 1 
vt 0 1 
vt 0 1 
vt 0 1 
vt 0 1 
vt 0 1 
vt 0 1 
vt 0 1 
vt 0 1 
vt 0 1 
vt 0 1 
vt 0 1 
vt 0 1 
vt 0 1 
vt 0 1 
vt 0 1 
vt 0 1 
vt 0 1 
vt 0 1 
vt 0 1 
vt 0 1 
vt 0 1 
vt 0 1 
vt 0 1 
vt 0 1 
vt 0 1 
vt 0 1 
vt 0 1 
vt 0 1 
vt 0 1 
vt 0 1 
vt 0 1 
vt 0 1 
vt 0 1 
vt 0 1 
vt 0 1 
vt 0 1 
vt 0 1 
vt 0 1 
vt 0 1 
vt 0 1 
vt 0 1 
vt 0 1 
vt 0 1 
vt 0 1 
vt 0 1 
vt 0 1 
vt 0 1 
vt 0 1 
vt 0 1 
vt 0 1 
vt 0 1 
vt 0 1 
vt 0 1 
vt 0 1 
vt 0 1 
vt 0 1 
vt 0 1 
vt 0 1 
vt 0 1 
vt 0 1 
vt 0 1 
vt 0 1 
vt 0 1 
vt 0 1 
vt 0 1 
vt 0 1 
vt 0 1 
vt 0 1 
vt 0 1 
vt 0 1 
vt 0 1 
vt 0 1 
vt 0 1 
vt 0 1 
vt 0 1 
vt 0 1 
vt 0 1 
vt 0 1 
vt 0 1 
vt 0 1 
vt 0 1 
vt 0 1 
vt 0 1 
vt 0 1 
vt 0 1 
vt 0 1 
vt 0 1 
vt 0 1 
vt 0 1 
vt 0 1 
vt 0 1 
vt 0 1 
vt 0 1 
vt 0 1 
vt 0 1 
vt 0 1 
vt 0 1 
vt 0 1 
vt 0 1 
vt 0 1 
vt 0 1 
vt 0 1 
vt 0 1 
vt 0 1 
vt 0 1 
vt 0 1 
vt 0 1 
vt 0 1 
vt 0 1 
vt 0 1 
vt 0 1 
vt 0 1 
vt 0 1 
vt 0 1 
vt 0 1 
vt 0 1 
vt 0 1 
vt 0 1 
vt 0 1 
vt 0 1 
vt 0 1 
vt 0 1 
vt 0 1 
vt 0 1 
vt 0 1 
vt 0 1 
vt 0 1 
vt 0 1 
vt 0 1 
vt 0 1 
vt 0 1 
vt 0 1 
vt 0 1 
vt 0 1 
vt 0 1 
vt 0 1 
vt 0 1 
# 73 
vn 0.866026 2.70807e-007 -0.5 
vn 0.423206 0.840289 -0.338838 
vn 1 3.62158e-007 -7.59654e-009 
vn 0.615663 0.78801 2.40475e-008 
vn 0.89829 -0.435568 0.0579202 
vn 0.815804 -0.335588 -0.471004 
vn 0.5 9.00318e-008 -0.866026 
vn 0.307831 0.78801 -0.533179 
vn 0.499304 -0.435571 -0.748982 
vn 1.63657e-006 4.24358e-008 -1 
vn -0.0818386 0.840289 -0.535927 
vn 1.21226e-006 -0.335589 -0.942008 
vn 0.866026 2.70815e-007 0.5 
vn 0.505042 0.840291 0.197088 
vn 0.815805 -0.335583 0.471005 
vn 0.499999 6.12448e-008 0.866026 
vn 0.307829 0.788012 0.533177 
vn 0.398983 -0.435569 0.806903 
vn 0.0223862 -0.678629 0.73414 
vn -1.13713e-007 -0.335588 0.942009 
vn -0.624592 -0.678627 0.386459 
vn -0.499305 -0.435567 0.748983 
vn -0.815805 -0.335584 0.471005 
vn -0.89829 -0.435568 -0.0579228 
vn -0.670459 -0.740632 0.0441516 
vn -0.5 1.28298e-007 -0.866026 
vn -0.307831 0.788009 -0.533181 
vn -0.398985 -0.435571 -0.806901 
vn -0.0223859 -0.678631 -0.734138 
vn 0.624589 -0.678631 -0.386457 
vn 0.646979 -0.678627 0.347683 
vn -0.646978 -0.678627 -0.347684 
vn -0.815804 -0.335585 -0.471005 
vn -0.296988 -0.740633 0.602712 
vn -0.373469 -0.740633 -0.558556 
vn 0.29699 -0.740634 -0.60271 
vn 0.670457 -0.740634 -0.0441535 
vn 0.373467 -0.740632 0.558557 
vn 0.0724364 -0.741312 0.66724 
vn -0.541627 -0.741313 0.396353 
vn -0.592809 -0.781285 0.195373 
vn -0.0724369 -0.741313 -0.667239 
vn 0.127207 -0.781284 -0.611075 
vn 0.614065 -0.741313 0.270886 
vn 0.541627 -0.741313 -0.396352 
vn 1.10568e-006 -1 -8.02932e-007 
vn 0.59281 -0.781285 -0.195373 
vn 0.465603 -0.781286 0.4157 
vn -0.127203 -0.781285 0.611075 
vn -0.614065 -0.741312 -0.27089 
vn -0.465604 -0.781284 -0.415703 
vn -0.866025 2.76507e-007 -0.500001 
vn -0.505044 0.840289 -0.197089 
vn 0.1486 0.871384 -0.467554 
vn 0.479209 0.871387 -0.105085 
vn 1.57363e-008 -3.96491e-008 1 
vn 0.0818386 0.84029 0.535924 
vn -0.499999 6.12448e-008 0.866026 
vn -0.307829 0.788012 0.533177 
vn -0.866026 2.70815e-007 0.5 
vn -0.423204 0.840291 0.338836 
vn -1 3.51068e-007 -2.74235e-006 
vn -0.615659 0.788013 -1.76307e-006 
vn -0.330612 0.871387 -0.362466 
vn 0.330609 0.871388 0.362464 
vn 0.239453 0.948196 -0.208776 
vn 0.240761 0.967071 0.0825032 
vn -0.148597 0.871388 0.467548 
vn -0.47921 0.871387 0.105085 
vn -0.0489295 0.967071 -0.249761 
vn 0.0489319 0.967072 0.249755 
vn -0.240763 0.967071 -0.0825022 
vn -0.239449 0.948198 0.208771 
f 1/1/1 2/2/3 3/4/5 4/3/6 
f 5/5/7 1/1/1 4/7/6 6/6/9 
f 7/8/10 5/9/7 6/11/9 8/10/12 
f 2/12/3 9/13/13 10/15/15 3/14/5 
f 9/16/13 11/17/16 12/19/18 10/18/15 
f 13/20/19 12/21/18 14/22/20 
f 15/23/21 16/24/22 17/25/23 
f 18/26/24 19/27/25 15/29/21 17/28/23 
f 20/30/26 7/31/10 8/33/12 21/32/28 
f 22/34/29 21/35/28 8/36/12 
f 23/37/30 6/38/9 4/39/6 
f 24/40/31 3/41/5 10/42/15 
f 25/43/32 18/44/24 26/45/33 
f 16/46/22 27/47/34 13/49/19 14/48/20 
f 21/50/28 28/51/35 25/53/32 26/52/33 
f 6/54/9 29/55/36 22/57/29 8/56/12 
f 3/58/5 30/59/37 23/61/30 4/60/6 
f 12/62/18 31/63/38 24/65/31 10/64/15 
f 32/66/39 31/67/38 12/69/18 13/68/19 
f 33/70/40 27/71/34 16/73/22 15/72/21 
f 19/74/25 34/75/41 33/77/40 15/76/21 
f 35/78/42 28/79/35 21/81/28 22/80/29 
f 29/82/36 36/83/43 35/85/42 22/84/29 
f 37/86/44 30/87/37 3/89/5 24/88/31 
f 38/90/45 29/91/36 6/93/9 23/92/30 
f 38/96/45 40/95/47 39/94/46 36/97/43 29/98/36 
f 30/99/37 40/100/47 38/102/45 23/101/30 
f 37/104/44 41/103/48 39/105/46 40/106/47 30/107/37 
f 31/108/38 41/109/48 37/111/44 24/110/31 
f 27/112/34 42/113/49 32/115/39 13/114/19 
f 32/116/39 42/117/49 39/118/46 41/119/48 31/120/38 
f 43/121/50 19/122/25 18/124/24 25/123/32 
f 42/127/49 27/125/34 33/126/40 34/128/41 39/129/46 
f 44/130/51 43/131/50 25/133/32 28/132/35 
f 39/135/46 44/134/51 28/137/35 35/138/42 36/136/43 
f 45/139/52 20/140/26 21/142/28 26/141/33 
f 34/143/41 19/144/25 43/145/50 44/146/51 39/147/46 
f 1/1/2 5/148/8 7/150/11 46/149/54 
f 9/151/14 2/152/4 1/1/2 47/153/55 
f 11/154/16 48/155/56 14/157/20 12/156/18 
f 49/158/58 50/159/60 17/161/23 16/160/22 
f 48/162/56 49/163/58 16/165/22 14/164/20 
f 51/166/62 45/167/52 26/169/33 18/168/24 
f 50/170/60 51/171/62 18/173/24 17/172/23 
f 52/174/64 7/175/11 20/177/27 45/176/53 
f 48/178/57 11/179/17 9/181/14 53/180/65 
f 1/1/2 46/182/54 54/184/66 47/183/55 
f 9/185/14 47/186/55 55/188/67 53/187/65 
f 50/189/61 49/190/59 48/192/57 56/191/68 
f 45/193/53 51/194/63 50/196/61 57/195/69 
f 7/197/11 52/198/64 58/200/70 46/199/54 
f 54/201/66 46/202/54 58/203/70 
f 55/204/67 47/205/55 54/206/66 
f 48/207/57 53/208/65 59/210/71 56/209/68 
f 52/211/64 45/212/53 57/214/69 60/213/72 
f 50/215/61 56/216/68 61/218/73 57/217/69 
f 58/219/70 52/220/64 60/221/72 
f 61/222/73 56/223/68 59/224/71 
f 60/225/72 57/226/69 61/227/73 
f 59/228/71 53/229/65 55/230/67 
f 60/231/72 61/232/73 59/233/71 
f 60/234/72 59/235/71 55/236/67 58/237/70 
f 58/238/70 55/239/67 54/240/66 
