#Wavefront OBJ file created by Hexagon 2 
mtllib princess.mtl
g princess_0
# 39 
v 0 0.308968 -0.34875 
v 0.34875 0.308968 0 
v 0.34875 0.303162 0 
v 0 0.303162 -0.34875 
v 0 0.303162 0.34875 
v -0.34875 0.303162 0 
v -0.060953 0.060365 0.060957 
v 0.060953 0.060365 -0.060957 
v 0.060957 0.060365 0.060953 
v 0.042534 0.039472 0.042531 
v -0.042529 0.039469 0.042531 
v -0.060953 0.060365 -0.060957 
v -0.042536 0.039477 -0.042539 
v 0.042536 0.039477 -0.042539 
v 0.022285 0.019372 0.022283 
v -0.022284 0.019372 0.022285 
v -0.022283 0.019372 -0.022285 
v 0.022283 0.019372 -0.022285 
v 0 0 0 
v -0.34875 0.308968 0 
v 0 0.308968 0.34875 
v 0.25494 0.374654 -0.016028 
v 0.016028 0.374654 -0.25494 
v -0.016028 0.374654 -0.25494 
v -0.25494 0.374654 -0.016028 
v 0.25494 0.374654 0.016028 
v 0.107187 0.401749 -0.109056 
v 0.109057 0.401749 -0.107186 
v 0.016028 0.374654 0.25494 
v -0.25494 0.374654 0.016029 
v -0.016028 0.374654 0.25494 
v -0.108121 0.40175 -0.108121 
v 0 0.401749 -0.180676 
v -0.109056 0.40175 0.107187 
v -0.107188 0.40175 0.109055 
v 0 0.40175 0.180676 
v -0.180676 0.40175 0 
v 0.108121 0.40175 0.108121 
v 0.180677 0.401749 0 
# 166 1 
vt 0 1 
vt 0 1 
vt 0 1 
vt 0 1 
vt 0 1 
vt 0 1 
vt 0 1 
vt 0 1 
vt 0 1 
vt 0 1 
vt 0 1 
vt 0 1 
vt 0 1 
vt 0 1 
vt 0 1 
vt 0 1 
vt 0 1 
vt 0 1 
vt 0 1 
vt 0 1 
vt 0 1 
vt 0 1 
vt 0 1 
vt 0 1 
vt 0 1 
vt 0 1 
vt 0 1 
vt 0 1 
vt 0 1 
vt 0 1 
vt 0 1 
vt 0 1 
vt 0 1 
vt 0 1 
vt 0 1 
vt 0 1 
vt 0 1 
vt 0 1 
vt 0 1 
vt 0 1 
vt 0 1 
vt 0 1 
vt 0 1 
vt 0 1 
vt 0 1 
vt 0 1 
vt 0 1 
vt 0 1 
vt 0 1 
vt 0 1 
vt 0 1 
vt 0 1 
vt 0 1 
vt 0 1 
vt 0 1 
vt 0 1 
vt 0 1 
vt 0 1 
vt 0 1 
vt 0 1 
vt 0 1 
vt 0 1 
vt 0 1 
vt 0 1 
vt 0 1 
vt 0 1 
vt 0 1 
vt 0 1 
vt 0 1 
vt 0 1 
vt 0 1 
vt 0 1 
vt 0 1 
vt 0 1 
vt 0 1 
vt 0 1 
vt 0 1 
vt 0 1 
vt 0 1 
vt 0 1 
vt 0 1 
vt 0 1 
vt 0 1 
vt 0 1 
vt 0 1 
vt 0 1 
vt 0 1 
vt 0 1 
vt 0 1 
vt 0 1 
vt 0 1 
vt 0 1 
vt 0 1 
vt 0 1 
vt 0 1 
vt 0 1 
vt 0 1 
vt 0 1 
vt 0 1 
vt 0 1 
vt 0 1 
vt 0 1 
vt 0 1 
vt 0 1 
vt 0 1 
vt 0 1 
vt 0 1 
vt 0 1 
vt 0 1 
vt 0 1 
vt 0 1 
vt 0 1 
vt 0 1 
vt 0 1 
vt 0 1 
vt 0 1 
vt 0 1 
vt 0 1 
vt 0 1 
vt 0 1 
vt 0 1 
vt 0 1 
vt 0 1 
vt 0 1 
vt 0 1 
vt 0 1 
vt 0 1 
vt 0 1 
vt 0 1 
vt 0 1 
vt 0 1 
vt 0 1 
vt 0 1 
vt 0 1 
vt 0 1 
vt 0 1 
vt 0 1 
vt 0 1 
vt 0 1 
vt 0 1 
vt 0 1 
vt 0 1 
vt 0 1 
vt 0 1 
vt 0 1 
vt 0 1 
vt 0 1 
vt 0 1 
vt 0 1 
vt 0 1 
vt 0 1 
vt 0 1 
vt 0 1 
vt 0 1 
vt 0 1 
vt 0 1 
vt 0 1 
vt 0 1 
vt 0 1 
vt 0 1 
vt 0 1 
vt 0 1 
vt 0 1 
vt 0 1 
vt 0 1 
vt 0 1 
# 42 
vn -1.35002e-007 0.564899 -0.82516 
vn 0.82516 0.564899 1.60098e-008 
vn 0.80688 -0.590716 -1.01037e-005 
vn 1.15893e-007 -0.590716 -0.80688 
vn 9.6507e-006 -0.590716 0.80688 
vn -0.80688 -0.590715 -1.89643e-007 
vn -0.488741 -0.722668 0.488756 
vn 0.488741 -0.722671 -0.488752 
vn 0.488752 -0.722671 0.488741 
vn 0.424115 -0.800167 0.424098 
vn -0.424099 -0.800163 0.424121 
vn -0.488741 -0.722671 -0.488752 
vn -0.424098 -0.800167 -0.424115 
vn 0.424098 -0.800167 -0.424115 
vn 0.398251 -0.826325 0.398226 
vn -0.398228 -0.826327 0.398244 
vn -0.398233 -0.826323 -0.398246 
vn 0.398233 -0.826322 -0.398249 
vn 0.656057 -0.754712 -2.95152e-005 
vn 2.93677e-005 -0.754711 0.656057 
vn 1.28941e-007 -0.754712 -0.656057 
vn -0.656057 -0.754711 -1.45429e-005 
vn -0.825161 0.564898 4.83021e-007 
vn -1.05145e-007 0.564898 0.825161 
vn 0.448438 0.861583 -0.237863 
vn 0.237862 0.861584 -0.448436 
vn -0.238012 0.861563 -0.448397 
vn -0.448401 0.86156 -0.238015 
vn 0.448399 0.861562 0.238013 
vn 0.208101 0.947669 -0.24211 
vn 0.242111 0.947669 -0.208102 
vn 0.238015 0.86156 0.448401 
vn -0.448442 0.86158 0.237865 
vn -0.237865 0.86158 0.448442 
vn -0.185863 0.964836 -0.185867 
vn -0.000146035 0.981486 -0.191532 
vn -0.242115 0.947667 0.208106 
vn -0.208106 0.947666 0.242116 
vn 0.00014842 0.981486 0.191537 
vn -0.191536 0.981486 -0.000149014 
vn 0.185867 0.964836 0.185864 
vn 0.191534 0.981486 0.000146173 
f 1/1/1 2/2/2 3/4/3 4/3/4 
f 5/5/5 6/6/6 7/7/7 
f 4/8/4 3/9/3 8/10/8 
f 3/11/3 5/12/5 9/13/9 
f 3/15/3 9/14/9 10/29/10 15/30/15 
f 5/17/5 7/16/7 11/33/11 16/34/16 
f 4/18/4 12/19/12 6/20/6 
f 11/22/11 7/21/7 6/37/6 16/38/16 
f 13/24/13 12/23/12 4/39/4 17/40/17 
f 4/26/4 8/25/8 14/41/14 18/42/18 
f 14/28/14 8/27/8 3/43/3 18/44/18 
f 10/32/10 9/31/9 5/45/5 15/46/15 
f 6/36/6 12/35/12 13/51/13 17/52/17 
f 15/47/15 19/48/19 18/50/18 3/49/3 
f 16/53/16 19/54/20 15/56/15 5/55/5 
f 19/57/21 17/58/17 4/60/4 18/59/18 
f 20/61/23 1/1/1 4/63/4 6/62/6 
f 19/64/22 16/65/16 6/67/6 17/66/17 
f 2/68/2 21/69/24 5/71/5 3/70/3 
f 22/72/25 2/73/2 1/1/1 23/74/26 
f 21/75/24 20/76/23 6/78/6 5/77/5 
f 24/79/27 1/1/1 20/81/23 25/80/28 
f 23/82/26 1/1/1 24/83/27 
f 26/84/29 2/85/2 22/86/25 
f 23/87/26 27/88/30 28/90/31 22/89/25 
f 29/91/32 21/92/24 2/94/2 26/93/29 
f 30/95/33 20/96/23 21/98/24 31/97/34 
f 32/99/35 24/100/27 25/101/28 
f 33/102/36 27/103/30 23/104/26 
f 34/105/37 35/106/38 36/107/39 37/108/40 
f 37/109/40 36/110/39 38/111/41 32/112/35 
f 33/114/36 32/113/35 38/115/41 39/116/42 
f 33/117/36 39/118/42 28/119/31 27/120/30 
f 22/121/25 28/122/31 39/123/42 
f 26/124/29 38/125/41 29/126/32 
f 29/127/32 38/128/41 36/129/39 
f 31/130/34 35/131/38 34/133/37 30/132/33 
f 37/134/40 32/135/35 25/136/28 
f 24/137/27 32/138/35 33/139/36 
f 33/140/36 23/141/26 24/142/27 
f 39/143/42 38/144/41 26/145/29 
f 36/146/39 35/147/38 31/148/34 
f 26/149/29 22/150/25 39/151/42 
f 31/152/34 21/153/24 29/154/32 
f 25/155/28 20/156/23 30/157/33 
f 29/158/32 36/159/39 31/160/34 
f 30/161/33 34/162/37 37/163/40 
f 37/164/40 25/165/28 30/166/33 
