#Wavefront OBJ file created by Hexagon 2 
mtllib rosehart.mtl
g rosehart_0
# 44 
v -0.246419 0.41933 -0.025502 
v -0.249034 0.332158 -0.159291 
v -0.319223 0.332158 -0.031912 
v -0.003374 0.332158 -0.35231 
v -0.134978 0.332158 -0.264574 
v -0.046928 0.456833 -0.159169 
v 0.045521 0.456606 -0.159184 
v 0.25106 0.332158 -0.159291 
v 0.132617 0.332158 -0.264053 
v -0.232873 0.419557 0.174265 
v -0.058998 0.456518 0.193992 
v -0.18666 0.4567 0.08895 
v 0.132617 0.315171 -0.264053 
v 0.075651 0.080426 -0.047303 
v 0 0 0 
v -0.165685 0.332158 0.31887 
v -0.349931 0.332158 0.090756 
v -0.301676 0.332158 0.226747 
v 0.057597 0.456722 0.193787 
v 0.163324 0.332158 0.31887 
v 0.234437 0.419557 0.17424 
v 0.303701 0.332158 0.226358 
v 0.347569 0.332158 0.090756 
v 0.303701 0.315171 0.226358 
v 0.347569 0.315171 0.090756 
v 0.163324 0.315171 0.31887 
v -0.165685 0.315171 0.31887 
v -0.301676 0.315171 0.226747 
v -0.349931 0.315171 0.090756 
v -0.319223 0.315171 -0.031912 
v -0.249034 0.315171 -0.159291 
v -0.134978 0.315171 -0.264574 
v -0.003374 0.315171 -0.35231 
v 0.25106 0.315171 -0.159291 
v 0.325635 0.332158 -0.032074 
v 0.325635 0.315171 -0.032074 
v 0.104732 0.080426 0.028043 
v 0.068626 0.080426 0.10325 
v -0.073651 0.080426 0.101094 
v 0.178745 0.456597 0.088776 
v -0.105443 0.080426 0.028043 
v -0.07504 0.080426 -0.047303 
v -0.001016 0.080426 -0.105464 
v 0.251369 0.419557 -0.025527 
# 184 1 
vt 0 1 
vt 0 1 
vt 0 1 
vt 0 1 
vt 0 1 
vt 0 1 
vt 0 1 
vt 0 1 
vt 0 1 
vt 0 1 
vt 0 1 
vt 0 1 
vt 0 1 
vt 0 1 
vt 0 1 
vt 0 1 
vt 0 1 
vt 0 1 
vt 0 1 
vt 0 1 
vt 0 1 
vt 0 1 
vt 0 1 
vt 0 1 
vt 0 1 
vt 0 1 
vt 0 1 
vt 0 1 
vt 0 1 
vt 0 1 
vt 0 1 
vt 0 1 
vt 0 1 
vt 0 1 
vt 0 1 
vt 0 1 
vt 0 1 
vt 0 1 
vt 0 1 
vt 0 1 
vt 0 1 
vt 0 1 
vt 0 1 
vt 0 1 
vt 0 1 
vt 0 1 
vt 0 1 
vt 0 1 
vt 0 1 
vt 0 1 
vt 0 1 
vt 0 1 
vt 0 1 
vt 0 1 
vt 0 1 
vt 0 1 
vt 0 1 
vt 0 1 
vt 0 1 
vt 0 1 
vt 0 1 
vt 0 1 
vt 0 1 
vt 0 1 
vt 0 1 
vt 0 1 
vt 0 1 
vt 0 1 
vt 0 1 
vt 0 1 
vt 0 1 
vt 0 1 
vt 0 1 
vt 0 1 
vt 0 1 
vt 0 1 
vt 0 1 
vt 0 1 
vt 0 1 
vt 0 1 
vt 0 1 
vt 0 1 
vt 0 1 
vt 0 1 
vt 0 1 
vt 0 1 
vt 0 1 
vt 0 1 
vt 0 1 
vt 0 1 
vt 0 1 
vt 0 1 
vt 0 1 
vt 0 1 
vt 0 1 
vt 0 1 
vt 0 1 
vt 0 1 
vt 0 1 
vt 0 1 
vt 0 1 
vt 0 1 
vt 0 1 
vt 0 1 
vt 0 1 
vt 0 1 
vt 0 1 
vt 0 1 
vt 0 1 
vt 0 1 
vt 0 1 
vt 0 1 
vt 0 1 
vt 0 1 
vt 0 1 
vt 0 1 
vt 0 1 
vt 0 1 
vt 0 1 
vt 0 1 
vt 0 1 
vt 0 1 
vt 0 1 
vt 0 1 
vt 0 1 
vt 0 1 
vt 0 1 
vt 0 1 
vt 0 1 
vt 0 1 
vt 0 1 
vt 0 1 
vt 0 1 
vt 0 1 
vt 0 1 
vt 0 1 
vt 0 1 
vt 0 1 
vt 0 1 
vt 0 1 
vt 0 1 
vt 0 1 
vt 0 1 
vt 0 1 
vt 0 1 
vt 0 1 
vt 0 1 
vt 0 1 
vt 0 1 
vt 0 1 
vt 0 1 
vt 0 1 
vt 0 1 
vt 0 1 
vt 0 1 
vt 0 1 
vt 0 1 
vt 0 1 
vt 0 1 
vt 0 1 
vt 0 1 
vt 0 1 
vt 0 1 
vt 0 1 
vt 0 1 
vt 0 1 
vt 0 1 
vt 0 1 
vt 0 1 
vt 0 1 
vt 0 1 
vt 0 1 
vt 0 1 
vt 0 1 
vt 0 1 
vt 0 1 
vt 0 1 
vt 0 1 
vt 0 1 
vt 0 1 
vt 0 1 
vt 0 1 
vt 0 1 
vt 0 1 
# 44 
vn -0.580943 0.776346 -0.244526 
vn -0.736651 0.368028 -0.567363 
vn -0.877427 0.332594 -0.345692 
vn -0.0034283 0.569476 -0.822001 
vn -0.566573 0.406657 -0.716676 
vn -0.19694 0.930583 -0.308593 
vn 0.191588 0.931661 -0.308709 
vn 0.722751 0.368027 -0.584968 
vn 0.554841 0.405292 -0.726561 
vn -0.453131 0.812691 0.36634 
vn -0.0977968 0.937988 0.332587 
vn -0.29147 0.955647 0.0422376 
vn 0.547973 -0.424226 -0.720942 
vn 0.571496 -0.683836 -0.453608 
vn -0.00719545 -0.994613 -0.103404 
vn -0.268775 0.486299 0.831428 
vn -0.880546 0.472104 0.0419038 
vn -0.730022 0.385069 0.564614 
vn 0.0965937 0.939507 0.328628 
vn 0.26369 0.484775 0.833943 
vn 0.449711 0.816243 0.36264 
vn 0.734007 0.386095 0.558717 
vn 0.879167 0.472674 0.0603721 
vn 0.707066 -0.496456 0.503576 
vn 0.915955 -0.396739 0.0602101 
vn 0.262267 -0.386185 0.884351 
vn -0.269553 -0.386508 0.882016 
vn -0.708092 -0.493974 0.504574 
vn -0.916301 -0.398459 0.0402836 
vn -0.834527 -0.441059 -0.3302 
vn -0.736166 -0.353398 -0.577208 
vn -0.559784 -0.425118 -0.711278 
vn -0.00537327 -0.411206 -0.911527 
vn 0.721909 -0.354001 -0.594584 
vn 0.882348 0.338374 -0.327055 
vn 0.837285 -0.448575 -0.312626 
vn 0.667663 -0.74393 0.0281968 
vn 0.252782 -0.770321 0.585412 
vn -0.265649 -0.770269 0.579756 
vn 0.280756 0.958792 0.0435211 
vn -0.671862 -0.740589 0.011354 
vn -0.580153 -0.680641 -0.447382 
vn -0.00448076 -0.741999 -0.670386 
vn 0.57243 0.78571 -0.234488 
f 1/1/1 2/2/2 3/3/3 
f 4/4/4 5/5/5 6/6/6 
f 8/7/8 9/8/9 7/153/7 44/154/44 
f 6/10/6 5/9/5 2/158/2 1/1/1 
f 7/11/7 9/12/9 4/13/4 
f 10/14/10 11/15/11 12/16/12 
f 13/17/13 14/18/14 15/126/15 43/127/43 
f 4/19/4 6/20/6 7/21/7 
f 11/22/11 10/23/10 16/24/16 
f 10/25/10 17/26/17 18/27/18 
f 18/28/18 16/29/16 10/30/10 
f 19/31/19 20/32/20 21/33/21 
f 21/34/21 22/35/22 23/36/23 
f 23/37/23 22/38/22 24/40/24 25/39/25 
f 22/41/22 20/42/20 26/44/26 24/43/24 
f 20/45/20 16/46/16 27/48/27 26/47/26 
f 16/49/16 18/50/18 28/52/28 27/51/27 
f 18/53/18 17/54/17 29/56/29 28/55/28 
f 17/57/17 3/58/3 30/60/30 29/59/29 
f 3/61/3 2/62/2 31/64/31 30/63/30 
f 2/65/2 5/66/5 32/68/32 31/67/31 
f 5/69/5 4/70/4 33/72/33 32/71/32 
f 4/73/4 9/74/9 13/76/13 33/75/33 
f 9/77/9 8/78/8 34/80/34 13/79/13 
f 8/81/8 35/82/35 36/84/36 34/83/34 
f 35/85/35 23/86/23 25/88/25 36/87/36 
f 24/89/24 37/90/37 25/91/25 
f 39/94/39 38/92/38 26/95/26 27/96/27 
f 19/97/19 21/98/21 40/99/40 
f 39/145/39 28/100/28 41/147/41 15/146/15 
f 30/102/30 31/103/31 42/104/42 
f 13/107/13 43/108/43 33/109/33 
f 26/112/26 38/113/38 24/114/24 
f 15/115/15 37/116/37 24/175/24 38/176/38 
f 37/117/37 36/118/36 25/119/25 
f 37/120/37 15/121/15 14/110/14 36/122/36 
f 14/123/14 13/124/13 34/125/34 
f 43/128/43 32/105/32 33/106/33 
f 42/131/42 31/132/31 32/133/32 
f 15/135/15 41/134/41 30/165/30 42/164/42 
f 41/136/41 29/137/29 30/138/30 
f 22/139/22 21/140/21 20/141/20 
f 39/142/39 27/143/27 28/144/28 
f 23/148/23 35/149/35 44/150/44 
f 17/151/17 1/1/1 3/152/3 
f 8/155/8 44/156/44 35/157/35 
f 12/159/12 6/160/6 1/1/1 
f 44/161/44 7/162/7 40/163/40 
f 17/166/17 10/167/10 12/168/12 1/1/1 
f 11/172/11 6/173/6 12/174/12 
f 23/177/23 44/178/44 40/180/40 21/179/21 
f 11/181/11 16/182/16 20/184/20 19/183/19 
f 19/169/19 40/170/40 7/171/7 
f 19/169/19 7/171/7 6/173/6 11/172/11 
f 15/93/15 38/92/38 39/94/39 
f 41/147/41 28/100/28 29/101/29 
f 36/122/36 14/110/14 34/111/34 
f 43/128/43 15/129/15 42/130/42 32/105/32 
