#Wavefront OBJ file created by Hexagon 2 
mtllib round_d.mtl
g round_d_0
# 51 
v 1e-006 0.299434 -0.348754 
v 0.107771 0.299434 -0.331685 
v 0 0 0 
v 0.204992 0.299434 -0.282148 
v 0.282147 0.299434 -0.204992 
v 0.331683 0.299433 -0.107771 
v 0.348751 0.299433 -1e-006 
v 0.282144 0.299431 0.204988 
v 0.20499 0.299431 0.282143 
v 0.10777 0.29943 0.331677 
v -0.10777 0.299434 -0.331685 
v 0.331682 0.299432 0.107769 
v 0.107771 0.306334 -0.331685 
v 1e-006 0.306334 -0.348754 
v 0.204992 0.306333 -0.282148 
v 0.282147 0.306334 -0.204992 
v 0.331683 0.306334 -0.107771 
v 0.348751 0.306334 -1e-006 
v 0.331682 0.306333 0.107769 
v 0.282144 0.306334 0.204988 
v 0.20499 0.306334 0.282143 
v 0.10777 0.306334 0.331677 
v 1e-006 0.29943 0.348746 
v -0.107768 0.29943 0.331678 
v -0.204988 0.29943 0.282142 
v -0.282143 0.299431 0.204988 
v -0.33168 0.299431 0.107768 
v -0.348749 0.299432 -1e-006 
v -0.10777 0.306334 -0.331685 
v -0.331681 0.299432 -0.107771 
v -0.282145 0.299433 -0.204992 
v -0.204991 0.299433 -0.282148 
v 0.062516 0.427705 -0.192404 
v -0.107768 0.306333 0.331678 
v 1e-006 0.306333 0.348746 
v -0.204988 0.306333 0.282142 
v -0.348749 0.306333 -1e-006 
v -0.33168 0.306334 0.107768 
v -0.331681 0.306333 -0.107771 
v -0.204991 0.306333 -0.282148 
v 0.202302 0.427706 -3e-006 
v 0.062516 0.427704 0.192398 
v -0.282143 0.306333 0.204988 
v -0.163668 0.427701 0.11891 
v -0.282145 0.306333 -0.204992 
v -0.163668 0.427702 -0.118915 
v 0.20193 0.376049 -0.146715 
v -0.077129 0.376048 -0.237388 
v 0.201914 0.376062 0.146693 
v -0.077117 0.376072 0.237343 
v -0.249573 0.376063 -5e-006 
# 229 1 
vt 0 1 
vt 0 1 
vt 0 1 
vt 0 1 
vt 0 1 
vt 0 1 
vt 0 1 
vt 0 1 
vt 0 1 
vt 0 1 
vt 0 1 
vt 0 1 
vt 0 1 
vt 0 1 
vt 0 1 
vt 0 1 
vt 0 1 
vt 0 1 
vt 0 1 
vt 0 1 
vt 0 1 
vt 0 1 
vt 0 1 
vt 0 1 
vt 0 1 
vt 0 1 
vt 0 1 
vt 0 1 
vt 0 1 
vt 0 1 
vt 0 1 
vt 0 1 
vt 0 1 
vt 0 1 
vt 0 1 
vt 0 1 
vt 0 1 
vt 0 1 
vt 0 1 
vt 0 1 
vt 0 1 
vt 0 1 
vt 0 1 
vt 0 1 
vt 0 1 
vt 0 1 
vt 0 1 
vt 0 1 
vt 0 1 
vt 0 1 
vt 0 1 
vt 0 1 
vt 0 1 
vt 0 1 
vt 0 1 
vt 0 1 
vt 0 1 
vt 0 1 
vt 0 1 
vt 0 1 
vt 0 1 
vt 0 1 
vt 0 1 
vt 0 1 
vt 0 1 
vt 0 1 
vt 0 1 
vt 0 1 
vt 0 1 
vt 0 1 
vt 0 1 
vt 0 1 
vt 0 1 
vt 0 1 
vt 0 1 
vt 0 1 
vt 0 1 
vt 0 1 
vt 0 1 
vt 0 1 
vt 0 1 
vt 0 1 
vt 0 1 
vt 0 1 
vt 0 1 
vt 0 1 
vt 0 1 
vt 0 1 
vt 0 1 
vt 0 1 
vt 0 1 
vt 0 1 
vt 0 1 
vt 0 1 
vt 0 1 
vt 0 1 
vt 0 1 
vt 0 1 
vt 0 1 
vt 0 1 
vt 0 1 
vt 0 1 
vt 0 1 
vt 0 1 
vt 0 1 
vt 0 1 
vt 0 1 
vt 0 1 
vt 0 1 
vt 0 1 
vt 0 1 
vt 0 1 
vt 0 1 
vt 0 1 
vt 0 1 
vt 0 1 
vt 0 1 
vt 0 1 
vt 0 1 
vt 0 1 
vt 0 1 
vt 0 1 
vt 0 1 
vt 0 1 
vt 0 1 
vt 0 1 
vt 0 1 
vt 0 1 
vt 0 1 
vt 0 1 
vt 0 1 
vt 0 1 
vt 0 1 
vt 0 1 
vt 0 1 
vt 0 1 
vt 0 1 
vt 0 1 
vt 0 1 
vt 0 1 
vt 0 1 
vt 0 1 
vt 0 1 
vt 0 1 
vt 0 1 
vt 0 1 
vt 0 1 
vt 0 1 
vt 0 1 
vt 0 1 
vt 0 1 
vt 0 1 
vt 0 1 
vt 0 1 
vt 0 1 
vt 0 1 
vt 0 1 
vt 0 1 
vt 0 1 
vt 0 1 
vt 0 1 
vt 0 1 
vt 0 1 
vt 0 1 
vt 0 1 
vt 0 1 
vt 0 1 
vt 0 1 
vt 0 1 
vt 0 1 
vt 0 1 
vt 0 1 
vt 0 1 
vt 0 1 
vt 0 1 
vt 0 1 
vt 0 1 
vt 0 1 
vt 0 1 
vt 0 1 
vt 0 1 
vt 0 1 
vt 0 1 
vt 0 1 
vt 0 1 
vt 0 1 
vt 0 1 
vt 0 1 
vt 0 1 
vt 0 1 
vt 0 1 
vt 0 1 
vt 0 1 
vt 0 1 
vt 0 1 
vt 0 1 
vt 0 1 
vt 0 1 
vt 0 1 
vt 0 1 
vt 0 1 
vt 0 1 
vt 0 1 
vt 0 1 
vt 0 1 
vt 0 1 
vt 0 1 
vt 0 1 
vt 0 1 
vt 0 1 
vt 0 1 
vt 0 1 
vt 0 1 
vt 0 1 
vt 0 1 
vt 0 1 
vt 0 1 
vt 0 1 
vt 0 1 
vt 0 1 
vt 0 1 
vt 0 1 
vt 0 1 
vt 0 1 
vt 0 1 
vt 0 1 
vt 0 1 
vt 0 1 
vt 0 1 
# 56 
vn 5.2941e-007 -0.41896 -0.908005 
vn 0.28059 -0.41896 -0.863563 
vn 2.48778e-007 -1 1.58744e-006 
vn 0.533716 -0.41896 -0.734588 
vn 0.734593 -0.41896 -0.533709 
vn 0.863565 -0.418961 -0.280584 
vn 0.908005 -0.41896 2.43198e-006 
vn 0.734589 -0.418959 0.533716 
vn 0.53371 -0.418959 0.734593 
vn 0.280584 -0.418958 0.863566 
vn -0.280588 -0.41896 -0.863564 
vn 0.863562 -0.418961 0.280594 
vn 0.279442 0.426933 -0.860024 
vn -0.000882031 0.442917 -0.896562 
vn 0.527704 0.442915 -0.724813 
vn 0.80902 -9.90166e-007 -0.587781 
vn 0.472435 0.81178 -0.343246 
vn 0.852411 0.442915 -0.277887 
vn 0.904284 0.426931 6.14755e-006 
vn 0.852405 0.442917 0.277903 
vn 0.809013 -2.57655e-007 0.587791 
vn 0.472431 0.811784 0.343242 
vn 0.527697 0.442919 0.724816 
vn 0.27943 0.426931 0.860028 
vn 4.10706e-006 -0.418958 0.908006 
vn -0.280585 -0.418959 0.863566 
vn -0.533711 -0.418958 0.734593 
vn -0.734589 -0.418958 0.533716 
vn -0.863563 -0.41896 0.280591 
vn -0.908005 -0.418959 2.8828e-006 
vn -0.309018 9.27214e-008 -0.951056 
vn -0.180457 0.811782 -0.555379 
vn -0.863566 -0.418959 -0.280585 
vn -0.734595 -0.41896 -0.533707 
vn -0.533716 -0.418961 -0.734588 
vn 0.145838 0.88163 -0.448843 
vn -0.309012 -1.4907e-007 0.951058 
vn -0.180451 0.811786 0.555375 
vn -0.000885575 0.442918 0.896562 
vn -0.526266 0.442918 0.725857 
vn -1 1.85927e-009 5.30304e-006 
vn -0.583955 0.811786 -6.68976e-007 
vn -0.852953 0.442919 0.276215 
vn -0.852956 0.442918 -0.276205 
vn -0.52628 0.442916 -0.725848 
vn 0.415895 0.909413 4.20285e-006 
vn 0.128513 0.909413 0.395541 
vn -0.731577 0.426931 0.531532 
vn -0.381806 0.881631 0.2774 
vn -0.731586 0.42693 -0.531519 
vn -0.299934 0.92874 -0.217904 
vn 0.454195 0.827533 -0.329994 
vn -0.17349 0.827536 -0.533934 
vn 0.454192 0.827536 0.329992 
vn -0.173485 0.827538 0.533932 
vn -0.56141 0.827538 8.23017e-007 
f 1/1/1 2/2/2 3/3/3 
f 2/4/2 4/5/4 3/6/3 
f 4/7/4 5/8/5 3/9/3 
f 5/10/5 6/11/6 3/12/3 
f 6/13/6 7/14/7 3/15/3 
f 8/16/8 9/17/9 3/18/3 
f 9/19/9 10/20/10 3/21/3 
f 11/22/11 1/1/1 3/23/3 
f 12/24/12 8/25/8 3/26/3 
f 7/27/7 12/28/12 3/29/3 
f 13/30/13 2/31/2 1/1/1 14/32/14 
f 15/33/15 4/34/4 2/36/2 13/35/13 
f 16/37/16 5/38/5 4/40/4 15/39/15 
f 17/41/18 6/42/6 5/44/5 16/43/16 
f 18/45/19 7/46/7 6/48/6 17/47/18 
f 19/49/20 12/50/12 7/52/7 18/51/19 
f 20/53/21 8/54/8 12/56/12 19/55/20 
f 21/57/23 9/58/9 8/60/8 20/59/21 
f 22/61/24 10/62/10 9/64/9 21/63/23 
f 10/65/10 23/66/25 3/67/3 
f 23/68/25 24/69/26 3/70/3 
f 24/71/26 25/72/27 3/73/3 
f 25/74/27 26/75/28 3/76/3 
f 26/77/28 27/78/29 3/79/3 
f 27/80/29 28/81/30 3/82/3 
f 14/83/14 1/1/1 11/85/11 29/84/31 
f 28/86/30 30/87/33 3/88/3 
f 30/89/33 31/90/34 3/91/3 
f 31/92/34 32/93/35 3/94/3 
f 32/95/35 11/96/11 3/97/3 
f 16/98/17 15/99/15 33/175/36 47/174/52 
f 34/100/37 24/101/26 23/103/25 35/102/39 
f 36/104/40 25/105/27 24/107/26 34/106/37 
f 37/108/41 28/109/30 27/111/29 38/110/43 
f 39/112/44 30/113/33 28/115/30 37/114/41 
f 29/116/31 11/117/11 32/119/35 40/118/45 
f 33/120/36 14/121/14 29/180/32 48/181/53 
f 33/122/36 13/123/13 14/124/14 
f 41/125/46 17/126/18 16/178/17 47/179/52 
f 13/127/13 33/128/36 15/129/15 
f 41/130/46 18/131/19 17/132/18 
f 41/133/46 19/134/20 18/135/19 
f 42/136/47 22/137/24 21/138/23 
f 35/139/39 23/140/25 10/142/10 22/141/24 
f 43/143/48 26/144/28 25/146/27 36/145/40 
f 35/147/39 22/148/24 42/149/47 
f 44/150/49 43/151/48 36/152/40 
f 38/153/43 27/154/29 26/156/28 43/155/48 
f 38/157/43 43/158/48 44/159/49 
f 45/160/50 31/161/34 30/163/33 39/162/44 
f 40/164/45 32/165/35 31/167/34 45/166/50 
f 46/168/51 45/169/50 39/170/44 
f 45/171/50 46/172/51 40/173/45 
f 20/176/22 19/177/20 41/199/46 49/198/54 
f 34/182/38 35/183/39 42/212/47 50/211/55 
f 42/184/47 21/185/23 20/196/22 49/197/54 
f 44/186/49 36/187/40 34/206/38 50/207/55 
f 37/188/42 38/189/43 44/216/49 51/215/56 
f 46/190/51 39/191/44 37/213/42 51/214/56 
f 29/192/32 40/193/45 46/195/51 48/194/53 
f 33/200/36 48/201/53 46/202/51 
f 41/203/46 47/204/52 33/205/36 
f 42/208/47 49/209/54 41/210/46 
f 44/217/49 50/218/55 42/219/47 
f 46/220/51 51/221/56 44/222/49 
f 46/223/51 44/224/49 42/225/47 
f 33/227/36 46/226/51 41/229/46 
f 41/229/46 46/226/51 42/228/47 
