#Wavefront OBJ file created by Hexagon 2 
mtllib simpjack.mtl
g simpjack_0
# 65 
v -0.322203 0.318966 -0.133462 
v -0.246603 0.318966 -0.246604 
v 0 0 0 
v -0.133461 0.318966 -0.322204 
v 0 0.318966 -0.348751 
v 0.133461 0.318966 -0.322204 
v 0.246604 0.318966 -0.246604 
v 0.322203 0.318966 -0.133461 
v 0.34875 0.318965 -1e-006 
v 0.322203 0.318965 0.13346 
v -0.34875 0.318966 -1e-006 
v -0.246603 0.326853 -0.246604 
v -0.322203 0.326853 -0.133462 
v -0.133461 0.326853 -0.322204 
v 0 0.326853 -0.348751 
v 0.133461 0.326853 -0.322204 
v 0.246604 0.326853 -0.246604 
v 0.322203 0.326853 -0.133461 
v 0.34875 0.326853 -1e-006 
v 0.246603 0.318965 0.246603 
v 0.133461 0.318966 0.322202 
v 0 0.318965 0.348749 
v -0.133461 0.318966 0.322202 
v -0.246603 0.318966 0.246603 
v -0.322203 0.318966 0.133461 
v -0.34875 0.326853 -1e-006 
v -0.154563 0.362241 -0.231323 
v -0.054274 0.36224 -0.272863 
v 0.054277 0.36224 -0.272863 
v 0.154566 0.36224 -0.231321 
v 0.322203 0.326853 0.13346 
v 0.246603 0.326853 0.246603 
v 0.133461 0.326853 0.322202 
v 0 0.326853 0.348749 
v -0.133461 0.326853 0.322202 
v -0.246603 0.326853 0.246603 
v -0.322203 0.326853 0.133461 
v -0.272862 0.362241 -0.054275 
v -0.23132 0.362241 -0.154566 
v -0.1409 0.411976 -0.094149 
v -0.094146 0.411976 -0.140903 
v -0.033059 0.411976 -0.166205 
v 0.033061 0.411976 -0.166205 
v 0.231323 0.36224 -0.154563 
v 0.094148 0.411976 -0.140901 
v 0.140901 0.411976 -0.094147 
v 0.272863 0.36224 -0.054275 
v -0.166204 0.411976 -0.03306 
v 0.166204 0.411976 -0.03306 
v 0.272863 0.36224 0.054277 
v 0.166204 0.411976 0.03306 
v 0.231483 0.362177 0.154527 
v 0.154601 0.362303 0.23116 
v 0.054274 0.36224 0.272862 
v -0.054277 0.36224 0.272861 
v -0.154565 0.362241 0.23132 
v -0.231322 0.362241 0.154562 
v -0.272862 0.362241 0.054273 
v -0.166204 0.411976 0.033058 
v -0.140902 0.411976 0.094145 
v -0.094148 0.411976 0.1409 
v -0.033061 0.411976 0.166203 
v 0.033059 0.411976 0.166203 
v 0.094216 0.411976 0.140872 
v 0.140929 0.411976 0.094077 
# 259 1 
vt 0 1 
vt 0 1 
vt 0 1 
vt 0 1 
vt 0 1 
vt 0 1 
vt 0 1 
vt 0 1 
vt 0 1 
vt 0 1 
vt 0 1 
vt 0 1 
vt 0 1 
vt 0 1 
vt 0 1 
vt 0 1 
vt 0 1 
vt 0 1 
vt 0 1 
vt 0 1 
vt 0 1 
vt 0 1 
vt 0 1 
vt 0 1 
vt 0 1 
vt 0 1 
vt 0 1 
vt 0 1 
vt 0 1 
vt 0 1 
vt 0 1 
vt 0 1 
vt 0 1 
vt 0 1 
vt 0 1 
vt 0 1 
vt 0 1 
vt 0 1 
vt 0 1 
vt 0 1 
vt 0 1 
vt 0 1 
vt 0 1 
vt 0 1 
vt 0 1 
vt 0 1 
vt 0 1 
vt 0 1 
vt 0 1 
vt 0 1 
vt 0 1 
vt 0 1 
vt 0 1 
vt 0 1 
vt 0 1 
vt 0 1 
vt 0 1 
vt 0 1 
vt 0 1 
vt 0 1 
vt 0 1 
vt 0 1 
vt 0 1 
vt 0 1 
vt 0 1 
vt 0 1 
vt 0 1 
vt 0 1 
vt 0 1 
vt 0 1 
vt 0 1 
vt 0 1 
vt 0 1 
vt 0 1 
vt 0 1 
vt 0 1 
vt 0 1 
vt 0 1 
vt 0 1 
vt 0 1 
vt 0 1 
vt 0 1 
vt 0 1 
vt 0 1 
vt 0 1 
vt 0 1 
vt 0 1 
vt 0 1 
vt 0 1 
vt 0 1 
vt 0 1 
vt 0 1 
vt 0 1 
vt 0 1 
vt 0 1 
vt 0 1 
vt 0 1 
vt 0 1 
vt 0 1 
vt 0 1 
vt 0 1 
vt 0 1 
vt 0 1 
vt 0 1 
vt 0 1 
vt 0 1 
vt 0 1 
vt 0 1 
vt 0 1 
vt 0 1 
vt 0 1 
vt 0 1 
vt 0 1 
vt 0 1 
vt 0 1 
vt 0 1 
vt 0 1 
vt 0 1 
vt 0 1 
vt 0 1 
vt 0 1 
vt 0 1 
vt 0 1 
vt 0 1 
vt 0 1 
vt 0 1 
vt 0 1 
vt 0 1 
vt 0 1 
vt 0 1 
vt 0 1 
vt 0 1 
vt 0 1 
vt 0 1 
vt 0 1 
vt 0 1 
vt 0 1 
vt 0 1 
vt 0 1 
vt 0 1 
vt 0 1 
vt 0 1 
vt 0 1 
vt 0 1 
vt 0 1 
vt 0 1 
vt 0 1 
vt 0 1 
vt 0 1 
vt 0 1 
vt 0 1 
vt 0 1 
vt 0 1 
vt 0 1 
vt 0 1 
vt 0 1 
vt 0 1 
vt 0 1 
vt 0 1 
vt 0 1 
vt 0 1 
vt 0 1 
vt 0 1 
vt 0 1 
vt 0 1 
vt 0 1 
vt 0 1 
vt 0 1 
vt 0 1 
vt 0 1 
vt 0 1 
vt 0 1 
vt 0 1 
vt 0 1 
vt 0 1 
vt 0 1 
vt 0 1 
vt 0 1 
vt 0 1 
vt 0 1 
vt 0 1 
vt 0 1 
vt 0 1 
vt 0 1 
vt 0 1 
vt 0 1 
vt 0 1 
vt 0 1 
vt 0 1 
vt 0 1 
vt 0 1 
vt 0 1 
vt 0 1 
vt 0 1 
vt 0 1 
vt 0 1 
vt 0 1 
vt 0 1 
vt 0 1 
vt 0 1 
vt 0 1 
vt 0 1 
vt 0 1 
vt 0 1 
vt 0 1 
vt 0 1 
vt 0 1 
vt 0 1 
vt 0 1 
vt 0 1 
vt 0 1 
vt 0 1 
vt 0 1 
vt 0 1 
vt 0 1 
vt 0 1 
vt 0 1 
vt 0 1 
vt 0 1 
vt 0 1 
vt 0 1 
vt 0 1 
vt 0 1 
vt 0 1 
vt 0 1 
vt 0 1 
vt 0 1 
vt 0 1 
vt 0 1 
vt 0 1 
vt 0 1 
vt 0 1 
vt 0 1 
vt 0 1 
vt 0 1 
vt 0 1 
vt 0 1 
vt 0 1 
vt 0 1 
vt 0 1 
vt 0 1 
vt 0 1 
vt 0 1 
vt 0 1 
vt 0 1 
vt 0 1 
vt 0 1 
vt 0 1 
vt 0 1 
vt 0 1 
vt 0 1 
vt 0 1 
vt 0 1 
vt 0 1 
vt 0 1 
vt 0 1 
vt 0 1 
vt 0 1 
vt 0 1 
# 81 
vn -0.8446 -0.405288 -0.349847 
vn -0.646429 -0.405288 -0.646429 
vn -4.6862e-007 -1 4.13862e-007 
vn -0.349847 -0.405289 -0.844599 
vn 4.12883e-008 -0.405289 -0.914189 
vn 0.349845 -0.405289 -0.8446 
vn 0.646431 -0.405289 -0.646427 
vn 0.8446 -0.405288 -0.349845 
vn 0.914189 -0.405289 -2.28737e-006 
vn 0.8446 -0.405288 0.349845 
vn -0.914189 -0.405288 -6.48226e-007 
vn -0.707107 5.67792e-007 -0.707107 
vn -0.324874 0.888208 -0.324874 
vn -0.923879 -1.69523e-007 -0.382686 
vn -0.424465 0.88821 -0.17582 
vn -0.382686 1.74281e-007 -0.923878 
vn -0.175816 0.888212 -0.424463 
vn 6.83689e-008 1.44727e-008 -1 
vn 2.08481e-007 0.888214 -0.459429 
vn 0.382684 -5.64684e-008 -0.923879 
vn 0.175818 0.888214 -0.424458 
vn 0.707109 -3.37453e-007 -0.707105 
vn 0.324868 0.888213 -0.324865 
vn 0.92388 -1.0073e-006 -0.382682 
vn 0.424462 0.888212 -0.175816 
vn 1 -5.13696e-008 -9.11586e-007 
vn 0.459435 0.888211 -2.08844e-008 
vn 0.646427 -0.405288 0.646431 
vn 0.349845 -0.405288 0.844601 
vn 4.12883e-009 -0.405288 0.914189 
vn -0.349846 -0.405288 0.8446 
vn -0.646428 -0.405287 0.646431 
vn -0.8446 -0.405288 0.349847 
vn -1 2.7532e-007 -7.14075e-007 
vn -0.459438 0.88821 -3.81937e-007 
vn -0.238858 0.902858 -0.357483 
vn -0.083872 0.90286 -0.421676 
vn 0.0838776 0.90286 -0.421674 
vn 0.238862 0.90286 -0.357476 
vn 0.923879 6.93619e-007 0.382684 
vn 0.424463 0.888211 0.17582 
vn 0.707106 5.20871e-008 0.707108 
vn 0.324956 0.888212 0.324783 
vn 0.382683 4.78882e-008 0.92388 
vn 0.175817 0.888212 0.424462 
vn -7.59655e-009 1.44718e-008 1 
vn -1.10235e-006 0.888213 0.459432 
vn -0.382683 4.78909e-008 0.92388 
vn -0.175817 0.888211 0.424464 
vn -0.707105 4.41403e-007 0.707109 
vn -0.324874 0.888208 0.324874 
vn -0.923879 1.24634e-006 0.382685 
vn -0.424465 0.88821 0.175819 
vn -0.421676 0.902859 -0.0838768 
vn -0.35748 0.902858 -0.238862 
vn -0.176662 0.977168 -0.118042 
vn -0.118039 0.977168 -0.176663 
vn -0.0414487 0.977167 -0.20839 
vn 0.0551573 0.959203 -0.277287 
vn 0.35748 0.902859 -0.238857 
vn 0.118045 0.977167 -0.176662 
vn 0.176664 0.977167 -0.118041 
vn 0.421676 0.902859 -0.0838759 
vn -0.208386 0.977168 -0.0414507 
vn 0.208388 0.977167 -0.0414506 
vn 0.421676 0.902859 0.0838783 
vn 0.208387 0.977168 0.0414521 
vn 0.357578 0.902848 0.238755 
vn 0.238966 0.90287 0.35738 
vn 0.0838736 0.902859 0.421676 
vn -0.0838755 0.902859 0.421676 
vn -0.23886 0.902858 0.357481 
vn -0.357482 0.902858 0.238859 
vn -0.421677 0.902859 0.0838748 
vn -0.208387 0.977168 0.0414496 
vn -0.176663 0.977168 0.118039 
vn -0.118041 0.977168 0.176661 
vn -0.0551549 0.959203 0.277286 
vn 0.0414494 0.977167 0.208389 
vn 0.118109 0.977171 0.176597 
vn 0.176728 0.977164 0.117976 
f 1/1/1 2/2/2 3/3/3 
f 2/4/2 4/5/4 3/6/3 
f 4/7/4 5/8/5 3/9/3 
f 5/10/5 6/11/6 3/12/3 
f 6/13/6 7/14/7 3/15/3 
f 7/16/7 8/17/8 3/18/3 
f 8/19/8 9/20/9 3/21/3 
f 9/22/9 10/23/10 3/24/3 
f 11/25/11 1/1/1 3/26/3 
f 12/27/12 2/28/2 1/1/1 13/29/14 
f 14/30/16 4/31/4 2/33/2 12/32/12 
f 15/34/18 5/35/5 4/37/4 14/36/16 
f 16/38/20 6/39/6 5/41/5 15/40/18 
f 17/42/22 7/43/7 6/45/6 16/44/20 
f 18/46/24 8/47/8 7/49/7 17/48/22 
f 19/50/26 9/51/9 8/53/8 18/52/24 
f 10/54/10 20/55/28 3/56/3 
f 20/57/28 21/58/29 3/59/3 
f 21/60/29 22/61/30 3/62/3 
f 22/63/30 23/64/31 3/65/3 
f 23/66/31 24/67/32 3/68/3 
f 24/69/32 25/70/33 3/71/3 
f 25/72/33 11/73/11 3/74/3 
f 13/75/14 1/1/1 11/77/11 26/76/34 
f 27/78/36 14/79/17 12/80/13 
f 28/81/37 15/82/19 14/133/17 
f 29/83/38 16/84/21 15/137/19 
f 30/85/39 17/86/23 16/143/21 
f 31/87/40 10/88/10 9/90/9 19/89/26 
f 32/91/42 20/92/28 10/94/10 31/93/40 
f 33/95/44 21/96/29 20/98/28 32/97/42 
f 34/99/46 22/100/30 21/102/29 33/101/44 
f 35/103/48 23/104/31 22/106/30 34/105/46 
f 36/107/50 24/108/32 23/110/31 35/109/48 
f 37/111/52 25/112/33 24/114/32 36/113/50 
f 26/115/34 11/116/11 25/118/33 37/117/52 
f 38/119/54 13/120/15 26/121/35 
f 39/122/55 12/123/13 13/124/15 
f 12/127/13 39/125/55 27/129/36 
f 27/131/36 28/81/37 14/133/17 
f 28/135/37 29/83/38 15/137/19 
f 44/138/60 18/139/25 17/147/23 
f 29/142/38 30/85/39 16/143/21 
f 30/146/39 44/138/60 17/147/23 
f 47/148/63 19/149/27 18/150/25 
f 13/153/15 38/151/54 39/155/55 
f 44/160/60 47/158/63 18/159/25 
f 50/161/66 31/162/41 19/163/27 
f 47/168/63 50/166/66 19/167/27 
f 52/169/68 32/170/43 31/171/41 
f 33/172/45 32/173/43 53/215/69 
f 34/174/47 33/175/45 54/209/70 
f 35/176/49 34/177/47 55/202/71 
f 36/178/51 35/179/49 56/180/72 
f 57/182/73 36/196/51 56/197/72 
f 26/183/35 37/184/53 58/185/74 
f 26/186/35 58/187/74 38/188/54 
f 37/191/53 57/192/73 58/193/74 
f 57/198/73 56/199/72 61/200/77 60/201/76 
f 56/204/72 55/205/71 62/206/78 61/207/77 
f 62/211/78 55/210/71 54/212/70 63/213/79 
f 63/217/79 54/216/70 53/218/69 64/219/80 
f 50/223/66 52/220/68 31/222/41 
f 52/228/68 53/225/69 32/227/43 
f 62/230/78 63/231/79 61/232/77 
f 60/234/76 61/233/77 63/235/79 64/236/80 
f 59/238/75 60/237/76 64/239/80 65/240/81 
f 48/242/64 59/241/75 65/243/81 51/244/67 
f 48/245/64 51/246/67 49/247/65 40/248/56 
f 40/249/56 49/250/65 46/251/62 41/252/57 
f 41/253/57 46/254/62 45/255/61 42/256/58 
f 42/257/58 45/258/61 43/259/59 
f 57/182/73 37/181/53 36/196/51 
f 35/176/49 55/202/71 56/203/72 
f 34/174/47 54/209/70 55/208/71 
f 33/172/45 53/215/69 54/214/70 
f 58/193/74 57/192/73 60/194/76 59/195/75 
f 38/188/54 58/187/74 59/189/75 48/190/64 
f 39/155/55 38/151/54 48/152/64 40/154/56 
f 27/129/36 39/125/55 40/126/56 41/128/57 
f 27/131/36 41/130/57 42/132/58 28/81/37 
f 28/135/37 42/134/58 43/136/59 29/83/38 
f 29/142/38 43/140/59 45/141/61 30/85/39 
f 30/146/39 45/144/61 46/145/62 44/138/60 
f 46/157/62 49/156/65 47/158/63 44/160/60 
f 49/165/65 51/164/67 50/166/66 47/168/63 
f 65/221/81 52/220/68 50/223/66 51/224/67 
f 64/226/80 53/225/69 52/228/68 65/229/81 
