#Wavefront OBJ file created by Hexagon 2 
mtllib starcut.mtl
g starcut__0
# 37 
v -0.246603 0.322432 -0.246603 
v -0.348749 0.322431 0 
v -0.348749 0.329677 0 
v -0.246603 0.329677 -0.246603 
v 1e-006 0.322431 -0.34875 
v 1e-006 0.329677 -0.34875 
v 0.246605 0.322431 -0.246603 
v 0.246605 0.329677 -0.246603 
v 0.348751 0.322432 0 
v 0.348751 0.329677 0 
v 0.246604 0.322431 0.246603 
v 0.173132 0.199561 0.173131 
v 1e-006 0.322431 0.34875 
v -0.246603 0.322431 0.246604 
v -0.173129 0.19956 0.17313 
v -0.173129 0.199561 -0.17313 
v 0.173132 0.199561 -0.173131 
v 0.122297 0.127952 0.122296 
v -0.122295 0.127952 0.122296 
v -0.122295 0.127952 -0.122296 
v 0 0 0 
v 0.122297 0.127952 -0.122296 
v -0.19688 0.388173 -0.19688 
v 0.196882 0.388172 -0.196881 
v 0.246604 0.329677 0.246603 
v 1e-006 0.329677 0.34875 
v -0.246603 0.329677 0.246604 
v -0.126799 0.452754 -0.126799 
v 0.126801 0.452754 -0.1268 
v 0.196882 0.388172 0.196881 
v -0.19688 0.388173 0.196881 
v 1e-006 0.452733 -0.135151 
v -0.13515 0.452733 0 
v 0.135151 0.452733 0 
v 0.1268 0.452754 0.126799 
v -0.126798 0.452754 0.126799 
v 0 0.452733 0.13515 
# 147 1 
vt 0 1 
vt 0 1 
vt 0 1 
vt 0 1 
vt 0 1 
vt 0 1 
vt 0 1 
vt 0 1 
vt 0 1 
vt 0 1 
vt 0 1 
vt 0 1 
vt 0 1 
vt 0 1 
vt 0 1 
vt 0 1 
vt 0 1 
vt 0 1 
vt 0 1 
vt 0 1 
vt 0 1 
vt 0 1 
vt 0 1 
vt 0 1 
vt 0 1 
vt 0 1 
vt 0 1 
vt 0 1 
vt 0 1 
vt 0 1 
vt 0 1 
vt 0 1 
vt 0 1 
vt 0 1 
vt 0 1 
vt 0 1 
vt 0 1 
vt 0 1 
vt 0 1 
vt 0 1 
vt 0 1 
vt 0 1 
vt 0 1 
vt 0 1 
vt 0 1 
vt 0 1 
vt 0 1 
vt 0 1 
vt 0 1 
vt 0 1 
vt 0 1 
vt 0 1 
vt 0 1 
vt 0 1 
vt 0 1 
vt 0 1 
vt 0 1 
vt 0 1 
vt 0 1 
vt 0 1 
vt 0 1 
vt 0 1 
vt 0 1 
vt 0 1 
vt 0 1 
vt 0 1 
vt 0 1 
vt 0 1 
vt 0 1 
vt 0 1 
vt 0 1 
vt 0 1 
vt 0 1 
vt 0 1 
vt 0 1 
vt 0 1 
vt 0 1 
vt 0 1 
vt 0 1 
vt 0 1 
vt 0 1 
vt 0 1 
vt 0 1 
vt 0 1 
vt 0 1 
vt 0 1 
vt 0 1 
vt 0 1 
vt 0 1 
vt 0 1 
vt 0 1 
vt 0 1 
vt 0 1 
vt 0 1 
vt 0 1 
vt 0 1 
vt 0 1 
vt 0 1 
vt 0 1 
vt 0 1 
vt 0 1 
vt 0 1 
vt 0 1 
vt 0 1 
vt 0 1 
vt 0 1 
vt 0 1 
vt 0 1 
vt 0 1 
vt 0 1 
vt 0 1 
vt 0 1 
vt 0 1 
vt 0 1 
vt 0 1 
vt 0 1 
vt 0 1 
vt 0 1 
vt 0 1 
vt 0 1 
vt 0 1 
vt 0 1 
vt 0 1 
vt 0 1 
vt 0 1 
vt 0 1 
vt 0 1 
vt 0 1 
vt 0 1 
vt 0 1 
vt 0 1 
vt 0 1 
vt 0 1 
vt 0 1 
vt 0 1 
vt 0 1 
vt 0 1 
vt 0 1 
vt 0 1 
vt 0 1 
vt 0 1 
vt 0 1 
vt 0 1 
vt 0 1 
vt 0 1 
vt 0 1 
vt 0 1 
# 48 
vn -0.658524 -0.364273 -0.658522 
vn -0.892091 -0.451855 -1.33435e-006 
vn -1 -1.63524e-006 -6.12898e-007 
vn -0.549384 0.83557 3.20237e-007 
vn -0.707108 -1.02977e-006 -0.707106 
vn -0.415583 0.809062 -0.415582 
vn -1.18767e-006 -0.451855 -0.892092 
vn -9.67735e-008 2.14629e-008 -1 
vn -3.96755e-007 0.83557 -0.549385 
vn 0.658524 -0.364273 -0.658522 
vn 0.707108 1.08177e-006 -0.707106 
vn 0.415584 0.809061 -0.415584 
vn 0.892092 -0.451854 1.34776e-006 
vn 1 9.32901e-007 2.09676e-006 
vn 0.549383 0.835571 8.66247e-007 
vn 0.658524 -0.364272 0.658523 
vn 0.524561 -0.670577 0.52456 
vn 1.21366e-006 -0.451855 0.892091 
vn -0.658523 -0.364275 0.658522 
vn -0.524559 -0.670579 0.524559 
vn -0.524561 -0.670576 -0.524561 
vn 0.524561 -0.670578 -0.524558 
vn 0.462279 -0.756701 0.462278 
vn -0.462278 -0.756702 0.462278 
vn -0.46228 -0.756701 -0.462279 
vn -3.35026e-008 -0.73427 -0.678857 
vn 0.678857 -0.73427 2.68048e-008 
vn 3.35026e-008 -0.73427 0.678857 
vn -0.678858 -0.734269 5.29873e-009 
vn 0.462279 -0.756702 -0.462278 
vn -0.415583 0.809062 -0.415582 
vn 0.415584 0.809061 -0.415584 
vn 0.707107 2.10613e-008 0.707107 
vn 0.415583 0.809062 0.415583 
vn 1.99998e-006 3.0873e-009 1 
vn 1.07218e-006 0.835571 0.549383 
vn -0.707107 -7.50856e-007 0.707107 
vn -0.415581 0.809065 0.415581 
vn -0.237378 0.941863 -0.237794 
vn 0.237377 0.941863 -0.237794 
vn 0.415583 0.809062 0.415583 
vn -0.415581 0.809065 0.415581 
vn -1.35037e-006 0.939031 -0.343833 
vn -0.2583 0.966065 1.07029e-006 
vn 0.258299 0.966065 1.06065e-006 
vn 0.237376 0.941863 0.237794 
vn -0.237376 0.941864 0.237794 
vn -1.85679e-007 0.939031 0.343832 
f 1/1/1 2/2/2 3/4/3 4/3/5 
f 5/5/7 1/1/1 4/7/5 6/6/8 
f 7/8/10 5/9/7 6/11/8 8/10/11 
f 9/12/13 7/13/10 8/15/11 10/14/14 
f 9/16/13 11/17/16 12/28/17 18/29/23 
f 12/18/17 11/19/16 13/33/18 18/32/23 
f 13/20/18 14/21/19 15/34/20 19/35/24 
f 2/22/2 1/1/1 16/36/21 20/37/25 
f 16/23/21 1/1/1 5/39/7 20/38/25 
f 5/24/7 7/25/10 17/42/22 22/43/30 
f 17/26/22 7/27/10 9/45/13 22/44/30 
f 15/30/20 14/31/19 2/53/2 19/52/24 
f 21/40/26 20/41/25 5/46/7 22/47/30 
f 21/48/27 22/49/30 9/50/13 18/51/23 
f 21/54/28 18/55/23 13/56/18 19/57/24 
f 2/58/2 20/59/25 21/60/29 19/61/24 
f 6/62/9 4/63/6 23/84/31 28/85/39 
f 23/64/31 4/65/6 3/89/4 28/88/39 
f 24/66/32 8/67/12 6/91/9 29/90/40 
f 11/68/16 9/69/13 10/71/14 25/70/33 
f 13/72/18 11/73/16 25/75/33 26/74/35 
f 14/76/19 13/77/18 26/79/35 27/78/37 
f 2/80/2 14/81/19 27/83/37 3/82/3 
f 10/86/15 8/87/12 24/103/32 29/104/40 
f 30/92/41 25/93/34 10/115/15 35/114/46 
f 26/94/36 25/95/34 30/116/41 35/117/46 
f 31/96/42 27/97/38 26/119/36 36/118/47 
f 3/98/4 27/99/38 31/120/42 36/121/47 
f 32/100/43 6/101/9 28/102/39 
f 28/105/39 3/106/4 33/107/44 
f 29/108/40 6/109/9 32/110/43 
f 34/111/45 10/112/15 29/113/40 
f 36/122/47 26/123/36 37/124/48 
f 33/125/44 3/126/4 36/127/47 
f 37/128/48 26/129/36 35/130/46 
f 35/131/46 10/132/15 34/133/45 
f 36/134/47 37/135/48 35/136/46 
f 36/137/47 35/138/46 34/139/45 33/140/44 
f 28/142/39 33/141/44 34/143/45 29/144/40 
f 28/145/39 29/146/40 32/147/43 
