#Wavefront OBJ file created by Hexagon 2 
mtllib sweetheart.mtl
g sweethar_0
# 38 
v -0.349226 0.387896 0.092704 
v -0.316208 0.387896 -0.039367 
v 0 0 0 
v 0.323511 0.387896 -0.039367 
v 0.348274 0.387896 0.092704 
v 0.074974 0.514263 -0.204847 
v -0.003506 0.537516 -0.171082 
v 0.216733 0.537516 0.009632 
v -0.258427 0.387896 -0.163184 
v -0.138737 0.387896 -0.270537 
v 0.001588 0.387896 -0.353036 
v 0.133659 0.387896 -0.270491 
v 0.257475 0.387896 -0.163184 
v -0.299699 0.387896 0.232956 
v -0.167628 0.387896 0.323828 
v 0.133659 0.399866 -0.270491 
v 0.257475 0.399866 -0.163184 
v 0.001588 0.399866 -0.353036 
v -0.138737 0.399866 -0.270537 
v -0.080597 0.514343 -0.204784 
v 0.302875 0.387896 0.233029 
v 0.162549 0.387896 0.323828 
v 0.142214 0.537518 0.155941 
v -0.143419 0.537518 0.155941 
v -0.217325 0.537516 0.009632 
v -0.258427 0.399866 -0.163184 
v -0.316208 0.399866 -0.039367 
v -0.349226 0.399866 0.092704 
v -0.001937 0.515088 0.228275 
v 0.231014 0.515088 0.177741 
v 0.348274 0.399866 0.092704 
v -0.228592 0.515326 0.177573 
v -0.299699 0.399866 0.232956 
v -0.167628 0.399866 0.323828 
v 0.162549 0.399866 0.323828 
v 0.302875 0.399866 0.233029 
v 0.323511 0.399866 -0.039367 
v -0.001255 0.301883 0.288226 
# 179 1 
vt 0 1 
vt 0 1 
vt 0 1 
vt 0 1 
vt 0 1 
vt 0 1 
vt 0 1 
vt 0 1 
vt 0 1 
vt 0 1 
vt 0 1 
vt 0 1 
vt 0 1 
vt 0 1 
vt 0 1 
vt 0 1 
vt 0 1 
vt 0 1 
vt 0 1 
vt 0 1 
vt 0 1 
vt 0 1 
vt 0 1 
vt 0 1 
vt 0 1 
vt 0 1 
vt 0 1 
vt 0 1 
vt 0 1 
vt 0 1 
vt 0 1 
vt 0 1 
vt 0 1 
vt 0 1 
vt 0 1 
vt 0 1 
vt 0 1 
vt 0 1 
vt 0 1 
vt 0 1 
vt 0 1 
vt 0 1 
vt 0 1 
vt 0 1 
vt 0 1 
vt 0 1 
vt 0 1 
vt 0 1 
vt 0 1 
vt 0 1 
vt 0 1 
vt 0 1 
vt 0 1 
vt 0 1 
vt 0 1 
vt 0 1 
vt 0 1 
vt 0 1 
vt 0 1 
vt 0 1 
vt 0 1 
vt 0 1 
vt 0 1 
vt 0 1 
vt 0 1 
vt 0 1 
vt 0 1 
vt 0 1 
vt 0 1 
vt 0 1 
vt 0 1 
vt 0 1 
vt 0 1 
vt 0 1 
vt 0 1 
vt 0 1 
vt 0 1 
vt 0 1 
vt 0 1 
vt 0 1 
vt 0 1 
vt 0 1 
vt 0 1 
vt 0 1 
vt 0 1 
vt 0 1 
vt 0 1 
vt 0 1 
vt 0 1 
vt 0 1 
vt 0 1 
vt 0 1 
vt 0 1 
vt 0 1 
vt 0 1 
vt 0 1 
vt 0 1 
vt 0 1 
vt 0 1 
vt 0 1 
vt 0 1 
vt 0 1 
vt 0 1 
vt 0 1 
vt 0 1 
vt 0 1 
vt 0 1 
vt 0 1 
vt 0 1 
vt 0 1 
vt 0 1 
vt 0 1 
vt 0 1 
vt 0 1 
vt 0 1 
vt 0 1 
vt 0 1 
vt 0 1 
vt 0 1 
vt 0 1 
vt 0 1 
vt 0 1 
vt 0 1 
vt 0 1 
vt 0 1 
vt 0 1 
vt 0 1 
vt 0 1 
vt 0 1 
vt 0 1 
vt 0 1 
vt 0 1 
vt 0 1 
vt 0 1 
vt 0 1 
vt 0 1 
vt 0 1 
vt 0 1 
vt 0 1 
vt 0 1 
vt 0 1 
vt 0 1 
vt 0 1 
vt 0 1 
vt 0 1 
vt 0 1 
vt 0 1 
vt 0 1 
vt 0 1 
vt 0 1 
vt 0 1 
vt 0 1 
vt 0 1 
vt 0 1 
vt 0 1 
vt 0 1 
vt 0 1 
vt 0 1 
vt 0 1 
vt 0 1 
vt 0 1 
vt 0 1 
vt 0 1 
vt 0 1 
vt 0 1 
vt 0 1 
vt 0 1 
vt 0 1 
vt 0 1 
vt 0 1 
vt 0 1 
vt 0 1 
vt 0 1 
vt 0 1 
vt 0 1 
vt 0 1 
vt 0 1 
vt 0 1 
vt 0 1 
# 38 
vn -0.930548 -0.363909 0.0406186 
vn -0.888954 -0.331895 -0.315607 
vn -0.00161014 -0.998617 -0.0525547 
vn 0.887891 -0.337507 -0.312633 
vn 0.929899 -0.36335 0.0571313 
vn 0.350507 0.770525 -0.532387 
vn -0.00058303 0.983387 -0.181521 
vn 0.475651 0.865479 -0.157172 
vn -0.758444 -0.328102 -0.563127 
vn -0.558612 -0.32373 -0.763644 
vn 0.0130965 -0.372532 -0.927927 
vn 0.56293 -0.321086 -0.761586 
vn 0.738531 -0.326545 -0.589864 
vn -0.733601 -0.382189 0.561926 
vn -0.258091 -0.381001 0.887821 
vn 0.562676 0.321327 -0.761673 
vn 0.706506 0.425264 -0.565685 
vn 0.00971101 0.478287 -0.87815 
vn -0.558934 0.320556 -0.764746 
vn -0.35247 0.769739 -0.532228 
vn 0.732229 -0.384622 0.562057 
vn 0.249032 -0.379121 0.891207 
vn 0.0656894 0.981327 0.18078 
vn -0.0674139 0.981094 0.181414 
vn -0.485304 0.860139 -0.156974 
vn -0.726917 0.419273 -0.543877 
vn -0.889702 0.330142 -0.315336 
vn -0.906523 0.419579 0.046586 
vn -0.000909598 0.82379 0.566895 
vn 0.430094 0.810621 0.397382 
vn 0.905646 0.420201 0.0568952 
vn -0.43175 0.808763 0.399367 
vn -0.749844 0.328362 0.574381 
vn -0.257363 0.437416 0.861645 
vn 0.24664 0.435078 0.865954 
vn 0.748587 0.330801 0.57462 
vn 0.885456 0.345777 -0.310492 
vn 0.000815769 -0.59553 0.803333 
f 1/1/1 2/2/2 3/3/3 
f 4/4/4 5/5/5 3/6/3 
f 6/7/6 7/8/7 8/9/8 
f 9/10/9 10/11/10 3/12/3 
f 10/13/10 11/14/11 3/15/3 
f 11/16/11 12/17/12 3/18/3 
f 12/19/12 13/20/13 3/21/3 
f 13/22/13 4/23/4 3/24/3 
f 2/25/2 9/26/9 3/27/3 
f 14/28/14 1/1/1 3/29/3 
f 3/30/3 15/31/15 14/32/14 
f 16/33/16 6/34/6 17/35/17 
f 18/36/18 19/37/19 20/38/20 
f 16/39/16 18/40/18 6/41/6 
f 5/42/5 21/43/21 3/44/3 
f 22/45/22 3/46/3 21/47/21 
f 23/48/23 7/50/7 24/51/24 
f 24/52/24 7/53/7 25/54/25 
f 8/55/8 17/56/17 6/57/6 
f 20/58/20 7/59/7 6/176/6 18/177/18 
f 19/60/19 26/61/26 20/62/20 
f 25/63/25 20/64/20 26/65/26 
f 26/66/26 27/67/27 25/68/25 
f 27/69/27 28/70/28 25/71/25 
f 23/72/23 24/73/24 29/74/29 
f 8/75/8 30/76/30 31/77/31 
f 30/78/30 8/79/8 23/80/23 
f 32/81/32 28/82/28 33/83/33 
f 34/84/34 32/85/32 33/86/33 
f 34/87/34 35/88/35 29/89/29 
f 35/90/35 36/91/36 30/92/30 
f 31/93/31 30/94/30 36/95/36 
f 31/96/31 37/97/37 8/98/8 
f 31/99/31 36/100/36 21/102/21 5/101/5 
f 36/103/36 35/104/35 22/106/22 21/105/21 
f 35/107/35 34/108/34 15/110/15 22/109/22 
f 34/111/34 33/112/33 14/114/14 15/113/15 
f 33/115/33 28/116/28 1/1/1 14/117/14 
f 28/118/28 27/119/27 2/120/2 1/1/1 
f 27/121/27 26/122/26 9/124/9 2/123/2 
f 26/125/26 19/126/19 10/128/10 9/127/9 
f 19/129/19 18/130/18 11/132/11 10/131/10 
f 18/133/18 16/134/16 12/136/12 11/135/11 
f 16/137/16 17/138/17 13/140/13 12/139/12 
f 17/141/17 37/142/37 4/144/4 13/143/13 
f 37/145/37 31/146/31 5/148/5 4/147/4 
f 3/149/3 38/150/38 15/151/15 
f 3/152/3 22/153/22 38/154/38 
f 38/155/38 22/156/22 15/157/15 
f 25/158/25 32/159/32 24/160/24 
f 28/161/28 32/162/32 25/163/25 
f 23/164/23 29/165/29 30/166/30 
f 29/168/29 24/169/24 32/178/32 
f 37/170/37 17/171/17 8/172/8 
f 20/173/20 25/174/25 7/175/7 
f 23/48/23 8/49/8 7/50/7 
f 29/168/29 32/178/32 34/179/34 
f 30/166/30 29/165/29 35/167/35 
