#Wavefront OBJ file created by Hexagon 2 
mtllib triangle.mtl
g triangl_0
# 34 
v 0.201351 0.301477 -0.34875 
v -0.147399 0.301476 -0.255302 
v -0.147399 0.308184 -0.255302 
v 0.201351 0.308184 -0.34875 
v 0.294798 0.301477 0 
v 0.294798 0.308184 0 
v 0.016641 0.227595 0.239499 
v 0.201351 0.301476 0.34875 
v -0.147399 0.301477 0.255303 
v -0.402702 0.301477 1e-006 
v -0.215733 0.227596 0.105338 
v -0.215733 0.227595 -0.105337 
v 0.016641 0.227595 -0.239498 
v 0.199091 0.227596 -0.134161 
v 0.199091 0.227595 0.134161 
v -0.104494 0.105441 0.053882 
v 0.098905 0.105436 0.063561 
v 0 0 0 
v 0.09891 0.10544 -0.063565 
v -0.104498 0.105436 -0.053874 
v 0.005594 0.10544 -0.11744 
v 0.005585 0.10544 0.117435 
v 0.201351 0.308184 0.34875 
v 0.167747 0.371684 -0.233061 
v -0.147399 0.308184 0.255303 
v 0.167747 0.371683 0.233062 
v -0.402702 0.308184 1e-006 
v 0.093295 0.425501 -0.161592 
v 0.093296 0.425501 0.161593 
v -0.285711 0.371683 -0.028742 
v -0.18659 0.425501 0 
v 0.117963 0.371684 -0.261803 
v 0.117964 0.371683 0.261804 
v -0.285711 0.371683 0.028743 
# 145 1 
vt 0 1 
vt 0 1 
vt 0 1 
vt 0 1 
vt 0 1 
vt 0 1 
vt 0 1 
vt 0 1 
vt 0 1 
vt 0 1 
vt 0 1 
vt 0 1 
vt 0 1 
vt 0 1 
vt 0 1 
vt 0 1 
vt 0 1 
vt 0 1 
vt 0 1 
vt 0 1 
vt 0 1 
vt 0 1 
vt 0 1 
vt 0 1 
vt 0 1 
vt 0 1 
vt 0 1 
vt 0 1 
vt 0 1 
vt 0 1 
vt 0 1 
vt 0 1 
vt 0 1 
vt 0 1 
vt 0 1 
vt 0 1 
vt 0 1 
vt 0 1 
vt 0 1 
vt 0 1 
vt 0 1 
vt 0 1 
vt 0 1 
vt 0 1 
vt 0 1 
vt 0 1 
vt 0 1 
vt 0 1 
vt 0 1 
vt 0 1 
vt 0 1 
vt 0 1 
vt 0 1 
vt 0 1 
vt 0 1 
vt 0 1 
vt 0 1 
vt 0 1 
vt 0 1 
vt 0 1 
vt 0 1 
vt 0 1 
vt 0 1 
vt 0 1 
vt 0 1 
vt 0 1 
vt 0 1 
vt 0 1 
vt 0 1 
vt 0 1 
vt 0 1 
vt 0 1 
vt 0 1 
vt 0 1 
vt 0 1 
vt 0 1 
vt 0 1 
vt 0 1 
vt 0 1 
vt 0 1 
vt 0 1 
vt 0 1 
vt 0 1 
vt 0 1 
vt 0 1 
vt 0 1 
vt 0 1 
vt 0 1 
vt 0 1 
vt 0 1 
vt 0 1 
vt 0 1 
vt 0 1 
vt 0 1 
vt 0 1 
vt 0 1 
vt 0 1 
vt 0 1 
vt 0 1 
vt 0 1 
vt 0 1 
vt 0 1 
vt 0 1 
vt 0 1 
vt 0 1 
vt 0 1 
vt 0 1 
vt 0 1 
vt 0 1 
vt 0 1 
vt 0 1 
vt 0 1 
vt 0 1 
vt 0 1 
vt 0 1 
vt 0 1 
vt 0 1 
vt 0 1 
vt 0 1 
vt 0 1 
vt 0 1 
vt 0 1 
vt 0 1 
vt 0 1 
vt 0 1 
vt 0 1 
vt 0 1 
vt 0 1 
vt 0 1 
vt 0 1 
vt 0 1 
vt 0 1 
vt 0 1 
vt 0 1 
vt 0 1 
vt 0 1 
vt 0 1 
vt 0 1 
vt 0 1 
vt 0 1 
vt 0 1 
vt 0 1 
vt 0 1 
vt 0 1 
vt 0 1 
# 39 
vn -0.1981 -0.473731 -0.8581 
vn 0.842185 -0.473732 -0.257491 
vn -0.431664 -0.504642 -0.747664 
vn -0.389453 0.627143 -0.67455 
vn 0.393018 0.618176 -0.680731 
vn 0.863328 -0.504643 -1.15472e-006 
vn 0.778905 0.627143 8.23797e-007 
vn -0.179311 -0.672121 0.718402 
vn -0.198105 -0.47373 0.858099 
vn 0.842187 -0.473731 0.257487 
vn -0.431664 -0.504644 0.747663 
vn -0.644082 -0.473731 0.600615 
vn -0.644088 -0.47373 -0.600609 
vn -0.532499 -0.672121 0.514489 
vn -0.532506 -0.67212 -0.514483 
vn -0.179302 -0.67212 -0.718405 
vn 0.711809 -0.672119 -0.203924 
vn 0.711809 -0.67212 0.203917 
vn -0.467255 -0.702361 0.536993 
vn 0.698676 -0.702361 0.136165 
vn -0.342109 -0.729277 0.592551 
vn 0.684216 -0.729279 -5.4223e-007 
vn -0.342107 -0.72928 -0.592548 
vn 0.698678 -0.702359 -0.136167 
vn -0.46726 -0.702362 -0.536988 
vn -0.231414 -0.702361 -0.673155 
vn -0.231422 -0.702362 0.67315 
vn 0.39302 0.618177 0.68073 
vn 0.505496 0.831964 -0.228714 
vn -0.389451 0.627144 0.674551 
vn 0.505498 0.831962 0.228716 
vn -0.786039 0.618177 1.81142e-007 
vn 0.148033 0.955167 -0.256404 
vn 0.148036 0.955166 0.256406 
vn -0.450821 0.831963 -0.323417 
vn -0.29607 0.955166 -4.5259e-007 
vn -0.0546795 0.831963 -0.552131 
vn -0.0546753 0.831962 0.552132 
vn -0.450819 0.831964 0.323416 
f 1/1/1 2/2/3 3/4/4 4/3/5 
f 5/5/6 1/1/2 4/7/5 6/6/7 
f 7/8/8 8/9/9 9/10/11 
f 9/11/11 10/12/12 11/13/14 
f 12/14/15 10/15/13 2/16/3 
f 2/17/3 1/1/1 13/18/16 
f 14/19/17 1/1/2 5/20/6 
f 5/21/6 8/22/10 15/23/18 
f 16/25/19 11/24/14 10/68/12 18/69/21 
f 9/26/11 11/27/14 16/28/19 
f 5/29/6 15/30/18 17/31/20 
f 19/33/24 18/32/22 1/1/2 14/51/17 
f 17/35/20 15/34/18 8/36/10 18/37/22 
f 10/38/13 12/39/15 20/47/25 18/46/23 
f 20/40/25 12/41/15 2/42/3 
f 2/43/3 13/44/16 21/45/26 
f 21/49/26 13/48/16 1/1/1 18/50/23 
f 19/52/24 14/53/17 5/54/6 
f 18/55/22 19/56/24 5/59/6 17/60/20 
f 8/57/9 7/58/8 22/62/27 18/61/21 
f 22/63/27 7/64/8 9/65/11 
f 18/66/21 22/67/27 9/70/11 16/71/19 
f 2/72/3 21/73/26 18/78/23 20/79/25 
f 8/74/10 5/75/6 6/77/7 23/76/28 
f 24/80/29 6/81/7 4/82/5 
f 9/83/11 8/84/9 23/86/28 25/85/30 
f 23/87/28 6/88/7 26/89/31 
f 10/90/12 9/91/11 25/93/30 27/92/32 
f 2/94/3 10/95/13 27/97/32 3/96/4 
f 6/98/7 28/110/33 29/109/34 
f 26/100/31 6/101/7 29/102/34 
f 30/103/35 3/104/4 27/105/32 
f 31/106/36 3/107/4 30/108/35 
f 4/111/5 3/112/4 32/113/37 
f 28/115/33 3/131/4 31/132/36 
f 32/116/37 28/117/33 24/118/29 4/119/5 
f 29/120/34 25/121/30 33/122/38 
f 33/123/38 25/124/30 23/125/28 
f 27/126/32 25/127/30 34/128/39 
f 31/130/36 25/141/30 29/142/34 
f 30/134/35 27/133/32 34/135/39 31/136/36 
f 29/137/34 33/138/38 23/139/28 26/140/31 
f 31/143/36 29/144/34 28/145/33 
f 6/98/7 24/99/29 28/110/33 
f 28/115/33 32/114/37 3/131/4 
f 31/130/36 34/129/39 25/141/30 
