#Wavefront OBJ file created by Hexagon 2 
mtllib triplfan.mtl
g triplFan_0
# 76 
v 0.086294 0.097729 -0.049822 
v 0.172469 0.299297 -0.257267 
v 0.256322 0.299297 -0.147987 
v -0.309034 0.299297 -0.020729 
v -0.309034 0.309218 -0.020729 
v -0.256322 0.309218 -0.147987 
v -0.256322 0.299297 -0.147987 
v -0.172469 0.309218 -0.257267 
v -0.172468 0.299297 -0.257267 
v 0.172469 0.309218 -0.257267 
v 0.256322 0.309218 -0.147987 
v 0 0.097728 0.099642 
v 0.136565 0.299297 0.277996 
v 0 0.299297 0.295975 
v 0.085034 0.06528 0.04942 
v 0.25298 0.299297 0.246803 
v -0.086292 0.097727 -0.049821 
v 0 0.063119 -0.09573 
v 0 0 0 
v 0.087247 0.299297 -0.342489 
v 0.309034 0.299981 -0.02073 
v -0.136566 0.299297 0.277996 
v -0.252981 0.299297 0.246803 
v -0.082905 0.06312 0.047865 
v -0.340228 0.299297 0.095687 
v -0.087247 0.299297 -0.342488 
v 0.035447 0.299297 -0.382236 
v 0.340228 0.299297 0.095687 
v -0.34875 0.299297 0.160421 
v -0.035446 0.299297 -0.382236 
v -0.340228 0.309218 0.095687 
v -0.087247 0.309218 -0.342488 
v -0.34875 0.309218 0.160421 
v -0.035446 0.309218 -0.382236 
v 0.087247 0.309218 -0.342489 
v 0.34875 0.299297 0.160421 
v 0.313305 0.299298 0.221815 
v -0.313303 0.299297 0.221816 
v 0.035447 0.309218 -0.382236 
v -0.258751 0.365493 -0.027232 
v -0.152959 0.365493 -0.210469 
v 0.309034 0.309218 -0.02073 
v 0.136565 0.309218 0.277996 
v 0 0.309218 0.295975 
v -0.136566 0.309218 0.277996 
v -0.251466 0.403671 0.06848 
v -0.066428 0.40367 -0.252016 
v 0.152959 0.365492 -0.210469 
v 0.340228 0.309218 0.095687 
v 0.25298 0.309218 0.246803 
v -0.252981 0.309218 0.246803 
v 0 0.403694 -0.302962 
v 0.34875 0.309218 0.160421 
v 0.313305 0.309218 0.221815 
v -0.313303 0.309218 0.221816 
v -0.262373 0.403694 0.151481 
v 0.262373 0.403693 0.151481 
v 0.066428 0.40367 -0.252016 
v -0.180697 0.393547 -0.104324 
v 0.258752 0.365492 -0.027232 
v 0.105792 0.365493 0.237701 
v -0.105793 0.365493 0.237701 
v -0.194857 0.426325 0.019245 
v -0.080763 0.426325 -0.178371 
v 0.180696 0.393547 -0.104325 
v 0.251466 0.403671 0.06848 
v 0.185038 0.403671 0.183536 
v 1e-006 0.393547 0.20865 
v -0.185039 0.403671 0.183536 
v 0.080762 0.426324 -0.178372 
v 0 0.426324 -0.240368 
v -0.208164 0.426324 0.120184 
v 0.194856 0.426325 0.019245 
v -0.114095 0.426324 0.159129 
v 0.114095 0.426324 0.159129 
v 0.208164 0.426324 0.120184 
# 310 1 
vt 0 1 
vt 0 1 
vt 0 1 
vt 0 1 
vt 0 1 
vt 0 1 
vt 0 1 
vt 0 1 
vt 0 1 
vt 0 1 
vt 0 1 
vt 0 1 
vt 0 1 
vt 0 1 
vt 0 1 
vt 0 1 
vt 0 1 
vt 0 1 
vt 0 1 
vt 0 1 
vt 0 1 
vt 0 1 
vt 0 1 
vt 0 1 
vt 0 1 
vt 0 1 
vt 0 1 
vt 0 1 
vt 0 1 
vt 0 1 
vt 0 1 
vt 0 1 
vt 0 1 
vt 0 1 
vt 0 1 
vt 0 1 
vt 0 1 
vt 0 1 
vt 0 1 
vt 0 1 
vt 0 1 
vt 0 1 
vt 0 1 
vt 0 1 
vt 0 1 
vt 0 1 
vt 0 1 
vt 0 1 
vt 0 1 
vt 0 1 
vt 0 1 
vt 0 1 
vt 0 1 
vt 0 1 
vt 0 1 
vt 0 1 
vt 0 1 
vt 0 1 
vt 0 1 
vt 0 1 
vt 0 1 
vt 0 1 
vt 0 1 
vt 0 1 
vt 0 1 
vt 0 1 
vt 0 1 
vt 0 1 
vt 0 1 
vt 0 1 
vt 0 1 
vt 0 1 
vt 0 1 
vt 0 1 
vt 0 1 
vt 0 1 
vt 0 1 
vt 0 1 
vt 0 1 
vt 0 1 
vt 0 1 
vt 0 1 
vt 0 1 
vt 0 1 
vt 0 1 
vt 0 1 
vt 0 1 
vt 0 1 
vt 0 1 
vt 0 1 
vt 0 1 
vt 0 1 
vt 0 1 
vt 0 1 
vt 0 1 
vt 0 1 
vt 0 1 
vt 0 1 
vt 0 1 
vt 0 1 
vt 0 1 
vt 0 1 
vt 0 1 
vt 0 1 
vt 0 1 
vt 0 1 
vt 0 1 
vt 0 1 
vt 0 1 
vt 0 1 
vt 0 1 
vt 0 1 
vt 0 1 
vt 0 1 
vt 0 1 
vt 0 1 
vt 0 1 
vt 0 1 
vt 0 1 
vt 0 1 
vt 0 1 
vt 0 1 
vt 0 1 
vt 0 1 
vt 0 1 
vt 0 1 
vt 0 1 
vt 0 1 
vt 0 1 
vt 0 1 
vt 0 1 
vt 0 1 
vt 0 1 
vt 0 1 
vt 0 1 
vt 0 1 
vt 0 1 
vt 0 1 
vt 0 1 
vt 0 1 
vt 0 1 
vt 0 1 
vt 0 1 
vt 0 1 
vt 0 1 
vt 0 1 
vt 0 1 
vt 0 1 
vt 0 1 
vt 0 1 
vt 0 1 
vt 0 1 
vt 0 1 
vt 0 1 
vt 0 1 
vt 0 1 
vt 0 1 
vt 0 1 
vt 0 1 
vt 0 1 
vt 0 1 
vt 0 1 
vt 0 1 
vt 0 1 
vt 0 1 
vt 0 1 
vt 0 1 
vt 0 1 
vt 0 1 
vt 0 1 
vt 0 1 
vt 0 1 
vt 0 1 
vt 0 1 
vt 0 1 
vt 0 1 
vt 0 1 
vt 0 1 
vt 0 1 
vt 0 1 
vt 0 1 
vt 0 1 
vt 0 1 
vt 0 1 
vt 0 1 
vt 0 1 
vt 0 1 
vt 0 1 
vt 0 1 
vt 0 1 
vt 0 1 
vt 0 1 
vt 0 1 
vt 0 1 
vt 0 1 
vt 0 1 
vt 0 1 
vt 0 1 
vt 0 1 
vt 0 1 
vt 0 1 
vt 0 1 
vt 0 1 
vt 0 1 
vt 0 1 
vt 0 1 
vt 0 1 
vt 0 1 
vt 0 1 
vt 0 1 
vt 0 1 
vt 0 1 
vt 0 1 
vt 0 1 
vt 0 1 
vt 0 1 
vt 0 1 
vt 0 1 
vt 0 1 
vt 0 1 
vt 0 1 
vt 0 1 
vt 0 1 
vt 0 1 
vt 0 1 
vt 0 1 
vt 0 1 
vt 0 1 
vt 0 1 
vt 0 1 
vt 0 1 
vt 0 1 
vt 0 1 
vt 0 1 
vt 0 1 
vt 0 1 
vt 0 1 
vt 0 1 
vt 0 1 
vt 0 1 
vt 0 1 
vt 0 1 
vt 0 1 
vt 0 1 
vt 0 1 
vt 0 1 
vt 0 1 
vt 0 1 
vt 0 1 
vt 0 1 
vt 0 1 
vt 0 1 
vt 0 1 
vt 0 1 
vt 0 1 
vt 0 1 
vt 0 1 
vt 0 1 
vt 0 1 
vt 0 1 
vt 0 1 
vt 0 1 
vt 0 1 
vt 0 1 
vt 0 1 
vt 0 1 
vt 0 1 
vt 0 1 
vt 0 1 
vt 0 1 
vt 0 1 
vt 0 1 
vt 0 1 
vt 0 1 
vt 0 1 
vt 0 1 
vt 0 1 
vt 0 1 
vt 0 1 
vt 0 1 
vt 0 1 
vt 0 1 
vt 0 1 
vt 0 1 
vt 0 1 
vt 0 1 
vt 0 1 
vt 0 1 
vt 0 1 
vt 0 1 
vt 0 1 
vt 0 1 
vt 0 1 
vt 0 1 
vt 0 1 
vt 0 1 
vt 0 1 
vt 0 1 
vt 0 1 
vt 0 1 
vt 0 1 
vt 0 1 
vt 0 1 
vt 0 1 
vt 0 1 
vt 0 1 
vt 0 1 
vt 0 1 
vt 0 1 
vt 0 1 
# 78 
vn 0.614425 -0.705946 -0.35231 
vn 0.664251 -0.457222 -0.591371 
vn 0.802469 -0.377348 -0.462224 
vn -0.844267 -0.457222 -0.279572 
vn -0.892575 0.333599 -0.303352 
vn -0.786763 0.417938 -0.454237 
vn -0.801986 -0.37739 -0.463028 
vn -0.709 0.333582 -0.621322 
vn -0.664245 -0.457234 -0.591368 
vn 0.708997 0.333603 -0.621315 
vn 0.786759 0.417947 -0.454236 
vn 0.000366521 -0.70595 0.708261 
vn 0.18033 -0.457304 0.870835 
vn 4.45237e-007 -0.377381 0.926058 
vn 0.506366 -0.811242 0.29237 
vn 0.306079 -0.256243 0.916873 
vn -0.613449 -0.705861 -0.354175 
vn -4.35926e-007 -0.811526 -0.584316 
vn -0.606405 -0.713932 -0.350106 
vn 0.607487 -0.714103 -0.347874 
vn 0.000734595 -0.714108 0.700035 
vn 0.641006 -0.256193 -0.723517 
vn 0.844714 -0.457107 -0.27841 
vn -0.180017 -0.457223 0.870943 
vn -0.306083 -0.256194 0.916885 
vn -0.506031 -0.811527 0.292158 
vn -0.947087 -0.256194 -0.19337 
vn -0.641004 -0.256204 -0.723515 
vn 0.311119 -0.427959 -0.848561 
vn 0.946883 -0.256247 -0.194291 
vn -0.890434 -0.427961 0.154846 
vn -0.31112 -0.427959 -0.848561 
vn -0.918965 0.349202 -0.1832 
vn -0.618139 0.349194 -0.70425 
vn -0.912223 0.36638 0.183344 
vn -0.297336 0.366378 -0.881679 
vn 0.618137 0.349204 -0.704246 
vn 0.890482 -0.428111 0.15415 
vn 0.579316 -0.427999 0.693693 
vn -0.579314 -0.42796 0.693719 
vn 0.297335 0.366379 -0.881679 
vn -0.660654 0.695708 -0.282007 
vn -0.57455 0.695709 -0.43114 
vn 0.892574 0.3336 -0.303352 
vn 0.183577 0.333599 0.924668 
vn 3.70252e-007 0.417945 0.908472 
vn -0.183577 0.333599 0.924668 
vn -0.623121 0.76585 -0.158723 
vn -0.449021 0.765848 -0.460279 
vn 0.574549 0.695712 -0.431137 
vn 0.918964 0.349204 -0.183197 
vn 0.300829 0.349204 0.887445 
vn -0.300829 0.349204 0.887445 
vn -2.00637e-007 0.824303 -0.566149 
vn 0.912224 0.366382 0.183337 
vn 0.614893 0.366383 0.698333 
vn -0.614889 0.366379 0.698339 
vn -0.490297 0.824304 0.283074 
vn 0.490298 0.824304 0.283073 
vn 0.449021 0.76585 -0.460276 
vn -0.537274 0.784293 -0.310196 
vn 0.660652 0.695709 -0.282007 
vn 0.0861015 0.695709 0.713144 
vn -0.0861012 0.69571 0.713144 
vn -0.373232 0.914526 -0.156012 
vn -0.321729 0.914525 -0.245224 
vn 0.53727 0.784295 -0.310196 
vn 0.623121 0.765852 -0.158721 
vn 0.174104 0.765851 0.618999 
vn 1.45899e-007 0.784296 0.620387 
vn -0.174102 0.765852 0.618998 
vn 0.259203 0.9454 -0.197565 
vn 6.03438e-006 0.985484 -0.169768 
vn -0.147019 0.985484 0.0848885 
vn 0.300697 0.945401 -0.125691 
vn -0.0414947 0.945401 0.323257 
vn 0.0414956 0.9454 0.323259 
vn 0.196814 0.973834 0.113634 
f 1/1/1 2/2/2 3/3/3 
f 4/4/4 5/5/5 6/7/6 7/6/7 
f 7/8/7 6/9/6 8/11/8 9/10/9 
f 2/12/2 10/13/10 11/15/11 3/14/3 
f 12/16/12 13/17/13 14/18/14 
f 16/20/16 13/19/13 15/96/15 37/97/39 
f 17/21/17 4/22/4 7/23/7 
f 9/24/9 17/25/17 7/26/7 
f 18/27/18 19/28/19 17/30/17 9/29/9 
f 20/32/22 2/31/2 18/60/18 27/59/29 
f 1/1/1 19/33/20 18/34/18 2/35/2 
f 3/36/3 21/37/23 1/1/1 
f 22/38/24 12/39/12 14/40/14 
f 24/42/26 22/41/24 23/98/25 38/99/40 
f 12/43/12 19/44/21 15/46/15 13/45/13 
f 19/47/19 24/48/26 4/50/4 17/49/17 
f 24/51/26 19/52/21 12/54/12 22/53/24 
f 25/56/27 4/55/4 24/64/26 29/63/31 
f 18/58/18 9/57/9 26/65/28 30/66/32 
f 15/62/15 21/61/23 28/94/30 36/95/38 
f 1/68/1 21/67/23 15/69/15 19/70/20 
f 30/71/32 27/72/29 18/73/18 
f 25/74/27 31/75/33 5/77/5 4/76/4 
f 9/78/9 8/79/8 32/81/34 26/80/28 
f 33/82/35 31/83/33 25/85/27 29/84/31 
f 32/86/34 34/87/36 30/89/32 26/88/28 
f 20/90/22 35/91/37 10/93/10 2/92/2 
f 38/100/40 29/101/31 24/102/26 
f 39/103/41 35/104/37 20/106/22 27/105/29 
f 34/107/36 39/108/41 27/110/29 30/109/32 
f 15/111/15 36/112/38 37/113/39 
f 5/114/5 40/115/42 6/116/6 
f 8/117/8 6/118/6 41/119/43 
f 42/121/44 21/120/23 3/122/3 11/123/11 
f 13/124/13 43/125/45 44/127/46 14/126/14 
f 14/128/14 44/129/46 45/131/47 22/130/24 
f 5/132/5 31/133/33 46/135/48 40/134/42 
f 32/136/34 8/137/8 41/139/43 47/138/49 
f 10/140/10 48/141/50 11/142/11 
f 28/143/30 21/144/23 42/145/44 49/146/51 
f 16/147/16 50/148/52 43/150/45 13/149/13 
f 22/151/24 45/152/47 51/154/53 23/153/25 
f 47/155/49 52/156/54 34/158/36 32/157/34 
f 49/159/51 53/160/55 36/162/38 28/161/30 
f 54/163/56 50/164/52 16/166/16 37/165/39 
f 51/167/53 55/168/57 38/170/40 23/169/25 
f 55/171/57 33/172/35 29/174/31 38/173/40 
f 56/175/58 33/176/35 55/177/57 
f 39/178/41 34/179/36 52/180/54 
f 53/181/55 54/182/56 37/184/39 36/183/38 
f 53/185/55 57/186/59 54/187/56 
f 56/188/58 46/189/48 31/191/33 33/190/35 
f 10/192/10 35/193/37 58/195/60 48/194/50 
f 6/196/6 40/197/42 59/199/61 41/198/43 
f 42/200/44 11/201/11 60/202/62 
f 43/203/45 61/204/63 44/205/46 
f 45/206/47 44/207/46 62/208/64 
f 40/209/42 46/210/48 63/212/65 59/211/61 
f 47/213/49 41/214/43 59/216/61 64/215/66 
f 11/217/11 48/218/50 65/220/67 60/219/62 
f 49/221/51 42/222/44 60/224/62 66/223/68 
f 43/225/45 50/226/52 67/228/69 61/227/63 
f 44/229/46 61/230/63 68/232/70 62/231/64 
f 51/233/53 45/234/47 62/236/64 69/235/71 
f 52/237/54 58/238/60 35/240/37 39/239/41 
f 48/241/50 58/242/60 70/244/72 65/243/67 
f 58/245/60 52/246/54 71/248/73 70/247/72 
f 66/249/68 57/250/59 53/252/55 49/251/51 
f 57/253/59 67/254/69 50/256/52 54/255/56 
f 69/257/71 56/258/58 55/260/57 51/259/53 
f 52/261/54 47/262/49 64/264/66 71/263/73 
f 46/265/48 56/266/58 72/268/74 63/267/65 
f 64/269/66 59/270/61 63/271/65 
f 66/272/68 60/273/62 65/275/67 73/274/75 
f 69/276/71 62/277/64 68/279/70 74/278/76 
f 61/280/63 67/281/69 75/283/77 68/282/70 
f 56/284/58 69/285/71 74/287/76 72/286/74 
f 67/288/69 57/289/59 76/291/78 75/290/77 
f 74/292/76 68/293/70 75/294/77 
f 73/295/75 65/296/67 70/297/72 
f 57/298/59 66/299/68 73/301/75 76/300/78 
f 63/306/65 72/305/74 71/310/73 64/308/66 
f 73/307/75 75/302/77 76/303/78 
f 70/309/72 74/304/76 75/302/77 73/307/75 
f 71/310/73 72/305/74 74/304/76 70/309/72 
