#Wavefront OBJ file created by Hexagon 2 
mtllib twinkle.mtl
g twinkle__0
# 66 
v 0.160303 0.308105 0.314611 
v 0.249677 0.308105 0.249677 
v 0.249677 0.315791 0.249677 
v 0.160303 0.315791 0.314611 
v 0.055236 0.308105 0.348749 
v 0.055236 0.315791 0.348749 
v -0.055236 0.308105 0.348749 
v -0.055236 0.315791 0.348749 
v -0.160303 0.308105 0.314611 
v -0.160303 0.315791 0.314611 
v -0.249677 0.308105 0.249676 
v -0.249677 0.315791 0.249676 
v -0.314612 0.308105 0.160302 
v -0.314612 0.315791 0.160302 
v -0.34875 0.308105 0.055236 
v -0.34875 0.315791 0.055236 
v -0.34875 0.308105 -0.055238 
v -0.34875 0.315791 -0.055238 
v -0.314612 0.308105 -0.160304 
v -0.314612 0.315791 -0.160304 
v -0.249677 0.308105 -0.249678 
v -0.249677 0.315791 -0.249678 
v -0.136788 0.155831 -0.136789 
v -0.055237 0.308105 -0.348751 
v -0.030262 0.155831 -0.191068 
v -0.160303 0.308105 -0.314613 
v 0.160303 0.308105 -0.314613 
v 0.087823 0.155831 -0.172365 
v 0.055236 0.308105 -0.348751 
v 0.249677 0.308105 -0.249678 
v 0.314612 0.308105 -0.160304 
v 0.172361 0.155829 -0.087824 
v 0.136783 0.155825 0.136783 
v 0.030261 0.155825 0.191059 
v -0.191064 0.155829 -0.030263 
v -0.087821 0.155825 0.172356 
v -0.172359 0.155827 0.08782 
v 0.34875 0.308105 -0.055237 
v 0.0344 0.055062 -0.067514 
v 0.34875 0.308105 0.055236 
v 0.191062 0.155827 0.03026 
v 0.314612 0.308105 0.160302 
v 0.011854 0.055065 0.074844 
v -0.053581 0.055063 -0.053582 
v 0 0 0 
v -0.067518 0.055066 0.034401 
v 0.074841 0.055063 0.011853 
v 0.045211 0.355652 0.285451 
v -0.257509 0.355652 0.131206 
v -0.160303 0.315791 -0.314613 
v 0.055236 0.315791 -0.348751 
v 0.160303 0.315791 -0.314613 
v 0.249677 0.315791 -0.249678 
v 0.34875 0.315791 -0.055237 
v 0.34875 0.315791 0.055236 
v 0.314612 0.315791 0.160302 
v -0.115016 0.372432 0.225731 
v -0.055237 0.315791 -0.348751 
v 0.314612 0.315791 -0.160304 
v -0.250226 0.372432 -0.039633 
v 0.179141 0.372432 0.179141 
v -0.20436 0.355652 -0.204361 
v 0.131208 0.355652 -0.257511 
v 0.285451 0.355652 0.04521 
v -0.039632 0.372432 -0.250227 
v 0.225732 0.372432 -0.115017 
# 288 1 
vt 0 1 
vt 0 1 
vt 0 1 
vt 0 1 
vt 0 1 
vt 0 1 
vt 0 1 
vt 0 1 
vt 0 1 
vt 0 1 
vt 0 1 
vt 0 1 
vt 0 1 
vt 0 1 
vt 0 1 
vt 0 1 
vt 0 1 
vt 0 1 
vt 0 1 
vt 0 1 
vt 0 1 
vt 0 1 
vt 0 1 
vt 0 1 
vt 0 1 
vt 0 1 
vt 0 1 
vt 0 1 
vt 0 1 
vt 0 1 
vt 0 1 
vt 0 1 
vt 0 1 
vt 0 1 
vt 0 1 
vt 0 1 
vt 0 1 
vt 0 1 
vt 0 1 
vt 0 1 
vt 0 1 
vt 0 1 
vt 0 1 
vt 0 1 
vt 0 1 
vt 0 1 
vt 0 1 
vt 0 1 
vt 0 1 
vt 0 1 
vt 0 1 
vt 0 1 
vt 0 1 
vt 0 1 
vt 0 1 
vt 0 1 
vt 0 1 
vt 0 1 
vt 0 1 
vt 0 1 
vt 0 1 
vt 0 1 
vt 0 1 
vt 0 1 
vt 0 1 
vt 0 1 
vt 0 1 
vt 0 1 
vt 0 1 
vt 0 1 
vt 0 1 
vt 0 1 
vt 0 1 
vt 0 1 
vt 0 1 
vt 0 1 
vt 0 1 
vt 0 1 
vt 0 1 
vt 0 1 
vt 0 1 
vt 0 1 
vt 0 1 
vt 0 1 
vt 0 1 
vt 0 1 
vt 0 1 
vt 0 1 
vt 0 1 
vt 0 1 
vt 0 1 
vt 0 1 
vt 0 1 
vt 0 1 
vt 0 1 
vt 0 1 
vt 0 1 
vt 0 1 
vt 0 1 
vt 0 1 
vt 0 1 
vt 0 1 
vt 0 1 
vt 0 1 
vt 0 1 
vt 0 1 
vt 0 1 
vt 0 1 
vt 0 1 
vt 0 1 
vt 0 1 
vt 0 1 
vt 0 1 
vt 0 1 
vt 0 1 
vt 0 1 
vt 0 1 
vt 0 1 
vt 0 1 
vt 0 1 
vt 0 1 
vt 0 1 
vt 0 1 
vt 0 1 
vt 0 1 
vt 0 1 
vt 0 1 
vt 0 1 
vt 0 1 
vt 0 1 
vt 0 1 
vt 0 1 
vt 0 1 
vt 0 1 
vt 0 1 
vt 0 1 
vt 0 1 
vt 0 1 
vt 0 1 
vt 0 1 
vt 0 1 
vt 0 1 
vt 0 1 
vt 0 1 
vt 0 1 
vt 0 1 
vt 0 1 
vt 0 1 
vt 0 1 
vt 0 1 
vt 0 1 
vt 0 1 
vt 0 1 
vt 0 1 
vt 0 1 
vt 0 1 
vt 0 1 
vt 0 1 
vt 0 1 
vt 0 1 
vt 0 1 
vt 0 1 
vt 0 1 
vt 0 1 
vt 0 1 
vt 0 1 
vt 0 1 
vt 0 1 
vt 0 1 
vt 0 1 
vt 0 1 
vt 0 1 
vt 0 1 
vt 0 1 
vt 0 1 
vt 0 1 
vt 0 1 
vt 0 1 
vt 0 1 
vt 0 1 
vt 0 1 
vt 0 1 
vt 0 1 
vt 0 1 
vt 0 1 
vt 0 1 
vt 0 1 
vt 0 1 
vt 0 1 
vt 0 1 
vt 0 1 
vt 0 1 
vt 0 1 
vt 0 1 
vt 0 1 
vt 0 1 
vt 0 1 
vt 0 1 
vt 0 1 
vt 0 1 
vt 0 1 
vt 0 1 
vt 0 1 
vt 0 1 
vt 0 1 
vt 0 1 
vt 0 1 
vt 0 1 
vt 0 1 
vt 0 1 
vt 0 1 
vt 0 1 
vt 0 1 
vt 0 1 
vt 0 1 
vt 0 1 
vt 0 1 
vt 0 1 
vt 0 1 
vt 0 1 
vt 0 1 
vt 0 1 
vt 0 1 
vt 0 1 
vt 0 1 
vt 0 1 
vt 0 1 
vt 0 1 
vt 0 1 
vt 0 1 
vt 0 1 
vt 0 1 
vt 0 1 
vt 0 1 
vt 0 1 
vt 0 1 
vt 0 1 
vt 0 1 
vt 0 1 
vt 0 1 
vt 0 1 
vt 0 1 
vt 0 1 
vt 0 1 
vt 0 1 
vt 0 1 
vt 0 1 
vt 0 1 
vt 0 1 
vt 0 1 
vt 0 1 
vt 0 1 
vt 0 1 
vt 0 1 
vt 0 1 
vt 0 1 
vt 0 1 
vt 0 1 
vt 0 1 
vt 0 1 
vt 0 1 
vt 0 1 
vt 0 1 
vt 0 1 
vt 0 1 
vt 0 1 
vt 0 1 
vt 0 1 
vt 0 1 
vt 0 1 
vt 0 1 
vt 0 1 
vt 0 1 
vt 0 1 
vt 0 1 
vt 0 1 
vt 0 1 
vt 0 1 
vt 0 1 
vt 0 1 
vt 0 1 
vt 0 1 
vt 0 1 
vt 0 1 
vt 0 1 
vt 0 1 
vt 0 1 
vt 0 1 
# 86 
vn 0.398936 -0.477314 0.782957 
vn 0.649651 -0.394846 0.649653 
vn 0.707106 -3.32074e-007 0.707108 
vn 0.324727 0.888316 0.324727 
vn 0.453989 2.55659e-007 0.891007 
vn 0.204063 0.866369 0.45581 
vn 0.143723 -0.394845 0.907437 
vn 0.156433 4.69146e-008 0.987689 
vn 0.0826211 0.849148 0.521653 
vn -0.137464 -0.477314 0.867914 
vn -0.156433 4.69146e-008 0.987689 
vn -0.0532233 0.866369 0.496561 
vn -0.417104 -0.394846 0.818609 
vn -0.453992 -1.60384e-007 0.891006 
vn -0.20849 0.888314 0.409181 
vn -0.621358 -0.477315 0.621357 
vn -0.707106 -4.9331e-007 0.707107 
vn -0.370439 0.866371 0.334928 
vn -0.818608 -0.394847 0.417106 
vn -0.891005 1.57379e-007 0.453994 
vn -0.470581 0.849153 0.239775 
vn -0.867914 -0.477315 0.137464 
vn -0.987688 1.36546e-006 0.156435 
vn -0.4887 0.866371 0.102827 
vn -0.907436 -0.394846 -0.143724 
vn -0.987688 -1.18896e-007 -0.156435 
vn -0.45358 0.888315 -0.0718405 
vn -0.782955 -0.477315 -0.398939 
vn -0.891005 -1.32697e-006 -0.453994 
vn -0.433005 0.866371 -0.248814 
vn -0.649653 -0.394845 -0.649653 
vn -0.707106 -2.4882e-007 -0.707107 
vn -0.373458 0.849151 -0.373458 
vn -0.474268 -0.741714 -0.474267 
vn -0.143724 -0.394844 -0.907437 
vn -0.103576 -0.749406 -0.65396 
vn -0.39894 -0.477314 -0.782955 
vn 0.417104 -0.394845 -0.818609 
vn 0.304499 -0.741715 -0.597611 
vn 0.137463 -0.477314 -0.867914 
vn 0.621358 -0.477314 -0.621358 
vn 0.818609 -0.394846 -0.417105 
vn 0.589944 -0.749406 -0.300593 
vn 0.468184 -0.749406 0.468183 
vn 0.104922 -0.741715 0.662458 
vn -0.65396 -0.749406 -0.103575 
vn -0.300597 -0.749405 0.589943 
vn -0.59761 -0.741716 0.304498 
vn 0.867914 -0.477314 -0.137464 
vn 0.272773 -0.799377 -0.535342 
vn 0.907436 -0.394845 0.143724 
vn 0.662457 -0.741716 0.104922 
vn 0.782956 -0.477315 0.398937 
vn 0.0939872 -0.799378 0.593432 
vn -0.42485 -0.799379 -0.424848 
vn -7.19457e-007 -1 1.79099e-006 
vn -0.535346 -0.799375 0.272772 
vn 0.593432 -0.799377 0.0939896 
vn 0.0674227 0.902353 0.425693 
vn -0.38402 0.902354 0.195669 
vn -0.453993 2.89474e-008 -0.891005 
vn -0.248813 0.866371 -0.433005 
vn 0.156433 1.8388e-008 -0.987689 
vn 0.102827 0.866369 -0.488705 
vn 0.453992 5.558e-008 -0.891006 
vn 0.239778 0.849148 -0.470588 
vn 0.707106 -2.4882e-007 -0.707107 
vn 0.334932 0.866368 -0.370442 
vn 0.987689 1.19497e-006 -0.156433 
vn 0.496558 0.866371 -0.0532221 
vn 0.987688 9.51795e-007 0.156435 
vn 0.521646 0.849152 0.0826207 
vn 0.891006 -9.74271e-008 0.453992 
vn 0.455806 0.866372 0.204062 
vn -0.11428 0.9678 0.224284 
vn -0.156434 -8.24458e-009 -0.987688 
vn -0.0718413 0.888315 -0.453581 
vn 0.891005 4.00559e-007 -0.453993 
vn 0.409183 0.888314 -0.208488 
vn -0.17757 0.983706 -0.0281244 
vn 0.148417 0.977724 0.148417 
vn -0.304761 0.902353 -0.304761 
vn 0.19567 0.902352 -0.384023 
vn 0.42569 0.902354 0.0674229 
vn -0.0393787 0.9678 -0.248621 
vn 0.187017 0.977724 -0.0952894 
f 1/1/1 2/2/2 3/4/3 4/3/5 
f 5/5/7 1/1/1 4/7/5 6/6/8 
f 7/8/10 5/9/7 6/11/8 8/10/11 
f 9/12/13 7/13/10 8/15/11 10/14/14 
f 11/16/16 9/17/13 10/19/14 12/18/17 
f 13/20/19 11/21/16 12/23/17 14/22/20 
f 15/24/22 13/25/19 14/27/20 16/26/23 
f 17/28/25 15/29/22 16/31/23 18/30/26 
f 19/32/28 17/33/25 18/35/26 20/34/29 
f 21/36/31 19/37/28 20/39/29 22/38/32 
f 21/40/31 23/41/34 19/42/28 
f 24/43/35 25/44/36 26/45/37 
f 27/46/38 28/47/39 29/48/40 
f 27/49/38 30/50/41 28/51/39 
f 31/52/42 32/53/43 30/54/41 
f 2/55/2 1/1/1 33/56/44 
f 5/57/7 34/58/45 1/1/1 
f 5/59/7 7/60/10 34/61/45 
f 17/62/25 35/63/46 15/64/22 
f 9/65/13 36/66/47 7/67/10 
f 9/68/13 11/69/16 36/70/47 
f 13/71/19 37/72/48 11/73/16 
f 13/74/19 15/75/22 37/76/48 
f 17/77/25 19/78/28 35/79/46 
f 21/80/31 26/81/37 23/82/34 
f 24/83/35 29/84/40 25/85/36 
f 31/86/42 38/87/49 32/88/43 
f 29/89/40 28/90/39 39/92/50 25/91/36 
f 40/93/51 41/94/52 38/95/49 
f 28/96/39 30/97/41 32/99/43 39/98/50 
f 40/100/51 42/101/53 41/102/52 
f 2/103/2 33/104/44 42/105/53 
f 1/1/1 34/106/45 43/108/54 33/107/44 
f 19/109/28 23/110/34 44/112/55 35/111/46 
f 34/113/45 7/114/10 36/116/47 43/115/54 
f 45/117/56 43/118/54 36/124/47 46/123/57 
f 11/119/16 37/120/48 46/122/57 36/121/47 
f 37/125/48 15/126/22 35/128/46 46/127/57 
f 45/129/56 46/130/57 35/136/46 44/135/55 
f 23/131/34 26/132/37 25/134/36 44/133/55 
f 45/137/56 44/138/55 25/144/36 39/143/50 
f 38/139/49 41/140/52 47/142/58 32/141/43 
f 45/145/56 39/146/50 32/152/43 47/151/58 
f 41/147/52 42/148/53 33/150/44 47/149/58 
f 33/153/44 43/154/54 45/155/56 47/156/58 
f 6/157/9 4/158/6 48/159/59 
f 14/160/21 12/161/18 49/162/60 
f 26/163/37 21/164/31 22/166/32 50/165/61 
f 27/167/38 29/168/40 51/170/63 52/169/65 
f 30/171/41 27/172/38 52/174/65 53/173/67 
f 40/175/51 38/176/49 54/178/69 55/177/71 
f 42/179/53 40/180/51 55/182/71 56/181/73 
f 6/183/9 48/184/59 8/185/12 
f 57/186/75 10/187/15 8/214/12 48/213/59 
f 14/188/21 49/189/60 16/190/24 
f 12/192/18 10/191/15 57/215/75 49/216/60 
f 24/193/35 26/194/37 50/196/61 58/195/76 
f 29/197/40 24/198/35 58/200/76 51/199/63 
f 31/201/42 30/202/41 53/204/67 59/203/78 
f 38/205/49 31/206/42 59/208/78 54/207/69 
f 2/209/2 42/210/53 56/212/73 3/211/3 
f 20/218/30 18/217/27 60/250/80 62/251/82 
f 60/219/80 18/220/27 16/224/24 49/223/60 
f 61/221/81 48/222/59 4/244/6 3/243/4 
f 22/225/33 62/226/82 50/227/62 
f 22/228/33 20/229/30 62/230/82 
f 52/231/66 51/232/64 63/233/83 
f 52/234/66 63/235/83 53/236/68 
f 55/237/72 54/238/70 64/239/84 
f 55/240/72 64/241/84 56/242/74 
f 61/245/81 3/246/4 56/273/74 64/272/84 
f 57/247/75 48/248/59 61/249/81 
f 60/252/80 49/253/60 57/254/75 
f 65/255/85 58/256/77 50/258/62 62/257/82 
f 66/259/86 59/260/79 53/267/68 63/266/83 
f 65/261/85 62/262/82 60/263/80 
f 65/264/85 63/265/83 51/269/64 58/268/77 
f 66/270/86 64/271/84 54/275/70 59/274/79 
f 61/276/81 64/277/84 66/278/86 
f 66/279/86 63/280/83 65/281/85 
f 60/285/80 66/282/86 65/284/85 
f 61/286/81 60/287/80 57/288/75 
f 61/283/81 66/282/86 60/285/80 
