#Wavefront OBJ file created by Hexagon 2 
mtllib xbackgam.mtl
g Xbackg__0
# 48 
v -0.052064 0.199064 -0.217393 
v 0.052064 0.199064 -0.217393 
v 0 0 0 
v -0.10446 0.012208 0 
v -0.052064 0.199065 0.217393 
v 0.052064 0.199065 0.217393 
v -0.163836 0.240413 0.232443 
v -0.163837 0.240413 -0.232443 
v 0.10446 0.012208 0 
v -0.209964 0.051007 0 
v 0.163836 0.240413 -0.232443 
v 0.163837 0.240413 0.232443 
v -0.263841 0.320311 0.261523 
v -0.263838 0.320309 -0.261523 
v 0.209963 0.051007 0 
v -0.305339 0.116082 0 
v 0.26384 0.32031 -0.261523 
v 0.263837 0.320308 0.261522 
v 0.30534 0.116083 0 
v -0.34875 0.320311 0.176614 
v -0.34875 0.320311 -0.176614 
v -0.34875 0.333148 0.176614 
v -0.263841 0.333148 0.261523 
v -0.263838 0.333149 -0.261523 
v -0.34875 0.333148 -0.176614 
v 0.26384 0.333149 -0.261523 
v 0.34875 0.320311 -0.176614 
v 0.34875 0.320311 0.176614 
v 0.263837 0.33315 0.261522 
v 0.34875 0.333148 -0.176614 
v 0.34875 0.333148 0.176614 
v -0.294014 0.411611 0 
v -0.263812 0.406819 0.155714 
v -0.263812 0.40682 -0.155714 
v -0.262326 0.435401 0.051882 
v -0.262326 0.435401 -0.051883 
v 0.294014 0.41161 0 
v 0 0.406189 0.209096 
v 0 0.406189 -0.209096 
v 0.263812 0.40682 -0.155715 
v 0.263812 0.406821 0.155713 
v 0 0.40682 0.20819 
v 0 0.406819 -0.208192 
v 0.262326 0.435401 0.051882 
v 0.262326 0.435401 -0.051883 
v 0 0.463142 0.103257 
v 0 0.463142 -0.103257 
v 0 0.482055 0 
# 214 1 
vt 0 1 
vt 0 1 
vt 0 1 
vt 0 1 
vt 0 1 
vt 0 1 
vt 0 1 
vt 0 1 
vt 0 1 
vt 0 1 
vt 0 1 
vt 0 1 
vt 0 1 
vt 0 1 
vt 0 1 
vt 0 1 
vt 0 1 
vt 0 1 
vt 0 1 
vt 0 1 
vt 0 1 
vt 0 1 
vt 0 1 
vt 0 1 
vt 0 1 
vt 0 1 
vt 0 1 
vt 0 1 
vt 0 1 
vt 0 1 
vt 0 1 
vt 0 1 
vt 0 1 
vt 0 1 
vt 0 1 
vt 0 1 
vt 0 1 
vt 0 1 
vt 0 1 
vt 0 1 
vt 0 1 
vt 0 1 
vt 0 1 
vt 0 1 
vt 0 1 
vt 0 1 
vt 0 1 
vt 0 1 
vt 0 1 
vt 0 1 
vt 0 1 
vt 0 1 
vt 0 1 
vt 0 1 
vt 0 1 
vt 0 1 
vt 0 1 
vt 0 1 
vt 0 1 
vt 0 1 
vt 0 1 
vt 0 1 
vt 0 1 
vt 0 1 
vt 0 1 
vt 0 1 
vt 0 1 
vt 0 1 
vt 0 1 
vt 0 1 
vt 0 1 
vt 0 1 
vt 0 1 
vt 0 1 
vt 0 1 
vt 0 1 
vt 0 1 
vt 0 1 
vt 0 1 
vt 0 1 
vt 0 1 
vt 0 1 
vt 0 1 
vt 0 1 
vt 0 1 
vt 0 1 
vt 0 1 
vt 0 1 
vt 0 1 
vt 0 1 
vt 0 1 
vt 0 1 
vt 0 1 
vt 0 1 
vt 0 1 
vt 0 1 
vt 0 1 
vt 0 1 
vt 0 1 
vt 0 1 
vt 0 1 
vt 0 1 
vt 0 1 
vt 0 1 
vt 0 1 
vt 0 1 
vt 0 1 
vt 0 1 
vt 0 1 
vt 0 1 
vt 0 1 
vt 0 1 
vt 0 1 
vt 0 1 
vt 0 1 
vt 0 1 
vt 0 1 
vt 0 1 
vt 0 1 
vt 0 1 
vt 0 1 
vt 0 1 
vt 0 1 
vt 0 1 
vt 0 1 
vt 0 1 
vt 0 1 
vt 0 1 
vt 0 1 
vt 0 1 
vt 0 1 
vt 0 1 
vt 0 1 
vt 0 1 
vt 0 1 
vt 0 1 
vt 0 1 
vt 0 1 
vt 0 1 
vt 0 1 
vt 0 1 
vt 0 1 
vt 0 1 
vt 0 1 
vt 0 1 
vt 0 1 
vt 0 1 
vt 0 1 
vt 0 1 
vt 0 1 
vt 0 1 
vt 0 1 
vt 0 1 
vt 0 1 
vt 0 1 
vt 0 1 
vt 0 1 
vt 0 1 
vt 0 1 
vt 0 1 
vt 0 1 
vt 0 1 
vt 0 1 
vt 0 1 
vt 0 1 
vt 0 1 
vt 0 1 
vt 0 1 
vt 0 1 
vt 0 1 
vt 0 1 
vt 0 1 
vt 0 1 
vt 0 1 
vt 0 1 
vt 0 1 
vt 0 1 
vt 0 1 
vt 0 1 
vt 0 1 
vt 0 1 
vt 0 1 
vt 0 1 
vt 0 1 
vt 0 1 
vt 0 1 
vt 0 1 
vt 0 1 
vt 0 1 
vt 0 1 
vt 0 1 
vt 0 1 
vt 0 1 
vt 0 1 
vt 0 1 
vt 0 1 
vt 0 1 
vt 0 1 
vt 0 1 
vt 0 1 
vt 0 1 
vt 0 1 
vt 0 1 
vt 0 1 
vt 0 1 
vt 0 1 
vt 0 1 
vt 0 1 
vt 0 1 
vt 0 1 
vt 0 1 
vt 0 1 
vt 0 1 
vt 0 1 
# 53 
vn -0.0911434 -0.621588 -0.778024 
vn 0.0681844 -0.656132 -0.751559 
vn 0.0218679 -0.745088 -0.666608 
vn -0.0218678 -0.745086 0.66661 
vn -0.133059 -0.735738 -0.664067 
vn -0.1547 -0.735991 0.65908 
vn -0.0681832 -0.656133 0.751559 
vn 0.0911424 -0.621589 0.778023 
vn -0.165299 -0.544754 0.822143 
vn -0.1653 -0.544754 -0.822143 
vn 0.133057 -0.735737 0.664068 
vn 0.154702 -0.735991 -0.659078 
vn -0.317727 -0.703357 0.635877 
vn -0.317729 -0.703357 -0.635875 
vn 0.1653 -0.544754 -0.822143 
vn 0.165299 -0.544754 0.822143 
vn -0.375147 -0.362623 0.853094 
vn -0.375144 -0.362623 -0.853095 
vn 0.317729 -0.703357 -0.635875 
vn 0.317728 -0.703357 0.635876 
vn -0.725745 -0.687964 -2.81042e-007 
vn 0.375147 -0.362624 -0.853094 
vn 0.375141 -0.362622 0.853097 
vn 0.725745 -0.687964 1.02286e-006 
vn -0.906988 -0.227297 0.354556 
vn -0.906985 -0.227298 -0.354561 
vn -0.8095 0.515477 0.281056 
vn -0.301701 0.483971 0.821431 
vn -0.301697 0.483968 -0.821434 
vn -0.8095 0.515476 -0.281059 
vn 0.3017 0.483968 -0.821433 
vn 0.906987 -0.227296 -0.354557 
vn 0.906984 -0.227298 0.354564 
vn 0.301695 0.483966 0.821436 
vn 0.809503 0.515474 -0.281055 
vn 0.809501 0.515475 0.281059 
vn -0.709762 0.704442 2.75579e-007 
vn -0.304267 0.861035 0.407482 
vn -0.304267 0.861034 -0.407483 
vn -0.46422 0.879045 0.108532 
vn -0.464222 0.879045 -0.108529 
vn 0.709767 0.704437 1.06564e-007 
vn -1.41236e-006 0.75079 0.660541 
vn -5.73536e-007 0.750789 -0.660542 
vn 0.304269 0.861034 -0.407482 
vn 0.304268 0.861034 0.407482 
vn -2.12162e-006 0.852346 0.522978 
vn -8.66658e-007 0.852345 -0.52298 
vn 0.464228 0.879042 0.108525 
vn 0.464227 0.879042 -0.108527 
vn -1.58314e-006 0.936272 0.351276 
vn -4.92363e-007 0.936272 -0.351275 
vn -2.55704e-007 1 2.81274e-008 
f 1/1/1 2/2/2 3/3/3 4/4/5 
f 4/5/6 3/6/4 5/7/7 
f 6/8/8 5/9/7 3/16/4 9/17/11 
f 4/11/6 5/10/7 7/18/9 10/19/13 
f 8/12/10 1/1/1 4/21/5 10/20/14 
f 9/13/12 3/14/3 2/15/2 
f 9/23/12 2/22/2 11/30/15 15/31/19 
f 12/25/16 6/24/8 9/33/11 15/32/20 
f 10/26/13 7/27/9 13/34/17 16/35/21 
f 14/28/18 8/29/10 10/36/14 16/37/21 
f 15/38/19 11/39/15 17/42/22 19/43/24 
f 18/40/23 12/41/16 15/44/20 19/45/24 
f 16/46/21 20/47/25 21/48/26 
f 11/50/15 2/49/2 1/1/1 8/51/10 
f 11/52/15 8/53/10 14/54/18 17/55/22 
f 7/57/9 5/56/7 6/58/8 12/59/16 
f 7/60/9 12/61/16 18/62/23 13/63/17 
f 16/64/21 13/65/17 20/66/25 
f 16/67/21 21/68/26 14/69/18 
f 22/70/27 20/71/25 13/73/17 23/72/28 
f 24/74/29 14/75/18 21/77/26 25/76/30 
f 26/78/31 17/79/22 14/81/18 24/80/29 
f 19/82/24 17/83/22 27/84/32 
f 19/85/24 28/86/33 18/87/23 
f 25/88/30 21/89/26 20/91/25 22/90/27 
f 19/92/24 27/93/32 28/94/33 
f 23/95/28 13/96/17 18/98/23 29/97/34 
f 30/99/35 27/100/32 17/102/22 26/101/31 
f 29/103/34 18/104/23 28/106/33 31/105/36 
f 32/107/37 25/108/30 22/109/27 
f 31/110/36 28/111/33 27/113/32 30/112/35 
f 23/114/28 33/115/38 22/116/27 
f 34/117/39 24/118/29 25/119/30 
f 35/120/40 22/121/27 33/122/38 
f 32/123/37 22/124/27 35/125/40 
f 36/126/41 34/127/39 25/128/30 
f 36/129/41 25/130/30 32/131/37 
f 37/132/42 31/133/36 30/134/35 
f 29/135/34 38/136/43 23/137/28 
f 39/138/44 26/139/31 24/140/29 
f 26/141/31 40/142/45 30/143/35 
f 41/144/46 29/145/34 31/146/36 
f 42/147/47 33/148/38 23/150/28 38/149/43 
f 34/151/39 43/152/48 39/154/44 24/153/29 
f 36/155/41 32/156/37 35/157/40 
f 44/158/49 31/159/36 37/160/42 
f 37/161/42 30/162/35 45/163/50 
f 43/164/48 40/165/45 26/167/31 39/166/44 
f 41/168/46 42/169/47 38/171/43 29/170/34 
f 46/172/51 33/173/38 42/174/47 
f 41/175/46 46/176/51 42/177/47 
f 34/178/39 47/179/52 43/180/48 
f 47/181/52 40/182/45 43/183/48 
f 45/184/50 30/185/35 40/186/45 
f 44/187/49 41/188/46 31/189/36 
f 45/190/50 40/191/45 47/194/52 48/195/53 
f 46/192/51 41/193/46 44/199/49 48/198/53 
f 35/196/40 33/197/38 46/202/51 48/203/53 
f 36/201/41 48/200/53 47/204/52 34/205/39 
f 36/206/41 35/207/40 48/208/53 
f 45/209/50 44/210/49 37/211/42 
f 45/212/50 48/213/53 44/214/49 
